<?xml version="1.0" encoding="UTF-8"?>
<svg width="20px" height="15px" viewBox="0 0 20 15" version="1.1" xmlns="http://www.w3.org/2000/svg" xmlns:xlink="http://www.w3.org/1999/xlink">
    <!-- Generator: Sketch 50.2 (55047) - http://www.bohemiancoding.com/sketch -->
    <title>Combined shape 3548</title>
    <desc>Created with Sketch.</desc>
    <defs></defs>
    <g id="Page-1" stroke="none" stroke-width="1" fill="none" fill-rule="evenodd">
        <g id="yura_1280_main" transform="translate(-402.000000, -4138.000000)" fill="#DEDEDE">
            <path d="M403.584362,4139.8177 C403.008952,4139.36326 403.139324,4138.9904 403.872408,4138.9904 L412.000484,4138.9904 L420.12779,4138.9904 C420.86028,4138.9904 420.990564,4139.36326 420.414472,4139.8177 L413.212926,4145.5289 C412.886424,4145.78825 412.436414,4145.90284 411.999802,4145.88055 C411.562398,4145.90284 411.112476,4145.78762 410.785908,4145.5289 L403.584362,4139.8177 Z M420.933826,4141.32495 C421.518344,4140.88121 421.996338,4141.11937 421.996338,4141.85285 L421.996338,4151.66716 C421.996338,4152.40107 421.396464,4153.00157 420.663292,4153.00157 L411.999802,4153.00157 L403.336224,4153.00157 C402.60314,4153.00157 402.003178,4152.40107 402.003178,4151.66716 L402.003178,4141.85285 C402.003178,4141.11937 402.481172,4140.88121 403.065778,4141.32495 L410.935838,4147.30666 C411.230154,4147.52766 411.615616,4147.6358 412.000484,4147.63089 C412.384494,4147.6358 412.770044,4147.52766 413.064448,4147.30666 L420.933826,4141.32495 Z" id="Combined-shape-3548"></path>
        </g>
    </g>
</svg>