<?xml version="1.0" encoding="UTF-8"?>
<svg width="40px" height="48px" viewBox="0 0 40 48" version="1.1" xmlns="http://www.w3.org/2000/svg" xmlns:xlink="http://www.w3.org/1999/xlink">
    <!-- Generator: Sketch 53.1 (72631) - https://sketchapp.com -->
    <title>download</title>
    <desc>Created with Sketch.</desc>
    <g id="Page-1" stroke="none" stroke-width="1" fill="none" fill-rule="evenodd" opacity="0.600000024">
        <g id="BORK_GIFT_Desktop" transform="translate(-1204.000000, -1861.000000)" fill="#FFFFFF">
            <g id="download" transform="translate(1204.000000, 1861.000000)">
                <path d="M40,23.4146341 L37.5294118,23.4146341 C37.5294118,20.8390244 36.9411765,18.2634146 35.7647059,16.0390244 C35.6470588,15.804878 35.2941176,15.6878049 34.9411765,15.804878 C34.7058824,15.9219512 34.5882353,16.2731707 34.7058824,16.6243902 C35.7647059,18.7317073 36.2352941,21.0731707 36.2352941,23.5317073 L3.29411765,23.5317073 C3.29411765,14.5170732 10.7058824,7.14146341 19.8823529,7.14146341 C22.8235294,7.14146341 25.6470588,7.96097561 28.2352941,9.48292683 C28.4705882,9.6 28.8235294,9.6 29.0588235,9.24878049 C29.1764706,9.01463415 29.1764706,8.66341463 28.8235294,8.42926829 C26.7058824,7.14146341 24.4705882,6.32195122 22.1176471,6.08780488 C23.0588235,5.38536585 23.4117647,4.44878049 23.4117647,3.51219512 C23.4117647,1.52195122 21.8823529,0 19.8823529,0 C17.8823529,0 16.3529412,1.52195122 16.3529412,3.51219512 C16.3529412,4.56585366 16.8235294,5.38536585 17.4117647,6.08780488 C8.82352941,7.25853659 2.23529412,14.6341463 2.23529412,23.4146341 L0,23.4146341 L2.35294118,29.2682927 L6.70588235,29.2682927 C7.64705882,30.4390244 9.52941176,33.0146341 9.52941176,34.4195122 C9.52941176,36.2926829 9.05882353,38.0487805 8.11764706,39.102439 C7.41176471,39.9219512 5.05882353,41.0926829 4.11764706,41.3268293 C4,41.4439024 3.88235294,41.5609756 3.76470588,41.6780488 C3.64705882,41.795122 3.76470588,42.0292683 3.76470588,42.1463415 L7.05882353,47.7658537 C7.17647059,48 7.41176471,48 7.52941176,48 C7.64705882,48 7.64705882,48 7.76470588,48 C7.88235294,47.8829268 11.8823529,46.1268293 15.1764706,43.6682927 C15.8823529,43.2 16.4705882,42.7317073 16.9411765,42.3804878 C18.9411765,40.9756098 20.1176471,40.1560976 22.8235294,37.5804878 C26.1176471,34.4195122 27.5294118,33.2487805 29.4117647,32.0780488 C30.3529412,31.4926829 31.0588235,31.1414634 31.5294118,31.0243902 C32,30.9073171 32.2352941,30.7902439 32.4705882,30.4390244 C32.7058824,30.204878 32.7058824,29.7365854 32.8235294,29.3853659 L37.4117647,29.3853659 L40,23.4146341 Z M19.8823529,1.17073171 C21.1764706,1.17073171 22.2352941,2.22439024 22.2352941,3.51219512 C22.2352941,4.8 21.1764706,5.85365854 19.8823529,5.85365854 C18.5882353,5.85365854 17.5294118,4.8 17.5294118,3.51219512 C17.5294118,2.22439024 18.5882353,1.17073171 19.8823529,1.17073171 Z M31.7647059,29.6195122 C31.7647059,29.6195122 31.5294118,29.7365854 31.2941176,29.8536585 C30.8235294,30.0878049 30,30.3219512 28.9411765,31.0243902 C26.9411765,32.195122 25.5294118,33.4829268 22.1176471,36.7609756 C19.4117647,39.3365854 18.4705882,40.0390244 16.3529412,41.4439024 C15.7647059,41.795122 15.1764706,42.2634146 14.4705882,42.7317073 C11.8823529,44.604878 8.94117647,46.2439024 7.76470588,46.7121951 L5.17647059,42.1463415 C6.23529412,41.6780488 8.23529412,40.7414634 9.05882353,39.804878 C10.1176471,38.5170732 10.7058824,36.5268293 10.7058824,34.4195122 C10.7058824,32.897561 9.17647059,30.5560976 8.11764706,29.2682927 L10.1176471,29.2682927 C13.1764706,33.1317073 15.7647059,35.1219512 17.5294118,35.1219512 C18.5882353,35.1219512 20.2352941,34.1853659 23.1764706,32.4292683 C24.9411765,31.3756098 27.0588235,30.0878049 28.8235294,29.2682927 L31.6470588,29.2682927 C31.7647059,29.3853659 31.7647059,29.6195122 31.7647059,29.6195122 Z M11.6470588,29.2682927 L26.3529412,29.2682927 C25.0588235,29.9707317 23.7647059,30.6731707 22.5882353,31.3756098 C20.5882353,32.6634146 18.3529412,33.9512195 17.6470588,33.9512195 C16.8235294,33.9512195 15.0588235,33.3658537 11.6470588,29.2682927 Z M3.05882353,28.097561 L1.64705882,24.5853659 L38.2352941,24.5853659 L36.8235294,28.097561 L3.05882353,28.097561 Z" id="Shape" fill-rule="nonzero"></path>
                <path d="M13.9644594,10.0491544 C10.9147593,11.5918558 8.3342438,14.2025812 7.04398606,17.1693146 C6.9266899,17.5253227 7.04398606,17.7626613 7.39587454,18 C7.51317069,18 7.51317069,18 7.63046685,18 C7.86505917,18 8.09965149,17.8813307 8.21694764,17.643992 C9.38990923,14.7959279 11.7358324,12.4225412 14.6682364,10.9985091 C14.9028287,10.8798398 15.137421,10.5238318 14.9028287,10.1678238 C14.5509402,10.0491544 14.1990517,9.93048511 13.9644594,10.0491544 Z" id="Path"></path>
                <path d="M27,11.5238095 L27,12.4761905 C27,12.8333333 27.2380952,13.0714286 27.5952381,13.0714286 C29.3809524,13.0714286 30.9285714,14.6190476 30.9285714,16.4047619 C30.9285714,16.7619048 31.1666667,17 31.5238095,17 L32.4761905,17 C32.8333333,17 33.0714286,16.7619048 33.0714286,16.4047619 C33.0714286,14.6190476 34.6190476,13.0714286 36.4047619,13.0714286 C36.7619048,13.0714286 37,12.8333333 37,12.4761905 L37,11.5238095 C37,11.1666667 36.7619048,10.9285714 36.4047619,10.9285714 C34.6190476,10.9285714 33.0714286,9.38095238 33.0714286,7.5952381 C33.0714286,7.23809524 32.8333333,7 32.4761905,7 L31.5238095,7 C31.1666667,7 30.9285714,7.23809524 30.9285714,7.5952381 C30.9285714,9.38095238 29.3809524,10.9285714 27.5952381,10.9285714 C27.2380952,10.9285714 27,11.1666667 27,11.5238095 Z M32,8.66666667 C32.3571429,10.3333333 33.7857143,11.6428571 35.3333333,12 C33.6666667,12.3571429 32.3571429,13.7857143 32,15.3333333 C31.6428571,13.6666667 30.2142857,12.3571429 28.6666667,12 C30.2142857,11.6428571 31.6428571,10.2142857 32,8.66666667 Z" id="Shape" fill-rule="nonzero"></path>
            </g>
        </g>
    </g>
</svg>