<?xml version="1.0" encoding="UTF-8"?>
<svg width="36px" height="48px" viewBox="0 0 36 48" version="1.1" xmlns="http://www.w3.org/2000/svg" xmlns:xlink="http://www.w3.org/1999/xlink">
    <!-- Generator: Sketch 53.1 (72631) - https://sketchapp.com -->
    <title>download</title>
    <desc>Created with Sketch.</desc>
    <g id="Page-1" stroke="none" stroke-width="1" fill="none" fill-rule="evenodd" opacity="0.600000024">
        <g id="BORK_GIFT_Desktop" transform="translate(-942.000000, -1861.000000)" fill="#FFFFFF">
            <g id="download" transform="translate(942.000000, 1861.000000)">
                <path d="M36,18.7139241 C36,18.4708861 35.8779661,18.3493671 35.7559322,18.2278481 L31.240678,14.8253165 L34.6576271,9.47848101 C34.779661,9.23544304 34.779661,8.99240506 34.6576271,8.87088608 C34.5355932,8.6278481 34.2915254,8.6278481 34.0474576,8.6278481 L28.0677966,9.47848101 L28.4338983,3.15949367 C28.4338983,2.9164557 28.4338983,2.67341772 28.1898305,2.55189873 C27.9457627,2.43037975 27.7016949,2.43037975 27.579661,2.55189873 L22.2101695,5.83291139 L18.7932203,0.243037975 C18.6711864,0 18.4271186,0 18.3050847,0 C18.3050847,0 18.3050847,0 18.3050847,0 C18.0610169,0 17.9389831,0.121518987 17.8169492,0.243037975 L14.5220339,5.83291139 L9.15254237,2.55189873 C8.90847458,2.43037975 8.66440678,2.43037975 8.54237288,2.55189873 C8.29830508,2.67341772 8.29830508,2.9164557 8.29830508,3.15949367 L9.15254237,9.23544304 L2.44067797,8.6278481 C2.19661017,8.6278481 1.95254237,8.74936709 1.83050847,8.87088608 C1.70847458,9.11392405 1.70847458,9.35696203 1.83050847,9.47848101 L5.36949153,14.9468354 L0.244067797,18.1063291 C0.122033898,18.2278481 0,18.3493671 0,18.5924051 C0,18.835443 0.122033898,18.956962 0.244067797,19.078481 L5.24745763,22.4810127 L2.07457627,27.2202532 C1.95254237,27.4632911 1.95254237,27.7063291 2.07457627,27.8278481 C1.95254237,28.0708861 2.19661017,28.1924051 2.44067797,28.1924051 L7.2,28.1924051 L1.22033898,43.3822785 C1.09830508,43.6253165 1.22033898,43.8683544 1.34237288,43.9898734 C1.46440678,44.1113924 1.83050847,44.2329114 1.95254237,44.1113924 L9.88474576,40.5873418 L11.5932203,47.3924051 C11.7152542,47.635443 11.8372881,47.878481 12.0813559,47.878481 C12.0813559,47.878481 12.0813559,47.878481 12.0813559,47.878481 C12.3254237,47.878481 12.5694915,47.756962 12.6915254,47.5139241 L17.4508475,36.6987342 L17.8169492,37.3063291 C17.9389831,37.4278481 18.1830508,37.5493671 18.3050847,37.5493671 C18.3050847,37.5493671 18.3050847,37.5493671 18.3050847,37.5493671 C18.5491525,37.5493671 18.6711864,37.4278481 18.7932203,37.3063291 L19.0372881,36.9417722 L23.6745763,47.635443 C23.7966102,47.878481 24.040678,48 24.2847458,48 C24.2847458,48 24.2847458,48 24.2847458,48 C24.5288136,48 24.7728814,47.756962 24.7728814,47.5139241 L26.4813559,40.7088608 L34.4135593,44.2329114 C34.6576271,44.3544304 34.9016949,44.2329114 35.0237288,44.1113924 C35.1457627,43.9898734 35.2677966,43.6253165 35.1457627,43.5037975 L29.1661017,28.435443 L33.559322,28.556962 C33.8033898,28.556962 33.9254237,28.435443 34.0474576,28.3139241 C34.1694915,28.0708861 34.1694915,27.9493671 34.0474576,27.7063291 L31.3627119,22.6025316 L35.5118644,19.321519 C35.8779661,19.078481 36,18.835443 36,18.7139241 Z M16.5966102,35.4835443 L12.3254237,45.4481013 L10.9830508,39.6151899 C10.9830508,39.4936709 10.8610169,39.2506329 10.6169492,39.2506329 C10.4949153,39.1291139 10.2508475,39.1291139 10.1288136,39.2506329 L2.80677966,42.4101266 L8.42033898,28.1924051 L8.66440678,28.1924051 L7.93220339,34.3898734 C7.93220339,34.6329114 8.05423729,34.8759494 8.17627119,34.9974684 C8.42033898,35.1189873 8.66440678,35.1189873 8.78644068,34.9974684 L14.2779661,31.9594937 L16.5966102,35.4835443 C16.5966102,35.4835443 16.5966102,35.4835443 16.5966102,35.4835443 Z M33.559322,42.4101266 L26.359322,39.2506329 C26.2372881,39.1291139 25.9932203,39.1291139 25.8711864,39.2506329 C25.7491525,39.3721519 25.6271186,39.4936709 25.5050847,39.6151899 L24.1627119,45.4481013 L19.8915254,35.6050633 L22.2101695,31.8379747 L26.4813559,34.9974684 C26.6033898,35.1189873 26.8474576,35.1189873 27.0915254,35.1189873 C27.3355932,35.1189873 27.4576271,34.8759494 27.4576271,34.6329114 L27.8237288,28.3139241 L27.9457627,28.3139241 L33.559322,42.4101266 Z M30.3864407,21.8734177 C30.1423729,22.1164557 30.1423729,22.3594937 30.2644068,22.6025316 L32.7050847,27.2202532 L27.2135593,26.9772152 C27.2135593,26.9772152 27.2135593,26.9772152 27.2135593,26.9772152 C26.8474576,26.9772152 26.6033898,27.2202532 26.6033898,27.5848101 L26.2372881,33.4177215 L22.3322034,30.5012658 C22.2101695,30.3797468 21.9661017,30.3797468 21.8440678,30.3797468 C21.7220339,30.3797468 21.4779661,30.5012658 21.4779661,30.6227848 L18.3050847,35.7265823 L15.1322034,30.7443038 C15.0101695,30.5012658 14.7661017,30.5012658 14.6440678,30.5012658 C14.5220339,30.5012658 14.4,30.5012658 14.4,30.6227848 L9.39661017,33.2962025 L10.0067797,27.5848101 C10.0067797,27.4632911 10.0067797,27.2202532 9.88474576,27.0987342 C9.76271186,26.9772152 9.64067797,26.8556962 9.39661017,26.8556962 L3.66101695,26.8556962 L6.58983051,22.6025316 C6.71186441,22.4810127 6.71186441,22.3594937 6.71186441,22.1164557 C6.71186441,21.9949367 6.58983051,21.8734177 6.46779661,21.7518987 L1.58644068,18.7139241 L6.46779661,15.6759494 C6.58983051,15.5544304 6.71186441,15.4329114 6.71186441,15.3113924 C6.71186441,15.1898734 6.71186441,14.9468354 6.58983051,14.8253165 L3.41694915,9.96455696 L9.64067797,10.4506329 C9.76271186,10.4506329 10.0067797,10.4506329 10.1288136,10.2075949 C10.2508475,10.0860759 10.3728814,9.84303797 10.2508475,9.72151899 L9.51864407,4.13164557 L14.2779661,7.04810127 C14.4,7.16962025 14.5220339,7.16962025 14.7661017,7.16962025 C14.8881356,7.16962025 15.0101695,7.04810127 15.1322034,6.92658228 L18.3050847,1.70126582 L21.4779661,6.92658228 C21.6,7.04810127 21.7220339,7.16962025 21.8440678,7.16962025 C21.9661017,7.16962025 22.2101695,7.16962025 22.3322034,7.04810127 L27.2135593,4.01012658 L26.8474576,9.84303797 C26.8474576,10.0860759 26.8474576,10.2075949 27.0915254,10.3291139 C27.3355932,10.4506329 27.4576271,10.5721519 27.579661,10.4506329 L32.9491525,9.72151899 L30.020339,14.4607595 C29.8983051,14.7037975 29.8983051,15.0683544 30.1423729,15.3113924 L34.4135593,18.5924051 L30.3864407,21.8734177 Z" id="Shape" fill-rule="nonzero"></path>
                <path d="M18.5,10 C13.7642857,10 10,13.8857143 10,18.5 C10,23.2357143 13.8857143,27 18.5,27 C23.2357143,27 27,23.1142857 27,18.5 C27,13.8857143 23.2357143,10 18.5,10 Z M18.5,25.9071429 C14.4928571,25.9071429 11.2142857,22.6285714 11.2142857,18.6214286 C11.2142857,14.6142857 14.4928571,11.3357143 18.5,11.3357143 C22.5071429,11.3357143 25.7857143,14.6142857 25.7857143,18.6214286 C25.7857143,22.6285714 22.5071429,25.9071429 18.5,25.9071429 Z" id="Shape" fill-rule="nonzero"></path>
                <path d="M22.6708861,15.1926606 L17.7341772,20.3302752 L15.0759494,17.5045872 C14.8227848,17.2477064 14.443038,17.2477064 14.1898734,17.5045872 C13.9367089,17.7614679 13.9367089,18.146789 14.1898734,18.4036697 L17.3544304,21.7431193 C17.4810127,21.8715596 17.6075949,22 17.8607595,22 C17.8607595,22 17.8607595,22 17.8607595,22 C17.9873418,22 18.2405063,21.8715596 18.3670886,21.7431193 L23.8101266,16.0917431 C24.0632911,15.8348624 24.0632911,15.4495413 23.8101266,15.1926606 C23.3037975,14.9357798 22.9240506,14.9357798 22.6708861,15.1926606 Z" id="Path"></path>
            </g>
        </g>
    </g>
</svg>