<?xml version="1.0" encoding="UTF-8"?>
<svg width="40px" height="40px" viewBox="0 0 40 40" version="1.1" xmlns="http://www.w3.org/2000/svg" xmlns:xlink="http://www.w3.org/1999/xlink">
    <!-- Generator: Sketch 53.1 (72631) - https://sketchapp.com -->
    <title>noun_Gift_912707 (1)</title>
    <desc>Created with Sketch.</desc>
    <g id="Page-1" stroke="none" stroke-width="1" fill="none" fill-rule="evenodd" opacity="0.5">
        <g id="BORK_GIFT_Desktop" transform="translate(-676.000000, -1865.000000)" fill="#FFFFFF" fill-rule="nonzero">
            <g id="noun_Gift_912707-(1)" transform="translate(676.000000, 1865.000000)">
                <path d="M38.7142857,9.54742857 L28.592,9.54742857 C30.7685714,8.82114286 33.1131429,7.69257143 33.1125714,6.196 C33.1125714,6.16971429 33.1108571,6.14342857 33.1074286,6.11771429 C33.1257143,5.98171429 33.0948571,5.84114286 33.0165714,5.724 C33.0057143,5.70742857 31.9234286,4.07085714 31.572,2.66457143 C31.5331429,2.50971429 31.5028571,2.36685714 31.4748571,2.23657143 C31.1188571,0.569714286 30.5531429,0.370857143 27.1508571,0.710285714 C23.5605714,1.06914286 21.8765714,5.74742857 21.4382857,7.19714286 C21.3931429,7.192 21.3497143,7.18342857 21.3034286,7.18342857 L18.7628571,7.18342857 C18.3188571,5.71885714 16.6331429,1.068 13.0542857,0.710285714 C9.65257143,0.370285714 9.08685714,0.569714286 8.73028571,2.23657143 C8.70228571,2.36742857 8.672,2.50971429 8.63314286,2.66457143 C8.28171429,4.07085714 7.19942857,5.70742857 7.18857143,5.724 C7.11028571,5.84114286 7.07942857,5.98171429 7.09771429,6.11771429 C7.09428571,6.14285714 7.09257143,6.16914286 7.09257143,6.196 C7.09257143,7.69314286 9.43714286,8.82171429 11.6131429,9.54742857 L1.14285714,9.54742857 C0.512571429,9.54742857 0,10.06 0,10.6902857 L0,15.8085714 C0,16.4388571 0.512571429,16.9514286 1.14285714,16.9514286 L3.75085714,16.9514286 L3.75085714,38.9942857 C3.75085714,39.3097143 4.00685714,39.5657143 4.32228571,39.5657143 L35.8828571,39.5657143 C36.1982857,39.5657143 36.4542857,39.3097143 36.4542857,38.9942857 L36.4542857,16.952 L38.7137143,16.952 C39.344,16.952 39.8565714,16.4394286 39.8565714,15.8091429 L39.8565714,10.6908571 C39.8571429,10.06 39.3445714,9.54742857 38.7142857,9.54742857 Z M31.124,7.15371429 C29.1028571,8.50857143 24.9708571,9.44685714 23.2274286,9.548 C23.2234286,9.548 23.2177143,9.54857143 23.2137143,9.54914286 C23.2142857,9.54914286 23.2148571,9.54857143 23.2154286,9.548 C24.7908571,8.53428571 28.6514286,7.45942857 31.548,6.82971429 C31.4285714,6.93542857 31.2862857,7.04457143 31.124,7.15371429 Z M26.3405714,15.8091429 C26.24,15.5268571 26.1348571,15.2462857 26.0222857,14.9691429 C25.3125714,13.2222857 23.8222857,11.8474286 22.5822857,10.9434286 C27.1491429,11.544 29.204,13.9651429 30.1182857,15.8097143 L26.3405714,15.8097143 L26.3405714,15.8091429 Z M30.5794286,16.952 C30.6828571,17.2754286 30.7497143,17.5502857 30.7857143,17.736 L27.6028571,20.7022857 C27.4405714,19.7925714 27.1514286,18.408 26.712,16.952 L30.5794286,16.952 Z M22.4291429,7.89371429 C22.4434286,7.83657143 23.8937143,2.18457143 27.2645714,1.84742857 C30.16,1.55828571 30.18,1.64457143 30.3571429,2.47542857 C30.3874286,2.61771429 30.4205714,2.77314286 30.4628571,2.94114286 C30.7102857,3.93028571 31.2445714,4.97371429 31.6291429,5.64342857 C29.5828571,6.07657143 24.5542857,7.25028571 22.4462857,8.70171429 L22.4462857,8.32628571 C22.4462857,8.20514286 22.4222857,8.09085714 22.3874286,7.98114286 C22.4005714,7.952 22.4211429,7.92685714 22.4291429,7.89371429 Z M24.9634286,15.3988571 C25.0182857,15.5337143 25.0702857,15.6714286 25.1217143,15.8085714 L15.084,15.8085714 C15.136,15.6714286 15.1874286,15.5337143 15.2422857,15.3988571 C16.2742857,12.8588571 19.3862857,11.1228571 19.9948571,10.8034286 L20.2108571,10.8034286 C20.8182857,11.1217143 23.9285714,12.852 24.9634286,15.3988571 Z M10.0874286,15.8091429 C11.0017143,13.9645714 13.0565714,11.544 17.6234286,10.9428571 C16.384,11.8474286 14.8931429,13.2222857 14.1834286,14.9685714 C14.0708571,15.2457143 13.9657143,15.5268571 13.8651429,15.8085714 L10.0874286,15.8085714 L10.0874286,15.8091429 Z M13.4937143,16.952 C13.0542857,18.408 12.7657143,19.7925714 12.6028571,20.7022857 L9.42,17.736 C9.456,17.5502857 9.52342857,17.2754286 9.62628571,16.952 L13.4937143,16.952 Z M18.7131429,9.54742857 L18.7131429,8.32628571 L21.3034286,8.32628571 L21.304,9.54742857 L21.304,9.66 L18.7125714,9.66 L18.7125714,9.54742857 L18.7131429,9.54742857 Z M9.74228571,2.94171429 C9.78457143,2.77314286 9.81771429,2.61828571 9.848,2.476 C10.0257143,1.64514286 10.0445714,1.55885714 12.9405714,1.848 C15.9942857,2.15371429 17.4771429,6.84114286 17.7348571,7.744 C17.6325714,7.91542857 17.5697143,8.11314286 17.5697143,8.32685714 L17.5697143,8.58114286 C15.3657143,7.18628571 10.5645714,6.06514286 8.576,5.644 C8.96057143,4.97428571 9.49542857,3.93085714 9.74228571,2.94171429 Z M9.08171429,7.15371429 C8.91942857,7.04514286 8.77714286,6.936 8.65771429,6.82971429 C11.552,7.45942857 15.4097143,8.53257143 16.9885714,9.548 C16.9891429,9.548 16.9897143,9.54857143 16.9897143,9.54857143 C16.9862857,9.54857143 16.9822857,9.548 16.9788571,9.548 C15.2371429,9.44685714 11.1034286,8.50857143 9.08171429,7.15371429 Z M1.14285714,15.8091429 L1.14285714,10.6908571 L14.1537143,10.6908571 C11.0794286,11.968 9.58057143,14.1714286 8.86857143,15.8091429 L4.32228571,15.8091429 L1.14285714,15.8091429 Z M16.5685714,38.4228571 L4.89371429,38.4228571 L4.89371429,16.952 L8.44914286,16.952 C8.28742857,17.5085714 8.24171429,17.8662857 8.24,17.8834286 C8.22,18.0628571 8.28628571,18.2411429 8.41828571,18.3645714 L12.608,22.2691429 C12.7154286,22.3691429 12.8554286,22.4228571 12.9977143,22.4228571 C13.0622857,22.4228571 13.128,22.4114286 13.1908571,22.3891429 C13.392,22.3171429 13.536,22.1382857 13.564,21.9262857 C13.568,21.8971429 13.8977143,19.46 14.6885714,16.9525714 L16.5685714,16.9525714 L16.5685714,38.4228571 L16.5685714,38.4228571 Z M22.4057143,38.4228571 L17.7114286,38.4228571 L17.7114286,16.952 L22.4057143,16.952 L22.4057143,38.4228571 Z M35.312,38.4228571 L23.5485714,38.4228571 L23.5485714,16.952 L25.5171429,16.952 C26.308,19.4594286 26.6377143,21.8965714 26.6417143,21.9257143 C26.6697143,22.1377143 26.8137143,22.3165714 27.0148571,22.3885714 C27.0777143,22.4114286 27.1434286,22.4222857 27.208,22.4222857 C27.3502857,22.4222857 27.4902857,22.3691429 27.5977143,22.2685714 L31.7874286,18.364 C31.9194286,18.2411429 31.9857143,18.0622857 31.9657143,17.8828571 C31.964,17.8657143 31.9182857,17.508 31.7565714,16.9514286 L35.312,16.9514286 L35.312,38.4228571 L35.312,38.4228571 Z M35.8834286,15.8091429 L31.3377143,15.8091429 C30.6257143,14.1714286 29.1268571,11.968 26.0525714,10.6908571 L38.7142857,10.6908571 L38.7148571,15.8091429 L35.8834286,15.8091429 Z" id="Shape"></path>
            </g>
        </g>
    </g>
</svg>