<?xml version="1.0" encoding="UTF-8"?>
<svg width="203px" height="130px" viewBox="0 0 203 130" version="1.1" xmlns="http://www.w3.org/2000/svg" xmlns:xlink="http://www.w3.org/1999/xlink">
    <!-- Generator: Sketch 50.2 (55047) - http://www.bohemiancoding.com/sketch -->
    <title>reddot-design-award-winner-2013-logo-vector</title>
    <desc>Created with Sketch.</desc>
    <defs></defs>
    <g id="Page-1" stroke="none" stroke-width="1" fill="none" fill-rule="evenodd">
        <g id="LauraStar-Landing-Desktop" transform="translate(-1291.000000, -252.000000)">
            <g id="Block-1" transform="translate(56.000000, 201.000000)">
                <g id="reddot-design-award-winner-2013-logo-vector" transform="translate(1235.000000, 51.000000)">
                    <path d="M1.2207636,95.2035928 L3.50644864,95.2035928 L3.50644864,97.6427146 L3.55839603,97.6427146 C3.89605405,96.6826347 4.9090281,94.9181637 7.29860791,94.9181637 L7.29860791,97.4091816 C5.22071242,97.4091816 3.50644864,98.4471058 3.50644864,102.183633 L3.50644864,107.321357 L1.2207636,107.321357 L1.2207636,95.2035928 Z" id="Shape" fill="#FFFFFF" fill-rule="nonzero"></path>
                    <path d="M15.8179794,98.8363273 C15.8179794,98.0838323 15.3504529,96.6826347 13.6102155,96.6826347 C11.7141358,96.6826347 11.194662,98.2914172 11.194662,98.8363273 L15.8179794,98.8363273 Z M17.8439275,107.191617 C16.8569272,107.42515 16.1296637,107.606786 14.8050054,107.606786 C11.1167409,107.606786 8.77910845,105.453094 8.77910845,100.678643 C8.77910845,95.489022 12.1816623,94.9181637 13.7400839,94.9181637 C16.701085,94.9181637 18.1296382,96.9421158 18.1296382,99.7964072 L18.1296382,100.393214 L11.0907672,100.393214 C11.0907672,102.650699 12.2336097,105.842315 15.5582425,105.842315 C16.5971902,105.842315 17.3244537,105.582834 17.8439275,105.401198 L17.8439275,107.191617 Z" id="Shape" fill="#FFFFFF" fill-rule="nonzero"></path>
                    <path d="M24.9866933,105.816367 C26.8567992,105.816367 27.6100363,103.247505 27.6100363,101.223553 C27.6100363,99.0958084 26.9866677,96.6826347 24.9607196,96.6826347 C23.1685347,96.6826347 22.5971135,98.7065868 22.5971135,101.249501 C22.5971135,103.091816 22.8308767,105.816367 24.9866933,105.816367 Z M27.6100363,105.479042 L27.558089,105.479042 C27.298352,106.153693 26.3113517,107.632735 24.1815088,107.632735 C21.2205077,107.632735 20.0257178,104.96008 20.0257178,101.483034 C20.0257178,97.4610778 21.5581657,94.9181637 24.3113772,94.9181637 C26.3373253,94.9181637 27.2723783,96.1636727 27.558089,96.8902196 L27.6100363,96.8902196 L27.6100363,89.754491 L29.8957214,89.754491 L29.8957214,107.347305 L27.6100363,107.347305 L27.6100363,105.479042 Z" id="Shape" fill="#FFFFFF" fill-rule="nonzero"></path>
                    <path d="M37.5060136,105.816367 C39.3761196,105.816367 40.1293567,103.247505 40.1293567,101.223553 C40.1293567,99.0958084 39.505988,96.6826347 37.4800399,96.6826347 C35.6878551,96.6826347 35.1164338,98.7065868 35.1164338,101.249501 C35.1164338,103.091816 35.3761707,105.816367 37.5060136,105.816367 Z M40.1293567,105.479042 L40.0774093,105.479042 C39.8176723,106.153693 38.830672,107.632735 36.7008291,107.632735 C33.739828,107.632735 32.5450381,104.96008 32.5450381,101.483034 C32.5450381,97.4610778 34.0774861,94.9181637 36.8306976,94.9181637 C38.8566457,94.9181637 39.7916987,96.1636727 40.0774093,96.8902196 L40.1293567,96.8902196 L40.1293567,89.754491 L42.4150417,89.754491 L42.4150417,107.347305 L40.1293567,107.347305 L40.1293567,105.479042 Z" id="Shape" fill="#E50012" fill-rule="nonzero"></path>
                    <path d="M50.6227289,105.816367 C53.0902298,105.816367 53.4278878,103.195609 53.4278878,101.249501 C53.4278878,99.2774451 53.0902298,96.6826347 50.6227289,96.6826347 C48.1032806,96.6826347 47.7915963,99.2774451 47.7915963,101.249501 C47.7915963,103.195609 48.1032806,105.816367 50.6227289,105.816367 M45.2461743,101.275449 C45.2461743,97.4091816 46.9604381,94.9181637 50.6227289,94.9181637 C54.259046,94.9181637 55.9733098,97.3832335 55.9733098,101.275449 C55.9733098,105.08982 54.259046,107.632735 50.6227289,107.632735 C46.9344644,107.606786 45.2461743,105.08982 45.2461743,101.275449" id="Shape" fill="#E50012" fill-rule="nonzero"></path>
                    <path d="M65.2459184,107.42515 C64.6485235,107.55489 64.0511285,107.606786 63.4277599,107.606786 C60.4927325,107.606786 59.7914428,106.309381 59.7914428,104.648703 L59.7914428,96.9680639 L57.6096525,96.9680639 L57.6096525,95.1776447 L59.7914428,95.1776447 L59.7914428,92.3233533 L62.0771278,90.8962076 L62.0771278,95.1776447 L65.453708,95.1776447 L65.453708,96.9680639 L62.0771278,96.9680639 L62.0771278,103.45509 C62.0771278,104.54491 62.23297,105.816367 64.0251548,105.816367 C64.4407339,105.816367 64.9082604,105.738523 65.2459184,105.634731 L65.2459184,107.42515 Z" id="Shape" fill="#E50012" fill-rule="nonzero"></path>
                    <path d="M77.7132914,105.816367 C79.5833973,105.816367 80.3366344,103.247505 80.3366344,101.223553 C80.3366344,99.0958084 79.7132658,96.6826347 77.6873177,96.6826347 C75.8951328,96.6826347 75.3237116,98.7065868 75.3237116,101.249501 C75.3237116,103.091816 75.5834485,105.816367 77.7132914,105.816367 Z M80.3366344,105.479042 L80.284687,105.479042 C80.0249501,106.153693 79.0379497,107.632735 76.9081069,107.632735 C73.9471058,107.632735 72.7523159,104.96008 72.7523159,101.483034 C72.7523159,97.4610778 74.2847638,94.9181637 77.0379753,94.9181637 C79.0639234,94.9181637 79.9989764,96.1636727 80.284687,96.8902196 L80.3366344,96.8902196 L80.3366344,89.754491 L82.6223195,89.754491 L82.6223195,107.347305 L80.3366344,107.347305 L80.3366344,105.479042 Z" id="Shape" fill="#FFFFFF" fill-rule="nonzero"></path>
                    <path d="M92.6221915,98.8363273 C92.6221915,98.0838323 92.154665,96.6826347 90.4144276,96.6826347 C88.5183479,96.6826347 87.998874,98.2914172 87.998874,98.8363273 L92.6221915,98.8363273 Z M94.6221659,107.191617 C93.6351656,107.42515 92.9079021,107.606786 91.5832438,107.606786 C87.8949793,107.606786 85.5573468,105.453094 85.5573468,100.678643 C85.5573468,95.489022 88.9599007,94.9181637 90.5183223,94.9181637 C93.4793234,94.9181637 94.9078766,96.9421158 94.9078766,99.7964072 L94.9078766,100.393214 L87.8690056,100.393214 C87.8690056,102.650699 89.0118481,105.842315 92.3364809,105.842315 C93.3754286,105.842315 94.1026921,105.582834 94.6221659,105.401198 L94.6221659,107.191617 Z" id="Shape" fill="#FFFFFF" fill-rule="nonzero"></path>
                    <path d="M101.790905,100.341317 C103.063616,101.145709 104.596064,101.924152 104.596064,103.948104 C104.596064,106.491018 102.751932,107.606786 100.024694,107.606786 C98.3623778,107.606786 97.2974564,107.269461 96.7520088,107.113772 L96.7520088,105.08982 C96.985772,105.193613 98.5441937,105.790419 99.8169047,105.790419 C100.9078,105.790419 102.284406,105.479042 102.284406,104.233533 C102.284406,103.325349 101.167537,102.806387 100.336379,102.261477 L99.1675623,101.560878 C98.0766672,100.860279 96.7520088,100.055888 96.7520088,98.2654691 C96.7520088,96.0598802 98.5441937,94.8662675 101.063642,94.8662675 C102.284406,94.8662675 103.245432,95.2035928 103.816853,95.3073852 L103.816853,97.3832335 C103.479195,97.2275449 102.362327,96.6566866 101.037668,96.6566866 C100.050668,96.6566866 99.0376938,97.2015968 99.0376938,97.9540918 C99.0376938,98.7844311 99.9987205,99.251497 100.803905,99.744511 L101.790905,100.341317 Z" id="Shape" fill="#FFFFFF" fill-rule="nonzero"></path>
                    <path d="M107.193434,95.2035928 L109.479119,95.2035928 L109.479119,107.347305 L107.193434,107.347305 L107.193434,95.2035928 Z M106.985644,89.754491 L109.738856,89.754491 L109.738856,92.3493014 L106.985644,92.3493014 L106.985644,89.754491 Z" id="Shape" fill="#FFFFFF" fill-rule="nonzero"></path>
                    <path d="M117.50499,105.556886 C119.478991,105.556886 120.18028,102.936128 120.18028,100.99002 C120.18028,99.1477046 119.530938,96.7085828 117.530964,96.7085828 C115.505016,96.7085828 115.167358,99.3812375 115.167358,101.223553 C115.167358,102.806387 115.479042,105.556886 117.50499,105.556886 Z M122.491939,107.814371 C122.491939,111.343313 120.491965,112.796407 116.881621,112.796407 C114.985542,112.796407 113.686857,112.48503 113.167383,112.355289 L113.167383,110.045908 C113.894647,110.409182 115.193331,111.005988 116.673832,111.005988 C120.232228,111.005988 120.232228,108.540918 120.232228,107.165669 L120.232228,105.271457 L120.18028,105.271457 C119.946517,105.946108 118.933543,107.347305 116.829674,107.347305 C113.63491,107.347305 112.647909,104.389222 112.647909,101.275449 C112.647909,97.8243513 113.894647,94.9181637 116.985516,94.9181637 C118.933543,94.9181637 119.920544,96.241517 120.18028,96.8902196 L120.232228,96.8902196 L120.232228,95.2035928 L122.517913,95.2035928 L122.517913,107.814371 L122.491939,107.814371 Z" id="Shape" fill="#FFFFFF" fill-rule="nonzero"></path>
                    <path d="M126.050335,95.2035928 L128.33602,95.2035928 L128.33602,97.7984032 L128.387968,97.7984032 C128.803547,96.7864271 129.764573,94.9181637 132.232074,94.9181637 C135.037233,94.9181637 135.50476,97.4091816 135.50476,98.9141717 L135.50476,107.321357 L133.219075,107.321357 L133.219075,100.704591 C133.219075,98.4730539 133.219075,97.2015968 131.556758,97.2015968 C129.660679,97.2015968 128.33602,99.744511 128.33602,102.157685 L128.33602,107.295409 L126.050335,107.295409 L126.050335,95.2035928 Z" id="Shape" fill="#FFFFFF" fill-rule="nonzero"></path>
                    <path d="M150.621449,101.898204 C148.803291,101.898204 146.985132,102.702595 146.985132,104.259481 C146.985132,105.193613 147.634475,105.816367 148.309791,105.816367 C149.894186,105.816367 151.063002,104 151.063002,102.572854 L151.063002,101.898204 L150.621449,101.898204 Z M151.088976,105.816367 L151.037029,105.816367 C150.725344,106.491018 149.764318,107.606786 147.894212,107.606786 C145.6345,107.606786 144.43971,106.231537 144.43971,104.337325 C144.43971,101.11976 147.972133,100.367265 151.063002,100.367265 L151.063002,98.239521 C150.855213,97.0718563 150.076002,96.6826347 149.192896,96.6826347 C147.81629,96.6826347 147.244869,97.5648703 147.244869,98.5508982 L144.829316,98.5508982 C144.829316,96.6047904 145.972158,94.9181637 149.374712,94.9181637 C153.348687,94.9181637 153.348687,97.9021956 153.348687,98.992016 L153.348687,107.321357 L151.063002,107.321357 L151.063002,105.816367 L151.088976,105.816367 Z" id="Shape" fill="#FFFFFF" fill-rule="nonzero"></path>
                    <polygon id="Shape" fill="#FFFFFF" fill-rule="nonzero" points="155.816188 95.2035928 158.049926 95.2035928 159.971979 104 160.023927 104 162.673243 95.2035928 164.413481 95.2035928 167.062797 104 167.114745 104 169.010825 95.2035928 171.244562 95.2035928 168.517324 107.321357 166.075797 107.321357 163.556349 98.9141717 163.504401 98.9141717 161.062874 107.321357 158.647321 107.321357"></polygon>
                    <path d="M179.166539,101.898204 C177.34838,101.898204 175.530222,102.702595 175.530222,104.259481 C175.530222,105.193613 176.179564,105.816367 176.85488,105.816367 C178.439275,105.816367 179.608092,104 179.608092,102.572854 L179.608092,101.898204 L179.166539,101.898204 Z M179.634065,105.816367 L179.582118,105.816367 C179.270433,106.491018 178.309407,107.606786 176.439301,107.606786 C174.17959,107.606786 172.9848,106.231537 172.9848,104.337325 C172.9848,101.11976 176.543196,100.367265 179.608092,100.367265 L179.608092,98.239521 C179.400302,97.0718563 178.621091,96.6826347 177.737986,96.6826347 C176.36138,96.6826347 175.789959,97.5648703 175.789959,98.5508982 L173.374405,98.5508982 C173.374405,96.6047904 174.517248,94.9181637 177.919801,94.9181637 C181.893777,94.9181637 181.893777,97.9021956 181.893777,98.992016 L181.893777,107.321357 L179.608092,107.321357 L179.608092,105.816367 L179.634065,105.816367 Z" id="Shape" fill="#FFFFFF" fill-rule="nonzero"></path>
                    <path d="M185.270357,95.2035928 L187.556042,95.2035928 L187.556042,97.6427146 L187.607989,97.6427146 C187.945647,96.6826347 188.958621,94.9181637 191.374175,94.9181637 L191.374175,97.4091816 C189.296279,97.4091816 187.582015,98.4471058 187.582015,102.183633 L187.582015,107.321357 L185.29633,107.321357 L185.29633,95.2035928 L185.270357,95.2035928 Z" id="Shape" fill="#FFFFFF" fill-rule="nonzero"></path>
                    <path d="M197.296177,105.816367 C199.166283,105.816367 199.91952,103.247505 199.91952,101.223553 C199.91952,99.0958084 199.296151,96.6826347 197.270203,96.6826347 C195.478018,96.6826347 194.906597,98.7065868 194.906597,101.249501 C194.906597,103.091816 195.166334,105.816367 197.296177,105.816367 Z M199.945494,105.479042 L199.893546,105.479042 C199.633809,106.153693 198.646809,107.632735 196.516966,107.632735 C193.555965,107.632735 192.361175,104.96008 192.361175,101.483034 C192.361175,97.4610778 193.893623,94.9181637 196.646835,94.9181637 C198.672783,94.9181637 199.607836,96.1636727 199.893546,96.8902196 L199.945494,96.8902196 L199.945494,89.754491 L202.231179,89.754491 L202.231179,107.347305 L199.945494,107.347305 L199.945494,105.479042 Z" id="Shape" fill="#FFFFFF" fill-rule="nonzero"></path>
                    <polygon id="Shape" fill="#FFFFFF" fill-rule="nonzero" points="0.207789549 119.698603 2.0519218 119.698603 3.63631711 126.99002 3.6882645 126.99002 5.87005476 119.698603 7.32458161 119.698603 9.53234557 126.99002 9.55831926 126.99002 11.1427146 119.698603 12.9868468 119.698603 10.7271355 129.766467 8.72716106 129.766467 6.62329188 122.786427 6.57134449 122.786427 4.54539639 129.766467 2.54542198 129.766467"></polygon>
                    <path d="M16.025769,129.766467 L17.9218486,129.766467 L17.9218486,119.698603 L16.025769,119.698603 L16.025769,129.766467 Z M15.8439531,117.337325 L18.1296382,117.337325 L18.1296382,115.183633 L15.8439531,115.183633 L15.8439531,117.337325 Z" id="Shape" fill="#FFFFFF" fill-rule="nonzero"></path>
                    <path d="M21.7140079,119.698603 L23.6100875,119.698603 L23.6100875,121.852295 L23.6620349,121.852295 C23.9996929,121.021956 24.8048774,119.46507 26.8567992,119.46507 C29.1944316,119.46507 29.5580634,121.540918 29.5580634,122.786427 L29.5580634,129.766467 L27.6619837,129.766467 L27.6619837,124.265469 C27.6619837,122.397206 27.6619837,121.359281 26.285378,121.359281 C24.7269563,121.359281 23.6100875,123.461078 23.6100875,125.48503 L23.6100875,129.740519 L21.7140079,129.740519 L21.7140079,119.698603 Z" id="Shape" fill="#FFFFFF" fill-rule="nonzero"></path>
                    <path d="M33.1164594,119.698603 L35.012539,119.698603 L35.012539,121.852295 L35.0644864,121.852295 C35.4021444,121.021956 36.2073289,119.46507 38.2592507,119.46507 C40.5968832,119.46507 40.9605149,121.540918 40.9605149,122.786427 L40.9605149,129.766467 L39.0644352,129.766467 L39.0644352,124.265469 C39.0644352,122.397206 39.0644352,121.359281 37.6878295,121.359281 C36.1294079,121.359281 35.012539,123.461078 35.012539,125.48503 L35.012539,129.740519 L33.1164594,129.740519 L33.1164594,119.698603 Z" id="Shape" fill="#FFFFFF" fill-rule="nonzero"></path>
                    <path d="M49.6357285,122.734531 C49.6357285,122.111776 49.2461231,120.97006 47.7915963,120.97006 C46.2331747,120.97006 45.7916219,122.293413 45.7916219,122.734531 L49.6357285,122.734531 Z M51.2980449,129.662675 C50.4668867,129.844311 49.8694918,130 48.7785967,130 C45.7396745,130 43.7916475,128.209581 43.7916475,124.239521 C43.7916475,119.932136 46.5968064,119.46507 47.8954911,119.46507 C50.362992,119.46507 51.5318082,121.125749 51.5318082,123.512974 L51.5318082,124.005988 L45.7137008,124.005988 C45.7137008,125.874251 46.6747275,128.520958 49.427939,128.520958 C50.2850709,128.520958 50.8824658,128.313373 51.3240186,128.157685 L51.3240186,129.662675 L51.2980449,129.662675 Z" id="Shape" fill="#FFFFFF" fill-rule="nonzero"></path>
                    <path d="M54.3369671,119.698603 L56.2330467,119.698603 L56.2330467,121.722555 L56.2849941,121.722555 C56.5707047,120.918164 57.4018629,119.46507 59.4018374,119.46507 L59.4018374,121.540918 C57.6875736,121.540918 56.2590204,122.397206 56.2590204,125.48503 L56.2590204,129.740519 L54.3629408,129.740519 L54.3629408,119.698603 L54.3369671,119.698603 Z" id="Shape" fill="#FFFFFF" fill-rule="nonzero"></path>
                    <path d="M68.0251036,128.209581 C69.7913148,126.782435 74.440606,122.449102 74.440606,119.620758 C74.440606,118.479042 73.8172373,117.596806 72.3886842,117.596806 C70.960131,117.596806 70.3887098,118.50499 70.3887098,119.439122 L68.0510773,119.439122 C68.2069195,118.011976 69.012104,116.117764 72.4146579,116.117764 C74.7003429,116.117764 76.5704488,117.41517 76.5704488,119.776447 C76.5704488,123.538922 72.830237,126.315369 70.5705256,128.261477 L76.6743436,128.261477 L76.6743436,129.740519 L68.0510773,129.740519 L68.0510773,128.209581 L68.0251036,128.209581 Z" id="Shape" fill="#FFFFFF" fill-rule="nonzero"></path>
                    <path d="M84.0508726,128.520958 C86.5183735,128.520958 86.8560315,125.562874 86.8560315,123.071856 C86.8560315,120.606786 86.5183735,117.622754 84.0508726,117.622754 C81.6093454,117.622754 81.2716874,120.606786 81.2716874,123.071856 C81.2716874,125.562874 81.6093454,128.520958 84.0508726,128.520958 M79.1678182,123.071856 C79.1678182,119.542914 80.1548186,116.143713 84.0508726,116.143713 C87.9469267,116.143713 88.9858744,119.542914 88.9858744,123.071856 C88.9858744,126.600798 87.9469267,130 84.0508726,130 C80.1548186,130 79.1678182,126.600798 79.1678182,123.071856" id="Shape" fill="#FFFFFF" fill-rule="nonzero"></path>
                    <polygon id="Shape" fill="#FFFFFF" fill-rule="nonzero" points="93.8689288 118.271457 91.2196121 119.88024 91.2196121 118.037924 94.2065868 116.351297 95.9987717 116.351297 95.9987717 129.766467 93.8689288 129.766467"></polygon>
                    <path d="M102.866137,122.600032 C101.655506,121.716362 101.0502,120.739073 101.0502,119.668135 C101.0502,118.684979 101.3933,117.886177 102.07951,117.271704 C102.76572,116.657232 103.661127,116.35 104.765758,116.35 C105.786704,116.35 106.61377,116.610415 107.24698,117.131254 C107.88019,117.652093 108.196791,118.328002 108.196791,119.159003 C108.196791,120.417209 107.426908,121.564207 105.88712,122.600032 C107.756066,123.55978 108.690525,124.797484 108.690525,126.313183 C108.690525,127.401677 108.29861,128.28826 107.514768,128.972958 C106.730927,129.657656 105.719758,130 104.481233,130 C103.265023,130 102.281749,129.676675 101.531381,129.030016 C100.781014,128.383357 100.405835,127.533349 100.405835,126.479968 C100.405835,124.923304 101.225928,123.630005 102.866137,122.600032 Z M104.966599,122.055788 C106.12144,121.2599 106.698852,120.373317 106.698852,119.396013 C106.698852,118.875174 106.506381,118.455291 106.121434,118.13635 C105.736487,117.81741 105.228811,117.657942 104.59839,117.657942 C103.990285,117.657942 103.496556,117.814484 103.117188,118.127572 C102.73782,118.440661 102.548139,118.845914 102.548139,119.343344 C102.548139,119.82907 102.719689,120.263583 103.062794,120.646897 C103.405899,121.030211 104.040494,121.499836 104.966599,122.055788 Z M103.761553,123.302283 C103.097659,123.840678 102.647166,124.310303 102.410061,124.711174 C102.172956,125.112044 102.054405,125.610929 102.054405,126.207846 C102.054405,126.951065 102.283138,127.552361 102.740611,128.011752 C103.198085,128.471144 103.800602,128.700836 104.54818,128.700836 C105.267864,128.700836 105.855039,128.504793 106.309723,128.112701 C106.764406,127.720609 106.991745,127.211482 106.991745,126.585305 C106.991745,126.082023 106.850879,125.656288 106.569142,125.308087 C106.287405,124.959886 105.742072,124.53415 104.933125,124.030868 L103.761553,123.302283 Z" id="8" fill="#FFFFFF"></path>
                    <g id="Group" transform="translate(0.779211, 0.000000)" fill="#E50012" fill-rule="nonzero">
                        <path d="M34.7528021,4.38522954 C34.4411178,5.39720559 33.739828,6.51297405 32.7528277,7.60279441 C31.7398536,8.71856287 30.4151953,9.86027944 28.8827473,10.9241517 C27.3243257,12.0139721 25.5840882,13.0259481 23.7139823,13.9081836 C21.8438763,14.7904192 19.8698756,15.5429142 17.8699012,16.1137725 C15.8959005,16.6586826 14.1296893,16.9441118 12.5972414,17.0219561 C11.0907672,17.0738523 9.84402989,16.9181637 8.88300322,16.5548902 C7.94795025,16.1916168 7.32458161,15.6467066 7.06484467,14.8942116 C6.80510773,14.1676647 6.85705512,13.2854291 7.32458161,12.247505 C7.45445007,11.9361277 7.63626593,11.6247505 7.84405548,11.3133733 C8.05184503,11.001996 8.25963458,10.6646707 8.51937151,10.3532934 C8.77910845,10.0419162 9.06481908,9.70459082 9.35052971,9.39321357 C9.66221403,9.08183633 9.97389836,8.74451098 10.3375301,8.43313373 L11.272583,7.60279441 C12.6491888,6.48702595 14.1296893,5.4491018 15.6621373,4.54091816 L16.4932955,4.0738523 C16.4932955,4.0738523 14.8050054,5.37125749 13.9738472,6.40918164 C13.5063207,7.00598802 13.142689,7.499002 12.9089257,8.01796407 C12.7011362,8.51097804 12.6751625,8.95209581 12.8310047,9.28942116 C12.9868468,9.62674651 13.3245048,9.88622754 13.7920313,10.0419162 C14.2595578,10.1976048 14.9089001,10.2754491 15.6361636,10.2235529 C16.3894007,10.1716567 17.2465326,10.0159681 18.2075592,9.75648703 C19.1685859,9.47105788 20.1296126,9.10778443 21.0386918,8.66666667 C21.9477711,8.2255489 22.804903,7.73253493 23.5581401,7.21357285 C24.3113772,6.69461078 24.9607196,6.1497006 25.4801935,5.60479042 C25.9996673,5.05988024 26.363299,4.51497006 26.5451149,4.02195609 C26.7269308,3.52894212 26.7009571,3.11377246 26.4931675,2.77644711 C26.285378,2.46506986 25.9217463,2.23153693 25.4282461,2.0758483 C24.9347459,1.94610778 24.3113772,1.97205589 23.5841138,2.10179641 C22.8828241,2.23153693 22.0256922,2.30938124 21.1166129,2.56886228 C20.519218,2.750499 20.18156,2.88023952 19.6101387,3.13972056 C21.3503762,2.23153693 22.3893239,1.81636727 24.2854036,1.21956088 C25.5061672,0.830339321 26.3373253,0.622754491 27.4541942,0.415169661 C28.7528789,0.181636727 29.843774,0.20758483 30.8307743,0.285429142 C31.8177747,0.363273453 32.6749066,0.570858283 33.3242489,0.908183633 C33.9735913,1.24550898 34.4670915,1.68662675 34.7008547,2.25748503 C34.9605916,2.88023952 34.9865653,3.58083832 34.7528021,4.38522954" id="Shape"></path>
                        <path d="M59.1680741,47.8223553 C59.1680741,47.8223553 58.7265213,48.99002 58.3369159,49.6906188 C57.9732842,50.3393214 57.2719945,51.247505 57.2719945,51.247505 C57.2719945,51.247505 57.0382312,51.5588822 56.8823891,51.7664671 C56.4408363,52.3373253 55.7135729,53.1676647 55.7135729,53.1676647 L54.7525462,54.2315369 C53.7395721,55.2694611 52.5967296,56.255489 51.3499923,57.2155689 C50.0772813,58.1497006 48.7006756,59.0319361 47.2461487,59.8363273 C45.7916219,60.6407186 44.2332003,61.3413174 42.648805,61.9381238 C41.0644096,62.5349301 39.4280669,63.0279441 37.7657506,63.3652695 C37.4280925,63.4431138 37.1164082,63.49501 36.8047239,63.5469062 C36.4930396,63.5988024 36.1813552,63.6506986 35.8696709,63.7025948 C35.5579866,63.754491 35.2463023,63.7804391 34.9605916,63.8323353 C34.6489073,63.8582834 34.3631967,63.8842315 34.0774861,63.9101796 L32.2853012,63.988024 L31.8956958,63.988024 L29.9736425,63.9361277 L28.0256154,63.754491 C28.0256154,63.754491 27.6879574,63.7025948 27.4801679,63.6766467 C26.6749834,63.5728543 26.2074569,63.49501 25.4022724,63.3133733 C24.5711142,63.1576846 23.3243769,62.8203593 23.3243769,62.8203593 L22.2854291,62.4570858 L21.9997185,62.3273453 C22.7269819,62.6127745 23.7139823,62.8982036 24.6490353,63.0279441 C25.6100619,63.1836327 26.6490097,63.261477 27.7399048,63.261477 C28.8307999,63.2874251 29.9996162,63.2095808 31.1944061,63.1057884 C32.4151697,62.9760479 33.661907,62.7684631 34.9605916,62.508982 C37.9475664,61.8862275 40.9345412,60.8742515 43.7397001,59.6287425 C46.5708327,58.3832335 49.2201494,56.8782435 51.5837556,55.1916168 C53.9473617,53.5309381 55.9992835,51.6886228 57.6875736,49.7944112 C58.2589948,49.1457086 58.752495,48.5489022 59.2200215,47.8223553 C59.1940478,47.7704591 59.1680741,47.8223553 59.1680741,47.8223553" id="Shape"></path>
                        <path d="M41.9475152,1.81636727 L44.0513844,2.59481038 L46.1292799,3.55489022 L46.8565433,3.94411178 C47.4279646,4.25548902 47.9474385,4.61876248 48.3630176,5.00798403 C48.8045703,5.42315369 49.1422284,5.86427146 49.4019653,6.38323353 C49.6617022,6.90219561 49.8175444,7.47305389 49.8954655,8.06986028 C49.9733866,8.69261477 49.9214392,9.36726547 49.7915707,10.0678643 C49.4019653,11.9620758 48.3110702,14.011976 46.6227801,16.0618762 C44.9085163,18.1636727 42.5968576,20.2914172 39.843646,22.2894212 C37.0644608,24.3133733 33.8696965,26.2075848 30.4671426,27.8423154 C27.0386151,29.4770459 23.4282717,30.8263473 19.7919546,31.760479 C16.5452428,32.5908184 13.6102155,33.0319361 11.0388198,33.0838323 C8.51937151,33.1357285 6.38952864,32.8502994 4.70123855,32.2275449 C3.06489585,31.6307385 1.84413225,30.7225549 1.14284252,29.5808383 C0.467526485,28.4650699 0.259736936,27.0898204 0.57142126,25.506986 L0.727263422,24.8323353 L1.32465838,22.6007984 L2.07789549,20.4471058 L2.8571063,18.6307385 L3.55839603,17.1516966 L3.42852756,17.4371257 C3.45450125,17.3852295 3.40255387,17.489022 3.40255387,17.489022 C2.72723783,18.9680639 2.59736936,20.2654691 2.93502738,21.3293413 C3.29865909,22.4191617 4.15579098,23.3013972 5.45447566,23.8722555 C6.77913404,24.4690619 8.5713189,24.754491 10.7271355,24.7285429 C12.9089257,24.7025948 15.4803214,24.3133733 18.3634014,23.5349301 C21.2464814,22.756487 24.1295614,21.6666667 26.8567992,20.3692615 C29.5840371,19.0718563 32.129459,17.5668663 34.3631967,15.9840319 C36.5709606,14.4011976 38.4670403,12.740519 39.8696197,11.0798403 C41.2721992,9.44510978 42.2072522,7.83632735 42.5968576,6.35728543 C42.7786734,5.60479042 42.8046471,4.90419162 42.7007523,4.28143713 C42.5708839,3.65868263 42.3111469,3.11377246 41.9215415,2.64670659 C41.5319361,2.17964072 41.0124623,1.79041916 40.3890936,1.47904192 C39.9735145,1.27145709 39.505988,1.08982036 38.9865142,0.934131737 L38.2073033,0.726546906 C38.5449614,0.778443114 38.7267772,0.804391218 38.9865142,0.882235529 C38.9865142,0.882235529 39.7397513,1.06387226 40.2332514,1.19361277 C40.9085675,1.45309381 41.9475152,1.81636727 41.9475152,1.81636727" id="Shape"></path>
                        <path d="M55.9213624,11.1836327 L57.479784,13.1556886 L58.9083372,15.257485 L59.5317058,16.3213573 C59.7135217,16.6586826 59.8953375,16.996008 59.9992323,17.3852295 C60.1291008,17.748503 60.2329955,18.1377246 60.3109166,18.5269461 C60.3888377,18.9161677 60.4148114,19.3572854 60.4407851,19.7724551 C60.4407851,20.2135729 60.4148114,20.6546906 60.362864,21.1217565 C60.0511797,23.5349301 58.8563898,26.1037924 56.9343365,28.7245509 C54.9603357,31.3712575 52.2590716,34.0439122 49.0123599,36.5349301 C45.7137008,39.0518962 41.8955678,41.3872255 37.7917242,43.3592814 C33.661907,45.3313373 29.2723527,46.9141717 24.8827985,47.9520958 C21.7399816,48.6786427 18.8309279,49.0938124 16.2075848,49.1976048 C13.6102155,49.3013972 11.2985567,49.0938124 9.32455602,48.6267465 C7.37652899,48.1596806 5.76615999,47.4590818 4.51942269,46.5249501 C3.29865909,45.6167665 2.41555351,44.4750499 1.92205333,43.1776447 L1.42855315,41.750499 L0.753237116,39.3113772 L0.28571063,36.8463074 L0.181815855,36.1457086 L0.0519473873,34.7704591 C0.0259736936,34.6407186 0.0519473873,34.7704591 0.0519473873,34.7704591 C0.233763243,36.0938124 0.779210809,37.2355289 1.68829009,38.1956088 C2.70126414,39.2854291 4.18176468,40.1157685 6.05187062,40.6606786 C7.94795025,41.2315369 10.259609,41.491018 12.9089257,41.3872255 C15.6101899,41.3093812 18.649112,40.8682635 21.9477711,40.0638723 C26.1035621,39.0518962 30.2333794,37.5209581 34.1294334,35.6786427 C38.0254875,33.8103792 41.6618046,31.6307385 44.7786478,29.2954092 C47.8695174,26.9600798 50.4668867,24.49501 52.3629664,22.0558882 C54.2330723,19.6427146 55.4018885,17.2814371 55.7655202,15.0758483 C55.869415,14.4530938 55.8953887,13.8822355 55.869415,13.3113772 C55.8434413,12.7664671 55.7395465,12.247505 55.5837044,11.754491 C55.4278622,11.261477 55.2200727,10.8203593 54.934362,10.3792415 C54.7785199,10.1197605 54.5707303,9.88622754 54.3629408,9.62674651 L55.6616255,11.001996 L55.9213624,11.1836327 Z" id="Shape"></path>
                        <path d="M63.6095757,29.502994 C63.7913916,31.500998 63.8693127,32.6427146 63.5316546,34.6147705 C63.0381545,37.6506986 62.23297,39.4411178 60.5446799,41.9321357 C58.8044424,44.4491018 56.3888889,46.9660679 53.4798352,49.2754491 C50.5448078,51.6107784 47.1162803,53.7644711 43.3760684,55.5289421 C39.6618302,57.3193613 35.6878551,58.7205589 31.6879062,59.5768463 C29.6100107,60.0179641 27.63601,60.3033932 25.7918778,60.4331337 C23.9477455,60.5628743 22.2334818,60.5369261 20.6750601,60.3812375 C19.1166385,60.2255489 17.7140591,59.9141717 16.4413481,59.499002 C15.1946108,59.0838323 14.1037156,58.5389222 13.1946364,57.8902196 L11.272583,56.3852295 L9.66221403,54.9321357 C9.66221403,54.9321357 8.5713189,53.8682635 7.92197656,53.1157685 C7.45445007,52.5968064 6.80510773,51.7145709 6.80510773,51.7145709 C6.70121296,51.5848303 6.80510773,51.7145709 6.80510773,51.7145709 C7.55834485,52.5708583 8.46742413,53.2974052 9.61026665,53.8942116 C10.9608987,54.5948104 12.545294,55.1397206 14.3894263,55.4510978 C16.2595322,55.7884232 18.3634014,55.8922156 20.6750601,55.7884232 C23.0126926,55.6846307 25.5581145,55.3213573 28.2593787,54.7245509 C32.5969855,53.738523 36.9345924,52.2075848 40.9864886,50.261477 C45.0383848,48.3153693 48.7785967,46.005988 51.9993347,43.489022 C55.1681253,40.998004 57.817442,38.3253493 59.7135217,35.6267465 C61.5836276,33.005988 62.7264701,30.3592814 62.9862071,27.8942116 C63.0121808,27.6347305 63.0381545,27.3752495 63.0381545,27.1157685 C63.0381545,26.8562874 63.0121808,26.5968064 62.9862071,26.3632735 C62.9602334,26.1037924 63.3238651,27.4790419 63.3238651,27.4790419 C63.3238651,27.4790419 63.5316546,28.7245509 63.6095757,29.502994" id="Shape"></path>
                    </g>
                </g>
            </g>
        </g>
    </g>
</svg>