<?xml version="1.0" encoding="UTF-8"?>
<svg width="102px" height="65px" viewBox="0 0 102 65" version="1.1" xmlns="http://www.w3.org/2000/svg" xmlns:xlink="http://www.w3.org/1999/xlink">
    <!-- Generator: Sketch 50.2 (55047) - http://www.bohemiancoding.com/sketch -->
    <title>reddot-design-award-winner-2013-logo-vector</title>
    <desc>Created with Sketch.</desc>
    <defs></defs>
    <g id="Page-1" stroke="none" stroke-width="1" fill="none" fill-rule="evenodd">
        <g id="LauraStar-Landing-Mobile" transform="translate(-137.000000, -60.000000)">
            <g id="Hero" transform="translate(-3.000000, 40.000000)">
                <g id="reddot-design-award-winner-2013-logo-vector" transform="translate(140.000000, 20.000000)">
                    <path d="M0.610381801,47.6017964 L1.75322432,47.6017964 L1.75322432,48.8213573 L1.77919801,48.8213573 C1.94802702,48.3413174 2.45451405,47.4590818 3.64930396,47.4590818 L3.64930396,48.7045908 C2.61035621,48.7045908 1.75322432,49.2235529 1.75322432,51.0918164 L1.75322432,53.6606786 L0.610381801,53.6606786 L0.610381801,47.6017964 Z" id="Shape" fill="#FFFFFF" fill-rule="nonzero"></path>
                    <path d="M7.90898971,49.4181637 C7.90898971,49.0419162 7.67522647,48.3413174 6.80510773,48.3413174 C5.85706792,48.3413174 5.59733098,49.1457086 5.59733098,49.4181637 L7.90898971,49.4181637 Z M8.92196376,53.5958084 C8.42846359,53.7125749 8.06483187,53.8033932 7.40250269,53.8033932 C5.55837044,53.8033932 4.38955422,52.7265469 4.38955422,50.3393214 C4.38955422,47.744511 6.09083116,47.4590818 6.87004197,47.4590818 C8.3505425,47.4590818 9.06481908,48.4710579 9.06481908,49.8982036 L9.06481908,50.1966068 L5.54538359,50.1966068 C5.54538359,51.3253493 6.11680485,52.9211577 7.77912124,52.9211577 C8.29859512,52.9211577 8.66222683,52.7914172 8.92196376,52.7005988 L8.92196376,53.5958084 Z" id="Shape" fill="#FFFFFF" fill-rule="nonzero"></path>
                    <path d="M12.4933466,52.9081836 C13.4283996,52.9081836 13.8050182,51.6237525 13.8050182,50.6117764 C13.8050182,49.5479042 13.4933338,48.3413174 12.4803598,48.3413174 C11.5842674,48.3413174 11.2985567,49.3532934 11.2985567,50.6247505 C11.2985567,51.5459082 11.4154384,52.9081836 12.4933466,52.9081836 Z M13.8050182,52.739521 L13.7790445,52.739521 C13.649176,53.0768463 13.1556758,53.8163673 12.0907544,53.8163673 C10.6102539,53.8163673 10.0128589,52.4800399 10.0128589,50.741517 C10.0128589,48.7305389 10.7790829,47.4590818 12.1556886,47.4590818 C13.1686627,47.4590818 13.6361892,48.0818363 13.7790445,48.4451098 L13.8050182,48.4451098 L13.8050182,44.8772455 L14.9478607,44.8772455 L14.9478607,53.6736527 L13.8050182,53.6736527 L13.8050182,52.739521 Z" id="Shape" fill="#FFFFFF" fill-rule="nonzero"></path>
                    <path d="M18.7530068,52.9081836 C19.6880598,52.9081836 20.0646783,51.6237525 20.0646783,50.6117764 C20.0646783,49.5479042 19.752994,48.3413174 18.74002,48.3413174 C17.8439275,48.3413174 17.5582169,49.3532934 17.5582169,50.6247505 C17.5582169,51.5459082 17.6880854,52.9081836 18.7530068,52.9081836 Z M20.0646783,52.739521 L20.0387046,52.739521 C19.9088362,53.0768463 19.415336,53.8163673 18.3504146,53.8163673 C16.869914,53.8163673 16.2725191,52.4800399 16.2725191,50.741517 C16.2725191,48.7305389 17.038743,47.4590818 18.4153488,47.4590818 C19.4283228,47.4590818 19.8958493,48.0818363 20.0387046,48.4451098 L20.0646783,48.4451098 L20.0646783,44.8772455 L21.2075209,44.8772455 L21.2075209,53.6736527 L20.0646783,53.6736527 L20.0646783,52.739521 Z" id="Shape" fill="#E50012" fill-rule="nonzero"></path>
                    <path d="M25.3113645,52.9081836 C26.5451149,52.9081836 26.7139439,51.5978044 26.7139439,50.6247505 C26.7139439,49.6387226 26.5451149,48.3413174 25.3113645,48.3413174 C24.0516403,48.3413174 23.8957981,49.6387226 23.8957981,50.6247505 C23.8957981,51.5978044 24.0516403,52.9081836 25.3113645,52.9081836 M22.6230872,50.6377246 C22.6230872,48.7045908 23.480219,47.4590818 25.3113645,47.4590818 C27.129523,47.4590818 27.9866549,48.6916168 27.9866549,50.6377246 C27.9866549,52.5449102 27.129523,53.8163673 25.3113645,53.8163673 C23.4672322,53.8033932 22.6230872,52.5449102 22.6230872,50.6377246" id="Shape" fill="#E50012" fill-rule="nonzero"></path>
                    <path d="M32.6229592,53.7125749 C32.3242617,53.7774451 32.0255643,53.8033932 31.7138799,53.8033932 C30.2463662,53.8033932 29.8957214,53.1546906 29.8957214,52.3243513 L29.8957214,48.4840319 L28.8048262,48.4840319 L28.8048262,47.5888224 L29.8957214,47.5888224 L29.8957214,46.1616766 L31.0385639,45.4481038 L31.0385639,47.5888224 L32.726854,47.5888224 L32.726854,48.4840319 L31.0385639,48.4840319 L31.0385639,51.7275449 C31.0385639,52.2724551 31.116485,52.9081836 32.0125774,52.9081836 C32.220367,52.9081836 32.4541302,52.8692615 32.6229592,52.8173653 L32.6229592,53.7125749 Z" id="Shape" fill="#E50012" fill-rule="nonzero"></path>
                    <path d="M38.8566457,52.9081836 C39.7916987,52.9081836 40.1683172,51.6237525 40.1683172,50.6117764 C40.1683172,49.5479042 39.8566329,48.3413174 38.8436588,48.3413174 C37.9475664,48.3413174 37.6618558,49.3532934 37.6618558,50.6247505 C37.6618558,51.5459082 37.7917242,52.9081836 38.8566457,52.9081836 Z M40.1683172,52.739521 L40.1423435,52.739521 C40.012475,53.0768463 39.5189749,53.8163673 38.4540534,53.8163673 C36.9735529,53.8163673 36.3761579,52.4800399 36.3761579,50.741517 C36.3761579,48.7305389 37.1423819,47.4590818 38.5189877,47.4590818 C39.5319617,47.4590818 39.9994882,48.0818363 40.1423435,48.4451098 L40.1683172,48.4451098 L40.1683172,44.8772455 L41.3111597,44.8772455 L41.3111597,53.6736527 L40.1683172,53.6736527 L40.1683172,52.739521 Z" id="Shape" fill="#FFFFFF" fill-rule="nonzero"></path>
                    <path d="M46.3110958,49.4181637 C46.3110958,49.0419162 46.0773325,48.3413174 45.2072138,48.3413174 C44.259174,48.3413174 43.999437,49.1457086 43.999437,49.4181637 L46.3110958,49.4181637 Z M47.311083,53.5958084 C46.8175828,53.7125749 46.4539511,53.8033932 45.7916219,53.8033932 C43.9474896,53.8033932 42.7786734,52.7265469 42.7786734,50.3393214 C42.7786734,47.744511 44.4799504,47.4590818 45.2591612,47.4590818 C46.7396617,47.4590818 47.4539383,48.4710579 47.4539383,49.8982036 L47.4539383,50.1966068 L43.9345028,50.1966068 C43.9345028,51.3253493 44.505924,52.9211577 46.1682404,52.9211577 C46.6877143,52.9211577 47.051346,52.7914172 47.311083,52.7005988 L47.311083,53.5958084 Z" id="Shape" fill="#FFFFFF" fill-rule="nonzero"></path>
                    <path d="M50.8954527,50.1706587 C51.5318082,50.5728543 52.2980321,50.9620758 52.2980321,51.9740519 C52.2980321,53.245509 51.375966,53.8033932 50.0123471,53.8033932 C49.1811889,53.8033932 48.6487282,53.6347305 48.3760044,53.5568862 L48.3760044,52.5449102 C48.492886,52.5968064 49.2720968,52.8952096 49.9084523,52.8952096 C50.4538999,52.8952096 51.1422028,52.739521 51.1422028,52.1167665 C51.1422028,51.6626747 50.5837684,51.4031936 50.1681893,51.1307385 L49.5837812,50.7804391 C49.0383336,50.4301397 48.3760044,50.0279441 48.3760044,49.1327345 C48.3760044,48.0299401 49.2720968,47.4331337 50.531821,47.4331337 C51.1422028,47.4331337 51.6227161,47.6017964 51.9084267,47.6536926 L51.9084267,48.6916168 C51.7395977,48.6137725 51.1811633,48.3283433 50.5188341,48.3283433 C50.0253339,48.3283433 49.5188469,48.6007984 49.5188469,48.9770459 C49.5188469,49.3922156 49.9993603,49.6257485 50.4019525,49.8722555 L50.8954527,50.1706587 Z" id="Shape" fill="#FFFFFF" fill-rule="nonzero"></path>
                    <path d="M53.5967168,47.6017964 L54.7395593,47.6017964 L54.7395593,53.6736527 L53.5967168,53.6736527 L53.5967168,47.6017964 Z M53.492822,44.8772455 L54.8694278,44.8772455 L54.8694278,46.1746507 L53.492822,46.1746507 L53.492822,44.8772455 Z" id="Shape" fill="#FFFFFF" fill-rule="nonzero"></path>
                    <path d="M58.752495,52.7784431 C59.7394954,52.7784431 60.0901402,51.4680639 60.0901402,50.49501 C60.0901402,49.5738523 59.7654691,48.3542914 58.7654819,48.3542914 C57.7525078,48.3542914 57.5836788,49.6906188 57.5836788,50.6117764 C57.5836788,51.4031936 57.739521,52.7784431 58.752495,52.7784431 Z M61.2459696,53.9071856 C61.2459696,55.6716567 60.2459824,56.3982036 58.4408107,56.3982036 C57.4927709,56.3982036 56.8434285,56.242515 56.5836916,56.1776447 L56.5836916,55.0229541 C56.9473233,55.2045908 57.5966656,55.502994 58.3369159,55.502994 C60.1161139,55.502994 60.1161139,54.2704591 60.1161139,53.5828343 L60.1161139,52.6357285 L60.0901402,52.6357285 C59.9732586,52.9730539 59.4667716,53.6736527 58.414837,53.6736527 C56.8174548,53.6736527 56.3239547,52.1946108 56.3239547,50.6377246 C56.3239547,48.9121756 56.9473233,47.4590818 58.4927581,47.4590818 C59.4667716,47.4590818 59.9602718,48.1207585 60.0901402,48.4451098 L60.1161139,48.4451098 L60.1161139,47.6017964 L61.2589564,47.6017964 L61.2589564,53.9071856 L61.2459696,53.9071856 Z" id="Shape" fill="#FFFFFF" fill-rule="nonzero"></path>
                    <path d="M63.0251676,47.6017964 L64.1680101,47.6017964 L64.1680101,48.8992016 L64.1939838,48.8992016 C64.4017734,48.3932136 64.8822867,47.4590818 66.1160372,47.4590818 C67.5186166,47.4590818 67.7523799,48.7045908 67.7523799,49.4570858 L67.7523799,53.6606786 L66.6095373,53.6606786 L66.6095373,50.3522954 C66.6095373,49.2365269 66.6095373,48.6007984 65.7783791,48.6007984 C64.8303393,48.6007984 64.1680101,49.8722555 64.1680101,51.0788423 L64.1680101,53.6477046 L63.0251676,53.6477046 L63.0251676,47.6017964 Z" id="Shape" fill="#FFFFFF" fill-rule="nonzero"></path>
                    <path d="M75.3107247,50.9491018 C74.4016454,50.9491018 73.4925661,51.3512974 73.4925661,52.1297405 C73.4925661,52.5968064 73.8172373,52.9081836 74.1548953,52.9081836 C74.947093,52.9081836 75.5315011,52 75.5315011,51.2864271 L75.5315011,50.9491018 L75.3107247,50.9491018 Z M75.5444879,52.9081836 L75.5185143,52.9081836 C75.3626721,53.245509 74.8821588,53.8033932 73.9471058,53.8033932 C72.8172501,53.8033932 72.2198552,53.1157685 72.2198552,52.1686627 C72.2198552,50.5598802 73.9860663,50.1836327 75.5315011,50.1836327 L75.5315011,49.1197605 C75.4276063,48.5359281 75.0380009,48.3413174 74.5964481,48.3413174 C73.9081452,48.3413174 73.6224346,48.7824351 73.6224346,49.2754491 L72.4146579,49.2754491 C72.4146579,48.3023952 72.9860791,47.4590818 74.6873561,47.4590818 C76.6743436,47.4590818 76.6743436,48.9510978 76.6743436,49.496008 L76.6743436,53.6606786 L75.5315011,53.6606786 L75.5315011,52.9081836 L75.5444879,52.9081836 Z" id="Shape" fill="#FFFFFF" fill-rule="nonzero"></path>
                    <polygon id="Shape" fill="#FFFFFF" fill-rule="nonzero" points="77.9080941 47.6017964 79.0249629 47.6017964 79.9859896 52 80.0119633 52 81.3366216 47.6017964 82.2067404 47.6017964 83.5313987 52 83.5573724 52 84.5054123 47.6017964 85.6222811 47.6017964 84.2586622 53.6606786 83.0378986 53.6606786 81.7781744 49.4570858 81.7522007 49.4570858 80.5314371 53.6606786 79.3236604 53.6606786"></polygon>
                    <path d="M89.5832694,50.9491018 C88.6741901,50.9491018 87.7651108,51.3512974 87.7651108,52.1297405 C87.7651108,52.5968064 88.089782,52.9081836 88.42744,52.9081836 C89.2196376,52.9081836 89.8040458,52 89.8040458,51.2864271 L89.8040458,50.9491018 L89.5832694,50.9491018 Z M89.8170326,52.9081836 L89.7910589,52.9081836 C89.6352167,53.245509 89.1547034,53.8033932 88.2196504,53.8033932 C87.0897948,53.8033932 86.4923998,53.1157685 86.4923998,52.1686627 C86.4923998,50.5598802 88.2715978,50.1836327 89.8040458,50.1836327 L89.8040458,49.1197605 C89.700151,48.5359281 89.3105456,48.3413174 88.8689928,48.3413174 C88.1806899,48.3413174 87.8949793,48.7824351 87.8949793,49.2754491 L86.6872025,49.2754491 C86.6872025,48.3023952 87.2586238,47.4590818 88.9599007,47.4590818 C90.9468883,47.4590818 90.9468883,48.9510978 90.9468883,49.496008 L90.9468883,53.6606786 L89.8040458,53.6606786 L89.8040458,52.9081836 L89.8170326,52.9081836 Z" id="Shape" fill="#FFFFFF" fill-rule="nonzero"></path>
                    <path d="M92.6351784,47.6017964 L93.7780209,47.6017964 L93.7780209,48.8213573 L93.8039946,48.8213573 C93.9728236,48.3413174 94.4793106,47.4590818 95.6870874,47.4590818 L95.6870874,48.7045908 C94.6481396,48.7045908 93.7910077,49.2235529 93.7910077,51.0918164 L93.7910077,53.6606786 L92.6481652,53.6606786 L92.6481652,47.6017964 L92.6351784,47.6017964 Z" id="Shape" fill="#FFFFFF" fill-rule="nonzero"></path>
                    <path d="M98.6480884,52.9081836 C99.5831414,52.9081836 99.95976,51.6237525 99.95976,50.6117764 C99.95976,49.5479042 99.6480756,48.3413174 98.6351016,48.3413174 C97.7390092,48.3413174 97.4532985,49.3532934 97.4532985,50.6247505 C97.4532985,51.5459082 97.583167,52.9081836 98.6480884,52.9081836 Z M99.9727468,52.739521 L99.9467731,52.739521 C99.8169047,53.0768463 99.3234045,53.8163673 98.258483,53.8163673 C96.7779825,53.8163673 96.1805875,52.4800399 96.1805875,50.741517 C96.1805875,48.7305389 96.9468115,47.4590818 98.3234173,47.4590818 C99.3363913,47.4590818 99.8039178,48.0818363 99.9467731,48.4451098 L99.9727468,48.4451098 L99.9727468,44.8772455 L101.115589,44.8772455 L101.115589,53.6736527 L99.9727468,53.6736527 L99.9727468,52.739521 Z" id="Shape" fill="#FFFFFF" fill-rule="nonzero"></path>
                    <polygon id="Shape" fill="#FFFFFF" fill-rule="nonzero" points="0.103894775 59.8493014 1.0259609 59.8493014 1.81815855 63.49501 1.84413225 63.49501 2.93502738 59.8493014 3.6622908 59.8493014 4.76617278 63.49501 4.77915963 63.49501 5.57135729 59.8493014 6.49342341 59.8493014 5.36356774 64.8832335 4.36358053 64.8832335 3.31164594 61.3932136 3.28567225 61.3932136 2.27269819 64.8832335 1.27271099 64.8832335"></polygon>
                    <path d="M8.01288449,64.8832335 L8.96092431,64.8832335 L8.96092431,59.8493014 L8.01288449,59.8493014 L8.01288449,64.8832335 Z M7.92197656,58.6686627 L9.06481908,58.6686627 L9.06481908,57.5918164 L7.92197656,57.5918164 L7.92197656,58.6686627 Z" id="Shape" fill="#FFFFFF" fill-rule="nonzero"></path>
                    <path d="M10.8570039,59.8493014 L11.8050438,59.8493014 L11.8050438,60.9261477 L11.8310175,60.9261477 C11.9998465,60.510978 12.4024387,59.7325349 13.4283996,59.7325349 C14.5972158,59.7325349 14.7790317,60.7704591 14.7790317,61.3932136 L14.7790317,64.8832335 L13.8309919,64.8832335 L13.8309919,62.1327345 C13.8309919,61.1986028 13.8309919,60.6796407 13.142689,60.6796407 C12.3634782,60.6796407 11.8050438,61.7305389 11.8050438,62.742515 L11.8050438,64.8702595 L10.8570039,64.8702595 L10.8570039,59.8493014 Z" id="Shape" fill="#FFFFFF" fill-rule="nonzero"></path>
                    <path d="M16.5582297,59.8493014 L17.5062695,59.8493014 L17.5062695,60.9261477 L17.5322432,60.9261477 C17.7010722,60.510978 18.1036645,59.7325349 19.1296254,59.7325349 C20.2984416,59.7325349 20.4802574,60.7704591 20.4802574,61.3932136 L20.4802574,64.8832335 L19.5322176,64.8832335 L19.5322176,62.1327345 C19.5322176,61.1986028 19.5322176,60.6796407 18.8439147,60.6796407 C18.0647039,60.6796407 17.5062695,61.7305389 17.5062695,62.742515 L17.5062695,64.8702595 L16.5582297,64.8702595 L16.5582297,59.8493014 Z" id="Shape" fill="#FFFFFF" fill-rule="nonzero"></path>
                    <path d="M24.8178643,61.3672655 C24.8178643,61.0558882 24.6230616,60.4850299 23.8957981,60.4850299 C23.1165873,60.4850299 22.8958109,61.1467066 22.8958109,61.3672655 L24.8178643,61.3672655 Z M25.6490225,64.8313373 C25.2334434,64.9221557 24.9347459,65 24.3892983,65 C22.8698372,65 21.8958237,64.1047904 21.8958237,62.1197605 C21.8958237,59.9660679 23.2984032,59.7325349 23.9477455,59.7325349 C25.181496,59.7325349 25.7659041,60.5628743 25.7659041,61.756487 L25.7659041,62.002994 L22.8568504,62.002994 C22.8568504,62.9371257 23.3373637,64.260479 24.7139695,64.260479 C25.1425354,64.260479 25.4412329,64.1566866 25.6620093,64.0788423 L25.6620093,64.8313373 L25.6490225,64.8313373 Z" id="Shape" fill="#FFFFFF" fill-rule="nonzero"></path>
                    <path d="M27.1684835,59.8493014 L28.1165234,59.8493014 L28.1165234,60.8612774 L28.1424971,60.8612774 C28.2853524,60.4590818 28.7009315,59.7325349 29.7009187,59.7325349 L29.7009187,60.7704591 C28.8437868,60.7704591 28.1295102,61.1986028 28.1295102,62.742515 L28.1295102,64.8702595 L27.1814704,64.8702595 L27.1814704,59.8493014 L27.1684835,59.8493014 Z" id="Shape" fill="#FFFFFF" fill-rule="nonzero"></path>
                    <path d="M34.0125518,64.1047904 C34.8956574,63.3912176 37.220303,61.2245509 37.220303,59.8103792 C37.220303,59.239521 36.9086187,58.7984032 36.1943421,58.7984032 C35.4800655,58.7984032 35.1943549,59.252495 35.1943549,59.7195609 L34.0255387,59.7195609 C34.1034597,59.005988 34.506052,58.0588822 36.2073289,58.0588822 C37.3501715,58.0588822 38.2852244,58.7075848 38.2852244,59.8882236 C38.2852244,61.7694611 36.4151185,63.1576846 35.2852628,64.1307385 L38.3371718,64.1307385 L38.3371718,64.8702595 L34.0255387,64.8702595 L34.0255387,64.1047904 L34.0125518,64.1047904 Z" id="Shape" fill="#FFFFFF" fill-rule="nonzero"></path>
                    <path d="M42.0254363,64.260479 C43.2591868,64.260479 43.4280158,62.7814371 43.4280158,61.5359281 C43.4280158,60.3033932 43.2591868,58.8113772 42.0254363,58.8113772 C40.8046727,58.8113772 40.6358437,60.3033932 40.6358437,61.5359281 C40.6358437,62.7814371 40.8046727,64.260479 42.0254363,64.260479 M39.5839091,61.5359281 C39.5839091,59.7714571 40.0774093,58.0718563 42.0254363,58.0718563 C43.9734633,58.0718563 44.4929372,59.7714571 44.4929372,61.5359281 C44.4929372,63.3003992 43.9734633,65 42.0254363,65 C40.0774093,65 39.5839091,63.3003992 39.5839091,61.5359281" id="Shape" fill="#FFFFFF" fill-rule="nonzero"></path>
                    <polygon id="Shape" fill="#FFFFFF" fill-rule="nonzero" points="46.9344644 59.1357285 45.609806 59.9401198 45.609806 59.0189621 47.1032934 58.1756487 47.9993858 58.1756487 47.9993858 64.8832335 46.9344644 64.8832335"></polygon>
                    <path d="M51.4330685,61.3000161 C50.8277531,60.8581811 50.5251,60.3695364 50.5251,59.8340675 C50.5251,59.3424895 50.6966499,58.9430884 51.0397549,58.6358521 C51.3828599,58.3286158 51.8305634,58.175 52.3828788,58.175 C52.8933522,58.175 53.3068851,58.3052077 53.6234902,58.565627 C53.9400952,58.8260463 54.0983954,59.1640011 54.0983954,59.5795016 C54.0983954,60.2086044 53.7134541,60.7821035 52.9435599,61.3000161 C53.8780329,61.7798899 54.3452624,62.3987422 54.3452624,63.1565916 C54.3452624,63.7008387 54.1493049,64.1441301 53.7573842,64.4864791 C53.3654634,64.8288281 52.8598792,65 52.2406165,65 C51.6325117,65 51.1408746,64.8383376 50.7656907,64.515008 C50.3905068,64.1916784 50.2029176,63.7666747 50.2029176,63.2399839 C50.2029176,62.4616521 50.6129638,61.8150026 51.4330685,61.3000161 Z M52.4832993,61.0278939 C53.06072,60.6299498 53.349426,60.1866584 53.349426,59.6980064 C53.349426,59.4375871 53.2531906,59.2276455 53.0607171,59.0681752 C52.8682435,58.908705 52.6144054,58.8289711 52.2991951,58.8289711 C51.9951427,58.8289711 51.7482781,58.907242 51.5585941,59.0637862 C51.36891,59.2203304 51.2740694,59.422957 51.2740694,59.671672 C51.2740694,59.914535 51.3598443,60.1317916 51.5313969,60.3234486 C51.7029494,60.5151055 52.020247,60.7499182 52.4832993,61.0278939 Z M51.8807764,61.6511415 C51.5488293,61.920339 51.3235828,62.1551517 51.2050303,62.3555868 C51.0864778,62.5560219 51.0272024,62.8054647 51.0272024,63.1039228 C51.0272024,63.4755324 51.141569,63.7761805 51.3703057,64.0058762 C51.5990424,64.2355719 51.9003008,64.350418 52.27409,64.350418 C52.6339318,64.350418 52.9275193,64.2523965 53.1548613,64.0563505 C53.3822032,63.8603045 53.4958725,63.6057411 53.4958725,63.2926527 C53.4958725,63.0410116 53.4254394,62.828144 53.2845711,62.6540434 C53.1437027,62.4799429 52.871036,62.2670752 52.4665626,62.0154341 L51.8807764,61.6511415 Z" id="8" fill="#FFFFFF"></path>
                    <g id="Group" transform="translate(0.389605, 0.000000)" fill="#E50012" fill-rule="nonzero">
                        <path d="M17.376401,2.19261477 C17.2205589,2.69860279 16.869914,3.25648703 16.3764138,3.80139721 C15.8699268,4.35928144 15.2075976,4.93013972 14.4413737,5.46207585 C13.6621629,6.00698603 12.7920441,6.51297405 11.8569911,6.95409182 C10.9219382,7.39520958 9.93493782,7.77145709 8.93495061,8.05688623 C7.94795025,8.32934132 7.06484467,8.47205589 6.29862071,8.51097804 C5.54538359,8.53692615 4.92201494,8.45908184 4.44150161,8.27744511 C3.97397513,8.09580838 3.6622908,7.82335329 3.53242233,7.44710579 C3.40255387,7.08383234 3.42852756,6.64271457 3.6622908,6.1237525 C3.72722504,5.96806387 3.81813296,5.81237525 3.92202774,5.65668663 C4.02592251,5.500998 4.12981729,5.33233533 4.25968576,5.17664671 C4.38955422,5.02095808 4.53240954,4.85229541 4.67526485,4.69660679 C4.83110702,4.54091816 4.98694918,4.37225549 5.16876503,4.21656687 L5.63629152,3.80139721 C6.3245944,3.24351297 7.06484467,2.7245509 7.83106863,2.27045908 L8.24664773,2.03692615 C8.24664773,2.03692615 7.40250269,2.68562874 6.98692359,3.20459082 C6.75316035,3.50299401 6.57134449,3.749501 6.45446287,4.00898204 C6.35056809,4.25548902 6.33758125,4.4760479 6.41550233,4.64471058 C6.49342341,4.81337325 6.66225242,4.94311377 6.89601566,5.02095808 C7.1297789,5.0988024 7.45445007,5.13772455 7.81808179,5.11177645 C8.19470034,5.08582834 8.62326629,5.00798403 9.10377962,4.87824351 C9.58429295,4.73552894 10.0648063,4.55389222 10.5193459,4.33333333 C10.9738856,4.11277445 11.4024515,3.86626747 11.7790701,3.60678643 C12.1556886,3.34730539 12.4803598,3.0748503 12.7400967,2.80239521 C12.9998337,2.52994012 13.1816495,2.25748503 13.2725574,2.01097804 C13.3634654,1.76447106 13.3504785,1.55688623 13.2465838,1.38822355 C13.142689,1.23253493 12.9608731,1.11576846 12.714123,1.03792415 C12.4673729,0.973053892 12.1556886,0.986027944 11.7920569,1.0508982 C11.441412,1.11576846 11.0128461,1.15469062 10.5583065,1.28443114 C10.259609,1.3752495 10.09078,1.44011976 9.80506935,1.56986028 C10.6751881,1.11576846 11.194662,0.908183633 12.1427018,0.609780439 C12.7530836,0.415169661 13.1686627,0.311377246 13.7270971,0.20758483 C14.3764394,0.0908183633 14.921887,0.103792415 15.4153872,0.142714571 C15.9088874,0.181636727 16.3374533,0.285429142 16.6621245,0.454091816 C16.9867956,0.622754491 17.2335457,0.843313373 17.3504274,1.12874251 C17.4802958,1.44011976 17.4932827,1.79041916 17.376401,2.19261477" id="Shape"></path>
                        <path d="M29.5840371,23.9111776 C29.5840371,23.9111776 29.3632607,24.49501 29.168458,24.8453094 C28.9866421,25.1696607 28.6359972,25.6237525 28.6359972,25.6237525 C28.6359972,25.6237525 28.5191156,25.7794411 28.4411945,25.8832335 C28.2204181,26.1686627 27.8567864,26.5838323 27.8567864,26.5838323 L27.3762731,27.1157685 C26.8697861,27.6347305 26.2983648,28.1277445 25.6749962,28.6077844 C25.0386407,29.0748503 24.3503378,29.5159681 23.6230744,29.9181637 C22.8958109,30.3203593 22.1166001,30.6706587 21.3244025,30.9690619 C20.5322048,31.2674651 19.7140335,31.5139721 18.8828753,31.6826347 C18.7140463,31.7215569 18.5582041,31.747505 18.4023619,31.7734531 C18.2465198,31.7994012 18.0906776,31.8253493 17.9348355,31.8512974 C17.7789933,31.8772455 17.6231511,31.8902196 17.4802958,31.9161677 C17.3244537,31.9291417 17.1815983,31.9421158 17.038743,31.9550898 L16.1426506,31.994012 L15.9478479,31.994012 L14.9868212,31.9680639 L14.0128077,31.8772455 C14.0128077,31.8772455 13.8439787,31.8512974 13.7400839,31.8383234 C13.3374917,31.7864271 13.1037284,31.747505 12.7011362,31.6566866 C12.2855571,31.5788423 11.6621884,31.4101796 11.6621884,31.4101796 L11.1427146,31.2285429 L10.9998593,31.1636727 C11.363491,31.3063872 11.8569911,31.4491018 12.3245176,31.5139721 C12.805031,31.5918164 13.3245048,31.6307385 13.8699524,31.6307385 C14.4154,31.6437126 14.9998081,31.6047904 15.597203,31.5528942 C16.2075848,31.488024 16.8309535,31.3842315 17.4802958,31.254491 C18.9737832,30.9431138 20.4672706,30.4371257 21.86985,29.8143713 C23.2854163,29.1916168 24.6100747,28.4391218 25.7918778,27.5958084 C26.9736808,26.7654691 27.9996417,25.8443114 28.8437868,24.8972056 C29.1294974,24.5728543 29.3762475,24.2744511 29.6100107,23.9111776 C29.5970239,23.8852295 29.5840371,23.9111776 29.5840371,23.9111776" id="Shape"></path>
                        <path d="M20.9737576,0.908183633 L22.0256922,1.29740519 L23.06464,1.77744511 L23.4282717,1.97205589 C23.7139823,2.12774451 23.9737192,2.30938124 24.1815088,2.50399202 C24.4022852,2.71157685 24.5711142,2.93213573 24.7009827,3.19161677 C24.8308511,3.4510978 24.9087722,3.73652695 24.9477327,4.03493014 C24.9866933,4.34630739 24.9607196,4.68363273 24.8957854,5.03393214 C24.7009827,5.98103792 24.1555351,7.00598802 23.31139,8.03093812 C22.4542582,9.08183633 21.2984288,10.1457086 19.921823,11.1447106 C18.5322304,12.1566866 16.9348483,13.1037924 15.2335713,13.9211577 C13.5193075,14.738523 11.7141358,15.4131737 9.89597728,15.8802395 C8.27262142,16.2954092 6.80510773,16.5159681 5.5194099,16.5419162 C4.25968576,16.5678643 3.19476432,16.4251497 2.35061927,16.1137725 C1.53244792,15.8153693 0.922066124,15.3612774 0.57142126,14.7904192 C0.233763243,14.2325349 0.129868468,13.5449102 0.28571063,12.753493 L0.363631711,12.4161677 L0.662329188,11.3003992 L1.03894775,10.2235529 L1.42855315,9.31536926 L1.77919801,8.5758483 L1.71426378,8.71856287 C1.72725063,8.69261477 1.70127693,8.74451098 1.70127693,8.74451098 C1.36361892,9.48403194 1.29868468,10.1327345 1.46751369,10.6646707 C1.64932955,11.2095808 2.07789549,11.6506986 2.72723783,11.9361277 C3.38956702,12.2345309 4.28565945,12.3772455 5.36356774,12.3642715 C6.45446287,12.3512974 7.7401607,12.1566866 9.1817007,11.7674651 C10.6232407,11.3782435 12.0647807,10.8333333 13.4283996,10.1846307 C14.7920185,9.53592814 16.0647295,8.78343313 17.1815983,7.99201597 C18.2854803,7.2005988 19.2335201,6.37025948 19.9348099,5.53992016 C20.6360996,4.72255489 21.1036261,3.91816367 21.2984288,3.17864271 C21.3893367,2.80239521 21.4023236,2.45209581 21.3503762,2.14071856 C21.2854419,1.82934132 21.1555735,1.55688623 20.9607708,1.32335329 C20.7659681,1.08982036 20.5062311,0.895209581 20.1945468,0.739520958 C19.9867573,0.635728543 19.752994,0.54491018 19.4932571,0.467065868 L19.1036517,0.363273453 C19.2724807,0.389221557 19.3633886,0.402195609 19.4932571,0.441117764 C19.4932571,0.441117764 19.8698756,0.531936128 20.1166257,0.596806387 C20.4542837,0.726546906 20.9737576,0.908183633 20.9737576,0.908183633" id="Shape"></path>
                        <path d="M27.9606812,5.59181637 L28.739892,6.57784431 L29.4541686,7.62874251 L29.7658529,8.16067864 C29.8567608,8.32934132 29.9476688,8.49800399 29.9996162,8.69261477 C30.0645504,8.8742515 30.1164978,9.06886228 30.1554583,9.26347305 C30.1944189,9.45808383 30.2074057,9.67864271 30.2203925,9.88622754 C30.2203925,10.1067864 30.2074057,10.3273453 30.181432,10.5608782 C30.0255898,11.7674651 29.4281949,13.0518962 28.4671682,14.3622754 C27.4801679,15.6856287 26.1295358,17.0219561 24.5061799,18.2674651 C22.8568504,19.5259481 20.9477839,20.6936128 18.8958621,21.6796407 C16.8309535,22.6656687 14.6361764,23.4570858 12.4413993,23.9760479 C10.8699908,24.3393214 9.41546394,24.5469062 8.10379242,24.5988024 C6.80510773,24.6506986 5.64927837,24.5469062 4.66227801,24.3133733 C3.6882645,24.0798403 2.88307999,23.7295409 2.25971135,23.262475 C1.64932955,22.8083832 1.20777675,22.237525 0.961026665,21.5888224 L0.714276575,20.8752495 L0.376618558,19.6556886 L0.142855315,18.4231537 L0.0909079277,18.0728543 L0.0259736936,17.3852295 C0.0129868468,17.3203593 0.0259736936,17.3852295 0.0259736936,17.3852295 C0.116881621,18.0469062 0.389605405,18.6177645 0.844145043,19.0978044 C1.35063207,19.6427146 2.09088234,20.0578842 3.02593531,20.3303393 C3.97397513,20.6157685 5.12980449,20.745509 6.45446287,20.6936128 C7.80509494,20.6546906 9.32455602,20.4341317 10.9738856,20.0319361 C13.0517811,19.5259481 15.1166897,18.760479 17.0647167,17.8393214 C19.0127437,16.9051896 20.8309023,15.8153693 22.3893239,14.6477046 C23.9347587,13.4800399 25.2334434,12.247505 26.1814832,11.0279441 C27.1165362,9.82135729 27.7009443,8.64071856 27.8827601,7.53792415 C27.9347075,7.22654691 27.9476944,6.94111776 27.9347075,6.65568862 C27.9217207,6.38323353 27.8697733,6.1237525 27.7918522,5.87724551 C27.7139311,5.63073852 27.6100363,5.41017964 27.467181,5.18962076 C27.3892599,5.05988024 27.2853652,4.94311377 27.1814704,4.81337325 L27.8308127,5.500998 L27.9606812,5.59181637 Z" id="Shape"></path>
                        <path d="M31.8047879,14.751497 C31.8956958,15.750499 31.9346563,16.3213573 31.7658273,17.3073852 C31.5190772,18.8253493 31.116485,19.7205589 30.2723399,20.9660679 C29.4022212,22.2245509 28.1944444,23.4830339 26.7399176,24.6377246 C25.2724039,25.8053892 23.5581401,26.8822355 21.6880342,27.7644711 C19.8309151,28.6596806 17.8439275,29.3602794 15.8439531,29.7884232 C14.8050054,30.008982 13.818005,30.1516966 12.8959389,30.2165669 C11.9738728,30.2814371 11.1167409,30.2684631 10.3375301,30.1906188 C9.55831926,30.1127745 8.85702953,29.9570858 8.22067404,29.749501 C7.59730539,29.5419162 7.05185782,29.2694611 6.59731818,28.9451098 L5.63629152,28.1926148 L4.83110702,27.4660679 C4.83110702,27.4660679 4.28565945,26.9341317 3.96098828,26.5578842 C3.72722504,26.2984032 3.40255387,25.8572854 3.40255387,25.8572854 C3.35060648,25.7924152 3.40255387,25.8572854 3.40255387,25.8572854 C3.77917242,26.2854291 4.23371206,26.6487026 4.80513332,26.9471058 C5.48044936,27.2974052 6.27264701,27.5698603 7.19471314,27.7255489 C8.12976611,27.8942116 9.1817007,27.9461078 10.3375301,27.8942116 C11.5063463,27.8423154 12.7790573,27.6606786 14.1296893,27.3622754 C16.2984928,26.8692615 18.4672962,26.1037924 20.4932443,25.1307385 C22.5191924,24.1576846 24.3892983,23.002994 25.9996673,21.744511 C27.5840626,20.499002 28.908721,19.1626747 29.8567608,17.8133733 C30.7918138,16.502994 31.3632351,15.1796407 31.4931035,13.9471058 C31.5060904,13.8173653 31.5190772,13.6876248 31.5190772,13.5578842 C31.5190772,13.4281437 31.5060904,13.2984032 31.4931035,13.1816367 C31.4801167,13.0518962 31.6619325,13.739521 31.6619325,13.739521 C31.6619325,13.739521 31.7658273,14.3622754 31.8047879,14.751497" id="Shape"></path>
                    </g>
                </g>
            </g>
        </g>
    </g>
</svg>