<?xml version="1.0" encoding="UTF-8"?>
<svg width="36px" height="37px" viewBox="0 0 36 37" version="1.1" xmlns="http://www.w3.org/2000/svg" xmlns:xlink="http://www.w3.org/1999/xlink">
    <!-- Generator: Sketch 50.2 (55047) - http://www.bohemiancoding.com/sketch -->
    <title>bg_btn</title>
    <desc>Created with Sketch.</desc>
    <defs></defs>
    <g id="Page-1" stroke="none" stroke-width="1" fill="none" fill-rule="evenodd">
        <g id="yura_320_product_1" transform="translate(-271.000000, -330.000000)">
            <g id="Group-3" transform="translate(-1.000000, 40.000000)">
                <g id="bg_btn" transform="translate(272.000000, 290.000000)">
                    <rect stroke="#DF0714" stroke-width="2" x="1" y="1.06096209" width="34" height="34.3934426" rx="17"></rect>
                    <path d="M16.8,21.8062205 L20.4704613,18.1357592 L16.8,14.4652979 L16.8,21.8062205 Z M15.6,23.0062205 L15.6,13.2652979 L15.3190145,12.9843124 L15.6,12.7033269 L15.6,12.6767428 L15.6265841,12.6767428 L16.1675426,12.1357843 L16.7085012,12.6767428 L16.8,12.6767428 L16.8,12.7682417 L21.3189894,17.2872311 L21.3236262,17.2825943 L22.1721543,18.1311225 L22.1675176,18.1357592 L22.1721543,18.140396 L21.3236262,18.9889241 L21.3189894,18.9842874 L16.8,23.5032768 L16.8,23.6116115 L16.6916653,23.6116115 L16.1675426,24.1357341 L15.64342,23.6116115 L15.6,23.6116115 L15.6,23.5681915 L15.3190145,23.287206 L15.6,23.0062205 Z" id="Rectangle-37" fill="#DF0714" fill-rule="evenodd"></path>
                </g>
            </g>
        </g>
    </g>
</svg>