<?xml version="1.0" encoding="UTF-8"?>
<svg width="53px" height="54px" viewBox="0 0 53 54" version="1.1" xmlns="http://www.w3.org/2000/svg" xmlns:xlink="http://www.w3.org/1999/xlink">
    <!-- Generator: Sketch 50.2 (55047) - http://www.bohemiancoding.com/sketch -->
    <title>ic_play2</title>
    <desc>Created with Sketch.</desc>
    <defs></defs>
    <g id="Symbols" stroke="none" stroke-width="1" fill="none" fill-rule="evenodd">
        <g id="promo_1280" transform="translate(-40.000000, -556.000000)">
            <g id="card-zone">
                <g transform="translate(23.000000, 51.000000)">
                    <g id="bg_btn" transform="translate(17.000000, 505.000000)">
                        <rect stroke="#DF0714" stroke-width="2" x="1" y="1.0889717" width="51" height="51.1147541" rx="25.5"></rect>
                        <path d="M24.7333333,31.8392963 L30.1042242,26.4684054 L24.7333333,21.0975144 L24.7333333,31.8392963 Z M22.9666667,33.6059629 L22.9666667,19.3308478 L22.5913113,18.9554924 L22.9666667,18.580137 L22.9666667,18.5011922 L23.0456115,18.5011922 L23.8405333,17.7062704 L24.6354551,18.5011922 L24.7333333,18.5011922 L24.7333333,18.5990705 L31.3534462,25.2191834 L31.3547986,25.217831 L32.6040206,26.467053 L32.6026682,26.4684054 L32.6040206,26.4697577 L31.3547986,27.7189797 L31.3534462,27.7176273 L24.7333333,34.3377402 L24.7333333,34.4601897 L24.6108839,34.4601897 L23.8405333,35.2305403 L23.0701827,34.4601897 L22.9666667,34.4601897 L22.9666667,34.3566737 L22.5913113,33.9813183 L22.9666667,33.6059629 Z" id="Rectangle-37" fill="#DF0714" fill-rule="evenodd"></path>
                    </g>
                </g>
            </g>
        </g>
    </g>
</svg>