<?xml version="1.0" encoding="UTF-8"?>
<svg width="142px" height="63px" viewBox="0 0 142 63" version="1.1" xmlns="http://www.w3.org/2000/svg" xmlns:xlink="http://www.w3.org/1999/xlink">
    <!-- Generator: Sketch 44 (41411) - http://www.bohemiancoding.com/sketch -->
    <title>jura_logo</title>
    <desc>Created with Sketch.</desc>
    <defs></defs>
    <g id="design" stroke="none" stroke-width="1" fill="none" fill-rule="evenodd">
        <g id="1600" transform="translate(-25.000000, -26.000000)" fill-rule="nonzero" fill="#FF0000">
            <g id="1-slide">
                <g id="jura_logo" transform="translate(25.000000, 26.000000)">
                    <path d="M45.5310106,19.2237528 L37.947503,31.9833274 L38.0079775,32.0431473 C38.4554891,31.8158318 38.9150957,31.5944984 39.3474886,31.361201 C43.8558657,29.0132717 48.2342226,26.461955 52.240661,23.3273947 C53.038925,22.7022772 53.7888093,22.0203309 54.5417173,21.3443666 C54.7941416,21.0899125 55.1249743,20.9257608 55.4820965,20.8777717 C58.2034508,20.5367985 60.9248052,20.1629245 63.664302,19.7980234 C63.7227141,19.7947582 63.781266,19.7947582 63.8396782,19.7980234 C63.3468106,20.5756815 62.8539431,21.3174476 62.3973603,22.0801508 C61.3692931,23.7909986 60.3805344,25.5227833 59.8332398,27.4639375 C59.6518206,28.1584141 59.5623762,28.8732611 59.5671518,29.5905333 C59.5671518,30.3771644 60.0721142,30.9035791 60.8522358,31.0860296 C62.3640993,31.4329848 63.7792036,31.0561197 65.1308096,30.4130563 C66.8573578,29.5905333 68.2271062,28.3193614 69.4305496,26.874712 C70.7937456,25.1903093 71.943256,23.3470972 72.8534086,21.3862405 C72.9240357,21.193788 73.0983788,21.0572124 73.303944,21.0333033 C76.5453794,20.5158616 79.7868149,19.9924379 83.109891,19.4570502 C83.0040605,19.6245458 82.9345148,19.7382035 82.8589216,19.8488702 C80.92676,22.7650881 79.0701916,25.7231798 77.6006602,28.899614 C77.0935555,29.8911681 76.7495698,30.9563794 76.5816642,32.0551113 C76.5242134,32.557598 76.5544506,33.0421388 77.0563893,33.3561931 C77.10675,33.3950387 77.1454334,33.4467477 77.1682672,33.5057427 C77.3527146,33.9155087 77.7004432,33.9723375 78.0753854,33.8975627 C78.9825035,33.7270761 79.7354115,33.2245894 80.4701772,32.7011657 C82.497245,31.2373518 84.3866697,29.5956213 86.1154757,27.7959377 C87.929712,25.9714322 89.6774262,24.0930888 91.452354,22.2356824 C91.5279472,22.1549256 91.5914455,22.0622048 91.6700624,21.963502 C91.2588355,21.999394 90.8869171,22.0592138 90.5119749,22.0562228 C90.0221311,22.0562228 89.813494,21.7840425 89.9495617,21.3174476 C90.0514338,21.0017253 90.1936943,20.7001815 90.3728835,20.4201498 C91.4735201,18.6076083 92.5953229,16.8070307 93.6989833,14.9944892 C93.8419758,14.7367609 94.0876653,14.5501488 94.3762982,14.4800384 C98.0319842,13.436182 101.681623,12.3863436 105.337309,11.3275322 C105.782341,11.1880652 106.237122,11.0810991 106.697986,11.007496 C107.075952,10.9566491 107.215043,11.1690096 107.045715,11.5069917 C106.88686,11.8172187 106.695301,12.1099682 106.47423,12.3803616 C104.389874,14.9725552 102.302495,17.5527849 100.212091,20.1210506 C100.143966,20.2386537 100.094025,20.3656835 100.063929,20.4979156 C100.193949,20.5427805 100.330017,20.6444743 100.447942,20.6265283 C101.336918,20.4949247 102.22287,20.348366 103.105798,20.1868524 C104.490665,19.932618 105.869485,19.6604377 107.254352,19.4002213 C107.87724,19.2835726 108.116114,19.5736989 107.901429,20.1718974 C107.834452,20.3536877 107.752537,20.5297476 107.656508,20.6983122 C105.499582,24.5447287 103.343665,28.3921423 101.188755,32.2405528 C100.975961,32.6381285 100.823154,33.0643781 100.735196,33.5057427 C100.658222,33.7282391 100.694353,33.9737927 100.832252,34.1653536 C100.97015,34.3569144 101.192917,34.4710078 101.430653,34.4718333 C101.957018,34.5270064 102.489214,34.4792411 102.996944,34.3312567 C104.508808,33.8317609 105.790868,32.8985712 107.015477,31.9055616 C108.726681,30.4855847 110.290616,28.9005073 111.684112,27.1738112 C113.180341,25.4236686 115.011526,23.9833215 117.072394,22.9355747 C119.97046,21.3822434 123.151404,20.4133835 126.430829,20.0851587 C128.849811,19.8369063 131.268793,19.7531585 133.687774,19.6125818 C135.929364,19.4829721 138.170954,19.3643294 140.412543,19.2566537 C140.932624,19.2297348 141.452705,19.2566537 142,19.2566537 C141.972786,19.3224555 141.939525,19.4241493 141.89417,19.519861 C140.005348,23.4141335 138.115519,27.3084059 136.224681,31.2026784 C135.616838,32.3430965 135.157602,33.5551377 134.857957,34.8098155 C134.799432,35.1132435 134.780127,35.4227985 134.800506,35.7310412 C134.788155,35.9633701 134.889454,36.1874103 135.07276,36.3331787 C135.256066,36.4789471 135.499033,36.5286737 135.725766,36.4668254 C136.737924,36.3338238 137.707088,35.9781547 138.562022,35.42596 C139.109317,35.0700319 139.112341,35.0730228 139.750347,35.4768069 C139.511473,35.8985368 139.287717,36.3322308 139.0307,36.7479787 C137.963324,38.4588265 136.708478,39.9902148 134.915407,41.0191162 C132.846454,42.25403 130.187275,41.8967549 128.526272,40.1607013 C127.90002,39.4766028 127.499235,38.6200708 127.377256,37.7050964 L127.301663,37.2325195 C126.99929,37.4299251 126.751344,37.6004116 126.494327,37.7649162 C124.011847,39.3621063 121.411442,40.711044 118.52983,41.4647741 C117.112614,41.8676717 115.630744,41.9996368 114.163568,41.8536032 C111.814132,41.5545039 110.411123,40.1457464 109.782188,37.9443758 C109.600764,37.3043034 109.513076,36.637312 109.373985,35.9374197 C109.268154,36.0002306 109.150229,36.0660324 109.038351,36.1378162 C106.03928,38.1149549 102.807139,39.7220679 99.4138275,40.9234045 C97.6990744,41.5521555 95.895088,41.9104599 94.067878,41.9852069 C93.5987364,42.0016065 93.1293772,41.9593994 92.6709161,41.8595852 C91.0018187,41.4617832 90.0705108,40.2683771 90.0221311,38.5694933 C89.979799,36.9693122 90.4787139,35.4947528 91.0834593,34.0441214 C92.0782656,31.6513272 93.502441,29.5067855 94.8449759,27.3113969 C95.7379833,25.8557805 96.6340144,24.4011611 97.5330692,22.9475386 C97.6056387,22.8278989 97.6721607,22.7052682 97.7900861,22.4958987 C97.1853406,22.5796465 96.6743308,22.6394664 96.1572734,22.7351781 C96.0544667,22.7531241 95.9637549,22.8966918 95.885138,22.9953945 C92.6520988,27.1685376 89.08576,31.0783468 85.2204525,34.6871848 C82.9133487,36.8077986 80.4822721,38.7728808 77.7034669,40.286323 C76.023706,41.1936395 74.1688192,41.7389847 72.2607581,41.8865041 C70.1441492,42.0719457 68.5566924,40.9892063 67.9368284,38.8775655 C67.8158793,38.4737815 67.7402861,38.0580335 67.6344557,37.6093846 C67.5044354,37.6751865 67.3895338,37.7290243 67.2806796,37.7888442 C64.3416169,39.4099622 61.2846288,40.7469359 57.9857425,41.4677651 C56.4899544,41.8408704 54.9416665,41.9642013 53.4047959,41.8326662 C50.9858143,41.5604859 49.3227643,39.891512 49.0445815,37.4837629 C48.8147782,35.4887708 49.2290288,33.5954725 49.7823709,31.6902102 C49.8398217,31.4957956 49.9002962,31.3013811 49.991008,31.0052728 C49.7944658,31.1099576 49.6886353,31.1667864 49.5616388,31.2325883 C45.5491529,33.4638688 41.548762,35.7190773 37.5181337,37.9144659 C36.230026,38.6173491 34.8663251,39.1766648 33.5419326,39.8137462 C33.386085,39.9022706 33.2510601,40.0225794 33.1458244,40.1666833 C28.9367962,45.3749985 24.7227286,50.5833137 20.5036213,55.791629 C19.4634592,57.0717738 18.0846397,57.9331797 16.6211557,58.6749459 C15.1092922,59.443631 13.4401948,59.7277753 11.8255246,60.1704422 C9.80567486,60.7327488 7.77675398,61.2501905 5.75388055,61.8035242 C4.45065417,62.1624433 3.15952269,62.5752003 1.85024886,62.9101915 C1.41850437,63.004475 0.973596733,63.024709 0.534927569,62.9700113 C0.042060052,62.9341194 -0.118197484,62.6350201 0.0874159585,62.1923532 C0.230487766,61.8707823 0.415498905,61.5691204 0.637734291,61.2950554 C4.47988353,56.581251 8.41979994,51.9482034 12.4574835,47.3959126 C15.5235428,43.947298 18.9826866,40.9263955 22.5476609,38.0161596 C23.5404555,37.1815342 24.4061224,36.2093873 25.1178289,35.1298517 C28.141556,30.7171405 31.1592357,26.3014384 34.1708678,21.8827452 C34.2937769,21.6719746 34.5016112,21.5229532 34.7423523,21.4729792 C38.2478599,20.7352011 41.7523596,19.9934349 45.2558514,19.2476807 C45.347096,19.2350455 45.4389369,19.227059 45.5310106,19.2237528 Z M120.305929,34 C121.438544,33.9987387 122.547126,33.6596122 123.500585,33.0227223 C125.048541,31.960727 126.532604,30.8351935 127.627499,29.2527902 C128.208346,28.4207426 128.757245,27.5554131 128.954733,26.5297254 C129.0459,26.2101945 128.997958,25.8650845 128.823577,25.5855912 C128.649195,25.3060979 128.365922,25.1203472 128.048613,25.0774241 C127.84457,25.0132703 127.630962,24.9886579 127.418394,25.004809 C126.494849,25.1530648 125.533548,25.2075261 124.665182,25.525217 C122.878504,26.150201 121.253108,27.1935278 119.913858,28.5750496 C118.947399,29.5391043 118.291882,30.7918233 118.037724,32.1604184 C117.955661,32.5028019 118.008698,32.8651651 118.184979,33.1665094 C118.36126,33.4678536 118.646086,33.6830519 118.975791,33.764001 C119.412994,33.8716899 119.856287,33.950513 120.303025,34 L120.305929,34 Z" id="Shape"></path>
                    <path d="M42.2022835,11 C41.8827265,10.966059 41.565485,10.9118056 41.2523527,10.8375465 C40.2843279,10.5657492 39.8500738,9.83158422 40.0460913,8.76626396 C40.1485662,8.29268944 40.2970916,7.83108881 40.4893923,7.38853306 C41.0568802,5.92346078 41.8147754,4.54550395 42.7420855,3.29282963 C43.384807,2.4006395 44.3357541,1.80059585 45.3958605,1.61830862 C47.9802755,1.14656856 50.5465966,0.565484778 53.118949,0.0312625919 C53.2303412,0.00991868841 53.343422,-0.000540920241 53.4567022,2.15283337e-05 C53.8909563,2.15283337e-05 54.0598329,0.181219697 53.9814259,0.624842799 C53.9618602,0.771528124 53.9222604,0.914586111 53.8638154,1.04972126 C52.7781802,3.48340011 51.5116057,5.79523881 49.6419006,7.7040678 C47.4253953,9.99716186 45.2722187,10.8094295 42.2022835,11 Z" id="Shape"></path>
                </g>
            </g>
        </g>
    </g>
</svg>