<?xml version="1.0" encoding="UTF-8"?>
<svg width="33px" height="33px" viewBox="0 0 33 33" version="1.1" xmlns="http://www.w3.org/2000/svg" xmlns:xlink="http://www.w3.org/1999/xlink">
    <!-- Generator: Sketch 44 (41411) - http://www.bohemiancoding.com/sketch -->
    <title>icon_hotline_dark</title>
    <desc>Created with Sketch.</desc>
    <defs></defs>
    <g id="design" stroke="none" stroke-width="1" fill="none" fill-rule="evenodd">
        <g id="760" transform="translate(-505.000000, -2673.000000)" fill="#666D7B">
            <g id="footer" transform="translate(59.000000, 2669.000000)">
                <g id="Group-13" transform="translate(446.000000, 4.000000)">
                    <g id="icon_hotline_dark">
                        <g id="icon_hotline">
                            <path d="M26.4717391,32.8565217 C24.6782609,32.8565217 22.4543478,32.1391304 19.7282609,30.6326087 C16.0695652,28.6956522 12.3391304,25.6826087 10.3304348,23.673913 L9.32608696,22.6695652 C7.3173913,20.6608696 4.30434783,16.9304348 2.29565217,13.2 C-0.215217391,8.60869565 -0.573913043,5.23695652 1.21956522,3.44347826 L3.73043478,0.932608696 C4.87826087,-0.215217391 6.67173913,-0.143478261 7.74782609,0.932608696 L12.2673913,5.45217391 C13.4152174,6.6 13.4152174,8.39347826 12.2673913,9.46956522 L10.7608696,10.976087 C10.6891304,11.0478261 10.6173913,11.8369565 11.3347826,13.4152174 C12.0521739,14.85 13.1282609,16.4282609 14.276087,17.576087 L15.2804348,18.5804348 C18.0065217,21.3065217 21.45,22.526087 21.8804348,22.0956522 L23.3869565,20.5891304 C24.5347826,19.4413043 26.3282609,19.5130435 27.4043478,20.5891304 L31.923913,25.1086957 C33.0717391,26.2565217 33.0717391,28.05 31.923913,29.126087 L29.4130435,31.6369565 C28.7673913,32.4978261 27.7630435,32.8565217 26.4717391,32.8565217 Z M5.81086957,1.57826087 C5.45217391,1.57826087 5.09347826,1.72173913 4.80652174,2.00869565 L2.29565217,4.51956522 C0.932608696,5.81086957 1.43478261,8.60869565 3.58695652,12.5543478 C5.52391304,16.1413043 8.39347826,19.7282609 10.3304348,21.6652174 L11.3347826,22.6695652 C13.2717391,24.6065217 16.8586957,27.476087 20.4456522,29.4130435 C24.3913043,31.5652174 27.2608696,31.9956522 28.4804348,30.7043478 L30.9913043,28.1934783 C31.5652174,27.6195652 31.5652174,26.7586957 30.9913043,26.1847826 L26.4717391,21.6652174 C25.8978261,21.0913043 25.0369565,21.0913043 24.4630435,21.6652174 L22.9565217,23.1717391 C22.023913,24.1043478 20.2304348,23.5304348 18.9391304,22.8847826 C17.3608696,22.0956522 15.6391304,20.9478261 14.4195652,19.6565217 L13.3434783,18.6521739 C12.0521739,17.3608696 10.8326087,15.7108696 10.1152174,14.1326087 C9.46956522,12.7695652 8.89565217,10.976087 9.82826087,10.1152174 L11.3347826,8.60869565 C11.9086957,8.03478261 11.9086957,7.17391304 11.3347826,6.6 L6.81521739,2.08043478 C6.52826087,1.72173913 6.16956522,1.57826087 5.81086957,1.57826087 Z" id="Shape" fill-rule="nonzero"></path>
                        </g>
                    </g>
                </g>
            </g>
        </g>
    </g>
</svg>