<?xml version="1.0" encoding="UTF-8"?>
<svg width="32px" height="32px" viewBox="0 0 32 32" version="1.1" xmlns="http://www.w3.org/2000/svg" xmlns:xlink="http://www.w3.org/1999/xlink">
    <!-- Generator: Sketch 44 (41411) - http://www.bohemiancoding.com/sketch -->
    <title>icon_hotline</title>
    <desc>Created with Sketch.</desc>
    <defs></defs>
    <g id="design" stroke="none" stroke-width="1" fill="none" fill-rule="evenodd">
        <g id="1600" transform="translate(-154.000000, -731.000000)" fill="#FFFFFF">
            <g id="1-slide">
                <g id="copy" transform="translate(153.000000, 137.000000)">
                    <g id="location-and-phone" transform="translate(1.000000, 530.000000)">
                        <g id="Group" transform="translate(0.000000, 64.000000)">
                            <g id="icon_hotline">
                                <g id="Shape">
                                    <path d="M25.6695652,31.8608696 C23.9304348,31.8608696 21.773913,31.1652174 19.1304348,29.7043478 C15.5826087,27.826087 11.9652174,24.9043478 10.0173913,22.9565217 L9.04347826,21.9826087 C7.09565217,20.0347826 4.17391304,16.4173913 2.22608696,12.8 C-0.208695652,8.34782609 -0.556521739,5.07826087 1.1826087,3.33913043 L3.6173913,0.904347826 C4.73043478,-0.208695652 6.46956522,-0.139130435 7.51304348,0.904347826 L11.8956522,5.28695652 C13.0086957,6.4 13.0086957,8.13913043 11.8956522,9.1826087 L10.4347826,10.6434783 C10.3652174,10.7130435 10.2956522,11.4782609 10.9913043,13.0086957 C11.6869565,14.4 12.7304348,15.9304348 13.8434783,17.0434783 L14.8173913,18.0173913 C17.4608696,20.6608696 20.8,21.8434783 21.2173913,21.426087 L22.6782609,19.9652174 C23.7913043,18.8521739 25.5304348,18.9217391 26.573913,19.9652174 L30.9565217,24.3478261 C32.0695652,25.4608696 32.0695652,27.2 30.9565217,28.2434783 L28.5217391,30.6782609 C27.8956522,31.5130435 26.9217391,31.8608696 25.6695652,31.8608696 Z M5.63478261,1.53043478 C5.28695652,1.53043478 4.93913043,1.66956522 4.66086957,1.94782609 L2.22608696,4.3826087 C0.904347826,5.63478261 1.39130435,8.34782609 3.47826087,12.173913 C5.35652174,15.6521739 8.13913043,19.1304348 10.0173913,21.0086957 L10.9913043,21.9826087 C12.8695652,23.8608696 16.3478261,26.6434783 19.826087,28.5217391 C23.6521739,30.6086957 26.4347826,31.026087 27.6173913,29.773913 L30.0521739,27.3391304 C30.6086957,26.7826087 30.6086957,25.9478261 30.0521739,25.3913043 L25.6695652,21.0086957 C25.1130435,20.4521739 24.2782609,20.4521739 23.7217391,21.0086957 L22.2608696,22.4695652 C21.3565217,23.373913 19.6173913,22.8173913 18.3652174,22.1913043 C16.8347826,21.426087 15.1652174,20.3130435 13.9826087,19.0608696 L12.9391304,18.0869565 C11.6869565,16.8347826 10.5043478,15.2347826 9.80869565,13.7043478 C9.1826087,12.3826087 8.62608696,10.6434783 9.53043478,9.80869565 L10.9913043,8.34782609 C11.5478261,7.79130435 11.5478261,6.95652174 10.9913043,6.4 L6.60869565,2.0173913 C6.33043478,1.66956522 5.9826087,1.53043478 5.63478261,1.53043478 Z" fill-rule="nonzero"></path>
                                </g>
                            </g>
                        </g>
                    </g>
                </g>
            </g>
        </g>
    </g>
</svg>