<?xml version="1.0" encoding="UTF-8"?>
<svg width="32px" height="39px" viewBox="0 0 32 39" version="1.1" xmlns="http://www.w3.org/2000/svg" xmlns:xlink="http://www.w3.org/1999/xlink">
    <!-- Generator: Sketch 44 (41411) - http://www.bohemiancoding.com/sketch -->
    <title>icon_butik</title>
    <desc>Created with Sketch.</desc>
    <defs></defs>
    <g id="design" stroke="none" stroke-width="1" fill="none" fill-rule="evenodd">
        <g id="1600" transform="translate(-154.000000, -667.000000)" fill="#FFFFFF">
            <g id="1-slide">
                <g id="copy" transform="translate(153.000000, 137.000000)">
                    <g id="location-and-phone" transform="translate(1.000000, 530.000000)">
                        <g id="Group-10">
                            <g id="icon_butik">
                                <g id="Shape">
                                    <path d="M16.0014282,1.73928567 C23.8629994,1.8088571 30.2635707,8.27899981 30.2635707,16.140571 C30.2635707,19.8278567 28.7329993,23.6542852 26.1588565,26.4371422 L16.0014282,36.664142 L5.77442844,26.4371422 C3.20028564,23.6542852 1.73928567,19.8278567 1.73928567,16.2101425 C1.73928567,8.27899981 8.13985695,1.8088571 16.0014282,1.73928567 L16.0014282,1.73928567 Z M16.0014282,0.347857135 C7.37457126,0.417428562 0.347857135,7.44414268 0.347857135,16.140571 C0.347857135,20.3844281 2.15671424,24.4891423 4.80042846,27.3415708 L16.0014282,38.6121419 L27.1328565,27.4111422 C29.7765707,24.5587137 31.5854278,20.4539995 31.5854278,16.140571 C31.6549993,7.44414268 24.6282851,0.417428562 16.0014282,0.347857135 L16.0014282,0.347857135 Z" fill-rule="nonzero"></path>
                                    <path d="M16.0014282,12.870714 C17.7407139,12.870714 19.1321424,14.2621425 19.1321424,16.0014282 C19.1321424,17.7407139 17.7407139,19.1321424 16.0014282,19.1321424 C14.2621425,19.1321424 12.870714,17.7407139 12.870714,16.0014282 C12.870714,14.2621425 14.2621425,12.870714 16.0014282,12.870714 L16.0014282,12.870714 Z M16.0014282,11.4792854 C13.4968568,11.4792854 11.4792854,13.4968568 11.4792854,16.0014282 C11.4792854,18.5059996 13.4968568,20.5235709 16.0014282,20.5235709 C18.5059996,20.5235709 20.5235709,18.5059996 20.5235709,16.0014282 C20.5235709,13.4968568 18.5059996,11.4792854 16.0014282,11.4792854 L16.0014282,11.4792854 Z" fill-rule="nonzero"></path>
                                </g>
                            </g>
                        </g>
                    </g>
                </g>
            </g>
        </g>
    </g>
</svg>