<?xml version="1.0" encoding="UTF-8"?>
<svg width="33px" height="40px" viewBox="0 0 33 40" version="1.1" xmlns="http://www.w3.org/2000/svg" xmlns:xlink="http://www.w3.org/1999/xlink">
    <!-- Generator: Sketch 44 (41411) - http://www.bohemiancoding.com/sketch -->
    <title>icon_butik_dark</title>
    <desc>Created with Sketch.</desc>
    <defs></defs>
    <g id="design" stroke="none" stroke-width="1" fill="none" fill-rule="evenodd">
        <g id="760" transform="translate(-59.000000, -2669.000000)" fill="#666D7B">
            <g id="footer" transform="translate(59.000000, 2669.000000)">
                <g id="Group-12">
                    <g id="icon_butik_dark">
                        <g id="icon_butik">
                            <path d="M16.5,1.78571429 C24.6065217,1.85714286 31.2065217,8.5 31.2065217,16.5714286 C31.2065217,20.3571429 29.6282609,24.2857143 26.973913,27.1428571 L16.5,37.6428571 L5.95434783,27.1428571 C3.3,24.2857143 1.79347826,20.3571429 1.79347826,16.6428571 C1.79347826,8.5 8.39347826,1.85714286 16.5,1.78571429 L16.5,1.78571429 Z M16.5,0.357142857 C7.60434783,0.428571429 0.358695652,7.64285714 0.358695652,16.5714286 C0.358695652,20.9285714 2.22391304,25.1428571 4.95,28.0714286 L16.5,39.6428571 L27.9782609,28.1428571 C30.7043478,25.2142857 32.5695652,21 32.5695652,16.5714286 C32.6413043,7.64285714 25.3956522,0.428571429 16.5,0.357142857 L16.5,0.357142857 Z" id="Shape" fill-rule="nonzero"></path>
                            <path d="M16.5,13.2142857 C18.2934783,13.2142857 19.7282609,14.6428571 19.7282609,16.4285714 C19.7282609,18.2142857 18.2934783,19.6428571 16.5,19.6428571 C14.7065217,19.6428571 13.2717391,18.2142857 13.2717391,16.4285714 C13.2717391,14.6428571 14.7065217,13.2142857 16.5,13.2142857 L16.5,13.2142857 Z M16.5,11.7857143 C13.9173913,11.7857143 11.8369565,13.8571429 11.8369565,16.4285714 C11.8369565,19 13.9173913,21.0714286 16.5,21.0714286 C19.0826087,21.0714286 21.1630435,19 21.1630435,16.4285714 C21.1630435,13.8571429 19.0826087,11.7857143 16.5,11.7857143 L16.5,11.7857143 Z" id="Shape" fill-rule="nonzero"></path>
                        </g>
                    </g>
                </g>
            </g>
        </g>
    </g>
</svg>