<?xml version="1.0" encoding="UTF-8"?>
<svg width="18px" height="19px" viewBox="0 0 18 19" version="1.1" xmlns="http://www.w3.org/2000/svg" xmlns:xlink="http://www.w3.org/1999/xlink">
    <!-- Generator: Sketch 50.2 (55047) - http://www.bohemiancoding.com/sketch -->
    <title>Combined shape 3618</title>
    <desc>Created with Sketch.</desc>
    <defs></defs>
    <g id="Page-1" stroke="none" stroke-width="1" fill="none" fill-rule="evenodd">
        <g id="yura_1280_main" transform="translate(-1100.000000, -4550.000000)" fill="#FFFFFF">
            <g id="social-media" transform="translate(969.000000, 4503.000000)">
                <g id="#3" transform="translate(117.000000, 34.000000)">
                    <path d="M27.032512,13.5001 C29.771622,13.5001 32.000046,15.72838 31.999958,18.46738 L31.999958,26.53244 C31.999958,29.27144 29.771622,31.49972 27.032512,31.49972 L18.96718,31.49972 C16.228246,31.49972 13.999976,29.27144 13.999976,26.53244 L13.999976,18.46738 C13.999976,15.72838 16.228246,13.5001 18.96718,13.5001 L27.032512,13.5001 Z M30.403,26.53244 L30.402912,26.53244 L30.402912,18.46738 C30.402912,16.60898 28.890918,15.0968 27.032512,15.0968 L18.96718,15.0968 C17.108862,15.0968 15.597044,16.60898 15.597044,18.46738 L15.597044,26.53244 C15.597044,28.39084 17.108862,29.90302 18.96718,29.90302 L27.0326,29.90302 C28.891006,29.90302 30.403,28.39084 30.403,26.53244 Z M22.999934,17.86182 C25.557434,17.86182 27.638062,19.9426 27.638062,22.50014 C27.638062,25.0577 25.557434,27.138 22.999934,27.138 C20.442434,27.138 18.361806,25.0577 18.361806,22.50014 C18.361806,19.9426 20.442434,17.86182 22.999934,17.86182 Z M22.999934,25.54066 C24.67673,25.54066 26.040994,24.17664 26.040994,22.50014 C26.040994,20.82318 24.676818,19.45916 22.999934,19.45916 C21.32305,19.45916 19.958874,20.82318 19.958874,22.50014 C19.958874,24.17664 21.323138,25.54066 22.999934,25.54066 Z M27.83263,16.50762 C28.141356,16.50762 28.443746,16.63212 28.660886,16.85054 C28.87917,17.06798 29.0038,17.36998 29.0038,17.67894 C29.0038,17.9868 28.87917,18.28878 28.660886,18.5072 C28.442712,18.72464 28.141356,18.8501 27.83263,18.8501 C27.524938,18.8501 27.222548,18.72464 27.005298,18.5072 C26.787036,18.28878 26.66146,17.9868 26.66146,17.67894 C26.66146,17.36998 26.786948,17.06798 27.005298,16.85054 C27.222636,16.63212 27.524938,16.50762 27.83263,16.50762 Z" id="Combined-shape-3618"></path>
                </g>
            </g>
        </g>
    </g>
</svg>