<?xml version="1.0" encoding="UTF-8"?>
<svg width="18px" height="16px" viewBox="0 0 18 16" version="1.1" xmlns="http://www.w3.org/2000/svg" xmlns:xlink="http://www.w3.org/1999/xlink">
    <!-- Generator: Sketch 50.2 (55047) - http://www.bohemiancoding.com/sketch -->
    <title>logo</title>
    <desc>Created with Sketch.</desc>
    <defs></defs>
    <g id="Page-1" stroke="none" stroke-width="1" fill="none" fill-rule="evenodd">
        <g id="yura_1280_main" transform="translate(-983.000000, -4553.000000)" fill="#FFFFFF">
            <g id="social-media" transform="translate(969.000000, 4503.000000)">
                <g id="#1" transform="translate(0.000000, 34.000000)">
                    <path d="M31.503594,16.777252 C30.789562,17.211052 29.99864,17.52589 29.15725,17.696548 C28.48372,16.959178 27.524828,16.499692 26.462492,16.499692 C24.422652,16.499692 22.769286,18.196318 22.769286,20.28709 C22.769286,20.583694 22.802242,20.872828 22.864898,21.149758 C19.796206,20.991952 17.075202,19.48375 15.253866,17.192332 C14.935878,17.750638 14.754598,18.401554 14.754598,19.096102 C14.754598,20.41048 15.407074,21.569914 16.396876,22.24828 C15.79159,22.227652 15.222626,22.056994 14.72437,21.772612 L14.72437,21.81988 C14.72437,23.655124 15.99751,25.18507 17.685966,25.534792 C17.376712,25.620436 17.050562,25.667542 16.713346,25.667542 C16.474822,25.667542 16.244174,25.642486 16.017926,25.59871 C16.48811,27.102952 17.851362,28.19845 19.46669,28.230022 C18.20345,29.245276 16.610518,29.850364 14.881032,29.850364 C14.582668,29.850364 14.28888,29.832112 13.999888,29.798182 C15.634532,30.872116 17.57447,31.499722 19.660598,31.499722 C26.452724,31.499722 30.166698,25.72813 30.166698,20.723428 L30.154686,20.23237 C30.878486,19.700722 31.50575,19.033606 32.000134,18.27451 C31.337692,18.575704 30.627004,18.779842 29.879928,18.871354 C30.64236,18.402508 31.22679,17.659108 31.503594,16.777252 Z" id="logo"></path>
                </g>
            </g>
        </g>
    </g>
</svg>