<?xml version="1.0" encoding="UTF-8"?>
<svg width="21px" height="16px" viewBox="0 0 21 16" version="1.1" xmlns="http://www.w3.org/2000/svg" xmlns:xlink="http://www.w3.org/1999/xlink">
    <!-- Generator: Sketch 50.2 (55047) - http://www.bohemiancoding.com/sketch -->
    <title>Combined shape 3615</title>
    <desc>Created with Sketch.</desc>
    <defs></defs>
    <g id="Page-1" stroke="none" stroke-width="1" fill="none" fill-rule="evenodd">
        <g id="yura_1280_main" transform="translate(-1158.000000, -4552.000000)" fill="#FFFFFF">
            <g id="social-media" transform="translate(969.000000, 4503.000000)">
                <g id="#4" transform="translate(176.000000, 34.000000)">
                    <path d="M33.18152,16.787556 C33.943016,17.705898 33.999992,19.113228 33.999992,21.154842 L33.999992,24.845166 C33.999992,27.184626 33.636416,28.535976 32.784296,29.363436 C31.953368,30.170592 30.668984,30.499704 28.351136,30.499704 L18.648752,30.499704 C13.873568,30.499704 12.999968,28.595448 12.999968,24.845166 L12.999968,21.154842 C12.999968,19.219032 12.999968,17.820108 13.736312,16.87068 C14.491448,15.897132 15.914696,15.499674 18.648752,15.499674 L28.35104,15.499674 C31.023896,15.499674 32.423456,15.87303 33.18152,16.787556 Z M26.482088,23.50953 C26.70584,23.390568 26.846096,23.155362 26.84576,22.899042 C26.8454,22.64274 26.70464,22.407678 26.480552,22.28967 L22.07468,19.967814 C21.864824,19.857096 21.613088,19.865502 21.410768,19.990332 C21.208472,20.114838 21.085064,20.337678 21.085064,20.577654 L21.085064,25.237242 C21.085064,25.477686 21.208832,25.700544 21.411464,25.82505 C21.519176,25.891506 21.640712,25.924338 21.762512,25.924338 C21.870056,25.924338 21.977768,25.898796 22.076312,25.846146 L26.482088,23.50953 Z" id="Combined-shape-3615"></path>
                </g>
            </g>
        </g>
    </g>
</svg>