<?xml version="1.0" encoding="utf-8"?>
<!-- Generator: Adobe Illustrator 17.1.0, SVG Export Plug-In . SVG Version: 6.00 Build 0)  -->
<!DOCTYPE svg PUBLIC "-//W3C//DTD SVG 1.1//EN" "http://www.w3.org/Graphics/SVG/1.1/DTD/svg11.dtd">
<svg version="1.1" xmlns="http://www.w3.org/2000/svg" xmlns:xlink="http://www.w3.org/1999/xlink" x="0px" y="0px" width="80px"
	 height="16px" viewBox="0 0 80 16" enable-background="new 0 0 80 16" xml:space="preserve">
<g id="Attachment_1_" enable-background="new    ">
	<g id="Attachment">
		<g>
			<path fill-rule="evenodd" clip-rule="evenodd" fill="#C8C9C3" d="M46,0c-0.6,0-1,0.4-1,1v8c0,2.8-2.2,5-5,5s-5-2.2-5-5V5
				c0-1.7,1.3-3,3-3c1.7,0,3,1.3,3,3v3c0,0.6-0.4,1-1,1c-0.6,0-1-0.4-1-1V5c0-0.6-0.4-1-1-1c-0.6,0-1,0.4-1,1v3c0,1.7,1.3,3,3,3
				s3-1.3,3-3V5c0-2.8-2.2-5-5-5c-2.8,0-5,2.2-5,5v4c0,3.9,3.1,7,7,7s7-3.1,7-7V1C47,0.4,46.6,0,46,0z"/>
		</g>
	</g>
</g>
<g id="Shape_77_1_" enable-background="new    ">
	<g id="Shape_77">
		<g>
			<path fill-rule="evenodd" clip-rule="evenodd" fill="#55ACEE" d="M80,2.7c-0.6,0.3-1.2,0.5-1.9,0.6c0.7-0.4,1.2-1.1,1.4-2
				c-0.6,0.4-1.3,0.7-2.1,0.9C76.9,1.4,76,1,75.1,1c-1.8,0-3.3,1.6-3.3,3.5c0,0.3,0,0.5,0.1,0.8c-2.7-0.1-5.1-1.6-6.8-3.7
				c-0.3,0.5-0.4,1.1-0.4,1.8c0,1.2,0.6,2.3,1.5,2.9c-0.5,0-1-0.2-1.5-0.4c0,0,0,0,0,0c0,1.7,1.1,3.1,2.6,3.5
				c-0.3,0.1-0.6,0.1-0.9,0.1c-0.2,0-0.4,0-0.6-0.1c0.4,1.4,1.6,2.4,3.1,2.5c-1.1,0.9-2.5,1.5-4.1,1.5c-0.3,0-0.5,0-0.8,0
				c1.5,1,3.2,1.6,5,1.6c6,0,9.3-5.4,9.3-10.1c0-0.2,0-0.3,0-0.5C79,4,79.6,3.4,80,2.7z"/>
		</g>
	</g>
</g>
<g id="Attachment_copy_1_" enable-background="new    ">
	<g id="Attachment_copy">
		<g>
			<path fill-rule="evenodd" clip-rule="evenodd" fill="#0B5ED8" d="M62,0c-0.6,0-1,0.4-1,1v8c0,2.8-2.2,5-5,5c-2.8,0-5-2.2-5-5V5
				c0-1.7,1.3-3,3-3s3,1.3,3,3v3c0,0.6-0.4,1-1,1c-0.6,0-1-0.4-1-1V5c0-0.6-0.4-1-1-1c-0.6,0-1,0.4-1,1v3c0,1.7,1.3,3,3,3s3-1.3,3-3
				V5c0-2.8-2.2-5-5-5s-5,2.2-5,5v4c0,3.9,3.1,7,7,7c3.9,0,7-3.1,7-7V1C63,0.4,62.6,0,62,0z"/>
		</g>
	</g>
</g>
<g id="Bin_-_alt_1_" enable-background="new    ">
	<g id="Bin_-_alt">
		<g>
			<path fill-rule="evenodd" clip-rule="evenodd" fill="#C8C9C3" d="M6.5,12C6.8,12,7,11.8,7,11.5v-4C7,7.2,6.8,7,6.5,7
				C6.2,7,6,7.2,6,7.5v4C6,11.8,6.2,12,6.5,12z M14,3h-3c0-1.7-1.3-3-3-3C6.3,0,5,1.3,5,3H2C1.4,3,1,3.4,1,4c0,0.6,0.4,1,1,1v8
				c0,1.7,1.3,3,3,3h6c1.7,0,3-1.3,3-3V5c0.6,0,1-0.4,1-1C15,3.4,14.6,3,14,3z M8,2c0.6,0,1,0.4,1,1H7C7,2.4,7.4,2,8,2z M12,13
				c0,0.6-0.4,1-1,1H5c-0.6,0-1-0.4-1-1V5h8V13z M9.5,12c0.3,0,0.5-0.2,0.5-0.5v-4C10,7.2,9.8,7,9.5,7C9.2,7,9,7.2,9,7.5v4
				C9,11.8,9.2,12,9.5,12z"/>
		</g>
	</g>
</g>
<g id="Bin_-_alt_copy_1_" enable-background="new    ">
	<g id="Bin_-_alt_copy">
		<g>
			<path fill-rule="evenodd" clip-rule="evenodd" fill="#0B5ED8" d="M22.5,12c0.3,0,0.5-0.2,0.5-0.5v-4C23,7.2,22.8,7,22.5,7
				C22.2,7,22,7.2,22,7.5v4C22,11.8,22.2,12,22.5,12z M30,3h-3c0-1.7-1.3-3-3-3c-1.7,0-3,1.3-3,3h-3c-0.6,0-1,0.4-1,1
				c0,0.6,0.4,1,1,1v8c0,1.7,1.3,3,3,3h6c1.7,0,3-1.3,3-3V5c0.6,0,1-0.4,1-1C31,3.4,30.6,3,30,3z M24,2c0.6,0,1,0.4,1,1h-2
				C23,2.4,23.4,2,24,2z M28,13c0,0.6-0.4,1-1,1h-6c-0.6,0-1-0.4-1-1V5h8V13z M25.5,12c0.3,0,0.5-0.2,0.5-0.5v-4
				C26,7.2,25.8,7,25.5,7C25.2,7,25,7.2,25,7.5v4C25,11.8,25.2,12,25.5,12z"/>
		</g>
	</g>
</g>
</svg>
