<?xml version="1.0" encoding="utf-8"?>
<!-- Generator: Adobe Illustrator 17.1.0, SVG Export Plug-In . SVG Version: 6.00 Build 0)  -->
<!DOCTYPE svg PUBLIC "-//W3C//DTD SVG 1.1//EN" "http://www.w3.org/Graphics/SVG/1.1/DTD/svg11.dtd">
<svg version="1.1" xmlns="http://www.w3.org/2000/svg" xmlns:xlink="http://www.w3.org/1999/xlink" x="0px" y="0px" width="264px"
	 height="24px" viewBox="0 0 264 24" enable-background="new 0 0 264 24" xml:space="preserve">
<g id="Rounded_Rectangle_28_copy_2_1_" enable-background="new    ">
	<g id="Rounded_Rectangle_28_copy_2">
		<g>
			<path fill-rule="evenodd" clip-rule="evenodd" fill="#F2F6FA" d="M95.9,11.3c0-0.1-0.1-0.3-0.2-0.4c0,0,0,0,0-0.1
				c-0.1-0.1-0.1-0.3-0.2-0.4l-6.9-6.9c-0.8-0.8-2.1-0.8-2.9,0c-0.8,0.8-0.8,2.1,0,2.9l3.5,3.5H74c-1.1,0-2,0.9-2,2s0.9,2,2,2h15.1
				l-3.5,3.5c-0.8,0.8-0.8,2.1,0,2.9c0.8,0.8,2.1,0.8,2.9,0l6.9-6.9c0.1-0.1,0.2-0.2,0.2-0.4c0,0,0,0,0-0.1c0.1-0.1,0.1-0.2,0.2-0.4
				c0.1-0.2,0.1-0.5,0.1-0.7C96,11.8,95.9,11.5,95.9,11.3z"/>
		</g>
	</g>
</g>
<g id="Rounded_Rectangle_28_copy_5_1_" enable-background="new    ">
	<g id="Rounded_Rectangle_28_copy_5">
		<g>
			<path fill-rule="evenodd" clip-rule="evenodd" fill="#4380DA" d="M119.9,11.3c0-0.1-0.1-0.3-0.2-0.4c0,0,0,0,0-0.1
				c-0.1-0.1-0.1-0.3-0.2-0.4l-6.9-6.9c-0.8-0.8-2.1-0.8-2.9,0c-0.8,0.8-0.8,2.1,0,2.9l3.5,3.5H98c-1.1,0-2,0.9-2,2s0.9,2,2,2h15.1
				l-3.5,3.5c-0.8,0.8-0.8,2.1,0,2.9c0.8,0.8,2.1,0.8,2.9,0l6.9-6.9c0.1-0.1,0.2-0.2,0.2-0.4c0,0,0,0,0-0.1c0.1-0.1,0.1-0.2,0.2-0.4
				c0.1-0.2,0.1-0.5,0.1-0.7C120,11.8,119.9,11.5,119.9,11.3z"/>
		</g>
	</g>
</g>
<g id="Rounded_Rectangle_28_copy_6_1_" enable-background="new    ">
	<g id="Rounded_Rectangle_28_copy_6">
		<g>
			<path fill-rule="evenodd" clip-rule="evenodd" fill="#0B5ED8" d="M143.9,11.3c0-0.1-0.1-0.3-0.2-0.4c0,0,0,0,0-0.1
				c-0.1-0.1-0.1-0.3-0.2-0.4l-6.9-6.9c-0.8-0.8-2.1-0.8-2.9,0c-0.8,0.8-0.8,2.1,0,2.9l3.5,3.5H122c-1.1,0-2,0.9-2,2s0.9,2,2,2h15.1
				l-3.5,3.5c-0.8,0.8-0.8,2.1,0,2.9c0.8,0.8,2.1,0.8,2.9,0l6.9-6.9c0.1-0.1,0.2-0.2,0.2-0.4c0,0,0,0,0-0.1c0.1-0.1,0.1-0.2,0.2-0.4
				c0.1-0.2,0.1-0.5,0.1-0.7C144,11.8,143.9,11.5,143.9,11.3z"/>
		</g>
	</g>
</g>
<g id="Rounded_Rectangle_28_copy_3_1_" enable-background="new    ">
	<g id="Rounded_Rectangle_28_copy_3">
		<g>
			<path fill-rule="evenodd" clip-rule="evenodd" fill="#F2F6FA" d="M22,10H6.9l3.5-3.5c0.8-0.8,0.8-2.1,0-2.9
				c-0.8-0.8-2.1-0.8-2.9,0l-6.9,6.9c-0.1,0.1-0.2,0.2-0.2,0.4c0,0,0,0,0,0.1c-0.1,0.1-0.1,0.2-0.2,0.4C0.1,11.5,0,11.7,0,12
				s0.1,0.5,0.1,0.7c0,0.1,0.1,0.3,0.2,0.4c0,0,0,0,0,0.1c0.1,0.1,0.1,0.3,0.2,0.4l6.9,6.9c0.8,0.8,2.1,0.8,2.9,0
				c0.8-0.8,0.8-2.1,0-2.9L6.9,14H22c1.1,0,2-0.9,2-2C24,10.9,23.1,10,22,10z"/>
		</g>
	</g>
</g>
<g id="Rounded_Rectangle_28_copy_4_1_" enable-background="new    ">
	<g id="Rounded_Rectangle_28_copy_4">
		<g>
			<path fill-rule="evenodd" clip-rule="evenodd" fill="#4380DA" d="M46,10H30.9l3.5-3.5c0.8-0.8,0.8-2.1,0-2.9
				c-0.8-0.8-2.1-0.8-2.9,0l-6.9,6.9c-0.1,0.1-0.2,0.2-0.2,0.4c0,0,0,0,0,0.1c-0.1,0.1-0.1,0.2-0.2,0.4C24.1,11.5,24,11.7,24,12
				s0.1,0.5,0.1,0.7c0,0.1,0.1,0.3,0.2,0.4c0,0,0,0,0,0.1c0.1,0.1,0.1,0.3,0.2,0.4l6.9,6.9c0.8,0.8,2.1,0.8,2.9,0
				c0.8-0.8,0.8-2.1,0-2.9L30.9,14H46c1.1,0,2-0.9,2-2C48,10.9,47.1,10,46,10z"/>
		</g>
	</g>
</g>
<g id="Rounded_Rectangle_28_copy_7_1_" enable-background="new    ">
	<g id="Rounded_Rectangle_28_copy_7">
		<g>
			<path fill-rule="evenodd" clip-rule="evenodd" fill="#0B5ED8" d="M70,10H54.9l3.5-3.5c0.8-0.8,0.8-2.1,0-2.9
				c-0.8-0.8-2.1-0.8-2.9,0l-6.9,6.9c-0.1,0.1-0.2,0.2-0.2,0.4c0,0,0,0,0,0.1c-0.1,0.1-0.1,0.2-0.2,0.4C48.1,11.5,48,11.7,48,12
				s0.1,0.5,0.1,0.7c0,0.1,0.1,0.3,0.2,0.4c0,0,0,0,0,0.1c0.1,0.1,0.1,0.3,0.2,0.4l6.9,6.9c0.8,0.8,2.1,0.8,2.9,0
				c0.8-0.8,0.8-2.1,0-2.9L54.9,14H70c1.1,0,2-0.9,2-2C72,10.9,71.1,10,70,10z"/>
		</g>
	</g>
</g>
<g id="Закрыть_copy_5_1_" enable-background="new    ">
	<g id="Закрыть_copy_5">
		<g>
			<path fill-rule="evenodd" clip-rule="evenodd" fill="#F2F6FA" d="M167.4,20.6l-8.6-8.6l8.6-8.6c0.8-0.8,0.8-2,0-2.8
				c-0.8-0.8-2-0.8-2.8,0L156,9.2l-8.7-8.7c-0.8-0.8-2-0.8-2.8,0c-0.8,0.8-0.8,2,0,2.8l8.7,8.7l-8.6,8.6c-0.8,0.8-0.8,2,0,2.8
				c0.8,0.8,2,0.8,2.8,0l8.6-8.6l8.6,8.6c0.8,0.8,2,0.8,2.8,0C168.2,22.7,168.2,21.4,167.4,20.6z"/>
		</g>
	</g>
</g>
<g id="Закрыть_copy_6_1_" enable-background="new    ">
	<g id="Закрыть_copy_6">
		<g>
			<path fill-rule="evenodd" clip-rule="evenodd" fill="#4380DA" d="M191.4,20.6l-8.6-8.6l8.6-8.6c0.8-0.8,0.8-2,0-2.8
				c-0.8-0.8-2-0.8-2.8,0L180,9.2l-8.7-8.7c-0.8-0.8-2-0.8-2.8,0c-0.8,0.8-0.8,2,0,2.8l8.7,8.7l-8.6,8.6c-0.8,0.8-0.8,2,0,2.8
				c0.8,0.8,2,0.8,2.8,0l8.6-8.6l8.6,8.6c0.8,0.8,2,0.8,2.8,0C192.2,22.7,192.2,21.4,191.4,20.6z"/>
		</g>
	</g>
</g>
<g id="Закрыть_copy_7_1_" enable-background="new    ">
	<g id="Закрыть_copy_7">
		<g>
			<path fill-rule="evenodd" clip-rule="evenodd" fill="#0B5ED8" d="M215.4,20.6l-8.6-8.6l8.6-8.6c0.8-0.8,0.8-2,0-2.8
				c-0.8-0.8-2-0.8-2.8,0L204,9.2l-8.7-8.7c-0.8-0.8-2-0.8-2.8,0c-0.8,0.8-0.8,2,0,2.8l8.7,8.7l-8.6,8.6c-0.8,0.8-0.8,2,0,2.8
				c0.8,0.8,2,0.8,2.8,0l8.6-8.6l8.6,8.6c0.8,0.8,2,0.8,2.8,0C216.2,22.7,216.2,21.4,215.4,20.6z"/>
		</g>
	</g>
</g>
<g id="menu_1_" enable-background="new    ">
	<g id="menu">
		<g>
			<path fill-rule="evenodd" clip-rule="evenodd" fill="#4380DA" d="M218,5h20c1.1,0,2-0.9,2-2s-0.9-2-2-2h-20c-1.1,0-2,0.9-2,2
				S216.9,5,218,5z M238,19h-20c-1.1,0-2,0.9-2,2s0.9,2,2,2h20c1.1,0,2-0.9,2-2S239.1,19,238,19z M238,10h-20c-1.1,0-2,0.9-2,2
				s0.9,2,2,2h20c1.1,0,2-0.9,2-2S239.1,10,238,10z"/>
		</g>
	</g>
</g>
<g id="menu_copy_1_" enable-background="new    ">
	<g id="menu_copy">
		<g>
			<path fill-rule="evenodd" clip-rule="evenodd" fill="#0B5ED8" d="M242,5h20c1.1,0,2-0.9,2-2s-0.9-2-2-2h-20c-1.1,0-2,0.9-2,2
				S240.9,5,242,5z M262,19h-20c-1.1,0-2,0.9-2,2s0.9,2,2,2h20c1.1,0,2-0.9,2-2S263.1,19,262,19z M262,10h-20c-1.1,0-2,0.9-2,2
				s0.9,2,2,2h20c1.1,0,2-0.9,2-2S263.1,10,262,10z"/>
		</g>
	</g>
</g>
</svg>
