<?xml version="1.0" encoding="utf-8"?>
<!-- Generator: Adobe Illustrator 17.1.0, SVG Export Plug-In . SVG Version: 6.00 Build 0)  -->
<!DOCTYPE svg PUBLIC "-//W3C//DTD SVG 1.1//EN" "http://www.w3.org/Graphics/SVG/1.1/DTD/svg11.dtd">
<svg version="1.1" xmlns="http://www.w3.org/2000/svg" xmlns:xlink="http://www.w3.org/1999/xlink" x="0px" y="0px" width="200px"
	 height="240px" viewBox="0 0 200 240" enable-background="new 0 0 200 240" xml:space="preserve">
<g id="Shape_8_copy_1_" opacity="0.749" enable-background="new    ">
	<g id="Shape_8_copy" opacity="0.75">
		<g>
			<path fill-rule="evenodd" clip-rule="evenodd" fill="#E9ECF0" d="M73.1,197.4c-0.9-0.9-2-1.7-3.2-2.4L65,220.5l4.4-1.3
				c0.1,0,0.1,0,0.2,0l4-21.2C73.5,197.8,73.3,197.6,73.1,197.4z M64.8,192.8l-5.6,29.4l4.7-1.4l5-26.4
				C67.6,193.8,66.3,193.3,64.8,192.8z M58.4,192c-0.4,0-0.8,0-1.1,0c-1,0-2-0.1-3.1-0.3l-6.5,34l4.7-1.4l6.1-32.3
				C58.5,192,58.4,192,58.4,192z M49.7,190.2l-6.3,33.1c-0.3,1.8,0.5,3,2,3c0.3,0,0.7-0.1,1-0.2l0.1,0l6.6-34.5
				C52,191.2,50.9,190.7,49.7,190.2z M59.6,192l-6.1,32l4.7-1.4l5.7-30C62.4,192.2,60.9,192,59.6,192z M74.6,198.7L70.8,219
				c0.2,0,0.4,0,0.6,0c1.2,0,2.6,0.3,3.7,0.8l3.6-18.8C77.1,200.3,75.8,199.6,74.6,198.7z M102.4,199.4l-6.9,36.3
				c0.5,0.3,1,0.5,1.5,0.5c1,0,1.8-0.8,2.1-2.2l6.5-34C104.6,199.7,103.5,199.5,102.4,199.4z M100,199.3c-1.3,0-2.6,0.1-3.8,0.3
				l-6.1,31.8l4.4,3.5l6.8-35.7C100.9,199.3,100.4,199.3,100,199.3z M105,217.4l5.9,20.6c0.4,1.3,1.2,2,2.1,2h0
				c0.6,0,1.2-0.3,1.9-0.9l0.1-0.1l-8.5-29.4L105,217.4z M85.5,202.2c-0.2,0-0.4,0-0.6,0L80.7,224l3.8,3l4.8-25.3
				C88.1,202,86.8,202.2,85.5,202.2z M92.2,200.8c-0.6,0.3-1.2,0.5-1.8,0.7l-5,26.3l3.8,3l5.9-30.9C94,200.1,93,200.4,92.2,200.8z
				 M79.6,201.2l-3.6,19c0.2,0.1,0.3,0.2,0.4,0.3l3.4,2.7l4-21.1C82.3,202,80.9,201.7,79.6,201.2z M108.1,200.9l-1.2,6.4l8.9,30.9
				l3.5-3.4l-9.6-33.4C109.2,201.3,108.6,201.1,108.1,200.9z M114.5,202.2c-1.2,0-2.5-0.1-3.6-0.4l9.3,32.3l3.5-3.4l-8.2-28.5
				C115.1,202.2,114.8,202.2,114.5,202.2z M116.5,202.1l8,27.8l3.5-3.4l-7.3-25.4C119.4,201.6,118,201.9,116.5,202.1z M197.7,91.5
				c-3.1-4.5-4.5-12.5-3.1-17.8c1.4-5.3-1.1-12.2-5.5-15.4c-4.4-3.2-8.5-10.2-9-15.7c-0.5-5.5-5.2-11.1-10.4-12.6
				c-5.2-1.4-11.4-6.7-13.7-11.6c-2.3-5-8.6-8.7-14.1-8.2c-5.4,0.5-13-2.3-16.9-6.2c-3.9-3.9-11.1-5.1-16-2.8
				c-4.9,2.3-13,2.3-17.9,0c-4.9-2.3-12.1-1-16,2.8c-3.9,3.9-11.4,6.6-16.9,6.2c-5.4-0.4-11.7,3.2-14,8.2c-2.3,5-8.5,10.2-13.7,11.6
				c-5.2,1.4-9.9,7.1-10.4,12.6c-0.5,5.5-4.5,12.5-9,15.7C6.5,61.4,4,68.4,5.4,73.7C6.8,79,5.4,87,2.3,91.5
				c-1.4,2.1-2.2,4.8-2.3,7.6v1.3c0.1,2.8,0.9,5.5,2.3,7.6c3.1,4.5,4.5,12.5,3.1,17.8C4,131.1,6.5,138,11,141.2
				c4.4,3.2,8.5,10.2,9,15.7c0.5,5.5,5.2,11.1,10.4,12.6c5.2,1.4,11.4,6.7,13.7,11.6c2.3,5,8.6,8.7,14,8.2c5.4-0.5,13,2.3,16.9,6.2
				c3.9,3.9,11.1,5.1,16,2.8c4.9-2.3,13-2.3,17.9,0c4.9,2.3,12.1,1,16-2.8c3.9-3.9,11.4-6.6,16.9-6.2c5.4,0.5,11.7-3.2,14-8.2
				c2.3-5,8.5-10.2,13.7-11.6c5.2-1.4,9.9-7.1,10.4-12.6c0.5-5.5,4.5-12.5,9-15.7c4.4-3.2,6.9-10.1,5.5-15.4
				c-1.4-5.3,0-13.3,3.1-17.8C200.7,103.4,200.7,96,197.7,91.5z M193.2,125c1.4,5.5-1.1,12.5-5.7,15.8c-4.2,3-8,9.7-8.5,14.9
				c-0.5,5.6-5.3,11.4-10.7,12.9c-5,1.4-10.8,6.3-13,11c-2.4,5.1-8.7,8.9-14.4,8.4c-5.1-0.4-12.4,2.3-16,5.9
				c-2.5,2.5-6.6,4.1-10.7,4.1c-2.1,0-4.1-0.4-5.7-1.2c-2.2-1-5.3-1.6-8.5-1.6c-3.2,0-6.2,0.6-8.5,1.6c-1.7,0.8-3.6,1.2-5.7,1.2
				c-4.1,0-8.2-1.6-10.7-4.1c-3.6-3.6-10.8-6.3-16-5.9c-5.7,0.5-12-3.3-14.4-8.4c-2.2-4.7-8-9.7-13-11c-5.4-1.5-10.2-7.3-10.7-12.9
				c-0.5-5.2-4.3-11.9-8.5-14.9c-4.6-3.3-7.1-10.3-5.7-15.8c1.3-5,0-12.6-2.9-16.9c-3.2-4.6-3.2-12.2,0-16.8
				C6.8,87,8.1,79.4,6.8,74.4C5.4,69,7.9,61.9,12.5,58.6c4.2-3,8-9.7,8.5-14.9c0.5-5.6,5.3-11.4,10.7-12.9c5-1.4,10.8-6.3,13-11
				c2.4-5.1,8.8-8.9,14.4-8.4c5.1,0.4,12.4-2.3,16-5.9c2.5-2.5,6.6-4.1,10.7-4.1c2.1,0,4.1,0.4,5.7,1.2c2.2,1,5.3,1.6,8.5,1.6
				c3.2,0,6.2-0.6,8.5-1.6c1.7-0.8,3.6-1.2,5.7-1.2c4.1,0,8.2,1.6,10.7,4.1c3.6,3.6,10.8,6.3,16,5.9c5.7-0.5,12,3.3,14.4,8.4
				c2.2,4.7,8,9.7,13,11c5.4,1.5,10.2,7.3,10.7,12.9c0.5,5.2,4.3,11.9,8.5,14.9c4.6,3.3,7.1,10.3,5.7,15.8c-1.3,5,0,12.6,2.9,16.9
				c3.2,4.6,3.2,12.2,0,16.8C193.2,112.4,191.8,120,193.2,125z M121.7,200.8l7.2,24.9l3.4-3.2c0.1-0.1,0.1-0.1,0.2-0.1l-6.8-23.8
				C124.4,199.4,123.1,200.2,121.7,200.8z M195,92.1c-3.1-4.6-4.5-12.6-3.1-18c1.3-5-1-11.4-5.2-14.3c-4.5-3.2-8.6-10.3-9.1-15.8
				c-0.5-5.1-4.8-10.4-9.7-11.7c-5.3-1.5-11.5-6.7-13.9-11.8c-2.1-4.6-8-8.1-13.1-7.6c-5.5,0.5-13.1-2.4-17-6.3
				c-2.3-2.3-6-3.7-9.7-3.7c-1.9,0-3.7,0.4-5.2,1.1c-2.4,1.1-5.6,1.7-9.1,1.7c-3.4,0-6.6-0.6-9.1-1.7c-1.5-0.7-3.3-1.1-5.2-1.1
				c-3.7,0-7.5,1.4-9.7,3.7c-3.9,3.9-11.5,6.7-17,6.3c-5.1-0.4-11,3.1-13.1,7.6c-2.3,5-8.6,10.3-13.9,11.8
				c-4.9,1.3-9.3,6.6-9.7,11.7c-0.5,5.5-4.6,12.6-9.1,15.8c-4.1,3-6.5,9.4-5.2,14.3c1.4,5.4,0,13.4-3.1,18c-2.9,4.2-2.9,11.1,0,15.3
				c3.1,4.6,4.5,12.6,3.1,18c-1.3,5,1,11.4,5.2,14.3c4.5,3.2,8.6,10.3,9.1,15.8c0.5,5.1,4.8,10.4,9.7,11.7
				c5.3,1.5,11.5,6.7,13.9,11.8c2.1,4.6,8,8.1,13.1,7.6c5.5-0.5,13.1,2.4,17,6.3c2.3,2.3,6,3.7,9.7,3.7c1.9,0,3.7-0.4,5.2-1.1
				c2.4-1.1,5.6-1.7,9.1-1.7c3.4,0,6.6,0.6,9.1,1.7c1.5,0.7,3.3,1.1,5.2,1.1c3.7,0,7.5-1.4,9.7-3.7c3.9-3.9,11.5-6.7,17-6.3
				c5.1,0.4,11-3.1,13.1-7.6c2.3-5,8.6-10.3,13.9-11.8c4.9-1.3,9.3-6.6,9.7-11.7c0.5-5.5,4.6-12.6,9.1-15.8c4.1-3,6.5-9.4,5.2-14.3
				c-1.4-5.4,0-13.4,3.1-18C197.9,103.1,197.9,96.3,195,92.1z M184.8,103.2c-0.1,1.7-0.2,3.3-0.3,4.9l7.9,1
				c-0.1,0.2-0.2,0.5-0.3,0.7l-7.7-0.7c-0.2,1.6-0.4,3.3-0.7,4.9l6.6,1.3c0,0.3-0.1,0.5-0.1,0.8l-6.7-1.1c-0.3,1.6-0.6,3.2-1,4.8
				l7.4,2c0,0.3,0,0.5,0.1,0.8l-7.7-1.8c-0.4,1.6-0.9,3.2-1.4,4.7l9.7,3.4c0,0.2,0,0.4-0.1,0.7c0,0,0,0,0,0l-9.9-3.1
				c-0.5,1.6-1.1,3.1-1.7,4.6l9.6,4.1c0,0,0,0,0,0c-0.1,0.2-0.2,0.4-0.4,0.6l-9.6-3.7c-0.6,1.5-1.3,3-2,4.5l7.1,3.7
				c-0.2,0.2-0.4,0.4-0.6,0.6l-7-3.3c-0.7,1.5-1.5,2.9-2.3,4.4l5.8,3.5c-0.1,0.2-0.3,0.5-0.4,0.7l-5.9-3.3c-0.8,1.4-1.7,2.8-2.6,4.2
				l6.3,4.5c-0.1,0.3-0.1,0.5-0.2,0.8l-6.7-4.4c-0.9,1.4-1.9,2.7-2.9,4l8,6.6c-0.1,0.2-0.2,0.4-0.3,0.6c0,0,0,0,0,0l-8.3-6.3
				c-1,1.3-2.1,2.6-3.1,3.8l7.6,7.2c0,0,0,0,0,0c-0.2,0.1-0.3,0.3-0.5,0.4l-7.8-6.8c-1.1,1.2-2.2,2.4-3.4,3.5l5.4,5.9
				c-0.2,0.1-0.5,0.2-0.7,0.3l-5.4-5.5c-1.2,1.1-2.4,2.2-3.6,3.3l4.2,5.3c-0.2,0.2-0.4,0.3-0.6,0.5l-4.4-5.1c-1.3,1.1-2.5,2.1-3.9,3
				l4.4,6.4c-0.2,0.2-0.3,0.4-0.4,0.7l-4.8-6.4c-1.3,1-2.7,1.9-4.1,2.8l5.3,8.9c-0.2,0.2-0.3,0.3-0.5,0.4c0,0,0,0,0,0l-5.6-8.8
				c-1.4,0.9-2.8,1.7-4.2,2.5l4.7,9.3c0,0,0,0,0,0c-0.2,0.1-0.4,0.1-0.6,0.2l-5-9.1c-1.4,0.8-2.9,1.5-4.4,2.2l3.1,7.4
				c-0.3,0-0.5,0-0.8,0.1l-3.2-7c-1.5,0.7-3,1.3-4.5,1.9l2.2,6.4c-0.2,0.1-0.5,0.2-0.7,0.3l-2.4-6.4c-1.5,0.6-3.1,1-4.7,1.5l2,7.5
				c-0.2,0.2-0.4,0.3-0.6,0.5l-2.3-7.7c-1.6,0.4-3.1,0.8-4.7,1.2l1.9,10.2c-0.2,0.1-0.4,0.2-0.6,0.2c0,0,0-0.1,0-0.1l-2.3-10.2
				c-1.6,0.3-3.2,0.6-4.8,0.8l1.2,10.4c0,0,0,0,0,0c-0.2,0-0.4,0-0.7,0l-1.6-10.3c-1.6,0.2-3.2,0.4-4.9,0.5l0.4,8
				c-0.2-0.1-0.5-0.1-0.8-0.2l-0.7-7.7c-1.6,0.1-3.2,0.2-4.9,0.2l-0.1,6.8c-0.3,0-0.5,0-0.8,0l-0.1-6.8c-1.6,0-3.3-0.1-4.9-0.2
				l-0.7,7.8c-0.3,0.1-0.5,0.1-0.8,0.2l0.4-8.1c-1.6-0.1-3.3-0.3-4.9-0.5l-1.6,10.3c-0.2,0-0.4,0-0.7,0c0,0,0,0,0,0l1.3-10.4
				c-1.6-0.2-3.2-0.5-4.8-0.9l-2.4,10.2l0,0c-0.2-0.1-0.4-0.2-0.6-0.3l1.9-10.2c-1.6-0.4-3.2-0.8-4.7-1.2l-2.3,7.6
				c-0.2-0.2-0.4-0.3-0.6-0.5l2-7.5c-1.6-0.5-3.1-1-4.7-1.5l-2.4,6.3c-0.2-0.1-0.5-0.2-0.7-0.3l2.2-6.4c-1.5-0.6-3-1.2-4.5-1.9
				l-3.3,7.1c-0.3,0-0.5,0-0.8,0l3.1-7.5c-1.5-0.7-3-1.4-4.4-2.2l-5,9.1c-0.2-0.1-0.4-0.1-0.6-0.2c0,0,0,0,0,0l4.7-9.4
				c-1.4-0.8-2.8-1.6-4.2-2.5l-5.7,8.8c-0.2-0.1-0.3-0.3-0.5-0.5l5.3-8.9c-1.4-0.9-2.7-1.8-4-2.8l-4.8,6.4c-0.1-0.2-0.3-0.4-0.4-0.7
				l4.4-6.3c-1.3-1-2.6-2-3.8-3l-4.4,5.1c-0.2-0.2-0.4-0.3-0.6-0.5l4.2-5.3c-1.2-1.1-2.4-2.2-3.6-3.3l-5.5,5.5
				c-0.2-0.1-0.5-0.2-0.7-0.3l5.5-5.9c-1.2-1.2-2.3-2.3-3.4-3.5l-7.8,6.8c-0.2-0.1-0.3-0.3-0.5-0.4l7.6-7.2
				c-1.1-1.2-2.1-2.5-3.1-3.8l-8.3,6.3c-0.1-0.2-0.2-0.4-0.3-0.6l8-6.5c-1-1.3-2-2.6-2.9-4l-6.6,4.3c-0.1-0.3-0.1-0.5-0.2-0.8
				l6.2-4.4c-0.9-1.4-1.8-2.8-2.6-4.2l-5.9,3.3c-0.1-0.2-0.3-0.5-0.4-0.7l5.8-3.5c-0.8-1.4-1.6-2.9-2.3-4.4l-7,3.3
				c-0.2-0.2-0.4-0.4-0.6-0.5l7.1-3.7c-0.7-1.5-1.4-3-2-4.5l-9.6,3.7c-0.1-0.2-0.2-0.4-0.3-0.6l9.6-4.1c-0.6-1.5-1.2-3.1-1.7-4.6
				l-9.9,3c0-0.2-0.1-0.4-0.1-0.7l9.7-3.4c-0.5-1.6-0.9-3.1-1.3-4.7l-7.7,1.8c0-0.3,0.1-0.5,0.1-0.8l7.4-2c-0.4-1.6-0.7-3.2-1-4.8
				L9.8,116c0-0.3-0.1-0.5-0.1-0.8l6.6-1.3c-0.3-1.6-0.5-3.2-0.7-4.9l-7.7,0.7c-0.1-0.2-0.2-0.5-0.4-0.7l8-1
				c-0.2-1.6-0.3-3.3-0.3-4.9l-10.3,0.2c0-0.2-0.1-0.4-0.1-0.7l10.4-0.6c0-0.8-0.1-1.5-0.1-2.3c0-0.9,0-1.7,0.1-2.6L4.8,96.5
				c0-0.2,0.1-0.4,0.2-0.7l10.3,0.2c0.1-1.6,0.2-3.3,0.3-4.9l-7.8-1c0.1-0.2,0.2-0.5,0.3-0.7l7.6,0.7c0.2-1.6,0.4-3.3,0.7-4.9
				l-6.6-1.3c0-0.3,0.1-0.5,0.1-0.8l6.7,1.1c0.3-1.6,0.6-3.2,1-4.8l-7.5-2c0-0.3-0.1-0.5-0.1-0.8l7.8,1.8c0.4-1.6,0.9-3.2,1.4-4.7
				l-9.7-3.4c0-0.2,0.1-0.4,0.1-0.7l10,3.1c0.5-1.6,1.1-3.1,1.7-4.6l-9.6-4.1c0.1-0.2,0.2-0.4,0.4-0.6l9.6,3.7c0.6-1.5,1.3-3,2-4.5
				l-7-3.6c0.2-0.2,0.4-0.4,0.6-0.6l6.9,3.3c0.7-1.5,1.5-2.9,2.3-4.3l-5.8-3.5c0.1-0.2,0.3-0.5,0.4-0.7l5.9,3.3
				c0.8-1.4,1.7-2.8,2.6-4.2L23,47.7c0.1-0.3,0.1-0.5,0.2-0.8l6.7,4.4c0.9-1.4,1.9-2.7,2.9-4l-8-6.6c0.1-0.2,0.2-0.4,0.3-0.6
				l8.3,6.3c1-1.3,2-2.5,3.1-3.8L29,35.5c0.2-0.1,0.4-0.3,0.5-0.4l7.8,6.8c1.1-1.2,2.2-2.4,3.4-3.5l-5.4-5.9
				c0.2-0.1,0.5-0.2,0.7-0.3l5.4,5.5c1.2-1.1,2.4-2.2,3.6-3.3l-4.2-5.3c0.2-0.2,0.4-0.3,0.6-0.5l4.4,5.1c1.2-1,2.5-2,3.8-3l-4.4-6.4
				c0.2-0.2,0.3-0.4,0.4-0.7l4.8,6.4c1.3-1,2.7-1.9,4-2.7l-5.3-8.9c0.2-0.2,0.3-0.3,0.5-0.5l5.7,8.8c1.4-0.9,2.8-1.7,4.2-2.5
				L55,14.9c0.2-0.1,0.4-0.1,0.6-0.2l5,9.1c1.4-0.8,2.9-1.5,4.4-2.2l-3.1-7.4c0.3,0,0.5,0,0.8-0.1l3.3,7c1.5-0.7,3-1.3,4.5-1.9
				l-2.2-6.4c0.2-0.1,0.5-0.2,0.7-0.3l2.4,6.4c1.5-0.5,3.1-1,4.6-1.5l-2-7.5c0.2-0.2,0.4-0.3,0.6-0.5l2.3,7.7
				c1.6-0.4,3.1-0.8,4.7-1.2L79.8,5.8c0.2-0.1,0.4-0.2,0.6-0.3l2.4,10.2c1.6-0.3,3.2-0.6,4.8-0.8L86.4,4.5c0.2,0,0.4,0,0.7,0
				l1.6,10.3c1.6-0.2,3.2-0.4,4.8-0.5l-0.4-8.1c0.2,0.1,0.5,0.2,0.8,0.2l0.7,7.8c1.6-0.1,3.2-0.2,4.9-0.2l0.1-6.8c0.3,0,0.5,0,0.8,0
				l0.1,6.8c1.7,0,3.3,0.1,5,0.2l0.7-7.8c0.3-0.1,0.5-0.1,0.8-0.2l-0.4,8.1c1.6,0.1,3.2,0.3,4.8,0.5l1.6-10.3c0.2,0,0.4,0,0.7,0
				l-1.3,10.4c1.6,0.2,3.2,0.5,4.8,0.8l2.4-10.2c0.2,0.1,0.4,0.2,0.6,0.3l-2,10.2c1.6,0.4,3.2,0.8,4.7,1.2l2.3-7.7
				c0.2,0.2,0.4,0.3,0.6,0.5l-2,7.5c1.6,0.5,3.1,1,4.6,1.5l2.4-6.4c0.2,0.1,0.5,0.2,0.7,0.3l-2.2,6.4c1.5,0.6,3,1.2,4.5,1.9l3.3-7
				c0.3,0,0.5,0,0.8,0.1l-3.1,7.4c1.5,0.7,2.9,1.4,4.4,2.2l5-9.1c0.2,0.1,0.4,0.1,0.6,0.2l-4.7,9.4c1.4,0.8,2.8,1.6,4.2,2.5l5.7-8.8
				c0.2,0.1,0.3,0.3,0.5,0.5l-5.3,8.9c1.4,0.9,2.7,1.8,4,2.8l4.8-6.4c0.1,0.2,0.3,0.4,0.4,0.7l-4.4,6.4c1.3,1,2.6,2,3.8,3l4.4-5.1
				c0.2,0.2,0.4,0.3,0.6,0.5l-4.2,5.3c1.2,1.1,2.4,2.2,3.6,3.3l5.5-5.5c0.2,0.1,0.5,0.2,0.7,0.3l-5.4,5.9c1.2,1.1,2.3,2.3,3.4,3.5
				l7.8-6.8c0.2,0.1,0.4,0.3,0.5,0.4l-7.6,7.2c1.1,1.2,2.1,2.5,3.1,3.8l8.3-6.3c0.1,0.2,0.2,0.4,0.3,0.6l-8,6.6c1,1.3,2,2.6,2.9,4
				l6.7-4.4c0.1,0.3,0.1,0.5,0.2,0.8l-6.3,4.5c0.9,1.4,1.8,2.8,2.6,4.2l5.9-3.3c0.1,0.2,0.3,0.5,0.4,0.7l-5.8,3.5
				c0.8,1.4,1.6,2.9,2.3,4.3l7-3.3c0.2,0.2,0.4,0.4,0.6,0.6l-7.1,3.6c0.7,1.5,1.4,3,2,4.5l9.6-3.7c0.1,0.2,0.2,0.4,0.4,0.6l-9.6,4.1
				c0.6,1.5,1.2,3.1,1.7,4.6l10-3.1c0,0.2,0.1,0.4,0.1,0.7l-9.7,3.4c0.5,1.6,1,3.1,1.4,4.7l7.8-1.8c0,0.3-0.1,0.5-0.1,0.8l-7.4,2
				c0.4,1.6,0.7,3.2,1,4.8l6.7-1c0,0.3,0.1,0.5,0.1,0.8l-6.6,1.3c0.3,1.6,0.5,3.2,0.7,4.9l7.7-0.7c0.1,0.2,0.2,0.5,0.3,0.7l-7.9,1
				c0.2,1.6,0.3,3.3,0.3,4.9l10.3-0.2c0.1,0.2,0.1,0.4,0.1,0.7l-10.4,0.6c0,0.8,0.1,1.7,0.1,2.5c0,0.8,0,1.6-0.1,2.4l10.4,0.6
				c0,0.2-0.1,0.4-0.1,0.6L184.8,103.2z M126.9,197.4c-0.1,0.1-0.3,0.3-0.5,0.4l6.9,23.9c1.2-0.7,2.7-1.2,4.1-1.3l-7.3-25.4
				C128.8,195.7,127.7,196.5,126.9,197.4z M155.1,186.7c-0.8,0.8-1.7,1.6-2.7,2.2l10.4,36.3c0.1,0,0.3,0,0.4,0c1.7,0,2.6-1.3,2-3.2
				L155.1,186.7z M142.7,192c-0.4,0-0.8,0-1.1,0c0,0-0.1,0-0.2,0l8.8,30.7l4.8,0.9l-9.2-32C144.8,191.9,143.7,192,142.7,192z
				 M136,192.6l8.3,29l4.8,0.9l-8.8-30.5C139,192,137.5,192.2,136,192.6z M131,194.5l7.5,25.9c0.2,0,0.4,0,0.5,0l4.2,0.8l-8.2-28.5
				C133.6,193.3,132.3,193.8,131,194.5z M146.8,191.5l9.3,32.4l5.6,1.1l-10.2-35.5C150,190.3,148.4,191,146.8,191.5z"/>
		</g>
	</g>
</g>
<g id="Ellipse_3_1_" opacity="0.851" enable-background="new    ">
	<g id="Ellipse_3" opacity="0.85">
		<g>
			<ellipse fill-rule="evenodd" clip-rule="evenodd" fill="#E9ECF0" cx="100" cy="99.4" rx="82.2" ry="82.6"/>
		</g>
	</g>
</g>
<g id="Shape_8_copy_2_1_" enable-background="new    ">
	<g id="Shape_8_copy_2">
		<g>
			<path fill-rule="evenodd" clip-rule="evenodd" fill="#C60C30" d="M95.7,155.8l-2.7,0l-0.8-2.6c-0.1-0.3-0.3-0.3-0.4,0l-0.8,2.6
				l-2.7,0c-0.3,0-0.4,0.2-0.1,0.4l2.2,1.6l-0.9,2.6c-0.1,0.3,0,0.4,0.3,0.2l2.2-1.6l2.2,1.6c0.3,0.2,0.4,0.1,0.3-0.2l-0.4-1.2h0v0
				l-1-0.7c-0.3-0.2-0.4-0.6-0.3-0.9c0.1-0.3,0.4-0.6,0.8-0.6c0,0,0,0,0,0l1.2,0h0l1-0.7C96.1,156,96,155.8,95.7,155.8z
				 M103.6,157.7l-3,0l-0.9-2.9c-0.1-0.3-0.3-0.3-0.4,0l-0.9,2.9l-3,0c-0.3,0-0.4,0.2-0.1,0.4l2.4,1.7l-1,2.9
				c-0.1,0.3,0,0.4,0.3,0.2l2.4-1.8l2.4,1.8c0.3,0.2,0.4,0.1,0.3-0.2l-1-2.9l2.4-1.7C104,157.9,103.9,157.7,103.6,157.7z"/>
		</g>
	</g>
	<g id="Shape_8_copy_2_3_">
		<g>
			<path fill-rule="evenodd" clip-rule="evenodd" fill="#C60C30" d="M110.7,155.8l-2.7,0l-0.8-2.6c-0.1-0.3-0.3-0.3-0.4,0l-0.8,2.6
				l-2.7,0c-0.3,0-0.4,0.2-0.1,0.4l1,0.7h0l1.2,0c0,0,0,0,0,0c0.4,0,0.7,0.2,0.8,0.6c0.1,0.3,0,0.7-0.3,0.9l-1,0.7v0h0l-0.4,1.2
				c-0.1,0.3,0,0.4,0.3,0.2l2.2-1.6l2.2,1.6c0.3,0.2,0.4,0.1,0.3-0.2l-0.9-2.6l2.2-1.6C111.1,156,111,155.8,110.7,155.8z"/>
		</g>
	</g>
</g>
<g id="статус_золотого_сертифицированного__партнера_copy_1_" enable-background="new    ">
	<g id="статус_золотого_сертифицированного__партнера_copy">
		<g>
			<path fill-rule="evenodd" clip-rule="evenodd" fill="#3F4146" d="M55.6,108.3c0.3,0.3,0.6,0.5,0.9,0.6c0.4,0.1,0.8,0.2,1.3,0.2
				c0.2,0,0.5,0,0.7,0c0.2,0,0.4-0.1,0.6-0.1c0.2,0,0.3-0.1,0.4-0.1c0.1,0,0.2-0.1,0.3-0.1l-0.3-0.9c-0.1,0.1-0.3,0.1-0.6,0.2
				c-0.3,0.1-0.6,0.1-1,0.1c-0.3,0-0.6-0.1-0.9-0.2c-0.2-0.1-0.4-0.3-0.6-0.5c-0.2-0.2-0.3-0.4-0.3-0.7c-0.1-0.3-0.1-0.6-0.1-0.9
				c0-0.4,0-0.7,0.1-1c0.1-0.3,0.2-0.5,0.4-0.7c0.2-0.2,0.4-0.3,0.6-0.4c0.2-0.1,0.5-0.1,0.8-0.1c0.3,0,0.6,0,0.9,0.1
				c0.3,0.1,0.5,0.2,0.6,0.3l0.3-0.9c0,0-0.1-0.1-0.2-0.1c-0.1-0.1-0.2-0.1-0.4-0.2c-0.2,0-0.3-0.1-0.5-0.1c-0.2,0-0.4-0.1-0.7-0.1
				c-0.4,0-0.8,0.1-1.2,0.2c-0.4,0.1-0.7,0.4-1,0.6c-0.3,0.3-0.5,0.6-0.7,1c-0.2,0.4-0.2,0.9-0.2,1.4c0,0.5,0.1,1,0.2,1.4
				C55.2,107.7,55.4,108,55.6,108.3z M63.8,109v-5.3h1.9v-1h-5v1h1.9v5.3H63.8z M71.9,109c-0.2-0.7-0.5-1.3-0.7-1.8
				c-0.2-0.6-0.4-1.1-0.6-1.6c-0.2-0.5-0.4-1-0.6-1.4c-0.2-0.5-0.4-0.9-0.6-1.3h-1.1c-0.2,0.4-0.4,0.9-0.6,1.3
				c-0.2,0.5-0.4,0.9-0.6,1.4c-0.2,0.5-0.4,1-0.6,1.6c-0.2,0.6-0.4,1.2-0.7,1.8H67c0.1-0.2,0.2-0.5,0.3-0.7c0.1-0.2,0.2-0.5,0.3-0.7
				h2.6c0.1,0.3,0.2,0.5,0.3,0.7c0.1,0.2,0.2,0.5,0.3,0.7H71.9z M67.8,106.6c0.2-0.5,0.4-1,0.6-1.5c0.2-0.5,0.3-0.8,0.5-1.2
				c0.1,0.3,0.3,0.7,0.5,1.2c0.2,0.5,0.4,1,0.6,1.5H67.8z M73.9,109h1.1v-5.3H77v-1h-5v1h1.9V109z M78.9,104.9
				c0.2,0.4,0.4,0.8,0.6,1.2c0.2,0.4,0.5,0.8,0.7,1.2c-0.2,0.3-0.3,0.5-0.5,0.6c-0.2,0.1-0.4,0.2-0.7,0.2c-0.1,0-0.3,0-0.4,0
				c-0.1,0-0.2-0.1-0.4-0.1l-0.2,0.9c0.1,0.1,0.3,0.1,0.5,0.1c0.2,0,0.4,0.1,0.5,0.1c0.3,0,0.5,0,0.8-0.1c0.2-0.1,0.4-0.2,0.6-0.4
				c0.2-0.2,0.4-0.4,0.5-0.6c0.2-0.2,0.3-0.5,0.5-0.9c0.1-0.3,0.3-0.6,0.4-1c0.1-0.3,0.3-0.7,0.4-1c0.1-0.4,0.3-0.7,0.4-1.1
				c0.1-0.4,0.3-0.8,0.4-1.3H82c-0.2,0.6-0.4,1.2-0.6,1.8c-0.2,0.6-0.4,1.2-0.6,1.7c-0.2-0.3-0.3-0.6-0.5-0.9
				c-0.2-0.3-0.3-0.6-0.4-0.9c-0.1-0.3-0.3-0.6-0.4-0.9c-0.1-0.3-0.2-0.5-0.3-0.8h-1.3c0.1,0.3,0.3,0.6,0.4,1
				C78.5,104.1,78.7,104.5,78.9,104.9z M84.9,108.3c0.3,0.3,0.6,0.5,0.9,0.6c0.4,0.1,0.8,0.2,1.3,0.2c0.2,0,0.5,0,0.7,0
				c0.2,0,0.4-0.1,0.6-0.1c0.2,0,0.3-0.1,0.4-0.1c0.1,0,0.2-0.1,0.3-0.1l-0.3-0.9c-0.1,0.1-0.3,0.1-0.6,0.2c-0.3,0.1-0.6,0.1-1,0.1
				c-0.3,0-0.6-0.1-0.9-0.2c-0.2-0.1-0.4-0.3-0.6-0.5c-0.2-0.2-0.3-0.4-0.3-0.7c-0.1-0.3-0.1-0.6-0.1-0.9c0-0.4,0-0.7,0.1-1
				c0.1-0.3,0.2-0.5,0.4-0.7c0.2-0.2,0.4-0.3,0.6-0.4c0.2-0.1,0.5-0.1,0.8-0.1c0.3,0,0.6,0,0.9,0.1c0.3,0.1,0.5,0.2,0.6,0.3l0.3-0.9
				c0,0-0.1-0.1-0.2-0.1c-0.1-0.1-0.2-0.1-0.4-0.2c-0.2,0-0.3-0.1-0.5-0.1c-0.2,0-0.4-0.1-0.7-0.1c-0.4,0-0.8,0.1-1.2,0.2
				c-0.4,0.1-0.7,0.4-1,0.6c-0.3,0.3-0.5,0.6-0.7,1c-0.2,0.4-0.2,0.9-0.2,1.4c0,0.5,0.1,1,0.2,1.4C84.4,107.7,84.6,108,84.9,108.3z
				 M94.5,108.2c-0.2,0-0.3,0-0.5,0c-0.2,0-0.3-0.1-0.5-0.1c-0.1,0-0.3-0.1-0.4-0.1c-0.1,0-0.2-0.1-0.3-0.1l-0.3,0.9
				c0.1,0,0.2,0.1,0.4,0.2c0.1,0.1,0.3,0.1,0.5,0.2c0.2,0,0.4,0.1,0.6,0.1c0.2,0,0.4,0,0.6,0c0.4,0,0.8,0,1.1-0.1
				c0.3-0.1,0.6-0.2,0.8-0.3c0.2-0.2,0.4-0.3,0.5-0.6c0.1-0.2,0.2-0.5,0.2-0.9c0-0.2,0-0.4-0.1-0.6c-0.1-0.2-0.1-0.3-0.3-0.5
				c-0.1-0.1-0.2-0.2-0.4-0.3c-0.1-0.1-0.3-0.2-0.5-0.2c0.3-0.1,0.5-0.3,0.7-0.6c0.1-0.2,0.2-0.5,0.2-0.8c0-0.3-0.1-0.5-0.2-0.8
				c-0.1-0.2-0.3-0.4-0.5-0.5c-0.2-0.1-0.4-0.3-0.7-0.3c-0.3-0.1-0.6-0.1-0.9-0.1c-0.4,0-0.8,0-1.1,0.1c-0.3,0.1-0.6,0.2-0.8,0.3
				l0.4,0.9c0.2-0.1,0.4-0.2,0.6-0.3c0.3-0.1,0.5-0.1,0.9-0.1c0.3,0,0.6,0.1,0.8,0.2c0.2,0.1,0.3,0.3,0.3,0.6c0,0.2,0,0.3-0.1,0.4
				c-0.1,0.1-0.2,0.2-0.3,0.3c-0.1,0.1-0.3,0.1-0.5,0.1c-0.2,0-0.3,0-0.5,0h-0.7v0.9h0.7c0.2,0,0.5,0,0.7,0c0.2,0,0.4,0.1,0.5,0.1
				c0.2,0.1,0.3,0.2,0.4,0.3c0.1,0.1,0.1,0.3,0.1,0.5c0,0.3-0.1,0.6-0.4,0.7C95.4,108.1,95,108.2,94.5,108.2z M102.8,109
				c0.4-0.1,0.7-0.3,1-0.6c0.3-0.3,0.5-0.6,0.6-1c0.2-0.4,0.2-0.9,0.2-1.4c0-0.5-0.1-1-0.2-1.4c-0.2-0.4-0.4-0.7-0.7-1
				c-0.3-0.3-0.6-0.5-1-0.6c-0.4-0.1-0.8-0.2-1.2-0.2c-0.4,0-0.8,0.1-1.2,0.2c-0.4,0.1-0.7,0.3-1,0.6c-0.3,0.3-0.5,0.6-0.7,1
				c-0.2,0.4-0.2,0.9-0.2,1.4c0,0.5,0.1,1,0.2,1.4c0.2,0.4,0.4,0.7,0.7,1c0.3,0.3,0.6,0.5,1,0.6c0.4,0.1,0.8,0.2,1.2,0.2
				C102,109.2,102.4,109.1,102.8,109z M100.8,108c-0.2-0.1-0.4-0.3-0.6-0.5c-0.2-0.2-0.3-0.4-0.4-0.7c-0.1-0.3-0.1-0.6-0.1-0.9
				c0-0.3,0-0.7,0.1-0.9c0.1-0.3,0.2-0.5,0.4-0.7c0.2-0.2,0.4-0.4,0.6-0.5c0.2-0.1,0.5-0.2,0.8-0.2c0.3,0,0.5,0.1,0.8,0.2
				c0.2,0.1,0.4,0.3,0.6,0.5c0.2,0.2,0.3,0.4,0.4,0.7c0.1,0.3,0.1,0.6,0.1,0.9c0,0.3,0,0.7-0.1,0.9c-0.1,0.3-0.2,0.5-0.4,0.7
				c-0.2,0.2-0.4,0.3-0.6,0.5c-0.2,0.1-0.5,0.2-0.8,0.2C101.3,108.2,101,108.1,100.8,108z M106.8,108.9c0.3-0.2,0.6-0.4,0.8-0.6
				c0.2-0.3,0.4-0.6,0.5-0.9c0.1-0.3,0.2-0.7,0.3-1.1c0.1-0.4,0.1-0.8,0.1-1.2c0-0.4,0-0.8,0.1-1.2h1.7v5.3h1.1v-6.2h-3.9
				c0,0.9,0,1.6-0.1,2.3c-0.1,0.7-0.2,1.3-0.3,1.8c-0.1,0.2-0.1,0.4-0.2,0.5c-0.1,0.1-0.2,0.3-0.3,0.4c-0.1,0.1-0.3,0.2-0.4,0.2
				c-0.2,0.1-0.4,0.1-0.6,0.1l0.1,1C106.1,109.1,106.4,109,106.8,108.9z M114.9,109c0.4,0.1,0.8,0.2,1.2,0.2c0.4,0,0.8-0.1,1.2-0.2
				c0.4-0.1,0.7-0.3,1-0.6c0.3-0.3,0.5-0.6,0.6-1c0.2-0.4,0.2-0.9,0.2-1.4c0-0.5-0.1-1-0.2-1.4c-0.2-0.4-0.4-0.7-0.7-1
				c-0.3-0.3-0.6-0.5-1-0.6c-0.4-0.1-0.8-0.2-1.2-0.2c-0.4,0-0.8,0.1-1.2,0.2c-0.4,0.1-0.7,0.3-1,0.6c-0.3,0.3-0.5,0.6-0.7,1
				c-0.2,0.4-0.2,0.9-0.2,1.4c0,0.5,0.1,1,0.2,1.4c0.2,0.4,0.4,0.7,0.7,1C114.2,108.6,114.5,108.8,114.9,109z M114.3,105
				c0.1-0.3,0.2-0.5,0.4-0.7c0.2-0.2,0.4-0.4,0.6-0.5c0.2-0.1,0.5-0.2,0.8-0.2c0.3,0,0.5,0.1,0.8,0.2c0.2,0.1,0.4,0.3,0.6,0.5
				c0.2,0.2,0.3,0.4,0.4,0.7c0.1,0.3,0.1,0.6,0.1,0.9c0,0.3,0,0.7-0.1,0.9c-0.1,0.3-0.2,0.5-0.4,0.7c-0.2,0.2-0.4,0.3-0.6,0.5
				c-0.2,0.1-0.5,0.2-0.8,0.2c-0.3,0-0.5-0.1-0.8-0.2c-0.2-0.1-0.4-0.3-0.6-0.5c-0.2-0.2-0.3-0.4-0.4-0.7c-0.1-0.3-0.1-0.6-0.1-0.9
				C114.2,105.6,114.2,105.3,114.3,105z M121.8,109h1.1v-5.3h1.9v-1h-5v1h1.9V109z M128.8,109.2c0.4,0,0.8-0.1,1.2-0.2
				c0.4-0.1,0.7-0.3,1-0.6c0.3-0.3,0.5-0.6,0.6-1c0.2-0.4,0.2-0.9,0.2-1.4c0-0.5-0.1-1-0.2-1.4c-0.2-0.4-0.4-0.7-0.7-1
				s-0.6-0.5-1-0.6c-0.4-0.1-0.8-0.2-1.2-0.2c-0.4,0-0.8,0.1-1.2,0.2c-0.4,0.1-0.7,0.3-1,0.6c-0.3,0.3-0.5,0.6-0.7,1
				c-0.2,0.4-0.2,0.9-0.2,1.4c0,0.5,0.1,1,0.2,1.4c0.2,0.4,0.4,0.7,0.7,1c0.3,0.3,0.6,0.5,1,0.6
				C127.9,109.1,128.3,109.2,128.8,109.2z M127,106.8c-0.1-0.3-0.1-0.6-0.1-0.9c0-0.3,0-0.7,0.1-0.9c0.1-0.3,0.2-0.5,0.4-0.7
				c0.2-0.2,0.4-0.4,0.6-0.5c0.2-0.1,0.5-0.2,0.8-0.2c0.3,0,0.5,0.1,0.8,0.2c0.2,0.1,0.4,0.3,0.6,0.5c0.2,0.2,0.3,0.4,0.4,0.7
				c0.1,0.3,0.1,0.6,0.1,0.9c0,0.3,0,0.7-0.1,0.9c-0.1,0.3-0.2,0.5-0.4,0.7c-0.2,0.2-0.4,0.3-0.6,0.5c-0.2,0.1-0.5,0.2-0.8,0.2
				c-0.3,0-0.5-0.1-0.8-0.2c-0.2-0.1-0.4-0.3-0.6-0.5C127.2,107.4,127.1,107.1,127,106.8z M134.6,103.8h2.8v-1h-4v6.2h1.1V103.8z
				 M142.5,109c0.4-0.1,0.7-0.3,1-0.6c0.3-0.3,0.5-0.6,0.6-1c0.2-0.4,0.2-0.9,0.2-1.4c0-0.5-0.1-1-0.2-1.4c-0.2-0.4-0.4-0.7-0.7-1
				c-0.3-0.3-0.6-0.5-1-0.6c-0.4-0.1-0.8-0.2-1.2-0.2c-0.4,0-0.8,0.1-1.2,0.2c-0.4,0.1-0.7,0.3-1,0.6c-0.3,0.3-0.5,0.6-0.7,1
				c-0.2,0.4-0.2,0.9-0.2,1.4c0,0.5,0.1,1,0.2,1.4c0.2,0.4,0.4,0.7,0.7,1c0.3,0.3,0.6,0.5,1,0.6c0.4,0.1,0.8,0.2,1.2,0.2
				C141.7,109.2,142.1,109.1,142.5,109z M140.5,108c-0.2-0.1-0.4-0.3-0.6-0.5c-0.2-0.2-0.3-0.4-0.4-0.7c-0.1-0.3-0.1-0.6-0.1-0.9
				c0-0.3,0-0.7,0.1-0.9c0.1-0.3,0.2-0.5,0.4-0.7c0.2-0.2,0.4-0.4,0.6-0.5c0.2-0.1,0.5-0.2,0.8-0.2c0.3,0,0.5,0.1,0.8,0.2
				c0.2,0.1,0.4,0.3,0.6,0.5c0.2,0.2,0.3,0.4,0.4,0.7c0.1,0.3,0.1,0.6,0.1,0.9c0,0.3,0,0.7-0.1,0.9c-0.1,0.3-0.2,0.5-0.4,0.7
				c-0.2,0.2-0.4,0.3-0.6,0.5c-0.2,0.1-0.5,0.2-0.8,0.2C141,108.2,140.7,108.1,140.5,108z M44,123c-0.3,0.1-0.6,0.1-1,0.1
				c-0.3,0-0.6-0.1-0.9-0.2c-0.2-0.1-0.4-0.3-0.6-0.5c-0.2-0.2-0.3-0.4-0.3-0.7c-0.1-0.3-0.1-0.6-0.1-0.9c0-0.4,0-0.7,0.1-1
				c0.1-0.3,0.2-0.5,0.4-0.7c0.2-0.2,0.4-0.3,0.6-0.4c0.2-0.1,0.5-0.1,0.8-0.1c0.3,0,0.6,0,0.9,0.1c0.3,0.1,0.5,0.2,0.6,0.3l0.3-0.9
				c0,0-0.1-0.1-0.2-0.1c-0.1-0.1-0.2-0.1-0.4-0.2c-0.2,0-0.3-0.1-0.5-0.1c-0.2,0-0.4-0.1-0.7-0.1c-0.4,0-0.8,0.1-1.2,0.2
				c-0.4,0.1-0.7,0.4-1,0.6c-0.3,0.3-0.5,0.6-0.7,1c-0.2,0.4-0.2,0.9-0.2,1.4c0,0.5,0.1,1,0.2,1.4c0.1,0.4,0.3,0.7,0.6,1
				c0.3,0.3,0.6,0.5,0.9,0.6c0.4,0.1,0.8,0.2,1.3,0.2c0.2,0,0.5,0,0.7,0c0.2,0,0.4-0.1,0.6-0.1c0.2,0,0.3-0.1,0.4-0.1
				s0.2-0.1,0.3-0.1l-0.3-0.9C44.4,122.9,44.2,123,44,123z M47.5,121.2H50v-0.9h-2.6v-1.5h2.9v-1h-4v6.2h4.2v-1h-3.1V121.2z
				 M55.9,118.2c-0.5-0.3-1.2-0.5-2.1-0.5c-0.3,0-0.6,0-0.9,0c-0.3,0-0.6,0.1-0.9,0.1v6.1h1.1v-2.2h0.6c0.5,0,0.9,0,1.2-0.1
				c0.4-0.1,0.7-0.2,0.9-0.4c0.2-0.2,0.4-0.4,0.6-0.6c0.1-0.3,0.2-0.6,0.2-0.9C56.6,119.1,56.4,118.6,55.9,118.2z M55,120.6
				c-0.3,0.2-0.7,0.2-1.3,0.2h-0.5v-2.1c0.2,0,0.4,0,0.7,0c0.2,0,0.4,0,0.6,0c0.2,0,0.4,0.1,0.5,0.2c0.1,0.1,0.2,0.2,0.3,0.3
				c0.1,0.1,0.1,0.3,0.1,0.5C55.4,120.2,55.3,120.5,55,120.6z M57.5,118.8h1.9v5.3h1.1v-5.3h1.9v-1h-5V118.8z M67.2,118.7
				c-0.3,0.3-0.6,0.7-0.8,1.1c-0.3,0.4-0.5,0.7-0.8,1.1c-0.3,0.4-0.5,0.7-0.7,1v-4.1h-1.1v6.2h1c0.2-0.3,0.4-0.7,0.7-1.1
				c0.3-0.4,0.5-0.8,0.8-1.2c0.3-0.4,0.5-0.8,0.8-1.2c0.3-0.4,0.5-0.7,0.8-1v4.5h1.1v-6.2H68C67.8,118,67.5,118.3,67.2,118.7z
				 M76.7,122.5c0.3-0.2,0.4-0.5,0.6-0.8c0.1-0.3,0.2-0.6,0.2-1c0-0.4-0.1-0.7-0.2-1c-0.1-0.3-0.3-0.6-0.6-0.8
				c-0.3-0.2-0.6-0.4-0.9-0.6c-0.4-0.1-0.7-0.2-1.2-0.2v-0.7h-1.1v0.7c-0.4,0-0.8,0.1-1.2,0.2c-0.4,0.1-0.7,0.3-0.9,0.6
				c-0.3,0.2-0.5,0.5-0.6,0.8c-0.1,0.3-0.2,0.6-0.2,1c0,0.4,0.1,0.7,0.2,1c0.1,0.3,0.3,0.6,0.6,0.8c0.3,0.2,0.6,0.4,0.9,0.5
				c0.4,0.1,0.7,0.2,1.2,0.2v0.7h1.1v-0.7c0.4,0,0.8-0.1,1.2-0.2C76.1,122.9,76.4,122.8,76.7,122.5z M73.5,122.3
				c-0.3,0-0.5,0-0.7-0.1c-0.2-0.1-0.4-0.2-0.5-0.3c-0.2-0.1-0.3-0.3-0.4-0.5c-0.1-0.2-0.1-0.4-0.1-0.7c0-0.5,0.2-0.9,0.5-1.2
				c0.3-0.3,0.7-0.5,1.3-0.5V122.3z M74.6,122.3V119c0.5,0,0.9,0.2,1.3,0.5c0.3,0.3,0.5,0.7,0.5,1.2c0,0.2,0,0.5-0.1,0.7
				c-0.1,0.2-0.2,0.4-0.4,0.5c-0.2,0.1-0.3,0.3-0.5,0.3C75.1,122.3,74.8,122.3,74.6,122.3z M83.2,119.6v4.5h1.1v-6.2h-0.9
				c-0.2,0.3-0.5,0.6-0.8,0.9c-0.3,0.3-0.6,0.7-0.8,1.1c-0.3,0.4-0.5,0.7-0.8,1.1c-0.3,0.4-0.5,0.7-0.7,1v-4.1h-1.1v6.2h1
				c0.2-0.3,0.4-0.7,0.7-1.1c0.3-0.4,0.5-0.8,0.8-1.2c0.3-0.4,0.5-0.8,0.8-1.2C82.6,120.2,82.9,119.9,83.2,119.6z M87.4,117.8h-1.1
				v6.2H91v1.7h1.1v-2.6h-0.9v-5.3H90v5.3h-2.7V117.8z M98.6,124v-6.2h-0.9c-0.2,0.3-0.5,0.6-0.8,0.9c-0.3,0.3-0.6,0.7-0.8,1.1
				c-0.3,0.4-0.5,0.7-0.8,1.1c-0.3,0.4-0.5,0.7-0.7,1v-4.1h-1.1v6.2h1c0.2-0.3,0.4-0.7,0.7-1.1c0.3-0.4,0.5-0.8,0.8-1.2
				c0.3-0.4,0.5-0.8,0.8-1.2s0.5-0.7,0.8-1v4.5H98.6z M101.7,121.8h0.6c0.5,0,0.9,0,1.2-0.1c0.4-0.1,0.7-0.2,0.9-0.4
				c0.2-0.2,0.4-0.4,0.6-0.6c0.1-0.3,0.2-0.6,0.2-0.9c0-0.7-0.2-1.2-0.7-1.5c-0.5-0.3-1.2-0.5-2.1-0.5c-0.3,0-0.6,0-0.9,0
				c-0.3,0-0.6,0.1-0.9,0.1v6.1h1.1V121.8z M101.7,118.7c0.2,0,0.4,0,0.7,0c0.2,0,0.4,0,0.6,0c0.2,0,0.4,0.1,0.5,0.2
				c0.1,0.1,0.2,0.2,0.3,0.3c0.1,0.1,0.1,0.3,0.1,0.5c0,0.4-0.1,0.7-0.4,0.9c-0.3,0.2-0.7,0.2-1.3,0.2h-0.5V118.7z M111.5,118.5
				c-0.3-0.3-0.6-0.5-1-0.6c-0.4-0.1-0.8-0.2-1.2-0.2c-0.4,0-0.8,0.1-1.2,0.2c-0.4,0.1-0.7,0.3-1,0.6c-0.3,0.3-0.5,0.6-0.7,1
				c-0.2,0.4-0.2,0.9-0.2,1.4s0.1,1,0.2,1.4c0.2,0.4,0.4,0.7,0.7,1c0.3,0.3,0.6,0.5,1,0.6c0.4,0.1,0.8,0.2,1.2,0.2
				c0.4,0,0.8-0.1,1.2-0.2c0.4-0.1,0.7-0.3,1-0.6c0.3-0.3,0.5-0.6,0.6-1c0.2-0.4,0.2-0.9,0.2-1.4s-0.1-1-0.2-1.4
				C112,119.1,111.8,118.8,111.5,118.5z M111.1,121.8c-0.1,0.3-0.2,0.5-0.4,0.7c-0.2,0.2-0.4,0.3-0.6,0.5c-0.2,0.1-0.5,0.2-0.8,0.2
				c-0.3,0-0.5-0.1-0.8-0.2c-0.2-0.1-0.4-0.3-0.6-0.5c-0.2-0.2-0.3-0.4-0.4-0.7c-0.1-0.3-0.1-0.6-0.1-0.9s0-0.7,0.1-0.9
				c0.1-0.3,0.2-0.5,0.4-0.7c0.2-0.2,0.4-0.4,0.6-0.5c0.2-0.1,0.5-0.2,0.8-0.2c0.3,0,0.5,0.1,0.8,0.2c0.2,0.1,0.4,0.3,0.6,0.5
				c0.2,0.2,0.3,0.4,0.4,0.7c0.1,0.3,0.1,0.6,0.1,0.9S111.2,121.6,111.1,121.8z M118.8,122.2c0-0.4-0.1-0.7-0.3-0.9
				c-0.2-0.2-0.5-0.4-0.8-0.6c0.3-0.1,0.4-0.3,0.6-0.5c0.1-0.2,0.2-0.5,0.2-0.8c0-0.3-0.1-0.6-0.2-0.8c-0.1-0.2-0.3-0.4-0.6-0.5
				c-0.2-0.1-0.5-0.2-0.8-0.3c-0.3-0.1-0.7-0.1-1.1-0.1c-0.1,0-0.3,0-0.4,0c-0.2,0-0.3,0-0.5,0c-0.2,0-0.3,0-0.5,0
				c-0.2,0-0.3,0-0.4,0.1v6.1c0.3,0.1,0.5,0.1,0.9,0.1c0.3,0,0.7,0,1,0c1,0,1.7-0.2,2.2-0.5C118.6,123.3,118.8,122.8,118.8,122.2z
				 M115.2,118.7c0.1,0,0.2,0,0.3,0s0.3,0,0.5,0c0.4,0,0.7,0.1,1,0.2c0.3,0.1,0.4,0.3,0.4,0.6c0,0.3-0.1,0.5-0.4,0.7
				c-0.2,0.1-0.6,0.2-1,0.2h-0.8V118.7z M117.5,122.7c-0.1,0.1-0.2,0.2-0.4,0.3c-0.1,0.1-0.3,0.1-0.5,0.2c-0.2,0-0.4,0-0.7,0
				c-0.1,0-0.3,0-0.4,0c-0.1,0-0.3,0-0.4,0v-1.9h1c0.5,0,0.8,0.1,1.1,0.2c0.3,0.1,0.4,0.4,0.4,0.7
				C117.7,122.4,117.6,122.5,117.5,122.7z M124.5,120.6c-0.2-0.5-0.4-1-0.6-1.4c-0.2-0.5-0.4-0.9-0.6-1.4h-1.1
				c-0.2,0.4-0.4,0.9-0.6,1.4c-0.2,0.5-0.4,0.9-0.6,1.4c-0.2,0.5-0.4,1-0.6,1.6c-0.2,0.6-0.4,1.2-0.7,1.8h1.2
				c0.1-0.2,0.2-0.5,0.3-0.7c0.1-0.2,0.2-0.5,0.3-0.7h2.6c0.1,0.3,0.2,0.5,0.3,0.7s0.2,0.5,0.3,0.7h1.2c-0.2-0.7-0.5-1.3-0.7-1.8
				C124.9,121.6,124.7,121.1,124.5,120.6z M121.7,121.6c0.2-0.5,0.4-1,0.6-1.5c0.2-0.5,0.3-0.8,0.5-1.2c0.1,0.3,0.3,0.7,0.5,1.2
				c0.2,0.5,0.4,1,0.6,1.5H121.7z M130.9,120.3h-2.7v-2.5h-1.1v6.2h1.1v-2.8h2.7v2.8h1.1v-6.2h-1.1V120.3z M137.8,120.3h-2.7v-2.5
				H134v6.2h1.1v-2.8h2.7v2.8h1.1v-6.2h-1.1V120.3z M145.8,118.5c-0.3-0.3-0.6-0.5-1-0.6c-0.4-0.1-0.8-0.2-1.2-0.2
				c-0.4,0-0.8,0.1-1.2,0.2c-0.4,0.1-0.7,0.3-1,0.6c-0.3,0.3-0.5,0.6-0.7,1c-0.2,0.4-0.2,0.9-0.2,1.4s0.1,1,0.2,1.4
				c0.2,0.4,0.4,0.7,0.7,1c0.3,0.3,0.6,0.5,1,0.6s0.8,0.2,1.2,0.2c0.4,0,0.8-0.1,1.2-0.2c0.4-0.1,0.7-0.3,1-0.6
				c0.3-0.3,0.5-0.6,0.6-1c0.2-0.4,0.2-0.9,0.2-1.4s-0.1-1-0.2-1.4C146.3,119.1,146.1,118.8,145.8,118.5z M145.4,121.8
				c-0.1,0.3-0.2,0.5-0.4,0.7c-0.2,0.2-0.4,0.3-0.6,0.5c-0.2,0.1-0.5,0.2-0.8,0.2c-0.3,0-0.5-0.1-0.8-0.2c-0.2-0.1-0.4-0.3-0.6-0.5
				c-0.2-0.2-0.3-0.4-0.4-0.7c-0.1-0.3-0.1-0.6-0.1-0.9s0-0.7,0.1-0.9c0.1-0.3,0.2-0.5,0.4-0.7c0.2-0.2,0.4-0.4,0.6-0.5
				c0.2-0.1,0.5-0.2,0.8-0.2c0.3,0,0.5,0.1,0.8,0.2c0.2,0.1,0.4,0.3,0.6,0.5c0.2,0.2,0.3,0.4,0.4,0.7c0.1,0.3,0.1,0.6,0.1,0.9
				S145.5,121.6,145.4,121.8z M148.4,124h1.1v-5.3h2.8v-1h-4V124z M159,119.5c-0.2-0.4-0.4-0.7-0.7-1c-0.3-0.3-0.6-0.5-1-0.6
				c-0.4-0.1-0.8-0.2-1.2-0.2c-0.4,0-0.8,0.1-1.2,0.2c-0.4,0.1-0.7,0.3-1,0.6c-0.3,0.3-0.5,0.6-0.7,1c-0.2,0.4-0.2,0.9-0.2,1.4
				s0.1,1,0.2,1.4c0.2,0.4,0.4,0.7,0.7,1c0.3,0.3,0.6,0.5,1,0.6c0.4,0.1,0.8,0.2,1.2,0.2s0.8-0.1,1.2-0.2c0.4-0.1,0.7-0.3,1-0.6
				c0.3-0.3,0.5-0.6,0.6-1c0.2-0.4,0.2-0.9,0.2-1.4S159.2,119.9,159,119.5z M157.9,121.8c-0.1,0.3-0.2,0.5-0.4,0.7
				c-0.2,0.2-0.4,0.3-0.6,0.5c-0.2,0.1-0.5,0.2-0.8,0.2c-0.3,0-0.5-0.1-0.8-0.2c-0.2-0.1-0.4-0.3-0.6-0.5c-0.2-0.2-0.3-0.4-0.4-0.7
				c-0.1-0.3-0.1-0.6-0.1-0.9s0-0.7,0.1-0.9c0.1-0.3,0.2-0.5,0.4-0.7c0.2-0.2,0.4-0.4,0.6-0.5c0.2-0.1,0.5-0.2,0.8-0.2
				c0.3,0,0.5,0.1,0.8,0.2c0.2,0.1,0.4,0.3,0.6,0.5c0.2,0.2,0.3,0.4,0.4,0.7c0.1,0.3,0.1,0.6,0.1,0.9S158,121.6,157.9,121.8z
				 M75.5,139h1.1v-5.3h2.7v5.3h1.1v-6.2h-4.9V139z M86.4,135.6c-0.2-0.5-0.4-1-0.6-1.4c-0.2-0.5-0.4-0.9-0.6-1.3h-1.1
				c-0.2,0.4-0.4,0.9-0.6,1.3c-0.2,0.5-0.4,0.9-0.6,1.4c-0.2,0.5-0.4,1-0.6,1.6c-0.2,0.6-0.4,1.2-0.7,1.8h1.2
				c0.1-0.2,0.2-0.5,0.3-0.7c0.1-0.2,0.2-0.5,0.3-0.7H86c0.1,0.3,0.2,0.5,0.3,0.7c0.1,0.2,0.2,0.5,0.3,0.7h1.2
				c-0.2-0.7-0.5-1.3-0.7-1.8C86.9,136.6,86.6,136.1,86.4,135.6z M83.6,136.6c0.2-0.5,0.4-1,0.6-1.5c0.2-0.5,0.3-0.8,0.5-1.2
				c0.1,0.3,0.3,0.7,0.5,1.2c0.2,0.5,0.4,1,0.6,1.5H83.6z M92.8,133.2c-0.5-0.3-1.2-0.5-2.1-0.5c-0.3,0-0.6,0-0.9,0
				c-0.3,0-0.6,0.1-0.9,0.1v6.1h1.1v-2.2h0.6c0.5,0,0.9,0,1.2-0.1c0.4-0.1,0.7-0.2,0.9-0.4c0.2-0.2,0.4-0.4,0.6-0.6
				c0.1-0.3,0.2-0.6,0.2-0.9C93.5,134.1,93.3,133.6,92.8,133.2z M91.9,135.6c-0.3,0.2-0.7,0.2-1.3,0.2h-0.5v-2.1c0.2,0,0.4,0,0.7,0
				c0.2,0,0.4,0,0.6,0c0.2,0,0.4,0.1,0.5,0.2c0.1,0.1,0.2,0.2,0.3,0.3c0.1,0.1,0.1,0.3,0.1,0.5C92.4,135.2,92.2,135.5,91.9,135.6z
				 M94.4,133.8h1.9v5.3h1.1v-5.3h1.9v-1h-5V133.8z M104.5,135.3h-2.7v-2.5h-1.1v6.2h1.1v-2.8h2.7v2.8h1.1v-6.2h-1.1V135.3z
				 M108.7,136.2h2.6v-0.9h-2.6v-1.5h2.9v-1h-4v6.2h4.2v-1h-3.1V136.2z M117.2,133.2c-0.5-0.3-1.2-0.5-2.1-0.5c-0.3,0-0.6,0-0.9,0
				c-0.3,0-0.6,0.1-0.9,0.1v6.1h1.1v-2.2h0.6c0.5,0,0.9,0,1.2-0.1c0.4-0.1,0.7-0.2,0.9-0.4c0.2-0.2,0.4-0.4,0.6-0.6
				c0.1-0.3,0.2-0.6,0.2-0.9C117.9,134.1,117.7,133.6,117.2,133.2z M116.3,135.6c-0.3,0.2-0.7,0.2-1.3,0.2h-0.5v-2.1
				c0.2,0,0.4,0,0.7,0c0.2,0,0.4,0,0.6,0c0.2,0,0.4,0.1,0.5,0.2c0.1,0.1,0.2,0.2,0.3,0.3c0.1,0.1,0.1,0.3,0.1,0.5
				C116.7,135.2,116.6,135.5,116.3,135.6z M123.1,135.6c-0.2-0.5-0.4-1-0.6-1.4c-0.2-0.5-0.4-0.9-0.6-1.3h-1.1
				c-0.2,0.4-0.4,0.9-0.6,1.3c-0.2,0.5-0.4,0.9-0.6,1.4c-0.2,0.5-0.4,1-0.6,1.6c-0.2,0.6-0.4,1.2-0.7,1.8h1.2
				c0.1-0.2,0.2-0.5,0.3-0.7c0.1-0.2,0.2-0.5,0.3-0.7h2.6c0.1,0.3,0.2,0.5,0.3,0.7c0.1,0.2,0.2,0.5,0.3,0.7h1.2
				c-0.2-0.7-0.5-1.3-0.7-1.8C123.5,136.6,123.3,136.1,123.1,135.6z M120.3,136.6c0.2-0.5,0.4-1,0.6-1.5c0.2-0.5,0.3-0.8,0.5-1.2
				c0.1,0.3,0.3,0.7,0.5,1.2c0.2,0.5,0.4,1,0.6,1.5H120.3z"/>
		</g>
	</g>
</g>
<g id="Shape_9_1_" enable-background="new    ">
	<g id="Shape_9">
		<g>
			<path fill-rule="evenodd" clip-rule="evenodd" fill="#3F4146" d="M83.4,81.9h-1.4v-1.4h4.3v-2.3h-7l0,9.6h4c0.7,0,3.7,0,3.7-3
				C87.2,81.9,84.2,81.9,83.4,81.9z M83.2,85.8h-1.1v-2h1.1c0.8,0,1.3,0.2,1.3,1C84.5,85.6,84,85.8,83.2,85.8z M64.6,82.9
				c0,3.1,2,5.1,4.8,5.1c0.8,0,1.7-0.1,2.6-0.7v-2.7c-0.5,0.5-1.3,1-2.2,1c-1.5,0-2.4-1.1-2.4-2.6c0-1.6,1-2.7,2.4-2.7
				c1,0,1.8,0.6,2.2,1.1v-2.8c-0.8-0.5-1.8-0.8-2.6-0.8C66.8,77.9,64.6,79.8,64.6,82.9z M59,80.4h1.4v7.4h2.4v-9.6H59V80.4z
				 M75.7,81.4c-0.9,0-1.6,0.7-1.6,1.6c0,0.9,0.7,1.6,1.6,1.6c0.9,0,1.6-0.7,1.6-1.6C77.2,82.1,76.5,81.4,75.7,81.4z M133.9,78.2
				h-3.1l-2.9,4v-4h-2.7l0,9.6h2.7v-4.1l2.7,4.1h3.3l-3.7-4.9L133.9,78.2z M117.4,83.9v-5.7h-2.6v9.6h2.6l3.7-5.7v5.7h2.6v-9.6h-2.6
				L117.4,83.9z M91.1,83.9v-5.7h-2.6v9.6h2.6l3.7-5.7v5.7h2.6v-9.6h-2.6L91.1,83.9z M138.7,80.3c1,0,1.8,0.6,2.2,1.1v-2.8
				c-0.8-0.5-1.8-0.8-2.6-0.8c-2.6,0-4.8,1.9-4.8,5.1c0,3.1,2,5.1,4.8,5.1c0.8,0,1.7-0.1,2.6-0.7v-2.7c-0.5,0.5-1.3,1-2.2,1
				c-1.5,0-2.4-1.1-2.4-2.6C136.3,81.5,137.3,80.3,138.7,80.3z M98.4,80.5h2.1v7.3h2.7v-7.3h2.1v-2.3h-6.8V80.5z M110.3,78.2h-4v9.6
				h2.7v-3.2h1.3c2.7,0,3.5-1.9,3.5-3.2C113.8,80.1,113,78.2,110.3,78.2z M109.7,82.5H109v-2.2h0.8c1.1,0,1.3,0.6,1.3,1.1
				C111,81.8,110.9,82.5,109.7,82.5z"/>
		</g>
	</g>
</g>
<g id="Shape_9_copy_1_" enable-background="new    ">
	<g id="Shape_9_copy">
		<g>
			<path fill-rule="evenodd" clip-rule="evenodd" fill="#C60C30" d="M100,38c-1.1,0-2.2,0.1-3.3,0.4v15.1c0,1.9,1.5,3.4,3.3,3.4
				c1.8,0,3.3-1.5,3.3-3.4c0-1.8-1.3-3.2-3-3.4v-2.7c3.1,0.1,5.6,2.8,5.6,6.1c0,3.3-2.6,6.1-5.9,6.1c-3.2,0-5.9-2.7-5.9-6.1V39.2
				c-0.4,0.2-0.7,0.3-1.1,0.5v13.7c0,4,3.1,7.2,7,7.2c3.8,0,7-3.2,7-7.2c0-3.9-3-7.1-6.7-7.2v-2.7c5.2,0.1,9.3,4.5,9.3,9.9
				c0,5.4-4.3,9.9-9.6,9.9c-5.3,0-9.6-4.4-9.6-9.9v-12c-3.3,2.8-5.4,7.1-5.4,11.9c0,8.6,6.7,15.5,15,15.5c8.3,0,15-6.9,15-15.5
				C115,44.9,108.3,38,100,38z"/>
		</g>
	</g>
</g>
</svg>
