<?xml version="1.0" encoding="UTF-8"?>
<svg width="79px" height="16px" viewBox="0 0 79 16" version="1.1" xmlns="http://www.w3.org/2000/svg" xmlns:xlink="http://www.w3.org/1999/xlink">
    <!-- Generator: Sketch 53.1 (72631) - https://sketchapp.com -->
    <title>logo</title>
    <desc>Created with Sketch.</desc>
    <g id="Content" stroke="none" stroke-width="1" fill="none" fill-rule="evenodd">
        <g id="Bork-Under-Construction-Desktop-HD" transform="translate(-761.000000, -20.000000)" fill="#FFFFFF">
            <g id="header">
                <g id="Graphics-/-logo-/-desktop" transform="translate(761.000000, 20.000000)">
                    <g id="logo">
                        <path d="M68.1854802,7.55555556 L77.9422034,1.17777778 C78.1091379,1.09671829 78.1950576,0.909297286 78.1472033,0.730601047 C78.0993491,0.551904808 77.9311207,0.431970663 77.7458192,0.444444444 L74.2421469,0.444444444 C74.050459,0.440615284 73.8621253,0.494862114 73.7020904,0.6 L64.3872316,6.86666667 L64.3872316,0.924444444 C64.3872316,0.659347765 64.1714177,0.444444444 63.9051977,0.444444444 L61.62,0.444444444 C61.3572725,0.449290067 61.1468476,0.662780648 61.1468927,0.924444444 L61.1468927,15.1111111 C61.1653408,15.3588471 61.3705623,15.5516354 61.62,15.5555556 L63.9051977,15.5555556 C64.1580749,15.5562473 64.3685009,15.3622305 64.3872316,15.1111111 L64.3872316,8.51555556 L74.2064407,15.4 C74.3616617,15.5096815 74.5472401,15.5686918 74.7375706,15.5688889 L78.259096,15.5688889 C78.4431323,15.5755809 78.6076558,15.4554376 78.6565609,15.2786401 C78.7054659,15.1018427 78.6259271,14.9147563 78.4644068,14.8266667 L68.1854802,7.55555556 Z" id="Shape" fill-rule="nonzero"></path>
                        <path d="M37.9735593,9.46222222 L34.5234463,9.46222222 L34.5234463,12.9422222 L23.8919209,12.9422222 L23.8919209,9.46222222 L20.4373446,9.46222222 L20.4373446,12.6444444 C20.4373446,14.6666667 21.459435,15.5555556 23.7267797,15.5555556 L34.6841243,15.5555556 C36.9514689,15.5555556 37.9735593,14.6666667 37.9735593,12.6311111 L37.9735593,9.46222222 Z" id="Shape" fill-rule="nonzero"></path>
                        <path d="M34.6885876,0.444444444 L23.7312429,0.444444444 C21.4638983,0.444444444 20.4418079,1.33333333 20.4418079,3.36888889 L20.4418079,6.55111111 L23.8919209,6.55111111 L23.8919209,3.07555556 L34.5234463,3.07555556 L34.5234463,6.55111111 L37.9736173,6.55111111 L37.9735593,5.33333333 L37.9735593,3.38666667 C37.9824859,1.35555556 36.9603955,0.444444444 34.6885876,0.444444444" id="Shape" fill-rule="nonzero"></path>
                        <path d="M14.7288136,7.95111111 L14.7288136,7.95111111 L14.7288136,7.95111111 C15.9626888,7.80689514 16.8929216,6.76599257 16.8935028,5.52888889 L16.8935028,3.37333333 C16.9247458,1.35555556 15.9026554,0.444444444 13.6353107,0.444444444 L0.553446328,0.444444444 C0.40588664,0.444439666 0.264434758,0.50311269 0.160514178,0.607429319 C0.0565935986,0.711745948 -0.00118999756,0.853067705 4.21195603e-16,1 L4.21195603e-16,15.0177778 C0.00727030254,15.3169286 0.25293997,15.5556431 0.553446328,15.5555556 L13.1845198,15.5555556 C15.6973446,15.5555556 17.0452542,14.5244444 17.0452542,12.5911111 L17.0452542,10.3688889 C17.0353999,9.08030052 16.0209681,8.02149046 14.7288136,7.95111111 L14.7288136,7.95111111 Z M3.23587571,3.03111111 L12.300791,3.03111111 C13.1934463,3.03111111 13.639774,3.45333333 13.639774,4.30666667 L13.639774,5.46666667 C13.639774,6.29777778 13.1934463,6.72 12.300791,6.72 L3.23587571,6.72 L3.23587571,3.03111111 Z M13.7245763,11.7377778 C13.7245763,12.5688889 13.2782486,12.9911111 12.3855932,12.9911111 L3.23587571,12.9911111 L3.23587571,9.30222222 L12.3766667,9.30222222 C13.269322,9.30222222 13.7156497,9.72444444 13.7156497,10.5733333 L13.7245763,11.7377778 Z" id="Shape" fill-rule="nonzero"></path>
                        <path d="M58.2591525,14.84 L52.3587006,9.84444444 L54.3582486,9.84444444 C56.6255932,9.84444444 57.6476836,8.95555556 57.6476836,6.92 L57.6476836,3.36444444 C57.6476836,1.35111111 56.6166667,0.44 54.3359322,0.44 L42.0217514,0.44 C41.7037664,0.44 41.4459887,0.696690077 41.4459887,1.01333333 L41.4459887,15.1111111 C41.4647195,15.3622305 41.6751455,15.5562473 41.9280226,15.5555556 L44.1864407,15.5555556 C44.4461496,15.5658373 44.66728,15.3692326 44.6863277,15.1111111 L44.6863277,9.84444444 L47.8864972,9.84444444 L47.8864972,9.84444444 L54.3627119,15.3466667 C54.545676,15.4965199 54.7776445,15.5740438 55.0143503,15.5644444 L58.0225989,15.5644444 C58.2034221,15.575257 58.3686878,15.462882 58.4243932,15.291238 C58.4800986,15.1195939 58.4121319,14.9321631 58.2591525,14.8355556 L58.2591525,14.84 Z M44.690791,3.02666667 L53.0237288,3.02666667 C53.9163842,3.02666667 54.3627119,3.44888889 54.3627119,4.29777778 L54.3627119,6.07555556 C54.3627119,6.90666667 53.9163842,7.32888889 53.0237288,7.32888889 L44.690791,7.32888889 L44.690791,3.02666667 Z" id="Shape" fill-rule="nonzero"></path>
                    </g>
                </g>
            </g>
        </g>
    </g>
</svg>