<svg width="24" height="24" viewBox="0 0 24 24" xmlns="http://www.w3.org/2000/svg"><title>Cart</title><desc>Created with Sketch.</desc><path d="M19.063 9L21.1 1.26c.21-.796 1.02-1.27 1.806-1.056.792.216 1.253 1.035 1.043 1.833l-2.293 8.702c-.138.524-.535.908-1.015 1.05V12H5.898V9h13.165zM3.687 0h2.21v15h14.747c.813 0 1.472.672 1.472 1.5 0 .834-.66 1.5-1.472 1.5H4.42c-.81 0-1.47-.672-1.47-1.5V3H1.472C.653 3 0 2.328 0 1.5 0 .666.66 0 1.473 0h2.214zM18.43 24c1.222 0 2.212-1.007 2.212-2.25s-.99-2.25-2.212-2.25c-1.22 0-2.21 1.007-2.21 2.25S17.21 24 18.43 24zM6.635 24c1.22 0 2.212-1.007 2.212-2.25s-.99-2.25-2.212-2.25c-1.222 0-2.212 1.007-2.212 2.25S5.413 24 6.635 24z" fill="#D8D9DE"/></svg>