<svg width="26" height="27" fill="none" xmlns="http://www.w3.org/2000/svg"><path fill-rule="evenodd" clip-rule="evenodd" d="M24.21 0H1.837A1.74 1.74 0 0 0 .565.518C.235.848 0 1.318 0 1.79v16.25c0 .518.236.942.565 1.272.33.33.754.565 1.272.565h2.308v6.453l6.547-6.453H24.21c.471 0 .942-.236 1.272-.565.33-.33.518-.754.518-1.272V1.79a1.82 1.82 0 0 0-.518-1.272A1.82 1.82 0 0 0 24.21 0zM1.837.895H24.21a.93.93 0 0 1 .66.283.895.895 0 0 1 .235.612v16.25c0 .283-.094.47-.235.66-.189.14-.424.282-.66.282H10.315L5.04 24.163v-5.181H1.837c-.283 0-.471-.141-.66-.283-.14-.188-.282-.377-.282-.66V1.79c0-.235.141-.47.283-.611.188-.189.376-.283.659-.283z" fill="#fff"/><path fill-rule="evenodd" clip-rule="evenodd" d="M9 11a1 1 0 1 0 0-2 1 1 0 0 0 0 2zm4 0a1 1 0 1 0 0-2 1 1 0 0 0 0 2zm5-1a1 1 0 1 1-2 0 1 1 0 0 1 2 0z" fill="#fff"/></svg>