<svg width="20" height="20" fill="none" xmlns="http://www.w3.org/2000/svg"><mask id="a" maskUnits="userSpaceOnUse" x="0" y="0" width="20" height="20"><path d="M18 10.586V3a1 1 0 0 0-1-1H3a1 1 0 0 0-1 1v14a1 1 0 0 0 .65.937L13.292 7.293a1 1 0 0 1 1.414 0L18 10.586zm0 2.828l-4-4L5.414 18H17a1 1 0 0 0 1-1v-3.586zM3 0h14a3 3 0 0 1 3 3v14a3 3 0 0 1-3 3H3a3 3 0 0 1-3-3V3a3 3 0 0 1 3-3zm3.5 9a2.5 2.5 0 1 1 0-5 2.5 2.5 0 0 1 0 5zm0-2a.5.5 0 1 0 0-1 .5.5 0 0 0 0 1z" fill="#fff"/></mask><g mask="url(#a)"><path d="M18 10.586V3a1 1 0 0 0-1-1H3a1 1 0 0 0-1 1v14a1 1 0 0 0 .65.937L13.292 7.293a1 1 0 0 1 1.414 0L18 10.586zm0 2.828l-4-4L5.414 18H17a1 1 0 0 0 1-1v-3.586zM3 0h14a3 3 0 0 1 3 3v14a3 3 0 0 1-3 3H3a3 3 0 0 1-3-3V3a3 3 0 0 1 3-3zm3.5 9a2.5 2.5 0 1 1 0-5 2.5 2.5 0 0 1 0 5zm0-2a.5.5 0 1 0 0-1 .5.5 0 0 0 0 1z" fill="#3A3330"/></g></svg>