<svg width="20" height="20" fill="none" xmlns="http://www.w3.org/2000/svg"><path fill-rule="evenodd" clip-rule="evenodd" d="M10 0C4.477 0 0 4.477 0 10s4.478 10 10 10c5.523 0 10-4.477 10-10S15.523 0 10 0zM7.181 8.727c.803 0 1.455-.652 1.455-1.454 0-.802-.652-1.455-1.455-1.455-.801 0-1.454.653-1.454 1.455s.653 1.454 1.454 1.454zm7.092-1.454c0 .802-.653 1.454-1.455 1.454a1.456 1.456 0 0 1-1.454-1.454c0-.802.652-1.455 1.454-1.455.802 0 1.455.653 1.455 1.455zM18.856 10a8.83 8.83 0 0 1-2.594 6.262A8.83 8.83 0 0 1 10 18.856a8.828 8.828 0 0 1-6.262-2.594A8.83 8.83 0 0 1 1.144 10a8.829 8.829 0 0 1 2.594-6.262A8.829 8.829 0 0 1 10 1.144a8.828 8.828 0 0 1 6.262 2.594A8.83 8.83 0 0 1 18.856 10zm-3.99 1.012a.573.573 0 1 1 1.122.233 6.216 6.216 0 0 1-2.117 3.525 6.15 6.15 0 0 1-3.916 1.412 6.15 6.15 0 0 1-3.918-1.414 6.215 6.215 0 0 1-2.116-3.531.573.573 0 1 1 1.122-.23c.228 1.12.84 2.14 1.723 2.872a5.005 5.005 0 0 0 3.19 1.151c1.16 0 2.292-.408 3.186-1.149a5.059 5.059 0 0 0 1.724-2.869z" fill="#3A3330" opacity=".255"/></svg>