<svg width="21" height="21" fill="none" xmlns="http://www.w3.org/2000/svg"><path d="M17.272 3.13a4.348 4.348 0 0 1 0 6.149l-8.915 8.916a3.046 3.046 0 0 1-4.305 0 3.047 3.047 0 0 1 0-4.305l8.916-8.915a1.745 1.745 0 0 1 2.46 0 1.745 1.745 0 0 1 0 2.46l-8.609 8.607a.435.435 0 1 1-.615-.614l8.609-8.609a.858.858 0 0 0 0-1.23.858.858 0 0 0-1.23 0l-8.916 8.916a2.16 2.16 0 0 0 0 3.075 2.16 2.16 0 0 0 3.075 0l8.915-8.916a3.461 3.461 0 0 0 0-4.919 3.461 3.461 0 0 0-4.919 0L3.13 12.353a.435.435 0 1 1-.615-.615l8.608-8.608a4.348 4.348 0 0 1 6.15 0z" fill="#3A3330" stroke="#3A3330" stroke-width=".5" opacity=".255"/></svg>