<svg width="18" height="18" fill="none" xmlns="http://www.w3.org/2000/svg"><g opacity=".249"><path fill-rule="evenodd" clip-rule="evenodd" d="M9 7.94l3.97-3.97a.75.75 0 1 1 1.06 1.06L10.06 9l3.97 3.97a.75.75 0 1 1-1.06 1.06L9 10.06l-3.97 3.97a.75.75 0 0 1-1.06-1.06L7.94 9 3.97 5.03a.75.75 0 0 1 1.06-1.06L9 7.94z" fill="#000"/><mask id="a" maskUnits="userSpaceOnUse" x="3" y="3" width="12" height="12"><path fill-rule="evenodd" clip-rule="evenodd" d="M9 7.94l3.97-3.97a.75.75 0 1 1 1.06 1.06L10.06 9l3.97 3.97a.75.75 0 1 1-1.06 1.06L9 10.06l-3.97 3.97a.75.75 0 0 1-1.06-1.06L7.94 9 3.97 5.03a.75.75 0 0 1 1.06-1.06L9 7.94z" fill="#fff"/></mask><g mask="url(#a)"><path fill="#000" d="M0 0h18v18H0z"/></g></g></svg>