<svg width="18" height="22" fill="none" xmlns="http://www.w3.org/2000/svg"><mask id="a" maskUnits="userSpaceOnUse" x="0" y="0" width="18" height="22"><path d="M16 8h-5a1 1 0 0 1-1-1V2H3a1 1 0 0 0-1 1v16a1 1 0 0 0 1 1h12a1 1 0 0 0 1-1V8h1a1 1 0 0 0 1-1v12a3 3 0 0 1-3 3H3a3 3 0 0 1-3-3V3a3 3 0 0 1 3-3h8a1 1 0 0 1 .707.293l6 6a1 1 0 0 1 .217.324L16 8zm-4-4.586V6h2.586L12 3.414zM13 11a1 1 0 1 1 0 2H5a1 1 0 1 1 0-2h8zm0 4a1 1 0 1 1 0 2H5a1 1 0 1 1 0-2h8zM7 7a1 1 0 0 1 0 2H5a1 1 0 1 1 0-2h2z" fill="#fff"/></mask><g mask="url(#a)"><path d="M16 8h-5a1 1 0 0 1-1-1V2H3a1 1 0 0 0-1 1v16a1 1 0 0 0 1 1h12a1 1 0 0 0 1-1V8h1a1 1 0 0 0 1-1v12a3 3 0 0 1-3 3H3a3 3 0 0 1-3-3V3a3 3 0 0 1 3-3h8a1 1 0 0 1 .707.293l6 6a1 1 0 0 1 .217.324L16 8zm-4-4.586V6h2.586L12 3.414zM13 11a1 1 0 1 1 0 2H5a1 1 0 1 1 0-2h8zm0 4a1 1 0 1 1 0 2H5a1 1 0 1 1 0-2h8zM7 7a1 1 0 0 1 0 2H5a1 1 0 1 1 0-2h2z" fill="#3A3330"/></g></svg>