<svg width="30" height="30" fill="none" xmlns="http://www.w3.org/2000/svg"><path fill-rule="evenodd" clip-rule="evenodd" d="M15 30c8.284 0 15-6.716 15-15 0-8.284-6.716-15-15-15C6.716 0 0 6.716 0 15c0 8.284 6.716 15 15 15z" fill="#393330"/><path fill-rule="evenodd" clip-rule="evenodd" d="M10.005 8h9.998c2.073 0 3.005.833 2.997 2.69v2.892h-3.148v-3.177h-9.7v3.177H7.004v-2.909c0-1.86.933-2.673 3.001-2.673zm9.847 8.243H23v2.896c0 1.86-.933 2.673-3.001 2.673H10C7.933 21.812 7 21 7 19.152v-2.91h3.152v3.182h9.7v-3.181z" fill="#fff"/></svg>