<svg xmlns="http://www.w3.org/2000/svg" viewBox="0 0 231.42 64.76"><defs><style>.cls-1{fill:#fff;}</style></defs><title>creatista</title><g id="Layer_2" data-name="Layer 2"><g id="Layer_1-2" data-name="Layer 1"><path class="cls-1" d="M47.78,16.72c-2.53,1.84-3.73,2.75-5.54,4.29l2.5-3.35.21-.32c.54-.83.78-1.25.78-1.56a.87.87,0,0,0-.24-.64,1.13,1.13,0,0,0-.85-.25l-6,0a1.3,1.3,0,0,0-1.4,1.21c0,.24.09.79.89.78h2.44c-3.21,4.55-6,8.32-7.9,10.68-3.79,4.83-4.21,5.39-4.2,6.28a.81.81,0,0,0,.94.89,7.73,7.73,0,0,0,4-1.47c.2-.18,1-1.1,2.62-3.17,1.38-1.72,3-3.66,3.48-4.22,0,0,7.76-7.57,10.14-6a2.56,2.56,0,0,1,1.19,1.81s4.24-3.42,2.21-5.3c-1.16-1.07-2.62-1.31-5.35.34"/><path class="cls-1" d="M119.51,12a4.11,4.11,0,0,0,3.68-3.68,2.18,2.18,0,0,0-2.29-2.23,4,4,0,0,0-3.68,3.63A2.16,2.16,0,0,0,119.51,12"/><path class="cls-1" d="M170.68,15.85c0-1-1.28-1-1.82-1a3.89,3.89,0,0,0-2.71.83l0,0c-.11.11-.33.38-.57.67,0-.78-.51-1.94-2.8-1.94-3.57,0-6.6,2-9.1,3.87a43.33,43.33,0,0,0-6,5.65c-2.11,1.72-6.68,5.39-7.1,5.75-1.57,1.4-3.81,2.84-4.84,2.84-.49,0-.61-.12-.61-.61,0-1.47,6.21-9.78,10.49-15h5.79c1.48-.13,1.52-1.09,1.52-1.2a.76.76,0,0,0-.22-.56,1.09,1.09,0,0,0-.83-.23h-4.78c1.19-1.54,2.42-3.09,3.61-4.58,1.78-2.15,1.86-2.44,1.86-2.91s-.35-.84-1-.84c-3.17,0-3.73.71-5.2,2.59L145,10.85c-1.24,1.63-1.73,2.27-3.13,4.06l-1.52,2-1.94,2.51c-1.27,1.64-2.59,3.34-3,3.9a43.42,43.42,0,0,0-3.62,5.45,10.76,10.76,0,0,1-4.13,1.84,12.79,12.79,0,0,0,.46-6.52s-.79-4.35.42-7.21c0,0,1.79-.85,1.18-2.47s-3.21-.78-4.48.68-7.62,9.22-12.76,14.41a10.91,10.91,0,0,1-6,2.62c-.44,0-.61-.17-.61-.61,0-1.38,1.93-3.6,3.38-5.39.58-.71,1.15-1.43,1.71-2.14.77-1,1.56-2,2.37-2.93l2.44-2.91.24-.3c.83-1,1.19-1.54,1.19-1.93,0-.66-.4-1-1.2-1a7.27,7.27,0,0,0-3.66.85c-.78.55-3.18,3.65-5.59,6.84a103.9,103.9,0,0,1-8.65,7.33c-1.7,1.25-4,2.62-5,2.62-.49,0-.61-.12-.61-.61,0-1.47,6.21-9.78,10.49-15h5.79c1.48-.13,1.53-1.09,1.53-1.2a.75.75,0,0,0-.22-.56,1.08,1.08,0,0,0-.83-.23h-4.78c1.19-1.54,2.42-3.09,3.6-4.58C109.92,8.18,110,7.88,110,7.42s-.35-.84-1-.84c-3.17,0-3.73.71-5.2,2.58l-1.29,1.69c-1.24,1.63-1.73,2.27-3.13,4.06l-1.52,2L95.88,19.4,93.9,22c-3,2.86-7.85,6.8-8.19,7.09s-4.07,3.29-5.56,3.44c-.41,0-.56-.16-.56-.61,0-1.49,2.79-4.84,10.24-13.79,1.6-1.87,1.6-2.06,1.6-2.24,0-1-1.28-1-1.82-1a3.9,3.9,0,0,0-2.71.83l0,0c-.12.11-.33.38-.58.67,0-.78-.5-1.94-2.8-1.94-3.57,0-6.61,2-9.11,3.87A42.68,42.68,0,0,0,68,24.5a53.16,53.16,0,0,1-7.35,5.8,12,12,0,0,1-6.43,2.41c-1.29,0-1.54-.49-1.54-1.28,0-.61.29-2.43,2.93-6.28,13-2.09,13.58-8.29,13.58-8.36,0-.89-.43-2.39-3.32-2.39-8.47,0-17.75,11.55-17.75,16.46,0,2.5,2,3.94,5.39,3.94a15,15,0,0,0,9.23-3.36,30.87,30.87,0,0,0,2.43-2.11,6.56,6.56,0,0,0-.35,2c0,2.11,1.29,3.32,3.53,3.32,2.84,0,5.1-1.59,7.35-3.51a3.78,3.78,0,0,0-.12.92c0,1.61,1.24,2.65,3.16,2.65,2.37,0,5.48-1.46,8.14-3.94.49-.41,1.38-1.16,2.43-2.07a5.58,5.58,0,0,0-.91,3,2.87,2.87,0,0,0,3.16,3c2.72,0,5.26-.88,8.32-3.48.31-.27,1.44-1.16,2.61-2.13a6.37,6.37,0,0,0-.79,2.66c0,1.88,1.25,3,3.43,3.07,3.93.1,6.18-1.37,8.59-3.25,1.09,1.85,2.08,2.92,4.51,3.34,3,.51,5.81.07,7.73-1.66a11.43,11.43,0,0,0,5-1.69c0,.06,0,.12,0,.18a2.87,2.87,0,0,0,3.17,3c2.72,0,4.87-1,7.93-3.57.27-.23,1.25-1,2.35-1.81a6.6,6.6,0,0,0-.36,2.05c0,2.11,1.29,3.32,3.53,3.32,2.84,0,5.1-1.59,7.35-3.52a3.8,3.8,0,0,0-.12.92c0,1.61,1.24,2.65,3.17,2.65,2.37,0,5.24-1.42,7.9-3.9.61-.61.9-1,.9-1.39a.9.9,0,0,0-.94-.89c-.42,0-.59.17-1.26.78l-.07.07c-1.79,1.74-4.28,3.14-5.14,3.14-.41,0-.56-.16-.56-.61,0-1.49,2.79-4.84,10.24-13.79C170.68,16.22,170.68,16,170.68,15.85ZM63.74,17a4.45,4.45,0,0,1,1.76-.62c.47,0,.56.19.56.51,0,1-2.19,4.26-8.75,6A25.94,25.94,0,0,1,63.74,17ZM74.13,29.91c-2.9,2.41-4.21,2.59-4.54,2.59s-.56-.17-.56-.71c0-1.86,4-7.93,9.52-12.5l.22-.18c.8-.63,3.2-2.52,4.49-2.52.73,0,.81.33.81.72C84.07,19.59,77.87,26.84,74.13,29.91Zm46.08,2.28a4.76,4.76,0,0,1-4-2.51l9.07-10.06a39.78,39.78,0,0,0,.47,6.44C126.4,30.18,123.07,32.28,120.21,32.19Zm33.17-2.28c-2.9,2.41-4.21,2.59-4.54,2.59s-.56-.17-.56-.71c0-1.86,4-7.93,9.52-12.5l.23-.18c.8-.63,3.2-2.52,4.49-2.52.73,0,.81.33.81.72C163.31,19.59,157.12,26.84,153.38,29.91Z"/><path class="cls-1" d="M36.93,1.37A4.31,4.31,0,0,0,33.55,0C20.39,0,2.35,14.9.27,27.49c-.68,4.13-.07,7.36,1.81,9.57,2.85,3.35,7.74,3.35,9.35,3.35,5.95,0,14.7-4.19,15-5.64.17-.76,0-2.31-2.61-1.07-1.84.87-6,3.19-11.15,3.19-2.25,0-3.88-.59-4.86-1.74-1.13-1.33-1.46-3.48-1-6.4C8.82,16.94,24.78,2.6,33.23,2.6c1,0,1.62.33,1.67.47C38,5.26,27.38,16.54,24,14c1.13,8.93,12.46-1.6,13.73-9a4.2,4.2,0,0,0-.77-3.57"/><path class="cls-1" d="M191.32,7.17h0c.38,0,.76,0,1.16,0a13.57,13.57,0,0,1,1.39.18,10.17,10.17,0,0,1,5.55,2.89l.21.24.32.42a7.34,7.34,0,0,1,1.28,4.84c0,.06-.26,5.57-6.84,9.46a13,13,0,0,1-6.15,1.64,8.83,8.83,0,0,1-3.59-.67l-.2-.1-.13.19L181,31.06c-1.75,2.55-2.36,3.27-3.3,3.49a1.83,1.83,0,0,1-.42.05c-.47,0-1-.2-1.07-.78,0-.3,0-.54.58-1.5.23-.36.54-.8.95-1.35l8.87-11.69L188,17.46l.71-1L189.89,15l.77-1a2.78,2.78,0,0,1,2.92-1.45c.34,0,.61.12.61.22s-.14.36-.82,1.26l-.24.33-1.51,2L185.33,25l-.19.27.3.13a4.94,4.94,0,0,0,1.71.34h.27c1.37,0,5-.42,8.67-4.31A9,9,0,0,0,198,18.32a7.12,7.12,0,0,0-.18-5.72c-.78-1.5-2.58-3.33-6.69-3.52h-.71a12.37,12.37,0,0,0-1.66.14,17.1,17.1,0,0,0-6.22,2.64l-.39.24a2.23,2.23,0,0,1-1.07.42.32.32,0,0,1-.26-.09.71.71,0,0,1-.11-.51,5.71,5.71,0,0,1,2-2,15.51,15.51,0,0,1,5.72-2.45,13.81,13.81,0,0,1,2-.28l.38,0h.54"/><path class="cls-1" d="M211.78,12.95h.11c.12,0,.37,0,.45.14s.11.16-.21.58l-3.74,4.71-2,2.48-1.08,1.34c-2,2.47-4.68,6-6.13,8.25-.33.55-.84,1.57-.56,2.11a.62.62,0,0,0,.53.34h.11a2.74,2.74,0,0,0,.71-.17,19.48,19.48,0,0,0,3.16-1.78c.83-.58,1.75-1.29,2.72-2.09a33.4,33.4,0,0,0,5-5.5c.25-.37.55-.79.78-1.1h0a2.24,2.24,0,0,1,.39-.43,4.75,4.75,0,0,1,2.32-.53.77.77,0,0,1,.54.15.27.27,0,0,1,.07.2A32.58,32.58,0,0,1,212.37,25c-.05.06-5.11,6.11-5.11,7.25a.61.61,0,0,0,.67.68h.13a10.63,10.63,0,0,0,4.35-1.1l.1-.05,0-.11a14.2,14.2,0,0,1,2-3.5l.12-.17.51-.68a55.59,55.59,0,0,1,4.36-5.41,4.72,4.72,0,0,1,2.31-.52c.5,0,.54.21.54.4a3.46,3.46,0,0,1-.75,1.13l-.16.2-1.65,2c-.55.65-1.08,1.32-1.6,2l-1.15,1.44-.3.37c-.92,1.14-2,2.43-2,3.36a1.35,1.35,0,0,0,0,.35v0a.59.59,0,0,0,.63.38,7.61,7.61,0,0,0,4.22-1.84c2.82-2.84,6.17-6.83,7.79-8.75l.83-1c1.33-1.59,2.76-1.1,3-.72a1,1,0,0,1-.63,1.44l-.09.16a11.92,11.92,0,0,0-.52,5.07,15.72,15.72,0,0,1,.35,3.39,4.81,4.81,0,0,1-1.22,2.56,5.85,5.85,0,0,1-3.89,1.37A6.76,6.76,0,0,1,222.5,34a6.9,6.9,0,0,1-2-1.86,8.31,8.31,0,0,1-6,2.47h-.28c-1.66-.16-1.76-1.25-1.77-1.26l0-.36a14.63,14.63,0,0,1-4.78,1.18c-.38,0-.63,0-.65,0-1.33,0-2.06-.68-2.06-1.81a2.76,2.76,0,0,1,.16-.85l.26-.79-.66.49-1.09.78c-2.22,1.56-4.06,2.35-5.46,2.35a2,2,0,0,1-2-1,2.68,2.68,0,0,1-.23-.76v-.08c0-.06,0-.11,0-.17a3.46,3.46,0,0,1,.57-1.88s2.14-3.39,4.43-6.26l.07-.09,1.24-1.61,1-1.34c.94-1.2,1.28-1.65,2.1-2.72l0,0,3.07-3.84c.88-1.12,1.21-1.54,2.7-1.63h.64m13,20.1a4.09,4.09,0,0,0,3.1-1.37,3.68,3.68,0,0,0,.76-3.07,26.87,26.87,0,0,1-.31-4.3l0-.71-.48.53-6.12,6.79-.12.13.07.16A3.45,3.45,0,0,0,224.62,33h.13"/><path class="cls-1" d="M173,42.2c1.27,0,3.44-1.92,2.08-2C138.57,39,93.48,45,62,54.93c-3.09,1-14.34,11.39-9.89,9.63C100,45.68,151.28,41.52,173,42.2"/></g></g></svg>