<?xml version="1.0" encoding="utf-8"?>
<!-- Generator: Adobe Illustrator 17.1.0, SVG Export Plug-In . SVG Version: 6.00 Build 0)  -->
<!DOCTYPE svg PUBLIC "-//W3C//DTD SVG 1.1//EN" "http://www.w3.org/Graphics/SVG/1.1/DTD/svg11.dtd">
<svg version="1.1" xmlns="http://www.w3.org/2000/svg" xmlns:xlink="http://www.w3.org/1999/xlink" x="0px" y="0px" width="640px"
	 height="500px" viewBox="0 0 640 500" enable-background="new 0 0 640 500" xml:space="preserve">
<g id="Rectangle_3_copy_1_" enable-background="new    ">
	<g id="Rectangle_3_copy">
		<g>
			<path fill-rule="evenodd" clip-rule="evenodd" fill="#FFFFFF" d="M30,160v164c0,8.8,7.2,16,16,16h548c8.8,0,16-7.2,16-16V160H30z
				"/>
		</g>
	</g>
</g>
<g id="Rectangle_3_copy_4_1_" enable-background="new    ">
	<g id="Rectangle_3_copy_4">
		<g>
			<path fill-rule="evenodd" clip-rule="evenodd" fill="#9BD9F8" d="M594,0H46c-8.8,0-16,7.2-16,16v144h580V16
				C610,7.2,602.8,0,594,0z"/>
		</g>
	</g>
</g>
<g id="Рука_copy_1_">
	<g id="Shape_81_copy_4">
		<g>
			<path fill-rule="evenodd" clip-rule="evenodd" fill="#E7D1A7" d="M612.8,289.8c-1.1-0.8-2.2-1.7-3.2-2.5v34.7
				c0,9.8-8,17.9-17.7,17.9H515c1.4,16.9,6.6,32.2,15.4,43.7l12.1,96.3h88.9l-11.6-91.8c1.7-1.8,3.4-3.8,5-5.9
				C646.8,353.3,641.4,311.9,612.8,289.8z"/>
		</g>
	</g>
	<g id="Shape_81_copy_5">
		<g>
			<path fill-rule="evenodd" clip-rule="evenodd" fill="#4380DA" d="M631.5,409.5c0,0-27.2-3.4-53.5,0.5
				c-25.8,3.9-50.6,15.2-50.6,15.2L534,500h106L631.5,409.5z"/>
		</g>
	</g>
	<g id="Shape_81_copy_3">
		<g>
			<path fill-rule="evenodd" clip-rule="evenodd" fill="#D5B275" d="M635.9,328.8L625.3,255c-0.5-4-1.1-7.4-5-6.9
				c-8.4,1-19.5,12-18.1,23.2l7.2,56.6c-17.6,0.9-37.5,13.7-46.1,30.1c-9.2,17.6-1.7,32.7,16.7,33.7c18.4,1,36.3-10.1,45.5-27.8
				c3.5-6.7,5.2-13.3,5-19C634.4,341,636.5,333.8,635.9,328.8z"/>
		</g>
	</g>
	<g id="Shape_81_copy_2">
		<g>
			<path fill-rule="evenodd" clip-rule="evenodd" fill="#E7D1A7" d="M638.1,336.3l-10.8-82.6c-0.4-3.5-3.6-6-7.1-5.6
				c-7.4,0.9-14.5,10.1-13.4,20l6.9,60.7c-15.9-1-35.4,12.5-44.2,30.7c-9,18.8-3.1,35.4,13,37.2c16.2,1.8,36.5-11.9,45.5-30.7
				c2.4-5.1,3.8-10.1,4.1-14.6C636.3,348.4,638.7,341.2,638.1,336.3z"/>
		</g>
	</g>
	<g id="Shape_81_copy">
		<g>
			<path fill-rule="evenodd" clip-rule="evenodd" fill="#F7ECD9" d="M627.4,253.7c-0.2-1.5-0.9-2.9-1.9-3.9
				c-7.2,0-8.5,10.9-7.2,17.9c4.1,1.6,7.1,2.3,11.4,2.8L627.4,253.7z"/>
		</g>
	</g>
</g>
<g id="Рука_copy_2_1_">
	<g id="Shape_81_copy_4_1_">
		<g>
			<path fill-rule="evenodd" clip-rule="evenodd" fill="#E7D1A7" d="M30.5,322.1v-34.7c-1.1,0.8-2.2,1.6-3.2,2.5
				c-28.6,22.1-34,63.5-12.1,92.4c1.6,2.1,3.3,4.1,5,5.9L8.5,480h88.9l12.1-96.3c8.8-11.5,13.9-26.8,15.4-43.7H48.2
				C38.4,340,30.5,331.9,30.5,322.1z"/>
		</g>
	</g>
	<g id="Shape_81_copy_5_1_">
		<g>
			<path fill-rule="evenodd" clip-rule="evenodd" fill="#4380DA" d="M62,410c-26.2-4-53.5-0.5-53.5-0.5L0,500h106l6.6-74.8
				C112.6,425.2,87.8,413.9,62,410z"/>
		</g>
	</g>
	<g id="Shape_81_copy_3_1_">
		<g>
			<path fill-rule="evenodd" clip-rule="evenodd" fill="#D5B275" d="M76.7,357.9c-8.6-16.4-28.5-29.1-46.1-30.1l7.2-56.6
				c1.4-11.2-9.7-22.2-18.1-23.2c-3.9-0.5-4.6,3-5,6.9L4.1,328.8c-0.6,5,1.5,12.1,5.4,16c-0.2,5.7,1.6,12.4,5,19
				c9.2,17.6,27.1,28.8,45.5,27.8C78.5,390.6,85.9,375.5,76.7,357.9z"/>
		</g>
	</g>
	<g id="Shape_81_copy_2_1_">
		<g>
			<path fill-rule="evenodd" clip-rule="evenodd" fill="#E7D1A7" d="M70.4,359.5c-8.7-18.2-28.2-31.7-44.2-30.7l6.9-60.7
				c1.1-9.9-6-19.1-13.4-20c-3.5-0.4-6.7,2.1-7.1,5.6L1.9,336.3c-0.6,4.9,1.8,12.2,5.9,15.2c0.3,4.5,1.6,9.5,4.1,14.6
				c9,18.7,29.3,32.5,45.5,30.7C73.5,394.9,79.4,378.2,70.4,359.5z"/>
		</g>
	</g>
	<g id="Shape_81_copy_1_">
		<g>
			<path fill-rule="evenodd" clip-rule="evenodd" fill="#F7ECD9" d="M14.6,249.8c-1,1-1.8,2.3-1.9,3.9l-2.2,16.8
				c4.2-0.5,7.3-1.2,11.4-2.8C23,260.7,21.8,249.8,14.6,249.8z"/>
		</g>
	</g>
</g>
</svg>
