<?xml version="1.0" encoding="utf-8"?>
<!-- Generator: Adobe Illustrator 17.1.0, SVG Export Plug-In . SVG Version: 6.00 Build 0)  -->
<!DOCTYPE svg PUBLIC "-//W3C//DTD SVG 1.1//EN" "http://www.w3.org/Graphics/SVG/1.1/DTD/svg11.dtd">
<svg version="1.1" xmlns="http://www.w3.org/2000/svg" xmlns:xlink="http://www.w3.org/1999/xlink" x="0px" y="0px" width="44px"
	 height="44px" viewBox="0 0 44 44" enable-background="new 0 0 44 44" xml:space="preserve">
<g id="icon_x5F_search_1_" enable-background="new    ">
	<g id="icon_x5F_search">
		<g>
			<path fill-rule="evenodd" clip-rule="evenodd" fill="#C8C9C3" d="M41.3,34.2L30.7,22.5c0.8-1.6,1.4-3.4,1.6-5.4
				C32.7,13,31.5,9,28.8,5.7c-2.6-3.2-6.4-5.2-10.5-5.7C17.7,0,17.2,0,16.6,0C8.6,0,1.9,6,1.1,13.9C0.2,22.5,6.5,30.1,15,31
				c0.5,0.1,1.1,0.1,1.6,0.1c1.9,0,3.7-0.3,5.4-0.9l10.7,11.7c1.2,1.3,2.9,2.1,4.7,2.1c1.4,0,2.7-0.5,3.7-1.4
				C43.6,40.5,43.6,36.7,41.3,34.2z M24.7,23.5l-0.4,0.4c-0.8,0.8-1.9,1.5-2.9,2l0,0c-1.5,0.7-3.1,1.1-4.8,1.1c-0.4,0-0.8,0-1.2-0.1
				C9,26.3,4.4,20.6,5.1,14.3C5.7,8.4,10.6,4,16.5,4c0.4,0,0.8,0,1.2,0.1c3.1,0.3,5.8,1.8,7.7,4.2c1.9,2.4,2.8,5.4,2.5,8.4
				C27.7,19.3,26.5,21.7,24.7,23.5C24.8,23.5,24.8,23.5,24.7,23.5z M38.7,39.8c-0.4,0.4-0.9,0.4-1.2,0.4c-0.7,0-1.4-0.3-1.9-0.9
				l-10-11c0.9-0.6,1.7-1.3,2.4-2c0.2-0.2,0.4-0.4,0.6-0.6l10,10.9C39.4,37.7,39.5,39.1,38.7,39.8z"/>
		</g>
	</g>
</g>
<g id="icon_x5F_text_1_" enable-background="new    ">
</g>
<g id="icon_x5F_gear_1_" enable-background="new    ">
</g>
</svg>
