<?xml version="1.0" encoding="utf-8"?>
<!-- Generator: Adobe Illustrator 17.1.0, SVG Export Plug-In . SVG Version: 6.00 Build 0)  -->
<!DOCTYPE svg PUBLIC "-//W3C//DTD SVG 1.1//EN" "http://www.w3.org/Graphics/SVG/1.1/DTD/svg11.dtd">
<svg version="1.1" xmlns="http://www.w3.org/2000/svg" xmlns:xlink="http://www.w3.org/1999/xlink" x="0px" y="0px" width="44px"
	 height="44px" viewBox="0 0 44 44" enable-background="new 0 0 44 44" xml:space="preserve">
<g id="icon_x5F_search_1_" enable-background="new    ">
</g>
<g id="icon_x5F_text_1_" enable-background="new    ">
</g>
<g id="icon_x5F_gear_1_" enable-background="new    ">
	<g id="icon_x5F_gear_3_">
		<g>
			<path fill-rule="evenodd" clip-rule="evenodd" fill="#C8C9C3" d="M41.4,17.5c-0.5-0.5-1.2-1.2-1.4-1.6c-0.1-0.4,0-1.4,0.2-2.3
				c0.3-1.7,0.6-3.6-0.5-5.1c-1.1-1.6-3-1.8-4.5-2c-0.8-0.1-1.7-0.2-2.1-0.5c-0.3-0.3-0.7-1.2-1.1-1.9c-0.7-1.5-1.5-3.3-3.3-3.9
				C28.4,0.1,28.1,0,27.7,0c-1.3,0-2.5,0.7-3.6,1.3c-0.7,0.4-1.6,0.9-2.1,0.9c-0.5,0-1.3-0.5-2.1-0.9C18.8,0.7,17.6,0,16.3,0
				c-0.4,0-0.8,0.1-1.1,0.2c-1.8,0.6-2.6,2.4-3.3,3.9c-0.3,0.7-0.7,1.6-1.1,1.9c-0.3,0.3-1.3,0.4-2.1,0.5C7.2,6.7,5.3,7,4.2,8.5
				c-1.1,1.5-0.8,3.4-0.5,5.1c0.1,0.8,0.3,1.8,0.2,2.3c-0.1,0.4-0.8,1.1-1.4,1.6C1.4,18.6,0,20,0,22c0,2,1.4,3.4,2.6,4.5
				c0.5,0.5,1.2,1.2,1.4,1.6c0.1,0.4,0,1.4-0.2,2.3c-0.3,1.7-0.6,3.6,0.5,5.1c1.1,1.6,3,1.8,4.5,2c0.8,0.1,1.7,0.2,2.1,0.5
				c0.3,0.3,0.7,1.2,1.1,1.9c0.7,1.5,1.5,3.3,3.3,3.9c0.4,0.1,0.7,0.2,1.1,0.2c1.3,0,2.5-0.7,3.6-1.3c0.7-0.4,1.6-0.9,2.1-0.9
				c0.5,0,1.3,0.5,2.1,0.9c1.1,0.6,2.3,1.3,3.6,1.3c0.4,0,0.8-0.1,1.1-0.2c1.8-0.6,2.6-2.4,3.3-3.9c0.3-0.7,0.7-1.6,1.1-1.9
				c0.3-0.3,1.3-0.4,2.1-0.5c1.5-0.2,3.5-0.5,4.5-2c1.1-1.5,0.8-3.4,0.5-5.1c-0.1-0.8-0.3-1.8-0.2-2.3c0.1-0.4,0.8-1.1,1.4-1.6
				C42.6,25.4,44,24,44,22C44,20,42.6,18.6,41.4,17.5z M39,23.8c-0.9,0.9-1.9,1.9-2.3,3.2c-0.4,1.3-0.2,2.8,0.1,4.1
				c0.1,0.7,0.3,2,0.2,2.2c-0.2,0.3-1.5,0.5-2.1,0.5c-1.2,0.2-2.6,0.4-3.7,1.2c-1.1,0.8-1.7,2.1-2.2,3.3c-0.3,0.6-0.9,1.9-1.2,2
				c0,0,0,0,0,0c-0.4,0-1.3-0.5-1.9-0.9c-1.1-0.6-2.4-1.3-3.7-1.3c-1.4,0-2.6,0.7-3.7,1.3c-0.7,0.4-1.5,0.9-2,0.9
				c-0.3-0.1-0.9-1.4-1.2-2c-0.5-1.2-1.1-2.5-2.2-3.3c-1.1-0.8-2.5-1-3.7-1.2c-0.6-0.1-1.9-0.3-2.1-0.5c-0.2-0.3,0-1.6,0.2-2.2
				c0.2-1.3,0.5-2.7,0.1-4.1C6.9,25.7,6,24.7,5,23.8c-0.5-0.5-1.5-1.4-1.5-1.8c0-0.4,0.9-1.3,1.5-1.8C6,19.3,6.9,18.3,7.3,17
				c0.4-1.3,0.2-2.8-0.1-4.1c-0.1-0.7-0.3-2-0.2-2.2c0.2-0.3,1.5-0.5,2.1-0.5c1.2-0.2,2.6-0.4,3.7-1.2c1.1-0.8,1.7-2.1,2.2-3.3
				c0.3-0.6,0.9-1.9,1.2-2c0.4,0,1.3,0.5,1.9,0.9c1.1,0.6,2.4,1.3,3.7,1.3c1.4,0,2.6-0.7,3.7-1.3c0.7-0.4,1.5-0.9,2-0.9h0
				c0.3,0.1,0.9,1.4,1.2,2C29.4,6.9,30,8.2,31.1,9c1.1,0.8,2.5,1,3.7,1.2c0.6,0.1,1.9,0.3,2.1,0.5c0.2,0.3,0,1.6-0.2,2.2
				c-0.2,1.3-0.5,2.7-0.1,4.1c0.4,1.3,1.4,2.2,2.3,3.2c0.5,0.5,1.5,1.4,1.5,1.8C40.4,22.4,39.5,23.3,39,23.8z M22,13c-5,0-9,4-9,9
				c0,5,4,9,9,9c5,0,9-4,9-9C31,17,27,13,22,13z M22,27c-2.8,0-5-2.2-5-5c0-2.8,2.2-5,5-5c2.8,0,5,2.2,5,5C27,24.8,24.8,27,22,27z"
				/>
		</g>
	</g>
</g>
</svg>
