<?xml version="1.0" encoding="utf-8"?>
<!-- Generator: Adobe Illustrator 17.1.0, SVG Export Plug-In . SVG Version: 6.00 Build 0)  -->
<!DOCTYPE svg PUBLIC "-//W3C//DTD SVG 1.1//EN" "http://www.w3.org/Graphics/SVG/1.1/DTD/svg11.dtd">
<svg version="1.1" xmlns="http://www.w3.org/2000/svg" xmlns:xlink="http://www.w3.org/1999/xlink" x="0px" y="0px" width="44px"
	 height="44px" viewBox="0 0 44 44" enable-background="new 0 0 44 44" xml:space="preserve">
<g id="icon_x5F_search_1_" enable-background="new    ">
</g>
<g id="icon_x5F_text_1_" enable-background="new    ">
	<g id="icon_x5F_text_3_">
		<g>
			<path fill-rule="evenodd" clip-rule="evenodd" fill="#C8C9C3" d="M26.4,0h-8.8C7.9,0,0,7.9,0,17.6v8.8C0,36.1,7.9,44,17.6,44h8.8
				C36.1,44,44,36.1,44,26.4v-8.8C44,7.9,36.1,0,26.4,0z M40,26.3C40,33.9,33.9,40,26.3,40h-8.7C10.1,40,4,33.9,4,26.3v-8.7
				C4,10.1,10.1,4,17.7,4h8.7C33.9,4,40,10.1,40,17.7V26.3z M32.1,12H11.9c-1,0-1.9,0.9-1.9,2c0,1.1,0.8,2,1.9,2h20.2
				c1,0,1.9-0.9,1.9-2C34,12.9,33.1,12,32.1,12z M32.1,20H11.9c-1,0-1.9,0.9-1.9,2c0,1.1,0.8,2,1.9,2h20.2c1,0,1.9-0.9,1.9-2
				C34,20.9,33.1,20,32.1,20z M32.1,28H11.9c-1,0-1.9,0.9-1.9,2c0,1.1,0.8,2,1.9,2h20.2c1,0,1.9-0.9,1.9-2C34,28.9,33.1,28,32.1,28z
				"/>
		</g>
	</g>
</g>
<g id="icon_x5F_gear_1_" enable-background="new    ">
</g>
</svg>
