<?xml version="1.0" encoding="UTF-8"?>
<svg width="92px" height="18px" viewBox="0 0 92 18" version="1.1" xmlns="http://www.w3.org/2000/svg" xmlns:xlink="http://www.w3.org/1999/xlink">
    <!-- Generator: Sketch 50.2 (55047) - http://www.bohemiancoding.com/sketch -->
    <title>logo_imedia</title>
    <desc>Created with Sketch.</desc>
    <defs>
        <polygon id="path-1" points="0.075492823 0.12291 12.5157416 0.12291 12.5157416 12.325 0.075492823 12.325"></polygon>
        <polygon id="path-3" points="0.40937799 0.18921 12.8491866 0.18921 12.8491866 16.575 0.40937799 16.575"></polygon>
        <polygon id="path-5" points="0 16.81572 91.7504115 16.81572 91.7504115 0.42517 0 0.42517"></polygon>
    </defs>
    <g id="Page-1" stroke="none" stroke-width="1" fill="none" fill-rule="evenodd">
        <g id="yura_1280_main" transform="translate(-1097.000000, -4741.000000)">
            <g id="menu" transform="translate(250.000000, 4503.000000)">
                <g id="logo_imedia" transform="translate(847.000000, 238.500000)">
                    <g>
                        <g id="Group-3" transform="translate(79.234450, 4.490720)">
                            <mask id="mask-2" fill="white">
                                <use xlink:href="#path-1"></use>
                            </mask>
                            <g id="Clip-2"></g>
                            <path d="M6.33633493,2.81231 C5.40356938,2.81231 4.63147368,3.12596 4.0072823,3.76261 C3.39409569,4.40436 3.07891866,5.21696 3.07891866,6.21146 C3.07891866,7.214885 3.39409569,8.038535 4.022689,8.68411 C4.65216268,9.33181 5.4277799,9.660335 6.35086124,9.660335 C7.29991388,9.660335 8.08829665,9.33691 8.71512919,8.69941 C9.34020096,8.068285 9.65405742,7.23401 9.65405742,6.202535 C9.65405742,5.19231 9.34020096,4.37376 8.71512919,3.746885 C8.08829665,3.120435 7.29683254,2.81231 6.33633493,2.81231 Z M9.50703349,0.420835 L12.5157416,0.420835 L12.5157416,12.02546 L9.50703349,12.02546 L9.50703349,10.796785 C8.91805742,11.34036 8.33084211,11.726685 7.73746411,11.966385 C7.14320574,12.20141 6.50360766,12.325085 5.80502392,12.325085 C4.25643062,12.325085 2.91208612,11.74156 1.77639234,10.580885 C0.638937799,9.419785 0.075492823,7.97436 0.075492823,6.24546 C0.075492823,4.452385 0.623090909,2.98401 1.72004785,1.842035 C2.82096651,0.69496 4.14990431,0.12291 5.71830622,0.12291 C6.44286124,0.12291 7.11767464,0.25466 7.75243062,0.51476 C8.38630622,0.779535 8.96955981,1.17521 9.50703349,1.700085 L9.50703349,0.420835 Z" id="Fill-1" fill="#999DA7" mask="url(#mask-2)"></path>
                        </g>
                        <g id="Group-6" transform="translate(60.306220, 0.240720)">
                            <mask id="mask-4" fill="white">
                                <use xlink:href="#path-3"></use>
                            </mask>
                            <g id="Clip-5"></g>
                            <path d="M6.67594258,7.06231 C5.73745455,7.06231 4.96007656,7.37596 4.34160766,8.01261 C3.72181818,8.65436 3.41148325,9.46696 3.41148325,10.46146 C3.41148325,11.464885 3.72710048,12.288535 4.35657416,12.93411 C4.98604785,13.58181 5.76122488,13.910335 6.6803445,13.910335 C7.63467943,13.910335 8.42570335,13.58691 9.04505263,12.94941 C9.67364593,12.318285 9.9870622,11.48401 9.9870622,10.452535 C9.9870622,9.44231 9.67364593,8.62376 9.04505263,7.996885 C8.42570335,7.370435 7.62851675,7.06231 6.67594258,7.06231 Z M9.84135885,0.18921 L12.8491866,0.18921 L12.8491866,16.27546 L9.84135885,16.27546 L9.84135885,15.046785 C9.25282297,15.59036 8.66384689,15.976685 8.07134928,16.216385 C7.47709091,16.45141 6.83749282,16.575085 6.14199043,16.575085 C4.58503349,16.575085 3.24509091,15.99156 2.10895694,14.830885 C0.971942584,13.669785 0.40937799,12.22436 0.40937799,10.49546 C0.40937799,8.702385 0.956976077,7.23401 2.05305263,6.092035 C3.14912919,4.94496 4.48378947,4.37291 6.05527273,4.37291 C6.7771866,4.37291 7.45155981,4.50466 8.0858756,4.76476 C8.7197512,5.029535 9.30344498,5.42521 9.84135885,5.950085 L9.84135885,0.18921 Z" id="Fill-4" fill="#999DA7" mask="url(#mask-4)"></path>
                        </g>
                        <path d="M51.3338871,9.4230575 L56.4229397,9.4230575 L56.4229397,9.1740075 C56.4229397,8.4927325 56.1887579,7.9487325 55.7137914,7.5220325 C55.2405856,7.0961825 54.6326813,6.8815575 53.8918392,6.8815575 C53.1342699,6.8815575 52.5162411,7.1161575 52.0447962,7.5760075 C51.5667483,8.0477575 51.3338871,8.6593325 51.3338871,9.4230575 M56.4735617,12.7393325 L59.5901167,12.7393325 C59.3044325,14.0275075 58.7180976,14.9880075 57.8126239,15.6246575 C56.9155139,16.2613075 55.6768153,16.5800575 54.1141359,16.5800575 C52.1513225,16.5800575 50.6287005,16.0560325 49.5440689,15.0126575 C48.4576766,13.9646075 47.9197627,12.4992075 47.9197627,10.6143325 C47.9197627,8.7621825 48.4519541,7.3031575 49.5128153,6.2287575 C50.5776383,5.1615825 52.0293895,4.6277825 53.8663081,4.6277825 C55.7485665,4.6277825 57.194155,5.1331075 58.208356,6.1407825 C59.2238775,7.1510075 59.7358201,8.5964325 59.7358201,10.4766325 C59.7358201,10.5841575 59.730978,10.7171825 59.7265761,10.8642325 C59.7168919,11.0100075 59.7001646,11.2208075 59.6851981,11.4906825 L51.308356,11.5055575 C51.308356,12.3912575 51.5368153,13.0772075 51.9932938,13.5578825 C52.4502124,14.0372825 53.1091789,14.2774075 53.9631502,14.2774075 C54.5913033,14.2774075 55.1089684,14.1511825 55.5201072,13.8953325 C55.936088,13.6416075 56.2512651,13.2586825 56.4735617,12.7393325" id="Fill-7" fill="#999DA7"></path>
                        <path d="M28.290044,4.9115975 L31.3137187,4.9115975 L31.3137187,6.2439725 C31.8318239,5.6961475 32.4058335,5.2894225 33.0339866,5.0144475 C33.6634603,4.7505225 34.3479579,4.6136725 35.0932019,4.6136725 C35.845489,4.6136725 36.5255847,4.7896225 37.1277665,5.1474725 C37.7273072,5.5048975 38.2141589,6.0187225 38.5848,6.7046725 C39.0668096,6.0187225 39.6505033,5.5048975 40.3455656,5.1474725 C41.0454699,4.7896225 41.8008383,4.6136725 42.6279579,4.6136725 C43.4858909,4.6136725 44.2315751,4.8044975 44.879977,5.1920975 C45.5305799,5.5741725 45.9923407,6.0726975 46.2767043,6.6897975 C46.5601876,7.3119975 46.701489,8.3166975 46.701489,9.7128225 L46.701489,16.5162225 L43.6685703,16.5162225 L43.6685703,10.6282725 C43.6685703,9.3111975 43.4955751,8.4203975 43.1597091,7.9537475 C42.8207617,7.4875225 42.3083789,7.2580225 41.6331254,7.2580225 C41.1172211,7.2580225 40.6550201,7.3952975 40.2491636,7.6847225 C39.8380249,7.9686225 39.5329722,8.3613225 39.3353263,8.8645225 C39.1332785,9.3651725 39.0368766,10.1675725 39.0368766,11.2797975 L39.0368766,16.5162225 L35.9969148,16.5162225 L35.9969148,10.8930475 C35.9969148,9.8547725 35.9212019,9.1042225 35.7587713,8.6401225 C35.6011828,8.1696475 35.3630392,7.8266725 35.0487426,7.6009975 C34.7296038,7.3702225 34.3479579,7.2580225 33.902044,7.2580225 C33.3993455,7.2580225 32.942867,7.3999725 32.5370105,7.6898225 C32.126312,7.9788225 31.8216995,8.3855475 31.6231732,8.8993725 C31.4158431,9.4182975 31.3137187,10.2364225 31.3137187,11.3537475 L31.3137187,16.5162225 L28.290044,16.5162225 L28.290044,4.9115975 Z" id="Fill-9" fill="#999DA7"></path>
                        <mask id="mask-6" fill="white">
                            <use xlink:href="#path-5"></use>
                        </mask>
                        <g id="Clip-12"></g>
                        <polygon id="Fill-11" fill="#999DA7" mask="url(#mask-6)" points="74.8246124 16.516095 77.8544498 16.516095 77.8544498 4.91147 74.8246124 4.91147"></polygon>
                        <polygon id="Fill-13" fill="#999DA7" mask="url(#mask-6)" points="74.8316555 3.339395 77.8438852 3.339395 77.8438852 0.42517 74.8316555 0.42517"></polygon>
                        <polygon id="Fill-14" fill="#999DA7" mask="url(#mask-6)" points="18.9453971 16.59047 21.9743541 16.59047 21.9743541 4.98032 18.9453971 4.98032"></polygon>
                        <polygon id="Fill-15" fill="#999DA7" mask="url(#mask-6)" points="18.949799 3.412495 21.9681914 3.412495 21.9681914 0.502945 18.949799 0.502945"></polygon>
                        <polygon id="Fill-16" fill="#999DA7" mask="url(#mask-6)" points="23.593378 11.917595 26.6060478 11.917595 26.6060478 9.006345 23.593378 9.006345"></polygon>
                        <polygon id="Fill-17" fill="#999DA7" mask="url(#mask-6)" points="11.4784306 16.516095 16.5564785 16.516095 16.5564785 11.61372 11.4784306 11.61372"></polygon>
                        <polygon id="Fill-18" fill="#999DA7" mask="url(#mask-6)" points="10.1604976 10.32121 10.1604976 5.417985 5.07760766 5.417985 5.08288995 10.32121"></polygon>
                        <polygon id="Fill-19" fill="#999DA7" mask="url(#mask-6)" points="0 16.516095 10.1604976 16.516095 10.1604976 11.60947 0 11.60947"></polygon>
                        <polygon id="Fill-20" fill="#999DA7" mask="url(#mask-6)" points="11.4784306 10.321295 16.5564785 10.321295 16.5564785 0.502945 11.4784306 0.502945"></polygon>
                    </g>
                </g>
            </g>
        </g>
    </g>
</svg>