<svg width="121" height="25" viewBox="0 0 121 25" xmlns="http://www.w3.org/2000/svg"><title>Logotype</title><desc>Created with Sketch.</desc><g fill="none"><path d="M65.607.318c0-.038-.014-.076-.044-.106s-.06-.045-.096-.045h-5.274c-.037 0-.074.015-.097.045-.022.03-.044.068-.044.106v12.834L51.904.167h-5.526c-.022.007-.052.022-.074.038-.03.03-.045.06-.045.098V24.34c0 .04.014.07.044.1s.06.045.096.045h5.274c.037 0 .067-.015.096-.046.03-.03.037-.06.037-.1V10.857l8.467 13.63h5.17c.037 0 .067-.016.097-.047.03-.03.045-.06.045-.1V.32h.022zM82.12 5.773c.028-.03.036-.068.036-.106 0-.023 0-.038-.008-.053L79.11.174H67.008c-.037 0-.074.015-.096.046-.02.03-.043.068-.043.106v24.03c0 .038.014.068.044.1.03.03.06.044.097.044h15.06c.037 0 .066-.015.096-.045s.037-.06.037-.1V19c0-.038-.015-.068-.037-.098-.03-.03-.06-.046-.096-.046h-9.72V15.03h9.497c.037 0 .067-.015.097-.038.03-.03.038-.068.038-.106V9.53c0-.038-.015-.075-.037-.106-.02-.022-.044-.038-.073-.038h-9.52v-3.56h9.668c.037-.015.074-.03.104-.053zm-62.342 5.19v-4.81h6.244V4.976h-7.318v13.485h7.318v-1.174h-6.244v-5.19h6.11v-1.136h-6.11zm-2-5.986h-1.074v5.985H9.556V4.977H.03v1.175h3.71v12.31h1.104V6.152H8.49v12.31h1.066v-6.364h7.148v6.364h1.074V4.977zm10.207 2.88c-.007 1.302.34 2.582 1.06 3.825.444.712 1.03 1.333 1.762 1.856.97.697 2.2 1.227 3.69 1.59 1.607.372 2.977.766 4.11 1.175.963.424 1.245 1.068.852 1.932-.38.765-1.416 1.144-3.112 1.136-1.926-.075-3.77-.946-5.54-2.605l-.43-.417-.045-.045c-.022-.015-.052-.023-.074-.023-.038 0-.067.015-.097.038-.007 0-.007.008-.015.008l-.015.015c-.007.008-.014.016-.014.03-.016.016-.024.04-.04.054-1.813 3.053-2.74 4.59-2.79 4.62 1.073 1.1 2.236 1.964 3.503 2.6 1.874.94 3.948 1.356 6.244 1.273 4.482-.243 7.156-2.258 8.022-6.046.392-2.12.26-3.855-.408-5.188-.408-.947-1.156-1.834-2.26-2.652-1.23-.825-3.036-1.515-5.43-2.068-2.392-.553-3.518-1.28-3.37-2.197.127-1.023 1.082-1.47 2.852-1.326 2.015.19 3.75.992 5.208 2.416.03.03.067.046.104.046.037 0 .074-.016.103-.046l2.91-4.417c-.466-.5-.977-.955-1.54-1.35C41.66.986 39.72.28 37.4-.007c-3.504-.212-6.096.72-7.778 2.803C28.43 4.31 27.874 6 27.985 7.855zM95.54.166L91.157 8.94 86.748.166h-6.222l7.896 14.43v9.744c0 .04.015.07.045.1s.06.045.096.045h5.207c.037 0 .067-.015.097-.046.03-.03.044-.06.044-.1v-9.72L101.845.168H95.54zm23.564.235c.015-.023.015-.054.022-.076 0-.038-.015-.076-.037-.106-.03-.03-.06-.046-.097-.046H112.4l-6.193 9.712V.318c0-.038-.014-.076-.044-.106s-.06-.045-.096-.045h-2.808l-2.534 4.59v19.584c0 .04.015.07.044.1.03.03.06.045.097.045h5.2c.037 0 .066-.015.096-.046.03-.03.044-.06.044-.1v-6.954l1.32-1.848 5.258 8.947h6.593c.037 0 .074-.015.103-.046.03-.03.04-.07.04-.107 0-.022 0-.045-.01-.068l-8.325-12.712 7.92-11.15z" id="Shape" fill="#fff"/><path d="M119.896 2.614c-.103-.106-.23-.16-.385-.16-.147 0-.28.054-.384.16-.007.007-.022.022-.03.038l-6.54 9.022 6.525 9.962c.016.016.024.03.04.046.11.113.236.166.39.166.157 0 .283-.053.386-.166.104-.106.163-.227.163-.38V3c0-.144-.06-.273-.164-.386zm-6.103 9.038l5.303-7.334v15.326l-5.303-7.992z" fill="#A9E046"/></g></svg>