<?xml version="1.0" encoding="UTF-8"?>
<svg width="83px" height="17px" viewBox="0 0 83 17" version="1.1" xmlns="http://www.w3.org/2000/svg" xmlns:xlink="http://www.w3.org/1999/xlink">
    <!-- Generator: Sketch 42 (36781) - http://www.bohemiancoding.com/sketch -->
    <title>bork_logo</title>
    <desc>Created with Sketch.</desc>
    <defs></defs>
    <g id="Page-1" stroke="none" stroke-width="1" fill="none" fill-rule="evenodd">
        <g id="Desktop-HD-updated" transform="translate(-24.000000, -19.000000)" fill="#FFFFFF">
            <g id="head">
                <g id="bork_logo" transform="translate(24.000000, 19.000000)">
                    <path d="M71.0419738,8.17033942 L81.6415643,1.19118521 C81.8241779,1.10265825 81.917825,0.896605596 81.8644279,0.700816138 C81.8110308,0.50502668 81.6257389,0.375048302 81.4234657,0.391490459 L77.6285506,0.391490459 C77.4215777,0.390031325 77.2189451,0.450821107 77.0469544,0.565969315 L66.8690212,7.39972447 L66.8690212,0.914927025 C66.870679,0.647110016 66.6699086,0.421243344 66.4037443,0.391490459 L63.9755802,0.391490459 C63.6864942,0.391490459 63.4521437,0.625840992 63.4521437,0.914927025 L63.4521437,16.3853855 C63.4521437,16.6744715 63.6864942,16.9088221 63.9755802,16.9088221 L66.4619039,16.9088221 C66.7107128,16.8595491 66.8883931,16.6389803 66.8835611,16.3853855 L66.8835611,9.18813274 L77.5558511,16.6907235 C77.7253215,16.8127203 77.9286351,16.8787972 78.1374473,16.8797423 L81.9614422,16.8797423 C82.1590619,16.8799623 82.3321403,16.7472958 82.3832716,16.5564053 C82.434403,16.3655149 82.3508114,16.1640975 82.1795408,16.0655076 L71.0419738,8.17033942 Z" id="Shape"></path>
                    <path d="M40.0138174,10.220466 L36.2625221,10.220466 L36.2625221,14.0153811 L24.7178378,14.0153811 L24.7178378,10.220466 L20.9665424,10.220466 L20.9665424,13.6955032 C20.9665424,15.8910288 22.0715752,16.8797423 24.543359,16.8797423 L36.4515408,16.8797423 C38.9087847,16.8797423 40.0283573,15.8910288 40.0283573,13.6955032 L40.0138174,10.220466 Z" id="Shape"></path>
                    <path d="M36.4370009,0.391490459 L24.543359,0.391490459 C22.0861151,0.391490459 20.9665424,1.38020397 20.9665424,3.57572957 L20.9665424,7.05076676 L24.7178378,7.05076676 L24.7178378,3.29947138 L36.2625221,3.29947138 L36.2625221,7.05076676 L40.0138174,7.05076676 L40.0138174,3.59026947 C40.0138174,1.38020397 38.9087847,0.391490459 36.4370009,0.391490459" id="Shape"></path>
                    <path d="M61.0675993,16.0945874 L54.6991211,10.5694237 L56.8655669,10.5694237 C59.3228107,10.5694237 60.4423834,9.58071016 60.4423834,7.38518457 L60.4423834,3.57572957 C60.4569233,1.38020397 59.3373506,0.391490459 56.8655669,0.391490459 L43.4743147,0.391490459 C43.1290175,0.391490459 42.8490988,0.671409151 42.8490988,1.01670636 L42.8490988,16.3853855 C42.8490988,16.6744715 43.0834494,16.9088221 43.3725354,16.9088221 L45.8443192,16.9088221 C46.1334052,16.9088221 46.3677558,16.6744715 46.3677558,16.3853855 L46.3677558,10.5694237 L49.8573329,10.5694237 L56.8946467,16.5744043 C57.0952844,16.7372161 57.3490452,16.8200768 57.607102,16.8070427 L60.8495007,16.8070427 C60.9969639,16.7693952 61.1141426,16.6576099 61.1586916,16.5120829 C61.2032407,16.3665559 61.1687181,16.2083315 61.0675993,16.0945874 L61.0675993,16.0945874 Z M46.3822957,7.87954133 L46.3822957,3.21223195 L55.1062384,3.21223195 C56.3712101,3.21223195 56.8946467,3.357631 56.8946467,4.66622241 L56.8946467,6.44009077 C56.8946467,7.73414228 56.3712101,7.89408123 55.1062384,7.89408123 L46.3822957,7.87954133 Z" id="Shape"></path>
                    <path d="M15.9938951,8.57745675 L15.9938951,8.57745675 C17.3375101,8.42224698 18.3509036,7.28374318 18.3493596,5.93119411 L18.3493596,3.59026947 C18.3784394,1.38020397 17.2734067,0.391490459 14.8016229,0.391490459 L0.596136088,0.391490459 C0.43547922,0.391442666 0.281603865,0.456241655 0.169379137,0.571203571 C0.05715441,0.686165487 -0.00391846748,0.841557371 3.46537659e-13,1.00216645 L3.46537659e-13,16.2836062 C3.46644154e-13,16.6128431 0.266899218,16.8797423 0.596136088,16.8797423 L14.321806,16.8797423 C17.0553081,16.8797423 18.5092985,15.7601696 18.5092985,13.6518834 L18.5092985,11.2237194 C18.5037039,9.81477444 17.4007465,8.65443777 15.9938951,8.57745675 L15.9938951,8.57745675 Z M3.51865691,3.21223195 L13.3621723,3.21223195 C14.3363459,3.21223195 14.8161628,3.6775089 14.8161628,4.66622241 L14.8161628,5.93119411 C14.8161628,6.83266819 14.321806,7.29794514 13.3621723,7.29794514 L3.51865691,7.29794514 L3.51865691,3.21223195 Z M14.9034022,12.7067897 C14.9034022,13.6082637 14.4090455,14.0735407 13.4494117,14.0735407 L3.51865691,14.0735407 L3.51865691,10.0459871 L13.4348718,10.0459871 C14.4090455,10.0459871 14.8888623,10.5112641 14.8888623,11.4999776 L14.9034022,12.7067897 Z" id="Shape"></path>
                </g>
            </g>
        </g>
    </g>
</svg>