<?xml version="1.0" encoding="utf-8"?>
<!-- Generator: Adobe Illustrator 17.1.0, SVG Export Plug-In . SVG Version: 6.00 Build 0)  -->
<!DOCTYPE svg PUBLIC "-//W3C//DTD SVG 1.1//EN" "http://www.w3.org/Graphics/SVG/1.1/DTD/svg11.dtd">
<svg version="1.1" id="Logo_1_" xmlns="http://www.w3.org/2000/svg" xmlns:xlink="http://www.w3.org/1999/xlink" x="0px" y="0px"
	 width="138px" height="32px" viewBox="0 0 138 32" enable-background="new 0 0 138 32" xml:space="preserve">
<g id="Logo">
	<g>
		<path fill-rule="evenodd" clip-rule="evenodd" fill="#0B5ED8" d="M3.7,3.3H0.7C0.3,3.3,0,3.6,0,4v23.9c0,0.4,0.3,0.7,0.7,0.7h2.8
			c0.4,0,0.7-0.3,0.7-0.7V4C4.3,3.5,4.1,3.3,3.7,3.3z M29.5,17.2c0.9-1.4,1.3-2.9,1.3-4.7c0-1.2-0.2-2.4-0.7-3.5
			c-0.5-1.1-1.1-2.1-2-2.9c-0.9-0.8-1.9-1.5-3.1-2c-1.2-0.5-2.5-0.7-3.9-0.7H9.4C9,3.3,8.6,3.6,8.6,4v24c0,0.2,0.2,0.7,0.7,0.7h3
			c0.4,0,0.6-0.2,0.6-0.7v-6.4c0,0,0-0.1,0.1-0.1l8.9,0l3.4,6.5c0.2,0.2,0.5,0.7,0.9,0.7h3.5c0.5,0,0.8-0.2,0.5-0.7l-4.3-7.5
			c0,0,0-0.1,0-0.1C27.4,19.6,28.6,18.6,29.5,17.2z M25.1,16.1c-0.9,1-2.3,1.5-4,1.5l-8.1,0c0,0-0.1,0-0.1-0.1V7.3
			c0,0,0-0.1,0.1-0.1h8.1c1.7,0,3.1,0.5,4,1.5c0.9,1,1.4,2.2,1.4,3.6C26.5,13.9,26,15.1,25.1,16.1z M52.6,14.9c0,0,0.5-0.3,1.1-0.9
			c0.3-0.3,0.6-0.7,0.9-1.1c0.3-0.4,0.4-0.9,0.6-1.3c0.1-0.4,0.2-0.8,0.2-1.3c0-0.9-0.2-1.8-0.5-2.7c-0.3-0.8-0.8-1.6-1.5-2.2
			c-0.7-0.7-1.5-1.2-2.4-1.5c-0.9-0.4-2-0.6-3.2-0.6h-13C34.2,3.3,34,3.5,34,4V28c0,0.2,0.3,0.7,0.6,0.7h13.8c1.3,0,2.4-0.2,3.4-0.6
			c1-0.4,1.9-1,2.7-1.7c0.8-0.7,1.4-1.6,1.8-2.5c0.4-0.9,0.6-2,0.6-3.1c0-1.3-0.4-2.5-1.1-3.5C55.1,16.2,54,15.4,52.6,14.9z
			 M38.4,7.4C38.4,7.3,38.4,7.3,38.4,7.4l9.4-0.1c1,0,1.8,0.3,2.4,0.9c0.4,0.5,0.7,1,0.8,1.5c0.2,1.2-0.4,2.4-1.4,3.1
			c-0.5,0.3-1,0.4-1.6,0.4h-9.5c0,0-0.1,0-0.1-0.1V7.4z M51.5,23.6c-0.8,0.7-1.9,1.1-3.2,1.1h-9.9c0,0-0.1,0-0.1-0.1v-7.4
			c0,0,0-0.1,0.1-0.1h9.9c1.4,0,2.5,0.3,3.3,0.9c0.8,0.6,1.2,1.5,1.2,2.8C52.7,22,52.3,22.9,51.5,23.6z M63.9,3.3H61
			c-0.4,0-0.7,0.3-0.7,0.7v23.9c0,0.4,0.3,0.7,0.7,0.7h2.8c0.4,0,0.7-0.3,0.7-0.7V4C64.6,3.5,64.3,3.3,63.9,3.3z M88.2,15.6
			c-0.9-0.6-2.1-1.1-3.6-1.4c-1.4-0.4-2.9-0.7-4.6-0.8c-2.1-0.2-3.7-0.6-5-1.1c-1.3-0.5-1.9-1.2-1.9-2.2c0-1,0.5-1.7,1.6-2.2
			C75.8,7.2,77.3,7,79.3,7C81,7,82.6,7.2,84,7.8c1.4,0.5,2.7,1.3,3.8,2.2c0.3,0.2,0.6,0.2,0.9,0l1.8-2.3c0.2-0.2,0.2-0.5,0-0.7
			C89,5.7,87.3,4.7,85.4,4C81.4,2.7,79.2,3,79.2,3c0,0,0,0,0,0c-1.5,0-2.9,0.2-4.3,0.5c-1.3,0.3-2.4,0.8-3.3,1.4
			c-0.9,0.6-1.6,1.4-2.1,2.2C69.1,8,68.9,9,68.9,10c0,1.4,0.3,2.5,0.9,3.4c0.6,0.9,1.4,1.7,2.3,2.2c1,0.6,2.1,1,3.4,1.3
			c0.6,0.2,1.3,0.3,1.9,0.4c0.7,0.1,1.3,0.2,2,0.3c2.3,0.3,4.2,0.7,5.6,1.3c1.4,0.6,2,1.5,2,2.7c0,1.1-0.6,2-1.9,2.7
			c-1.3,0.7-3.1,1.1-5.4,1.1c-1.8,0-3.5-0.3-5-0.8c-1.5-0.6-2.9-1.4-4.3-2.7c-0.3-0.3-0.6-0.2-0.9,0.1l-1.8,2.3
			c-0.3,0.3-0.3,0.5,0,0.8c1.6,1.5,3.4,2.6,5.5,3.2c2,0.7,4.2,1,6.6,1c1.6,0,3.1-0.2,4.5-0.5c1.5-0.3,2.7-0.8,3.7-1.4
			c1-0.7,1.9-1.5,2.5-2.4c0.6-1,0.9-2.1,0.9-3.4c0-1.3-0.3-2.5-0.9-3.4C90,17,89.2,16.3,88.2,15.6z M137.7,15L127.7,0.6
			c-0.6-0.6-1.2-0.7-1.8-0.3l-5.3,3.5c-0.6,0.6-0.6,0.8-0.2,1.6l6.4,10.6h0l-6.5,10.6c-0.4,0.7-0.4,1,0.2,1.6l5.3,3.5
			c0.6,0.4,1.2,0.3,1.8-0.3L137.7,17c0.2-0.3,0.3-0.6,0.3-0.8v-0.3C138,15.6,137.9,15.3,137.7,15z"/>
	</g>
</g>
</svg>
