<?xml version="1.0" encoding="UTF-8"?>
<svg width="108px" height="48px" viewBox="0 0 108 48" version="1.1" xmlns="http://www.w3.org/2000/svg" xmlns:xlink="http://www.w3.org/1999/xlink">
    <!-- Generator: Sketch 50.2 (55047) - http://www.bohemiancoding.com/sketch -->
    <title>logo</title>
    <desc>Created with Sketch.</desc>
    <defs>
        <polygon id="path-1" points="0 0.195891892 104.557164 0.195891892 104.557164 47.7405113 0 47.7405113"></polygon>
    </defs>
    <g id="Page-1" stroke="none" stroke-width="1" fill="none" fill-rule="evenodd">
        <g id="yura_1280_main" transform="translate(-109.000000, -32.000000)">
            <g id="logo-/-red-/-1260" transform="translate(109.000000, 32.000000)">
                <g id="Page-1">
                    <g id="Group">
                        <path d="M106.084749,29.3337081 L105.560434,29.3337081 L105.560434,28.611373 L106.084749,28.611373 C106.41492,28.611373 106.497463,28.8054486 106.497463,28.9735784 C106.497463,29.1686919 106.388177,29.3337081 106.084749,29.3337081 M106.41492,29.5008 L106.41492,29.4735568 C106.662291,29.4182919 106.829434,29.1959351 106.829434,28.9180541 C106.829434,28.4736 106.469949,28.3607351 106.084749,28.3607351 L105.23052,28.3607351 L105.23052,30.6115459 L105.560434,30.6115459 L105.560434,29.6134054 L106.029977,29.6134054 C106.16652,29.6134054 106.30512,29.6686703 106.35912,29.7522162 C106.442949,29.8630054 106.442949,30.0298378 106.469949,30.2231351 C106.497463,30.3619459 106.52472,30.5010162 106.552491,30.6115459 L106.883434,30.6115459 C106.829434,30.4182486 106.800891,30.1686486 106.772091,29.9735351 C106.71912,29.6959135 106.690063,29.5288216 106.41492,29.5008" id="Fill-1" fill="#E20714"></path>
                        <path d="M106.002129,31.1960303 C105.092871,31.1960303 104.348957,30.4464519 104.348957,29.5007222 C104.348957,28.5850897 105.092871,27.8336951 106.002129,27.8336951 C106.936586,27.8336951 107.6553,28.5850897 107.6553,29.5007222 C107.6553,30.4464519 106.936586,31.1960303 106.002129,31.1960303 M106.002129,27.5558141 C104.9553,27.5558141 104.045786,28.3889384 104.045786,29.5007222 C104.045786,30.6415654 104.9553,31.4736519 106.002129,31.4736519 C107.075186,31.4736519 107.957443,30.6415654 107.957443,29.5007222 C107.957443,28.3889384 107.075186,27.5558141 106.002129,27.5558141" id="Fill-3" fill="#E20714"></path>
                        <g id="Group-7" transform="translate(0.000000, 0.063568)">
                            <mask id="mask-2" fill="white">
                                <use xlink:href="#path-1"></use>
                            </mask>
                            <g id="Clip-6"></g>
                            <path d="M31.608,2.03460324 C31.0566857,3.09060324 30.2299714,4.42604108 29.6246571,6.0092627 C28.4122286,9.28857081 34.9953429,8.37164108 37.3914,4.70236541 C38.4382286,3.09060324 38.9059714,2.25644108 39.5670857,0.867554595 C40.0358571,-0.0491156757 39.2919429,0.229543784 39.1263429,0.256268108 L32.5434857,1.47910054 C32.5434857,1.47910054 31.8276,1.59092757 31.608,2.03460324 M91.1828571,24.3522681 C91.5397714,24.1021492 92.2296857,23.7127005 92.7254571,23.2132411 C93.195,22.7685276 93.9108857,21.9068627 94.1562,21.5168951 C94.5154286,20.9616519 95.0955429,20.0172195 94.9566857,19.3493708 C94.8191143,18.9036195 94.1312571,18.7661059 93.4413429,18.8211114 C92.5058571,18.8768951 91.6513714,19.1264951 90.7698857,19.4887005 C90.6315429,19.5444843 90.4669714,19.6280303 90.3013714,19.6827762 C89.5865143,20.0172195 88.5114,20.7940411 87.9060857,21.4341276 C87.1346571,22.3227762 86.3904857,23.7127005 86.6648571,24.5473816 C86.8862571,25.2697168 88.1544857,25.6853708 89.0629714,25.3522249 C89.8894286,25.0746032 90.4407429,24.7967222 91.1828571,24.3522681 M90.7698857,30.0751654 C86.3367429,32.4121168 80.6610857,32.8277708 80.6909143,27.2698897 C80.6909143,27.2698897 80.5242857,27.1030573 80.3316857,27.2418681 C78.8721429,28.1593168 77.4401143,29.1875546 75.8967429,29.8538465 C72.1524857,31.4946681 65.2942286,33.9123114 66.5048571,27.7698681 C66.9723429,25.2697168 71.4355714,17.9602249 72.0678857,17.0438141 C72.0138857,17.1263222 70.8562286,17.2646141 70.8850286,17.2378897 C66.6694286,22.5171114 63.2540571,26.32416 60.0863143,28.6595546 C58.3791429,29.9101492 55.3777714,31.7152086 52.4841429,31.7152086 C52.4841429,31.7152086 50.1716571,31.9121384 50.0880857,28.3816735 C50.0880857,28.3816735 49.9512857,28.3544303 49.8137143,28.3816735 C47.0864571,30.6597276 32.7908571,36.6348195 37.0064571,23.4900843 C37.0334571,23.4065384 36.8678571,23.4900843 36.8678571,23.4900843 C34.1408571,25.4630141 28.7421429,28.4369384 24.7767429,30.2440735 C20.2317429,36.1921816 17.6430857,39.3313816 13.896,43.7510141 C13.7314286,43.9170681 13.2348857,44.2512519 12.7951714,44.4173059 C12.3822,44.5288735 2.27442857,47.4184735 1.17154286,47.613587 C-0.288257143,47.9475114 -0.0678857143,47.5572843 0.180514286,47.1953384 C2.76994286,42.9996195 9.93034286,34.439533 18.2206286,27.4650032 C21.3058286,23.1021924 22.9029429,20.6829924 25.1076857,16.7651546 C25.2444857,16.5155546 25.4656286,16.375187 25.7410286,16.3471654 C28.5228,15.7363978 30.6159429,15.3194465 33.3162,14.7639438 C32.6820857,14.9032735 33.8654571,14.5410681 33.6173143,15.0138032 C31.3038,19.0157059 30.8085429,19.7663222 27.9995143,24.2124195 C27.9444857,24.2692411 28.1918571,24.323987 28.3294286,24.2692411 C29.2389429,23.9355762 37.8869143,19.0989924 40.2832286,16.29216 C40.2832286,16.2646573 40.4485714,16.1811114 40.5313714,16.1533492 C43.7541429,15.4862789 43.4509714,15.7081168 46.7007429,15.0426032 C46.7555143,15.0138032 47.0586857,15.098387 46.9488857,15.2911654 C44.883,18.6828195 44.3872286,19.8221059 44.2218857,20.3776086 C42.5694857,26.0748195 49.2073714,23.4900843 51.5216571,19.9334141 C52.4293714,18.6259978 52.9806857,17.4597276 53.532,16.5155546 C53.6965714,16.2086141 53.6965714,15.9867762 54.2219143,15.9590141 C54.2219143,15.9590141 58.7648571,15.1808951 60.7482,14.7639438 C61.3815429,14.6523762 61.3265143,14.8755114 61.2447429,15.0426032 C59.9214857,17.2088303 57.6912857,20.9891546 56.7815143,23.0739114 C55.6529143,25.7126141 56.8635429,26.269933 58.6283143,25.1028843 C60.4998,23.8803114 64.9082571,19.6557924 67.3032857,16.7651546 C67.3032857,16.7651546 67.1667429,16.8209384 66.5606571,16.931987 C66.2286857,16.9592303 65.9550857,16.8487005 66.2564571,16.3212195 C66.8358,15.2366789 67.5786857,13.9030573 68.9546571,11.3738465 C69.0114857,11.2897816 69.1760571,11.1509708 69.2588571,11.1509708 C69.4532571,11.095187 78.4872,8.6492627 78.4872,8.6492627 C79.4784857,8.37164108 78.5412,9.45514378 78.8999143,8.98318703 C76.9716,11.7059546 75.8419714,13.0963978 73.7208,15.5698249 C73.7766,15.51456 73.5014571,15.9034897 73.9972286,15.8474465 C77.0814,15.3194465 76.1441143,15.3194465 79.0925143,14.8482681 C79.4224286,14.7639438 79.8631714,14.9032735 79.5594857,15.3752303 C77.2747714,19.293587 76.8618,20.5454789 74.6022857,24.3522681 C73.3350857,26.4367654 74.8776857,26.9359654 77.7137143,25.1853924 C79.4504571,24.1288735 80.3041714,22.8520735 81.1856571,21.933587 C82.3142571,20.711533 83.3613429,19.5444843 84.4917429,18.6545384 C85.8672,17.5982789 87.3277714,16.6816086 90.7698857,15.9302141 L90.7698857,15.9590141 L90.7698857,15.9302141 C93.5799429,15.347987 97.7119714,14.9032735 104.212286,14.6246141 C104.677971,14.5968519 104.597229,14.8186897 104.404886,15.1533924 C103.412571,17.2646141 101.127343,21.5446573 99.5297143,25.2959222 C99.1149429,26.2144086 98.6752286,27.5757924 99.6672857,27.7426249 C100.356171,27.8534141 100.988486,27.4097384 102.173143,26.6863654 C102.200914,26.6300627 102.282943,26.6038573 102.365743,26.6300627 C102.395314,26.6300627 102.669686,26.7971546 102.780257,26.8251762 C102.833229,26.90976 102.806486,26.9632086 102.806486,26.9922681 C102.063343,28.2701059 101.457257,29.2438573 100.327371,30.3546032 C97.6003714,33.0228843 93.6897429,31.0499546 93.7733143,28.2428627 C93.7733143,28.1875978 93.5799429,28.1593168 93.4981714,28.2428627 C92.7812571,28.8546681 91.9265143,29.4371546 91.0182857,29.9381708 L90.9905143,29.9661924 C90.9074571,29.9944735 90.8249143,30.0206789 90.7698857,30.0751654" id="Fill-5" fill="#DF0714" mask="url(#mask-2)"></path>
                        </g>
                    </g>
                </g>
            </g>
        </g>
    </g>
</svg>