<?xml version="1.0" encoding="UTF-8"?>
<svg width="98px" height="43px" viewBox="0 0 98 43" version="1.1" xmlns="http://www.w3.org/2000/svg" xmlns:xlink="http://www.w3.org/1999/xlink">
    <!-- Generator: Sketch 50.2 (55047) - http://www.bohemiancoding.com/sketch -->
    <title>Group</title>
    <desc>Created with Sketch.</desc>
    <defs></defs>
    <g id="Page-1" stroke="none" stroke-width="1" fill="none" fill-rule="evenodd">
        <g id="yura_1280_main" transform="translate(-90.000000, -4503.000000)" fill="#999DA7">
            <g id="Group" transform="translate(90.000000, 4503.000000)">
                <path d="M96.2620867,26.1872337 L95.78632,26.1872337 L95.78632,25.536625 L96.2620867,25.536625 C96.5616867,25.536625 96.6365867,25.7114293 96.6365867,25.8628641 C96.6365867,26.0386033 96.53742,26.1872337 96.2620867,26.1872337 M96.5616867,26.3377337 L96.5616867,26.3131957 C96.7861533,26.2634185 96.93782,26.0631413 96.93782,25.8128533 C96.93782,25.4125326 96.61162,25.310875 96.2620867,25.310875 L95.4869533,25.310875 L95.4869533,27.3381848 L95.78632,27.3381848 L95.78632,26.4391576 L96.2123867,26.4391576 C96.3362867,26.4391576 96.4620533,26.4889348 96.5110533,26.5641848 C96.58712,26.6639728 96.58712,26.8142391 96.61162,26.9883424 C96.6365867,27.1133696 96.66132,27.2386304 96.68652,27.3381848 L96.98682,27.3381848 C96.93782,27.1640815 96.91192,26.9392663 96.8857867,26.7635272 C96.83772,26.5134728 96.8113533,26.3629728 96.5616867,26.3377337" id="Fill-1"></path>
                <path d="M96.1871167,27.864631 C95.36205,27.864631 94.6870167,27.1894842 94.6870167,26.3376636 C94.6870167,25.5129516 95.36205,24.836169 96.1871167,24.836169 C97.03505,24.836169 97.6872167,25.5129516 97.6872167,26.3376636 C97.6872167,27.1894842 97.03505,27.864631 96.1871167,27.864631 M96.1871167,24.585881 C95.2372167,24.585881 94.4119167,25.3362777 94.4119167,26.3376636 C94.4119167,27.3652234 95.2372167,28.1146853 96.1871167,28.1146853 C97.1608167,28.1146853 97.9613833,27.3652234 97.9613833,26.3376636 C97.9613833,25.3362777 97.1608167,24.585881 96.1871167,24.585881" id="Fill-3"></path>
                <path d="M28.6813333,1.65613098 C28.1810667,2.60727228 27.4309,3.8101038 26.8816333,5.23611467 C25.7814667,8.18979402 31.7550333,7.36391359 33.9292333,4.05898967 C34.8791333,2.60727228 35.3035667,1.85594076 35.9034667,0.604967935 C36.3288333,-0.220678804 35.6538,0.0303103261 35.5035333,0.0543809783 L29.5302,1.15578859 C29.5302,1.15578859 28.8806,1.25651141 28.6813333,1.65613098 M82.74,21.7576962 C83.0638667,21.5324136 83.6899,21.1816364 84.1397667,20.7317723 C84.5658333,20.3312179 85.2154333,19.5551147 85.4380333,19.2038701 C85.764,18.7037614 86.2904,17.8531092 86.1644,17.2515766 C86.0395667,16.8500875 85.4154,16.7262288 84.7893667,16.7757723 C83.9405,16.8260168 83.1651333,17.0508321 82.3652667,17.3770712 C82.2397333,17.4273158 82.0904,17.5025658 81.9401333,17.5518755 C81.2914667,17.8531092 80.3159,18.552794 79.7666333,19.1293212 C79.0666333,19.9297288 78.3913667,21.1816364 78.6403333,21.9334353 C78.8412333,22.584044 79.9920333,22.9584245 80.8164,22.6583592 C81.5663333,22.4083049 82.0666,22.1580168 82.74,21.7576962 M82.3652667,26.9123212 C78.3426,29.0172179 73.1924667,29.3915984 73.2195333,24.3856038 C73.2195333,24.3856038 73.0683333,24.2353375 72.8935667,24.3603647 C71.5691667,25.1867125 70.2697333,26.1128484 68.8692667,26.7129788 C65.4717,28.1908701 59.2484667,30.3684462 60.347,24.8359353 C60.7712,22.584044 64.8211667,16.0003701 65.3949333,15.1749571 C65.3459333,15.2492723 64.2954667,15.3738321 64.3216,15.3497614 C60.4963333,20.1047668 57.3972,23.5337832 54.5227667,25.6372777 C52.9736667,26.7636908 50.2502,28.3895114 47.6245,28.3895114 C47.6245,28.3895114 45.5261333,28.5668864 45.4503,25.3869897 C45.4503,25.3869897 45.3261667,25.3624516 45.2013333,25.3869897 C42.7266,27.4388375 29.7546667,32.8206147 33.5799333,20.9811255 C33.6044333,20.9058755 33.4541667,20.9811255 33.4541667,20.9811255 C30.9796667,22.7581473 26.0808333,25.4367668 22.4826,27.0644571 C18.3584333,32.4219299 16.0094667,35.2494136 12.6093333,39.2301853 C12.46,39.3797505 12.0094333,39.6807505 11.6104333,39.8303158 C11.2357,39.9308049 2.06383333,42.5334734 1.06306667,42.7092125 C-0.261566667,43.0099788 -0.0616,42.6585005 0.1638,42.3324951 C2.51346667,38.5534027 9.01086667,30.8433158 16.5335333,24.5613429 C19.3330667,20.6317505 20.7823,18.4527723 22.7829,14.9239679 C22.9070333,14.6991527 23.1077,14.5727234 23.3576,14.5474842 C25.8818,13.9973647 27.7811333,13.6218158 30.2313667,13.1214734 C29.6559667,13.2469679 30.7297667,12.9207288 30.5046,13.3465223 C28.4053,16.951044 27.9559,17.6271255 25.4069667,21.6317342 C25.3570333,21.6829136 25.5815,21.7322234 25.7063333,21.6829136 C26.5316333,21.382381 34.3788667,17.0260603 36.5533,14.4979408 C36.5533,14.473169 36.7033333,14.397919 36.7784667,14.3729136 C39.7028333,13.7720821 39.4277333,13.9718918 42.3766,13.3724625 C42.4263,13.3465223 42.7014,13.4227071 42.6017667,13.5963429 C40.7271667,16.6512125 40.2773,17.6773701 40.1272667,18.1777125 C38.6278667,23.3092016 44.6511333,20.9811255 46.7511333,17.7776255 C47.5748,16.6000332 48.0750667,15.5495712 48.5753333,14.6991527 C48.7246667,14.4226908 48.7246667,14.222881 49.2013667,14.1978755 C49.2013667,14.1978755 53.3236667,13.4970223 55.1233667,13.1214734 C55.6980667,13.0209842 55.6481333,13.2219625 55.5739333,13.3724625 C54.3732,15.3235875 52.3495,18.7285332 51.5239667,20.6062777 C50.4998667,22.9829625 51.5984,23.4849408 53.1997667,22.4337777 C54.8979667,21.3326038 58.8982333,17.5275712 61.0715,14.9239679 C61.0715,14.9239679 60.9476,14.9742125 60.3976333,15.0742342 C60.0964,15.0987723 59.8481333,14.9992179 60.1216,14.5241147 C60.6473,13.5472668 61.3214,12.3460712 62.5699667,10.068006 C62.6215333,9.99228859 62.7708667,9.86726141 62.846,9.86726141 C63.0224,9.81701685 71.2198667,7.61396793 71.2198667,7.61396793 C72.1193667,7.36391359 71.2688667,8.33982663 71.5943667,7.91473424 C69.8446,10.3671364 68.8195667,11.6195114 66.8948,13.8473321 C66.9454333,13.7975549 66.6957667,14.1478647 67.1456333,14.0973864 C69.9442333,13.6218158 69.0937333,13.6218158 71.7691333,13.1974245 C72.0685,13.1214734 72.4684333,13.2469679 72.1928667,13.6720603 C70.1197,17.2013321 69.7449667,18.3289136 67.6946667,21.7576962 C66.5448,23.6352071 67.9445667,24.0848375 70.518,22.5080929 C72.0939333,21.5564842 72.8686,20.4064679 73.6684667,19.5791853 C74.6925667,18.4784788 75.6427,17.4273158 76.6684333,16.6257397 C77.9165333,15.6743647 79.2418667,14.8487179 82.3652667,14.1719353 L82.3652667,14.1978755 L82.3652667,14.1719353 C84.9151333,13.6475223 88.6645667,13.2469679 94.563,12.9959788 C94.9855667,12.9709734 94.9123,13.1707832 94.7377667,13.4722505 C93.8373333,15.3738321 91.7637,19.2288755 90.314,22.6076473 C89.9376333,23.4349299 89.5386333,24.661131 90.4388333,24.8113973 C91.0639333,24.9111853 91.6377,24.5115658 92.7126667,23.8600223 C92.7378667,23.8093103 92.8123,23.7857071 92.8874333,23.8093103 C92.9142667,23.8093103 93.1632333,23.9598103 93.2635667,23.9850495 C93.3116333,24.0612342 93.2873667,24.1093755 93.2873667,24.1355495 C92.6130333,25.2865005 92.0630667,26.1635603 91.0378,27.1640114 C88.5633,29.5673375 85.0147667,27.7903158 85.0906,25.2619625 C85.0906,25.2121853 84.9151333,25.1867125 84.8409333,25.2619625 C84.1904,25.8130168 83.4148,26.3376636 82.5906667,26.7889299 L82.5654667,26.814169 C82.4901,26.8396418 82.4152,26.8632451 82.3652667,26.9123212" id="Fill-5"></path>
            </g>
        </g>
    </g>
</svg>