<svg width="25" height="24" viewBox="0 0 25 24" xmlns="http://www.w3.org/2000/svg"><title>Search</title><desc>Created with Sketch.</desc><path d="M14.275 16.22c-3.54 2.664-8.483 2.53-11.646-.525-3.52-3.4-3.504-9.13.037-12.796C6.21-.77 11.933-.986 15.454 2.413c3.154 3.046 3.47 7.96.954 11.59l7.272 7.022c.61.59.62 1.555.03 2.166-.596.615-1.56.632-2.167.047l-7.268-7.02zm-9.508-2.74c2.347 2.268 6.163 2.123 8.524-.322 2.362-2.444 2.373-6.264.026-8.53-2.347-2.267-6.163-2.122-8.524.323-2.36 2.445-2.372 6.265-.025 8.53z" fill="#D8D9DE"/></svg>