<svg xmlns="http://www.w3.org/2000/svg" viewBox="0 0 330 54.04"><defs><style>.cls-1{fill:#fc642a;}</style></defs><title>signature</title><g id="Layer_2" data-name="Layer 2"><g id="Layer_1-2" data-name="Layer 1"><path class="cls-1" d="M127.67,8.36h0a3.48,3.48,0,0,1-1.65-.6c-1.1-.64-1.4-1.31-1.36-1.44a3,3,0,0,1,1.92-.91h.18c.29,0,.78.66,1.13,1C128.68,7.12,128.82,8.11,127.67,8.36Z"/><path class="cls-1" d="M329.65,44.21a3.7,3.7,0,0,0-1.79-.88,1.16,1.16,0,0,0-.35-.06,1.12,1.12,0,0,0-.74.31q0,.27.08.59c0,.14,0,.28,0,.43v.1s.05.09.17.25a11.65,11.65,0,0,1,1.76.94C329.56,46.08,330.53,45.31,329.65,44.21Z"/><path class="cls-1" d="M51.41,32.54a121.62,121.62,0,0,1,12.92.73l8.87,1.11s-4.73,1.08-8.46,1.7c-5.36.89-15.24,2.56-20,3,0,0-6.68.56-9.81.71-5.84.27-9.62.39-12.64.39a57.94,57.94,0,0,1-7.54-.4c-1.21-.16-2.2-.17-3-.33-6-1.3-3.08-3.63,1.06-4.27,3-.47,5.16-.73,8.06-1.11l.25,0c3.11-.41,17.3-1.15,19.07-1.24,3.62-.19,7.68-.29,11-.29m-33.66,0c-4,.48-7.17.69-9.68,2.91S6.52,40,11.2,41.22c3.59,1.4,7.47,1.33,13.68,1.33,4.46,0,9.35-.32,15.31-.8l4.19-.3c8.64-.68,13.85-1.36,34.47-5.79l.23,0,.23,0c.14,0,3.64.58,16.87,4.55,11.39,3.42,21.3,6.74,27.86,8.95l3,1a12.13,12.13,0,0,0,4.11.91c1.81,0,3.12-.76,5.1-1.9.56-.32,1.16-.67,1.83-1a37.31,37.31,0,0,1,5.51-3A47.71,47.71,0,0,0,150,41.59l.61-.38.88.45A27,27,0,0,0,165,45.34h.51c8.84,0,15.29-3.34,20.94-10.84l1-1.37,1,1.4C194.17,42.58,202.66,44,208.86,45l.67.11s.33,1.93.69,3.39a2.81,2.81,0,0,0,3.07,2.38c-.3-4.5,1.33-5.24,2.56-5.36a38.31,38.31,0,0,1,6.43,0l.21.83a22.77,22.77,0,0,0,1.27,3.69c.33.62.51.7.89.85a5.33,5.33,0,0,1,.5.22,3.28,3.28,0,0,0,1.3.3l.26,0a1,1,0,0,0-.05-.56c-1-4.62-.37-5.88,4.52-5.94h.15c.08,0,12.73-.12,25.1-.57l8.89-.08c5.5-.05,11.2-.11,17.41-.11,6.4,0,12.34.06,18.18.18h0c3.28,0,11.18.11,14,1.08a3.66,3.66,0,0,0,.76.1.65.65,0,0,0,.24,0,3.26,3.26,0,0,0,.3-.64l0-.11a2.93,2.93,0,0,0-2.44-1.81c-2.24-.15-21.28-.81-38.49-.74-8.57,0-18.78.29-27.8.52-8.13.2-15.16.38-19.9.38l-2.15,0-1,0-.2-1c-.88-4.23-.51-14.81-.21-23.31l0-1.23c.42-12.16-.21-15.54-.47-16.4a1.81,1.81,0,0,0-1.51-.72,2.2,2.2,0,0,0-.58.08c.56,3,.45,9.5.23,19.2-.17,7.65-.37,16.32,0,22.18l.1,1.38-1.39,0s-5.07-.15-7.36-.07l-1,0-.23-1c-1.65-7.26-.85-22.45-.32-32.51.11-2.12.21-4,.26-5.36V4.24a3.14,3.14,0,0,0-1-2.76c-.34-.34-1-.14-1,.2-.62,5.07-1.48,27-.58,39.39l.12,1.66-1.63-.34C200.83,41,194,39,190.5,33.7c-1.73-2.3.24-8.9,1.24-10.78A1.58,1.58,0,0,0,192,21.6a2.76,2.76,0,0,0-1.78-1.25c-.79,0-3.1,3.77-3.24,7.57v.25l-.1.22c-5.64,12.53-16.11,14.4-21.85,14.4a23.3,23.3,0,0,1-10.28-2.22l-1.55-.81,1.27-1.21c10.43-9.93,11.4-20.69,10.42-30.65l-.07-.7c-.32-5-3.4-7.65-8.67-7.12a26.13,26.13,0,0,0-10.53,3.56c-8.73,5.09-11.11,12.5-7.47,23.32l.35,1.05-1,.48c-5.14,2.48-7.88,5.45-8.39,9.09-.28,2-.43,5.12,2.93,7.07a9.88,9.88,0,0,0,6,.95l-4.37,2.1a6.42,6.42,0,0,1-3.13.83c-4.39,0-7.93-4.53-8.48-8.76-.52-4,.1-7.25,5.16-11.32a5.57,5.57,0,0,0-1.22-1,2.43,2.43,0,0,0-1.08-.35c-6,4-7.32,9.34-4.17,16.19l1.18,2.57-4.78-1.5c-7.73-2.43-14.3-4.48-29.11-9.1l-3-.93L87.87,33C95.76,29,99.93,25.43,100,17.82,100.2,4.51,81.8.38,72,.38,48.18.38,20.21,8.24,4.89,16A25.4,25.4,0,0,0,.08,19.1,2,2,0,0,0,.65,21a.7.7,0,0,0,.55.25,3,3,0,0,0,1.33-.45A106,106,0,0,1,24.15,10.53,96.22,96.22,0,0,1,37.45,6.92c3.2-.67,4.71-1,10.4-2A119,119,0,0,1,70.21,2.33c9.1,0,16.16,1.82,22.22,5.72,4.36,3.06,8.73,7.55,4.1,15.44-1.7,2.7-5.45,6.56-18.63,9.39l-.26.05-.26-.05c-7.68-1.57-22.08-2.79-32.33-2.71-2.52,0-3.89.22-4.5.24C30.81,31.08,21.71,32.06,17.62,32.55ZM142.1,41.92a5.88,5.88,0,0,1-4.62,1.72l-.95,0c-.7,0-3.79-.94-4.34-2.26h0c-1.37-3.35,1.16-7.16,6.61-9.92l1-.5.62.92a29.39,29.39,0,0,0,3.95,4.72l1.07,1.05A38.92,38.92,0,0,1,142.1,41.92Zm-.41-11.84,1.13-.88a8.77,8.77,0,0,1,3.61-1.39,1.64,1.64,0,0,1,1.22.48c.79.81,1.08,1.85-.35,5.59l-.84,1.77-1.73-1.52A31.19,31.19,0,0,1,141.69,30.08Zm6.55,6.75.36-1c2.05-5.15,2.59-8.71,2.31-9.49-.4-1.1-1.54-1.68-3.23-1.61a6.75,6.75,0,0,0-2.57.37,39.19,39.19,0,0,0-4.71,2.14,11.39,11.39,0,0,1-.63-2.31c-1.26-6-1.76-12.3,7-18.69l.07,0c4.09-2.6,8.18-4.15,10.94-4.15a4,4,0,0,1,2.21.54l.18.14c1.1,1,1.89,2.83,2.2,8.12.28,4.86-.74,10.59-3,17a20.18,20.18,0,0,1-8.77,10.47S148.88,37.28,148.24,36.83Z"/><path class="cls-1" d="M44.54,53.83c-.69-18.77-.84-20.55-.64-28.13s1.43-20.1,1.43-21a9.32,9.32,0,0,0-2.17.2c-.34,6.31-1.38,16.51-1.63,24.14s-.1,21.38,0,23.6C42.67,53.54,44.54,54.47,44.54,53.83Z"/></g></g></svg>