<?xml version="1.0" encoding="utf-8"?>
<!-- Generator: Adobe Illustrator 21.0.0, SVG Export Plug-In . SVG Version: 6.00 Build 0)  -->
<svg version="1.1" id="Layer_1" xmlns="http://www.w3.org/2000/svg" xmlns:xlink="http://www.w3.org/1999/xlink" x="0px" y="0px"
	 viewBox="0 0 207.9 269.2" style="enable-background:new 0 0 207.9 269.2;" xml:space="preserve">
<style type="text/css">
	.st0{fill:#1E1E1E;}
	.st1{fill:#FFFFFF;}
</style>
<g id="Layer_2_1_">
	<g id="Layer_1-2_1_">
		<path class="st0" d="M207.9,171.7l-0.2,0.9c-1,3.5-2.1,7.3-2.9,8.2c-1.6,3.9-5.6,11.6-8.7,15.6c-1.8,2.4-7.9,6.5-17.9,12.2
			l-0.7,0.4c-0.7,0.4-1.6,0.4-2.2,0l-4-2l-46,27.1c-1.4,0.8-2.7,1.7-4,2.7l-9.9,10.8l-0.2,1.3c0,0.1-0.1,0.1-0.1,0.2
			c-26.8,17.2-45.7,19.8-49.2,20.2h-0.1l-0.2-0.1c-1.3,0-8.2-4.5-8.5-4.7c-1.4-0.9-3-1.6-6.8-2.3c-0.9-0.2-1.8-0.3-2.9-0.4
			c-3.8-0.4-9.6-0.9-20.4-5.3C9.4,251,6.3,243.7,6,242.9l0,0c-0.5-0.6-1.1-1.4-1.7-2.4c0,0,0,0,0,0c0,0-0.1-0.1-0.1-0.1l0,0
			c-3.3-5.3-7.7-16.1,0.5-28.6h0c2.7-5,6.6-9.8,10.5-12.5c0.1-0.1,0.2-0.2,0.3-0.2c3.1-2.3,17.2-10.5,17.3-10.6
			c0.1-0.1,5.6-3.6,6-12.3c0.4-8.4,1-41.7,1-44.9c-0.6-0.3-1.1-0.7-1.5-1l-0.2-0.1c-0.8-0.6-1.2-1.6-1.1-2.5c0.6-4.8,1.6-9.6,3-14.2
			c-0.1-0.4-0.3-1.4-0.6-3.9c0-0.2,0.2-12.5,0.3-18.5c0-1.6,0.4-3.1,1-4.4c0-1.4,0-7.6,0.1-11.2c0-2.1,0.6-4.1,1.8-5.8l0.1,0
			c-0.2-0.4-0.4-0.8-0.4-1.2c-0.1-0.7,0.4-1.2,1-1.4l0.6-0.3l0,0l2.4-1.1l5.9-6.4c0.6-0.6,1.2-1.2,1.9-1.6c0-0.1,0.1-0.2,0.2-0.2h0
			c0.4-0.3,0.9-0.6,1.3-0.8l69.2-38c0.6-0.3,1.2-0.7,1.9-1c6.5-3.2,13.5-5.5,20.7-6.6c11.4-1.5,23.3,0.7,29.5,3.4
			c0.5,0.2,1,0.5,1.5,0.7c1.1-0.5,1.9-1.5,2.4-2.6c0.1-0.3,0.2-0.5,0.2-0.8c0.2-2,0.9-3.9,1.9-5.7c2.1-3.8,5.5-6.2,8.2-6
			c3.9,0.3,7.5,2.3,9.9,5.4c0.1,0.1,0.2,0.2,0.3,0.4c0.6,0.9,0.9,2,0.9,3.4c-0.1,2.4-0.8,4.7-2,6.7c-1.2,2.3-3.2,4.2-5.5,5.5
			c-1,0.4-1.8,1.2-2.3,2.1c2.4,2.7,6.6,7.3,8.5,12.8c1.9,5.6,2.1,15.6,2.1,19.7c0,2.8,2.3,86.5,2.3,87.3c0,0.1,0.8,11.5,1.6,16.8
			C207.6,164.6,208.3,170.3,207.9,171.7z"/>
	</g>
</g>
<title>c830_drawing_expanded</title>
<g id="Layer_2">
	<g id="Layer_1-2">
		<path class="st1" d="M73.2,228.5c-0.5,0-1.1-0.2-1.5-0.5c-1.2-0.8-1.9-2.6-2.1-5.4h0.5c0.2,3.2,1.1,4.5,1.9,5
			c0.4,0.3,1,0.5,1.6,0.4l0.1,0.5C73.6,228.5,73.4,228.5,73.2,228.5z"/>
		<path class="st1" d="M65.1,224.3c-0.1,0-1.1,0-2.1-1.8l0.4-0.2c0.3,0.7,0.8,1.2,1.4,1.5l0.2-1.5l0.5,0.1l-0.2,1.8
			C65.3,224.3,65.2,224.3,65.1,224.3L65.1,224.3z"/>
		<path class="st1" d="M26.8,214.3c1.2,0,1.9,0.5,1.9,0.8s-0.7,0.8-1.9,0.8s-1.8-0.4-1.8-0.8S25.7,214.3,26.8,214.3 M26.8,213.8
			c-1.3,0-2.3,0.6-2.3,1.2s1,1.2,2.3,1.2s2.4-0.6,2.4-1.2S28,213.8,26.8,213.8"/>
		<polygon class="st1" points="24.9,218.1 24.4,218.1 24.4,215.2 24.9,215.2 		"/>
		<polygon class="st1" points="28.8,217.8 28.6,215.2 29.1,215.2 29.3,217.7 		"/>
		<path class="st1" d="M97.7,100.7h-0.5v-3c0-0.1,0-0.2,0.1-0.2l12.2-8l0.3,0.4l-12.1,7.9V100.7z"/>
		<path class="st1" d="M58.6,58.4L58.6,58.4l-0.4-0.1c-1.3-0.4-2.6-0.6-4-0.5c-0.1,0-0.2-0.1-0.3-0.2c0,0,0,0,0,0
			c0-0.1,0.1-0.3,0.2-0.3c0,0,0,0,0,0c1.4-0.1,2.8,0.1,4.1,0.5l0.3,0.1c0.1,0,0.2,0.2,0.2,0.3C58.8,58.4,58.7,58.4,58.6,58.4
			L58.6,58.4z"/>
		<path class="st1" d="M68.5,76.2c-0.2,0-0.3,0-0.5-0.1c-0.1-0.1-0.4-0.2-0.9-0.4c-0.1-0.1-0.2-0.2-0.1-0.3c0.1-0.1,0.2-0.2,0.3-0.1
			l0,0c0.4,0.2,0.7,0.4,0.8,0.4c0.3,0.1,0.4,0.1,0.4,0.1l2.4-1.5l6.9-5.8c0.1-0.1,0.3,0,0.3,0.1c0.1,0.1,0.1,0.2,0,0.3l-6.9,5.8
			l-2.4,1.4C68.8,76.2,68.6,76.2,68.5,76.2z"/>
		<path class="st1" d="M78.1,68.8l-0.2-0.4l28.4-16.6c0.1,0,4.1-1.8,4.9-3.2l0.1-0.2c0.8-1.1,1.2-2.5,1-3.8
			c-0.3-1.4-1.6-2.8-3.7-4.1c-8.6-4.5-18.2,0.2-20.9,1.7L58.8,58.3l-0.2-0.4l28.9-16.1c2.8-1.6,12.6-6.3,21.4-1.7
			c2.3,1.4,3.6,2.9,4,4.5c0.2,1.5-0.1,3-1.1,4.2l-0.1,0.2c-0.9,1.5-4.9,3.3-5.1,3.3L78.1,68.8z"/>
		<path class="st1" d="M86.7,224.4L86.7,224.4c0.4,0,0.7,0,1.1,0.1c1.4,0.3,2.2,1,2.2,1.3s-0.5,0.5-1.4,0.5c-0.4,0-0.7,0-1.1-0.1
			c-1.4-0.3-2.2-1-2.2-1.3S85.8,224.4,86.7,224.4 M86.7,223.9c-1,0-1.8,0.3-1.9,0.9c-0.2,0.7,1,1.6,2.5,1.9c0.4,0.1,0.8,0.1,1.2,0.1
			c1,0,1.8-0.3,1.9-0.9c0.2-0.7-1-1.6-2.5-1.9C87.5,223.9,87.1,223.9,86.7,223.9"/>
		<path class="st1" d="M109.8,89.9l-0.2-0.4c0.5-0.3,52.6-30.5,56.9-33l0.6-0.3c5-2.9,16.7-9.5,19.2-11.6c2.2-1.8,7.9-8.4,5.8-15.8
			c-1.6-5.5-6.8-10.1-15.4-13.9c-6.1-2.7-17.9-4.9-29.3-3.4c-7.8,1.2-15.4,3.7-22.4,7.5L55.8,57c-1.2,0.7-2.4,1.5-3.3,2.5l-6,6.5
			l-0.4-0.3l5.9-6.5c1-1.1,2.2-1.9,3.5-2.6l69.2-38c7.1-3.8,14.7-6.3,22.6-7.5c11.4-1.5,23.3,0.7,29.5,3.4c8.7,3.8,14,8.6,15.6,14.2
			c2.3,7.6-3.7,14.5-5.9,16.3c-2.6,2-14.3,8.8-19.3,11.6l-0.6,0.3C162.3,59.4,110.3,89.6,109.8,89.9z"/>
		<path class="st1" d="M6,242.9c-2.8-3.5-11.2-16.1-1.3-31.1l0.4,0.3c-9.6,14.8-1.4,27.1,1.3,30.5L6,242.9z"/>
		<path class="st1" d="M61.6,269.2c-1.3,0-8.2-4.5-8.5-4.7c-1.4-0.9-3-1.6-6.8-2.3c-0.8-0.2-1.8-0.3-2.9-0.4
			c-3.8-0.4-9.6-0.9-20.4-5.3C9,250.8,6.1,243.2,6,242.8l0.5-0.2c0,0.1,3,7.8,16.7,13.4c10.7,4.4,16.4,4.9,20.2,5.3
			c1.1,0.1,2.1,0.2,3,0.4c3.9,0.8,5.5,1.5,7,2.4c2.9,1.9,7.5,4.6,8.2,4.6h0.1c3.5-0.4,22.2-3,48.9-20.1l0.2-1.3c0,0,0-0.1,0.1-0.1
			l10-10.9c1.3-1,2.7-2,4.1-2.8l46.1-27.1c0.1,0,0.2,0,0.2,0l4.2,2.1c0.5,0.3,1.2,0.3,1.7,0l0.7-0.4c12.4-7.1,16.5-10.4,17.7-12.1
			c3.1-4,7-11.7,8.6-15.5v-0.1c0.8-0.9,2.2-5.9,2.8-8.1l0.2-0.9c0.3-1-0.1-5.1-1.1-11.4c-0.9-5.3-1.6-16.7-1.6-16.9
			c0-0.9-2.3-84.5-2.3-87.3c0-4-0.2-14-2.1-19.5c-1.9-5.7-6.4-10.5-8.7-13l-0.1-0.1c-1.7-1.6-3.8-2.8-6-3.4l0.1-0.5
			c2.4,0.7,4.5,1.9,6.3,3.6l0.1,0.1c2.4,2.6,6.8,7.4,8.8,13.2c1.9,5.6,2.1,15.6,2.1,19.7c0,2.8,2.3,86.5,2.3,87.3
			c0,0.1,0.8,11.6,1.6,16.8c0.7,4.5,1.5,10.1,1.1,11.6l-0.2,0.9c-1,3.6-2.1,7.3-2.9,8.2c-1.6,3.9-5.6,11.6-8.7,15.6
			c-1.9,2.4-7.9,6.5-17.9,12.2l-0.7,0.4c-0.7,0.4-1.6,0.4-2.2,0l-4-2.1l-46,27.1c-1.4,0.8-2.7,1.7-4,2.7l-9.9,10.8l-0.2,1.3
			c0,0.1-0.1,0.1-0.1,0.2c-26.8,17.2-45.7,19.9-49.2,20.2h-0.2L61.6,269.2z"/>
		<path class="st1" d="M104.8,74.5c-2.2,0-3.9-1-3.9-2.3s1.7-2.3,3.9-2.3s3.9,1,3.9,2.3S107,74.5,104.8,74.5z M104.8,70.4
			c-1.8,0-3.4,0.8-3.4,1.8s1.6,1.8,3.4,1.8s3.4-0.8,3.4-1.8S106.7,70.4,104.8,70.4z"/>
		<path class="st1" d="M91.1,71.7c-2.2,0-3.9-1-3.9-2.3s1.7-2.3,3.9-2.3s3.9,1,3.9,2.3S93.3,71.7,91.1,71.7z M91.1,67.6
			c-1.8,0-3.4,0.8-3.4,1.8s1.6,1.8,3.4,1.8s3.4-0.8,3.4-1.8S93,67.6,91.1,67.6z"/>
		<path class="st1" d="M105,80.5c-2.3,0-4.2-1.2-4.2-2.7l0.2-5.7h0.5l-0.2,5.7c0,1.2,1.7,2.1,3.7,2.1s3.7-1,3.7-2.2l-0.4-5.7h0.5
			l0.4,5.7C109.2,79.4,107.3,80.5,105,80.5z"/>
		<path class="st1" d="M105,81.9c-3.1,0-5.7-1.6-5.7-3.5c0.1-1,0.7-2,1.6-2.4l0.3,0.4c-0.8,0.4-1.3,1.2-1.3,2c0,1.7,2.3,3,5.2,3
			s5.2-1.4,5.2-3c-0.1-0.9-0.6-1.7-1.5-2.1l0.3-0.4c1,0.5,1.6,1.5,1.7,2.5C110.6,80.3,108.1,81.9,105,81.9z"/>
		<path class="st1" d="M91.1,72.8c-3.2,0-5.8-1.5-5.8-3.4s2.5-3.4,5.8-3.4s5.8,1.5,5.8,3.4S94.3,72.8,91.1,72.8z M91.1,66.5
			c-2.9,0-5.3,1.3-5.3,2.9s2.4,2.9,5.3,2.9s5.3-1.3,5.3-2.9S94,66.5,91.1,66.5z"/>
		<path class="st1" d="M114.1,76.4c-1.2,0-2.5-0.3-3.5-1l-2.1-1.3l0.3-0.4l2.1,1.3c3.9,2.4,8.2-0.7,8.3-0.7s11.2-6.3,16-9.1
			c1.6-0.9,2.4-1.8,2.4-2.7c0-1.1-1.3-1.9-1.3-1.9s-9.2-5.6-12.9-7.9c-2.2-1.3-5-1.4-7.3-0.3l0,0c0,0-13.8,7.8-17.8,10.2
			c-1.2,0.7-1.8,1.4-1.8,2.1c0,1.1,1.3,1.9,1.3,1.9l5.5,3.5l-0.3,0.4l-5.5-3.5c-0.8-0.5-1.4-1.4-1.5-2.3c0-0.9,0.7-1.8,2.1-2.6
			C102,59.9,115.8,52,115.8,52c2.5-1.2,5.4-1.1,7.8,0.3c3.7,2.2,12.8,7.8,12.9,7.9c0.9,0.5,1.4,1.4,1.5,2.4c0,1.1-0.9,2.1-2.6,3.1
			c-4.9,2.7-16,9-16,9C117.8,75.7,116,76.4,114.1,76.4z"/>
		<path class="st1" d="M113.8,75.3c-1,0-2-0.3-2.9-0.8l-2.7-1.6l0.3-0.4l2.7,1.6c1.6,0.9,3.4,1,5.1,0.2c0.1-0.1,14.9-8.4,17.5-10
			c0.8-0.5,1.3-1,1.3-1.5c0-0.3-0.2-0.6-0.5-0.8l0,0l-12.6-7.2c-1.5-0.9-3.4-0.9-4.8,0c-0.2,0.1-14.7,8.4-17.1,9.8
			c-0.8,0.5-1.3,1-1.3,1.4c0,0.2,0.1,0.4,0.3,0.5l5.5,3.5l-0.3,0.4L98.6,67c-0.3-0.2-0.5-0.6-0.5-1c0-0.6,0.5-1.2,1.6-1.8
			c2.4-1.4,17-9.7,17.1-9.8c1.7-1,3.7-1,5.4,0l12.6,7.2c0.4,0.3,0.7,0.7,0.8,1.2c0,0.7-0.5,1.3-1.5,1.9c-2.6,1.6-17.3,9.9-17.5,10
			C115.7,75.1,114.8,75.3,113.8,75.3z"/>
		<path class="st1" d="M57.7,254.9c-1.1,0-2.1,0-3.2-0.1c-24-1.6-31.9-4.5-40.5-10.5S0.6,230.8,0.9,223.4
			c0.4-7.8,7.5-19.6,14.6-24.4l0.3,0.4c-7.1,4.7-14.1,16.3-14.4,24C1.1,230.7,5.6,238,14.2,244s16.4,8.8,40.2,10.4
			c24.1,1.6,49.1-15.7,49.4-15.9c0.8-0.5,82.4-48.8,84-49.8c4.4-2.8,8.7-6,12.6-9.4c5.9-5,6.6-14,6.6-14.1h0.5
			c0,0.1-0.7,9.4-6.7,14.5c-4,3.5-8.3,6.6-12.8,9.5c-1.6,0.9-83.1,49.3-83.9,49.8C103.9,239,80.9,254.9,57.7,254.9z"/>
		<path class="st1" d="M192.5,178c-0.4,0-0.7-0.1-1.1-0.2c-2.7-1.2-2.7-7.1-2.7-7.3c0-0.9-2-85.1-2.1-93.6v-1.7
			c-0.1-8-0.2-14.9-3.7-21.7c-2.1-4.2-5.4-7.8-9.4-10.4c-0.4-0.2-36-21.1-39.7-22.9c-2.3-1.1-4.8-1.8-7.3-2.1l0.1-0.5
			c2.6,0.3,5.1,1,7.5,2.2c3.7,1.9,39.3,22.7,39.7,22.9c4.1,2.6,7.4,6.3,9.6,10.6c3.6,6.9,3.6,13.8,3.7,21.9v1.7
			c0.1,8.4,2.1,92.7,2.1,93.6c0,0.1,0.1,5.8,2.4,6.9c1,0.5,2.4,0,4-1.3c7-5.8,9.7-10.3,10.4-17.4h0.5c-0.7,7.2-3.5,11.9-10.6,17.7
			C195.1,177.3,193.8,177.9,192.5,178z"/>
		<path class="st1" d="M52.4,121.2c-1.5,0.1-2.9-0.8-3.3-2.3c-1-3.2-2.1-5.5-3.7-6.6c-1-0.8-2.2-1.5-3.3-2H42
			c-0.3-0.1-0.5-0.1-0.8,0.1c-0.3,0.2-0.6,0.9-0.6,2.7c0,0.2,0,0.5-0.3,0.6s-0.4,0-0.9-4.2c0-0.2,0.2-12.6,0.3-18.5s5.2-9.7,5.2-9.8
			l5.5-3.3c2.3-1,4.9-0.6,6.7,1c5.2,4.4,8.3,10.9,8.4,17.7c0.1,8.1,0,15.7,0,15.8s0.3,3.7-2.1,5.1c-3.9,2.2-6.7,3.4-8.4,3.5
			l-0.8,0.1C53.6,121.1,53,121.2,52.4,121.2z M41.6,109.7c0.2,0,0.3,0,0.5,0.1c1.3,0.5,2.5,1.2,3.6,2.1c1.7,1.2,2.8,3.6,3.9,6.8
			c0.8,2.4,2.7,2.1,4.6,1.8l0.9-0.1c1.6-0.2,4.4-1.4,8.2-3.5c2.1-1.2,1.8-4.6,1.8-4.6s0-7.7,0-15.8c-0.2-6.7-3.2-13-8.2-17.3
			c-1.7-1.5-4.1-1.9-6.2-0.9l-5.5,3.3c0,0-5,3.5-5,9.3s-0.3,18.3-0.3,18.5c0.1,0.7,0.2,1.5,0.3,2.1c0-0.6,0.3-1.2,0.7-1.6
			C41.1,109.7,41.4,109.7,41.6,109.7z"/>
		<path class="st1" d="M42.7,132.3c-1.5,0-3.2-1.3-4.3-2.1l-0.2-0.1c-0.8-0.6-1.2-1.6-1.1-2.5c0.6-4.9,1.7-9.8,3.1-14.5l0.5,0.2
			c-1.4,4.7-2.5,9.6-3.1,14.5c0,0.8,0.3,1.6,0.9,2.1l0.2,0.1c1.1,0.8,3,2.2,4.3,1.9c1.9-0.6,3.8-1.5,5.6-2.4c0.4-0.5,0.8-1,1.1-1.6
			l0.1-0.1c1.5-3.7,2.9-6.1,4.2-7.1l0.3,0.4c-0.8,0.6-2.2,2.4-4,6.9l-0.1,0.2c-0.3,0.6-0.7,1.2-1.2,1.7l-0.1,0.1
			c-0.2,0.1-4.3,2.3-5.8,2.5C42.9,132.3,42.8,132.3,42.7,132.3z"/>
		<path class="st1" d="M41.3,131.8c-0.4-6.8,1.2-13.6,4.4-19.6l0.4,0.2c-3.2,5.9-4.7,12.6-4.4,19.3L41.3,131.8z"/>
		<path class="st1" d="M173.9,38.6c-0.5,0-1-0.1-1.4-0.4l-5-2.9l-4.9-2.8c-0.2-0.1-0.3-0.2-0.3-0.4c0-0.2,0.1-0.3,0.3-0.4l3.8-2.2
			c0,0,2-1.3,1.6-2.7s-1.4-3.1-5.3-3.8c-2.1-0.5-4.4-0.3-6.4,0.7l-0.4,0.1c-1,0.4-3.4,1.7-3.4,1.7c-0.5,0.3-1.1,0.3-1.7,0.1
			c-2.5-1.4-4.9-2.8-7.1-4l-2.7-1.6c-0.2-0.1-0.5-0.3-0.5-0.6c0-0.1,0.1-0.2,0.1-0.3l0.1,0l0,0h0.1c4.7-2.1,9.7-3.4,14.8-3.6
			c13.9-0.8,25.6,4.9,26,12.7c0.2,3.7-2.1,7.3-6.5,10.2C174.7,38.5,174.3,38.6,173.9,38.6z M162.9,32.1l4.8,2.8l5,2.9
			c0.6,0.4,1.4,0.5,2.1,0.1c4.3-2.8,6.5-6.3,6.3-9.8c-0.4-7.5-11.9-13-25.5-12.2c-5.1,0.2-10,1.4-14.6,3.6l0.2,0.1l2.8,1.6
			c2.1,1.2,4.6,2.6,7.1,4c0.4,0.2,0.8,0.1,1.2-0.1c0.1,0,2.5-1.3,3.4-1.7l0.3-0.1c2.1-1,4.4-1.2,6.7-0.7c4,0.7,5.1,2.4,5.7,4.2
			s-1.7,3.2-1.8,3.3L162.9,32.1z"/>
		
			<rect x="168.5" y="26.9" transform="matrix(0.9916 -0.1295 0.1295 0.9916 -2.6641 22.1185)" class="st1" width="0.5" height="9.3"/>
		<path class="st1" d="M177.1,36.7l-0.5,0c0.7-6.9-8.5-9.6-8.6-9.6l0.1-0.5C168.3,26.6,177.9,29.3,177.1,36.7z"/>
		<path class="st1" d="M79,132h-0.4c-3.2-0.1-6.7-1.9-8.1-4.2s-1.3-6.1-1.3-6.2c0,0,0-6.3,0.1-11.4s4.9-8.3,5.1-8.4l8.8-5.4l0,0
			c1.9-1,4.2-0.7,6.8,0.8c2.2,1.5,4,3.4,5.4,5.7c1.1,1.7,1.6,3.1,2,7.3c0.4,4.4-0.5,13.3-0.5,13.4c-0.1,0.6-0.5,1.2-1,1.5l-8.2,4.4
			C85,131,82.1,131.8,79,132z M83.4,96.8l-8.8,5.4c0,0-4.9,3.1-4.9,8c0,5.1-0.1,11.4-0.1,11.4s-0.2,3.8,1.2,5.9s4.8,3.8,7.7,3.9
			s6.5-1.2,8.9-2.5l8.1-4.4l0,0c0.4-0.3,0.6-0.7,0.7-1.1c0-0.1,0.8-9,0.5-13.3c-0.3-4-0.8-5.4-1.9-7c-1.3-2.2-3.1-4.1-5.2-5.5
			C87.4,96.2,85.2,96,83.4,96.8L83.4,96.8z"/>
		<path class="st1" d="M67.8,151.9c-0.6,0-1.1-0.1-1.6-0.4c-1.1-0.7-1.8-2.1-1.7-3.9c0.3-4.1,2.5-7.8,5.9-10c1.6-0.9,3.1-1,4.3-0.4
			s1.8,2.1,1.7,3.9c-0.3,4.1-2.5,7.8-5.9,10C69.6,151.6,68.7,151.9,67.8,151.9z M73,137.3c-0.8,0-1.7,0.3-2.4,0.7
			c-3.3,2.1-5.4,5.6-5.7,9.6c-0.4,1.7,0.7,3.4,2.4,3.8c1,0.2,2.1,0,2.8-0.7c1.7-1,3-2.4,4-4.1l0,0c1-1.6,1.6-3.5,1.7-5.4
			c0.2-1.3-0.4-2.7-1.5-3.5C74,137.4,73.5,137.3,73,137.3L73,137.3z"/>
		<path class="st1" d="M67,151.8c-2.2-0.5-4.2-1.7-5.6-3.4c-1.6-1.8-1.3-5.6,0.8-9c2.1-3.4,5.5-5.6,7.8-4.9c1.9,0.7,3.7,1.7,5.2,3.1
			l-0.4,0.4c-1.5-1.3-3.2-2.3-5-3c-2.1-0.7-5.2,1.3-7.2,4.7s-2.3,6.9-0.8,8.5c1.4,1.6,3.3,2.8,5.4,3.2L67,151.8z"/>
		<path class="st1" d="M69.6,143.8l-0.4-0.3c0.9-1.4,1.4-3,1.4-4.6h0.5C71,140.7,70.5,142.4,69.6,143.8z"/>
		<path class="st1" d="M65.9,147.5l-0.2-0.4c1.4-0.9,2.6-2.1,3.4-3.5l0.4,0.3C68.7,145.4,67.5,146.6,65.9,147.5z"/>
		<path class="st1" d="M76.3,140.5l-0.4-0.2c1.6-2.6,2.5-5.5,2.6-8.5h0.5C78.9,131.9,79.1,135.7,76.3,140.5z"/>
		<path class="st1" d="M59.7,224.6c-2.7-0.1-4.7-2.3-4.6-5c0-1.6,0.1-3.2,0.3-4.8c0-0.4,3.3-37.1,3.7-42v-0.5
			c0.4-4.8,0.7-8.9,3.3-14.2c1.3-2.4,2.8-4.7,4.6-6.7l0.4,0.3c-1.8,2-3.3,4.2-4.5,6.6c-2.5,5.2-2.8,9.3-3.2,14v0.5
			c-0.4,4.9-3.7,41.6-3.7,42c-0.2,1.6-0.3,3.1-0.3,4.7c-0.1,2.4,1.8,4.4,4.1,4.5c2.1-0.1,3.8-1.7,4.1-3.8c0-0.4,3.6-39.8,4-44.7
			v-0.5c0.4-4.8,0.7-8.9,3.3-14.2c1.4-3,4.5-6.6,7.5-10.1c2.2-2.4,4.2-5,6-7.7c2.7-4.8,2.6-13.5,2.6-13.6h0.5
			c0,0.4,0.2,8.9-2.6,13.8c-1.8,2.8-3.8,5.4-6,7.8c-3,3.5-6,7.1-7.4,10c-2.5,5.2-2.8,9.3-3.2,14.1v0.5c-0.4,4.9-4,44.3-4,44.7
			C64.1,222.7,62.1,224.5,59.7,224.6z"/>
		<path class="st1" d="M60.7,215.2h-0.3c-1.8-0.1-3.5-0.8-4.8-2l0.3-0.4c2.3,2.2,5.9,2.5,8.6,0.8l0.3,0.4
			C63.6,214.8,62.2,215.2,60.7,215.2z"/>
		<path class="st1" d="M58.3,163c-1.6,0-2.9-1.6-4-3c-1.1-1.6-1.7-3.6-1.7-5.6c-0.2-2.1-0.3-25.1-0.3-26.1c0-0.2-0.2-2.4,0.9-3.6
			c0.3-0.3,0.8-0.5,1.2-0.5c1,0.1,2,0.6,2.7,1.4l0.1,0.1c0.7,0.8,2.7,3.1,2.8,8.1c0.1,5.2,0.5,24.3,0.5,24.5s0.3,4.1-1.6,4.6
			C58.7,163,58.5,163,58.3,163z M54.3,124.7c-0.3,0-0.6,0.1-0.8,0.3c-0.9,1-0.8,3.1-0.8,3.2l0,0c0,0.2,0.2,24,0.3,26.1
			c0,1.9,0.5,3.7,1.6,5.3c1.1,1.5,2.5,3.1,4.1,2.8c1.3-0.3,1.3-3,1.2-4c0-0.2-0.4-19.3-0.5-24.6c-0.1-4.8-2-7.1-2.7-7.8l-0.1-0.1
			C56,125.3,55.2,124.9,54.3,124.7L54.3,124.7z"/>
		<path class="st1" d="M108.1,236.4l-0.3-0.4c2.8-2,11.1-8.2,10.4-21.1c-0.8-14.4-1.3-43.6-1.4-48.4s-0.8-50.9-0.8-55v-1
			c0.1-3.1-0.2-6.3-0.9-9.4c-2-8.7-7.9-15.8-17.5-21.2c-5-2.8-13.6-7.7-19.8-11.2l0.2-0.4c6.3,3.6,14.8,8.4,19.8,11.2
			c9.8,5.4,15.8,12.7,17.8,21.5c0.7,3.1,1,6.3,0.9,9.5v1c0.1,4.1,0.8,50.1,0.8,55s0.7,34.1,1.4,48.4
			C119.4,228.1,110.9,234.4,108.1,236.4z"/>
		<path class="st1" d="M40.7,86.8c0-0.1,0-7.4,0.1-11.5c0-2.1,0.6-4.1,1.8-5.8l0.4,0.3c-1.1,1.6-1.7,3.5-1.7,5.5
			c-0.1,4.1-0.1,11.4-0.1,11.4H40.7z"/>
		<path class="st1" d="M56.5,243.4c-15.6,0-28-2.7-36.9-8.1c-5.7-3.4-12-10.2-13.3-17.5c-0.9-5,0.5-9.8,4.2-14.3
			c1.5-1.7,3.2-3.3,5.1-4.6c3.1-2.3,17.2-10.5,17.3-10.6s5.6-3.6,6-12.3s1-44.8,1-45.1h0.5c0,0.4-0.6,36.2-1,45.1
			s-6.1,12.7-6.2,12.7s-14.1,8.3-17.3,10.6c-1.8,1.3-3.5,2.8-5,4.5c-3.5,4.4-4.9,9-4.1,13.9c1.2,7.2,7.4,13.8,13,17.2
			c9.7,5.9,23.7,8.5,41.4,7.9c19-1,34.8-11.7,39.2-15c4-2.9,5.4-5.6,5.2-9.9c-0.8-14.7-1.4-43.8-1.4-48.9
			c-0.1-4.6-0.7-43.2-0.8-54.9v-1.2c0.1-2.2-0.1-4.4-0.6-6.5c-1.1-5-4.8-9.1-11.2-12.7c-8.1-4.5-25.4-14.4-28.5-16.2l0.2-0.4
			c3.1,1.8,20.4,11.7,28.5,16.2c6.5,3.6,10.2,7.9,11.4,13c0.5,2.2,0.6,4.4,0.6,6.6v1.2c0.2,11.7,0.8,50.3,0.8,54.9
			c0.1,5.1,0.7,34.2,1.4,48.9c0.3,5.1-2,7.8-5.4,10.3c-4.4,3.3-20.4,14-39.5,15.1C59.6,243.4,58,243.4,56.5,243.4z"/>
		<path class="st1" d="M56.5,241.1c-15.1,0-27.1-2.6-35.7-7.7C16.9,231,9.9,225,8.6,217.5c-0.8-4.3,0.5-8.4,3.6-12.4
			c1.4-1.6,3-3,4.7-4.2c2.7-2,13.7-8.5,17-10.4l0.1-0.1c0.3-0.2,6.7-4.2,7.1-14.2l0.5-44.3h0.5l-0.5,44.3c-0.4,10.2-7,14.4-7.3,14.6
			l-0.1,0.1c-2.4,1.4-14.3,8.4-17,10.4c-1.7,1.2-3.2,2.6-4.6,4.1c-3.1,3.8-4.3,7.8-3.6,12c1.3,7.4,8.1,13.2,12,15.6
			c9.3,5.6,22.8,8.2,40.2,7.6c18.3-1,33.7-11.4,37.9-14.5c3.3-2.5,4.4-4.5,4.2-7.9c-0.8-14.8-1.4-43.9-1.4-49
			c-0.1-4.9-0.8-50.3-0.8-55V113c0.1-2-0.1-4-0.5-6c-0.4-1.6-1.5-6.4-10-11.2s-30.9-17.7-31.4-18l0.3-0.4
			c0.6,0.3,22.7,13.1,31.4,17.9s9.9,9.8,10.3,11.5c0.4,2,0.6,4.1,0.5,6.1v1.2c0.1,4.7,0.8,50.1,0.8,55c0.1,5.1,0.7,34.2,1.4,49
			c0.2,3.7-0.9,5.8-4.4,8.4c-4.3,3.2-19.7,13.6-38.2,14.6C59.6,241.1,58,241.1,56.5,241.1z"/>
		<path class="st1" d="M42.7,84h-0.5l0.1-7.7c0-0.2,0.1-3.7,2.9-5.1l0.4-0.1l0.1,0.5l-0.4,0.1c-2.5,1.2-2.6,4.6-2.6,4.6L42.7,84z"/>
		
			<rect x="84.7" y="184.2" transform="matrix(0.4973 -0.8676 0.8676 0.4973 -135.6618 177.0077)" class="st1" width="0.5" height="42.7"/>
		
			<rect x="93.9" y="134.7" transform="matrix(0.4976 -0.8674 0.8674 0.4976 -77.3439 153.8947)" class="st1" width="0.5" height="18"/>
		
			<rect x="66" y="113.8" transform="matrix(0.4977 -0.8673 0.8673 0.4977 -77.5048 121.6041)" class="st1" width="0.5" height="27.8"/>
		
			<rect x="49.1" y="175.5" transform="matrix(0.4974 -0.8675 0.8675 0.4974 -135.8844 135.8953)" class="st1" width="0.5" height="19.4"/>
		
			<rect x="50.5" y="151.5" transform="matrix(0.5113 -0.8594 0.8594 0.5113 -114.5139 122.8353)" class="st1" width="0.5" height="21.2"/>
		<polygon class="st1" points="85.3,182.9 68.2,172.8 68.5,172.4 85.5,182.4 		"/>
		
			<rect x="84.9" y="143.8" transform="matrix(0.9997 -2.425770e-02 2.425770e-02 0.9997 -4.2198 2.1178)" class="st1" width="0.5" height="62.3"/>
		<polygon class="st1" points="58.8,176.6 41.3,166.3 41.5,165.9 59.1,176.1 		"/>
		<path class="st1" d="M69.8,182.5c0,0-0.1,0-0.1,0l-2.2-1.2l0.2-0.4l1.8,1l0.2-8.3h0.5l-0.2,8.7C70,182.4,69.9,182.5,69.8,182.5z"
			/>
		<path class="st1" d="M68.3,150.5c-0.5,0-0.9-0.1-1.3-0.4c-1.9-1.1-1.9-4.6,0-7.8c0.8-1.4,2-2.6,3.4-3.4c1.3-1.1,3.2-0.9,4.2,0.4
			c0.6,0.7,0.8,1.6,0.6,2.5c-0.1,1.6-0.6,3.2-1.4,4.6C72.3,148.9,70.1,150.5,68.3,150.5z M72.5,138.8c-0.7,0-1.3,0.2-1.9,0.6
			c-1.3,0.8-2.4,1.9-3.2,3.3c-1.8,2.9-1.8,6.1-0.2,7.1s4.4-0.6,6.1-3.6l0,0c0.8-1.3,1.3-2.8,1.4-4.4c0.1-1.1-0.3-2.1-1.2-2.8
			C73.2,138.8,72.9,138.7,72.5,138.8L72.5,138.8z"/>
		<path class="st1" d="M43.1,202.3c3.8,0,7.1,1.7,7.1,3.8s-3.2,3.8-7.1,3.8S36,208.1,36,206S39.2,202.2,43.1,202.3 M43.1,201.8
			c-4.2,0-7.6,1.9-7.6,4.2s3.4,4.2,7.6,4.2s7.6-1.9,7.6-4.2S47.3,201.8,43.1,201.8"/>
		<path class="st1" d="M43.2,204.3c3.5,0,5.9,1.4,5.9,2.7s-2.4,2.7-5.9,2.7s-5.9-1.4-5.9-2.7S39.6,204.3,43.2,204.3 M43.2,203.8
			c-3.5,0-6.4,1.4-6.4,3.2s2.9,3.2,6.4,3.2s6.4-1.4,6.4-3.2S46.7,203.8,43.2,203.8"/>
		<path class="st1" d="M67.6,221.6c1.2,0,2.1,0.5,2.1,0.8s-0.8,0.8-2.1,0.8s-2.1-0.5-2.1-0.8S66.4,221.6,67.6,221.6 M67.6,221.1
			c-1.4,0-2.6,0.6-2.6,1.3s1.2,1.3,2.6,1.3s2.6-0.6,2.6-1.3S69,221.1,67.6,221.1"/>
		<path class="st1" d="M67.9,229.8c-4.5,0-8.2-2.2-8.2-5c0-0.2,0-0.3,0-0.5l0.5,0.1c0,0.1,0,0.3,0,0.4c0,2.5,3.5,4.5,7.7,4.5
			s7.7-2,7.7-4.5s-3.5-4.5-7.7-4.5c-1.3,0-2.6,0.2-3.9,0.6l-0.2-0.5c1.3-0.4,2.7-0.6,4-0.6c4.5,0,8.2,2.2,8.2,5
			S72.5,229.8,67.9,229.8z"/>
		<path class="st1" d="M58.6,230.6c3.4,0,6.3,1.5,6.3,3.3s-2.9,3.3-6.3,3.3s-6.3-1.5-6.3-3.3S55.2,230.6,58.6,230.6 M58.6,230.1
			c-3.7,0-6.8,1.7-6.8,3.8s3,3.8,6.8,3.8s6.8-1.7,6.8-3.8S62.4,230.1,58.6,230.1"/>
		<path class="st1" d="M58.7,232.4c3.1,0,5.2,1.3,5.2,2.4s-2.2,2.4-5.2,2.4s-5.2-1.2-5.2-2.4S55.6,232.4,58.7,232.4 M58.7,231.9
			c-3.2,0-5.8,1.3-5.8,2.9s2.6,2.9,5.8,2.9s5.8-1.3,5.8-2.9S61.9,232,58.7,231.9"/>
		<path class="st1" d="M26.2,218.6c-2.8,0-5-1.3-5-2.9s2.2-2.9,5-2.9s5,1.3,5,2.9S29,218.6,26.2,218.6z M26.2,213.3
			c-2.4,0-4.5,1.1-4.5,2.4s2.1,2.4,4.5,2.4s4.5-1.1,4.5-2.4S28.7,213.3,26.2,213.3z"/>
		<path class="st1" d="M20,204.1v0.5c0.3,0,0.7,0,1,0.1c0.4,0.1,0.8,0.2,1.1,0.4l31.6,18.3c0.6,0.3,0.9,0.7,0.9,0.9
			s-0.5,0.5-1.4,0.5c-0.6,0-1.2-0.1-1.7-0.3l-32-18.5c-0.7-0.4-1-0.8-1-0.9s0.5-0.5,1.4-0.5L20,204.1 M20,204.1
			c-1,0-1.8,0.3-1.9,0.9s0.4,1.1,1.2,1.5l32,18.5c0.3,0.1,0.5,0.2,0.8,0.2c0.4,0.1,0.8,0.1,1.1,0.1c1,0,1.8-0.3,1.9-0.9
			s-0.3-1-1.1-1.4l-31.6-18.3c-0.4-0.2-0.8-0.4-1.3-0.4C20.7,204.1,20.3,204.1,20,204.1"/>
		<path class="st1" d="M15.6,216.1L15.6,216.1c0.3,0,0.7,0,1,0.1c0.4,0.1,0.8,0.2,1.1,0.4l31.6,18.3c0.6,0.3,0.9,0.7,0.9,0.9
			s-0.5,0.5-1.4,0.5c-0.3,0-0.7,0-1-0.1c-0.2,0-0.5-0.1-0.7-0.2l-32-18.5c-0.7-0.4-1-0.8-1-0.9S14.6,216.1,15.6,216.1 M15.5,215.6
			c-1,0-1.8,0.3-1.9,0.9s0.4,1.1,1.2,1.5l32,18.5c0.3,0.1,0.5,0.2,0.8,0.2c0.4,0.1,0.8,0.1,1.1,0.1c1,0,1.8-0.3,1.9-0.9
			s-0.3-1-1.1-1.4L18,216.1c-0.4-0.2-0.8-0.4-1.3-0.4C16.3,215.6,15.9,215.6,15.5,215.6"/>
		<path class="st1" d="M16.9,221.6L16.9,221.6c0.3,0,0.7,0,1,0.1c0.4,0.1,0.8,0.2,1.1,0.4l24.3,14.1c0.6,0.3,0.9,0.7,0.9,0.9
			s-0.5,0.5-1.4,0.5c-0.3,0-0.7,0-1-0.1c-0.2,0-0.5-0.1-0.7-0.2L16.5,223c-0.7-0.4-1-0.8-1-0.9S16,221.6,16.9,221.6 M16.9,221.1
			c-1,0-1.8,0.3-1.9,0.9s0.4,1.1,1.2,1.5L41,237.7c0.3,0.1,0.5,0.2,0.8,0.2c0.4,0.1,0.8,0.1,1.1,0.1c1,0,1.8-0.3,1.9-0.9
			s-0.3-1-1.1-1.4l-24.3-14.1c-0.4-0.2-0.8-0.4-1.3-0.4C17.7,221.1,17.3,221.1,16.9,221.1"/>
		<path class="st1" d="M33.7,216.7v0.5c0.3,0,0.7,0,1,0.1c0.4,0.1,0.8,0.2,1.2,0.4L54,228.2c0.6,0.3,0.9,0.7,0.9,0.9
			s-0.5,0.5-1.4,0.5c-0.3,0-0.7,0-1-0.1c-0.2,0-0.5-0.1-0.7-0.2l-18.5-10.7c-0.7-0.4-1-0.8-1-0.9s0.5-0.5,1.4-0.5L33.7,216.7
			 M33.7,216.7c-1,0-1.8,0.3-1.9,0.9s0.4,1.1,1.2,1.5l18.5,10.7c0.3,0.1,0.5,0.2,0.8,0.2c0.4,0.1,0.8,0.1,1.1,0.1
			c1,0,1.8-0.3,1.9-0.9s-0.3-1-1.1-1.4l-18.1-10.5c-0.4-0.2-0.8-0.4-1.3-0.4C34.5,216.7,34.1,216.7,33.7,216.7"/>
		<path class="st1" d="M76.2,213.9L76.2,213.9c0.3,0,0.7,0,1,0.1c0.4,0.1,0.8,0.2,1.2,0.4l6.4,3.7c0.6,0.3,0.9,0.7,0.9,0.9
			s-0.5,0.5-1.4,0.5c-0.3,0-0.7,0-1-0.1c-0.2,0-0.5-0.1-0.7-0.2l-6.7-3.9c-0.7-0.4-1-0.8-1-0.9S75.3,214,76.2,213.9 M76.2,213.5
			c-1,0-1.8,0.3-1.9,0.9s0.4,1.1,1.2,1.5l6.7,3.9c0.3,0.1,0.5,0.2,0.8,0.2c0.4,0.1,0.8,0.1,1.1,0.1c1,0,1.8-0.3,1.9-0.9
			s-0.3-1-1.1-1.4l-6.3-3.7c-0.4-0.2-0.8-0.4-1.3-0.4C76.9,213.5,76.6,213.4,76.2,213.5"/>
		<path class="st1" d="M73.6,230.9L73.6,230.9c0.3,0,0.7,0,1,0.1c0.4,0.1,0.8,0.2,1.2,0.4l2.8,1.6c0.6,0.3,0.9,0.7,0.9,0.9
			s-0.5,0.5-1.4,0.5c-0.3,0-0.7,0-1-0.1c-0.2,0-0.5-0.1-0.7-0.2l-3.1-1.7c-0.7-0.4-1-0.8-1-0.9S72.7,230.9,73.6,230.9 M73.6,230.4
			c-1,0-1.8,0.3-1.9,0.9s0.4,1.1,1.2,1.5l3.1,1.7c0.3,0.1,0.5,0.2,0.8,0.2c0.4,0.1,0.8,0.1,1.1,0.1c1,0,1.8-0.3,1.9-0.9
			s-0.3-1-1.1-1.4l-2.7-1.5c-0.4-0.2-0.8-0.3-1.3-0.4C74.4,230.5,74,230.4,73.6,230.4"/>
		<path class="st1" d="M78.6,229L78.6,229c0.3,0,0.7,0,1,0.1c0.4,0.1,0.8,0.2,1.2,0.4l1.3,0.8c0.6,0.3,0.9,0.7,0.9,0.9
			s-0.5,0.5-1.4,0.5c-0.3,0-0.7,0-1-0.1c-0.2,0-0.5-0.1-0.7-0.2l-1.7-0.9c-0.7-0.4-1-0.8-1-0.9S77.7,229,78.6,229 M78.6,228.5
			c-1,0-1.8,0.3-1.9,0.9s0.4,1.1,1.2,1.5l1.7,0.9c0.3,0.1,0.5,0.2,0.8,0.2c0.4,0.1,0.8,0.1,1.1,0.1c1,0,1.8-0.3,1.9-0.9
			s-0.3-1-1.1-1.4L81,229c-0.4-0.2-0.8-0.3-1.3-0.4C79.3,228.5,78.9,228.4,78.6,228.5"/>
		<path class="st1" d="M82.7,226.8c0.3,0,0.7,0,1,0.1c0.4,0.1,0.8,0.2,1.2,0.4l1,0.6c0.6,0.3,0.9,0.7,0.9,0.9s-0.5,0.5-1.4,0.5
			c-0.3,0-0.7,0-1-0.1c-0.2,0-0.5-0.1-0.7-0.2l-1.3-0.7c-0.7-0.4-1-0.8-1-0.9S81.8,226.8,82.7,226.8 M82.7,226.2
			c-1,0-1.8,0.3-1.9,0.9s0.4,1.1,1.2,1.5l1.4,0.7c0.3,0.1,0.5,0.2,0.8,0.2c0.4,0.1,0.8,0.1,1.1,0.1c1,0,1.8-0.3,1.9-0.9
			s-0.3-1-1.1-1.4l-1-0.6c-0.4-0.2-0.8-0.4-1.3-0.4C83.4,226.3,83,226.2,82.7,226.2"/>
		<path class="st1" d="M68.4,232.6c0.3,0,0.7,0,1,0.1c0.4,0.1,0.8,0.2,1.2,0.4l2.7,1.6c0.6,0.3,0.9,0.7,0.9,0.9s-0.5,0.5-1.4,0.5
			c-0.3,0-0.7,0-1-0.1c-0.2,0-0.5-0.1-0.7-0.2L68,234c-0.7-0.4-1-0.8-1-0.9S67.5,232.6,68.4,232.6 M68.4,232.1c-1,0-1.8,0.3-1.9,0.9
			s0.4,1.1,1.2,1.5l3.1,1.7c0.3,0.1,0.5,0.2,0.8,0.2c0.4,0.1,0.8,0.1,1.1,0.1c1,0,1.8-0.3,1.9-0.9s-0.3-1-1.1-1.4l-2.7-1.6
			c-0.4-0.2-0.8-0.3-1.3-0.4C69.2,232.1,68.8,232.1,68.4,232.1"/>
		<path class="st1" d="M71.8,216.4L71.8,216.4c0.4,0,0.8,0.1,1.2,0.1c0.4,0.1,0.8,0.2,1.2,0.4l6.4,3.7c0.6,0.3,0.9,0.7,0.9,0.9
			c-0.3,0.4-0.8,0.7-1.3,0.6c-0.3,0-0.7-0.1-1-0.2c-0.2-0.2-0.4-0.4-0.6-0.6c-0.7-1-1.6-1.8-2.6-2.4c-1.3-0.7-2.7-1.2-4.1-1.3
			c-1-0.3-0.9-0.7-0.8-0.9S71.6,216.4,71.8,216.4 M71.9,215.9c-0.8,0-1.3,0.2-1.4,0.8s0,1.1,1.2,1.5c1.4,0.1,2.8,0.5,4,1.2
			c2.2,1.4,2.6,2.7,3.2,3.1c0.4,0.2,0.8,0.3,1.2,0.3c0.8,0.1,1.5-0.3,1.8-1c0.1-0.5-0.3-1-1.1-1.4l-6.3-3.7
			c-0.4-0.2-0.8-0.4-1.3-0.4C72.8,216,72.3,215.9,71.9,215.9"/>
		<path class="st1" d="M29.6,219.1v0.5c0.3,0,0.7,0,1,0.1c0.4,0.1,0.8,0.2,1.1,0.4L50,230.6c0.6,0.3,0.9,0.7,0.9,0.9
			s-0.5,0.5-1.4,0.5c-0.3,0-0.7,0-1-0.1c-0.2,0-0.5-0.1-0.7-0.2L29.2,221c-0.7-0.4-1-0.8-1-0.9s0.5-0.5,1.4-0.5L29.6,219.1
			 M29.6,219.1c-1,0-1.8,0.3-1.9,0.9s0.4,1.1,1.2,1.5l18.5,10.7c0.3,0.1,0.5,0.2,0.8,0.2c0.4,0.1,0.8,0.1,1.1,0.1
			c1,0,1.8-0.3,1.9-0.9s-0.3-1-1.1-1.4l-18.1-10.5c-0.4-0.2-0.8-0.4-1.3-0.4C30.4,219.1,30,219.1,29.6,219.1"/>
		<path class="st1" d="M23.1,201.2v0.5c0.3,0,0.7,0,1,0.1c0.4,0.1,0.8,0.2,1.1,0.4l7.8,4.5c0.6,0.3,0.9,0.7,0.9,0.9
			s-0.5,0.5-1.4,0.5c-0.3,0-0.7,0-1-0.1c-0.2,0-0.5-0.1-0.7-0.2l-8.2-4.7c-0.7-0.4-1-0.8-1-0.9s0.5-0.5,1.4-0.5L23.1,201.2
			 M23,201.2c-1,0-1.8,0.3-1.9,0.9s0.4,1.1,1.2,1.5l8.2,4.7c0.3,0.1,0.5,0.2,0.8,0.2c0.4,0.1,0.8,0.1,1.1,0.1c1,0,1.8-0.3,1.9-0.9
			s-0.3-1-1.1-1.4l-7.8-4.5c-0.4-0.2-0.8-0.4-1.3-0.4C23.8,201.3,23.4,201.2,23,201.2"/>
		<path class="st1" d="M26.8,199.2L26.8,199.2c0.3,0,0.7,0,1,0.1c0.4,0.1,0.8,0.2,1.1,0.4l4.8,2.8c0.6,0.3,0.9,0.7,0.9,0.9
			s-0.5,0.5-1.4,0.5c-0.3,0-0.7,0-1-0.1c-0.2,0-0.5-0.1-0.7-0.2l-5.1-2.9c-0.7-0.4-1-0.8-1-0.9S25.9,199.2,26.8,199.2 M26.8,198.7
			c-1,0-1.8,0.3-1.9,0.9s0.4,1.1,1.2,1.5l5.1,2.9c0.3,0.1,0.5,0.2,0.8,0.2c0.4,0.1,0.8,0.1,1.1,0.1c1,0,1.8-0.3,1.9-0.9
			s-0.3-1-1.1-1.4l-4.7-2.8c-0.4-0.2-0.8-0.4-1.3-0.4C27.5,198.7,27.2,198.7,26.8,198.7"/>
		<path class="st1" d="M36.4,195.4L36.4,195.4c0.3,0,0.7,0,1,0.1c0.4,0.1,0.8,0.2,1.2,0.4l5,3c0.6,0.3,0.9,0.7,0.9,0.9
			s-0.5,0.5-1.4,0.5c-0.3,0-0.7,0-1-0.1c-0.2,0-0.5-0.1-0.7-0.2l-5.3-3.2c-0.7-0.4-1-0.8-1-0.9S35.5,195.4,36.4,195.4 M36.4,194.9
			c-1,0-1.8,0.3-1.9,0.9s0.4,1.1,1.2,1.5l5.4,3.1c0.3,0.1,0.5,0.2,0.8,0.2c0.4,0.1,0.8,0.1,1.1,0.1c1,0,1.8-0.3,1.9-0.9
			s-0.3-1-1.1-1.4l-5-3c-0.4-0.2-0.8-0.4-1.3-0.4C37.2,194.9,36.8,194.8,36.4,194.9"/>
		<path class="st1" d="M31.2,197.1L31.2,197.1c0.3,0,0.7,0,1,0.1c0.4,0.1,0.8,0.2,1.2,0.4l4.1,2.4c0.6,0.3,0.9,0.7,0.9,0.9
			s-0.5,0.5-1.4,0.5c-0.3,0-0.7,0-1-0.1c-0.2,0-0.5-0.1-0.7-0.2l-4.4-2.5c-0.7-0.4-1-0.8-1-0.9S30.3,197.1,31.2,197.1 M31.2,196.6
			c-1,0-1.8,0.3-1.9,0.9s0.4,1.1,1.2,1.5l4.5,2.5c0.3,0.1,0.5,0.2,0.8,0.2c0.4,0.1,0.8,0.1,1.1,0.1c1,0,1.8-0.3,1.9-0.9
			s-0.3-1-1.1-1.4l-4.1-2.4c-0.4-0.2-0.8-0.4-1.3-0.4C31.9,196.7,31.5,196.7,31.2,196.6"/>
		<path class="st1" d="M17.5,207.9L17.5,207.9c0.3,0,0.7,0,1,0.1c0.4,0.1,0.8,0.2,1.1,0.4l3.6,2.1c0.6,0.3,0.9,0.7,0.9,0.9
			s-0.5,0.5-1.4,0.5c-0.3,0-0.7,0-1-0.1c-0.2,0-0.5-0.1-0.7-0.2l-4-2.2c-0.7-0.4-1-0.8-1-0.9S16.6,207.9,17.5,207.9 M17.5,207.4
			c-1,0-1.8,0.3-1.9,0.9s0.4,1.1,1.2,1.5l4,2.3c0.3,0.1,0.5,0.2,0.8,0.2c0.4,0.1,0.8,0.1,1.1,0.1c1,0,1.8-0.3,1.9-0.9
			s-0.4-1-1.1-1.4l-3.6-2.1c-0.4-0.2-0.8-0.4-1.3-0.4C18.3,207.5,17.9,207.4,17.5,207.4"/>
		<path class="st1" d="M16,211.1v0.5c0.3,0,0.7,0,1,0.1c0.4,0.1,0.8,0.2,1.1,0.4l1.3,0.8c0.6,0.3,0.9,0.7,0.9,0.9s-0.5,0.5-1.4,0.5
			c-0.3,0-0.7,0-1-0.1c-0.2,0-0.5-0.1-0.7-0.2l-1.6-0.9c-0.7-0.4-1-0.8-1-0.9s0.5-0.5,1.4-0.5L16,211.1 M15.9,211.1
			c-1,0-1.8,0.3-1.9,0.9s0.4,1.1,1.2,1.5l1.6,0.9c0.3,0.1,0.5,0.2,0.8,0.2c0.4,0.1,0.8,0.1,1.1,0.1c1,0,1.8-0.3,1.9-0.9
			s-0.4-1-1.1-1.4l-1.2-0.7c-0.4-0.2-0.8-0.4-1.3-0.4C16.7,211.1,16.3,211.1,15.9,211.1"/>
		<path class="st1" d="M54,205.6L54,205.6c0.3,0,0.7,0,1,0.1c0.4,0.1,0.8,0.3,1.1,0.5l-0.2,2.2l-2.4-1.3c-1.1-0.6-1-0.8-1-1
			S53.1,205.6,54,205.6 M54,205.1c-1,0-1.8,0.3-1.9,0.9s0,0.9,1.2,1.6l3,1.7l0.3-3.3c-0.5-0.3-1-0.5-1.5-0.7
			C54.7,205.1,54.3,205.1,54,205.1"/>
		<path class="st1" d="M65.2,211.1l0.7,0.4c0.6,0.3,0.9,0.7,0.9,0.9s-0.5,0.5-1.5,0.5H65L65.2,211.1 M64.7,210.3l-0.3,3
			c0.3,0,0.5,0.1,0.8,0.1c1.1,0,1.8-0.4,1.9-0.9s-0.3-1-1.1-1.4L64.7,210.3z"/>
		<path class="st1" d="M52,208.6v0.5c0.3,0,0.7,0,1,0.1c0.4,0.1,0.8,0.2,1.2,0.4l1.5,0.8l-0.2,2.3l-3.9-2.2c-0.7-0.4-1-0.8-1-0.9
			s0.5-0.5,1.4-0.5L52,208.6 M52,208.6c-1,0-1.8,0.3-1.9,0.9s0.4,1.1,1.2,1.5l4.6,2.6l0.3-3.4l-1.8-1c-0.4-0.2-0.8-0.4-1.3-0.4
			C52.7,208.6,52.3,208.6,52,208.6"/>
		<path class="st1" d="M64.3,217.2c-0.1,0-0.3-0.1-0.3-0.2c0,0,0,0,0,0l0.2-1.9c0-0.1,0.1-0.2,0.1-0.2c0.1,0,0.2,0,0.2,0
			c0.6,0.4,0.9,1,0.8,1.4C65.3,216.8,64.9,217.1,64.3,217.2L64.3,217.2z M64.7,215.6l-0.1,1c0.2-0.1,0.3-0.2,0.4-0.4
			C65,215.9,64.9,215.7,64.7,215.6z"/>
		<path class="st1" d="M40.2,211.6c0.3,0,0.7,0,1,0.1c0.4,0.1,0.8,0.2,1.2,0.4l12.4,7.2l0.2,0.1l0.1,1.2c-0.3,0.1-0.6,0.1-0.9,0.1
			c-0.3,0-0.7,0-1-0.1c-0.2,0-0.5-0.1-0.7-0.2L39.8,213c-0.7-0.4-1-0.8-1-0.9S39.3,211.6,40.2,211.6 M40.2,211.1
			c-1,0-1.8,0.3-1.9,0.9s0.4,1.1,1.2,1.5l12.8,7.3c0.3,0.1,0.5,0.2,0.8,0.2c0.4,0.1,0.8,0.1,1.2,0.1c0.5,0,0.9-0.1,1.4-0.2l-0.1-1.9
			c-0.2,0-0.3-0.1-0.5-0.2l-12.4-7.2c-0.4-0.2-0.8-0.4-1.3-0.4C41,211.1,40.6,211.1,40.2,211.1"/>
		<path class="st1" d="M42.4,194.2c0.3,0,0.7,0,1,0.1c0.4,0.1,0.8,0.2,1.2,0.4l12,7l-0.2,2.3l-14.4-8.4c-0.7-0.4-1-0.8-1-0.9
			S41.4,194.2,42.4,194.2 M42.3,193.7c-1,0-1.8,0.3-1.9,0.9s0.4,1.1,1.2,1.5l15,8.8l0.3-3.4l-12.2-7.2c-0.4-0.2-0.8-0.4-1.3-0.4
			C43.1,193.7,42.7,193.7,42.3,193.7"/>
		<path class="st1" d="M65.5,206.9l4.4,2.6c0.6,0.3,0.9,0.7,0.9,0.9s-0.5,0.5-1.4,0.5c-0.3,0-0.7,0-1-0.1c-0.2,0-0.5-0.1-0.7-0.2
			l-2.3-1.4L65.5,206.9 M65.1,206l-0.3,3.4l2.6,1.6c0.3,0.1,0.5,0.2,0.8,0.2c0.4,0.1,0.8,0.1,1.1,0.1c1,0,1.8-0.3,1.9-0.9
			s-0.3-1-1.1-1.4L65.1,206z"/>
		<path class="st1" d="M67.4,229.8c-0.3,0-0.5,0-0.8,0c-2.8-0.2-6.6-1.5-8.3-3.6c-0.6-0.7-0.9-1.5-0.9-2.4h0.5
			c0,0.8,0.2,1.5,0.8,2.1c1.6,1.9,5.3,3.2,8,3.4c4,0.3,9.5-2.2,9.5-2.2s11.8-6.4,12.5-6.8s1.3-0.8,3.1-3.1c0.5-0.5,0.7-1.2,0.7-1.9
			c-0.1-0.5-0.4-0.8-0.9-1.1l-12.8-7.4c-0.3-0.2-0.7-0.3-1.2-0.2c-0.2,0.1-0.4,0.2-0.5,0.4c-0.4,0.8-0.9,1.6-1.5,2.3
			c-0.9,1.1-1.9,2.1-2.9,3l-8.4,5.1l-0.3-0.4l8.4-5l0,0c1-0.9,1.9-1.9,2.8-2.9c0.5-0.7,1-1.4,1.4-2.2c0.2-0.3,0.4-0.6,0.8-0.7
			c0.5-0.1,1.1,0,1.6,0.3l12.8,7.3c0.6,0.3,1,0.8,1.1,1.4c0.1,0.9-0.2,1.7-0.8,2.3c-1.9,2.4-2.5,2.7-3.2,3.2s-12.1,6.6-12.6,6.9
			C76.2,227.7,71.4,229.8,67.4,229.8z"/>
		<path class="st1" d="M78.1,226.7c-0.9-0.2-0.6-1.7-0.6-1.9c-0.1-1.1-0.5-2-1.3-2.8c-1.8-1.7-4.9-2.8-8.2-2.8c-0.4,0-0.9,0-1.3,0.1
			c-0.9,0.1-1.6,0.1-1.8-0.2c-0.1-0.1-0.2-0.3-0.1-0.5c0.2-0.5,0.5-1,0.9-1.3l7.5-4.6l0,0c1.1-0.9,2-1.9,2.9-3l0.3-0.4
			c0.9-1.3,1.6-2.3,2.6-1.8l12.4,7.1c0.8,0.6,1.1,1.6,0.9,2.6l-0.5-0.1c0.2-0.8-0.1-1.6-0.7-2.1l0,0L78.8,208
			c-0.7-0.3-1.2,0.3-2,1.5l-0.3,0.4c-0.9,1.1-1.9,2.2-3,3.1l-7.5,4.6l0,0c-0.3,0.3-0.6,0.7-0.7,1.1l0,0c0.1,0.1,0.9,0.1,1.4,0
			s0.9-0.1,1.3-0.1h0.1c3.4,0,6.6,1.1,8.4,2.9c0.9,0.8,1.4,2,1.4,3.2c-0.1,0.5-0.1,1.3,0.2,1.4L78.1,226.7z"/>
		<path class="st1" d="M90.6,222.1L90.6,222.1c0.2,0,0.5,0,0.7,0.1c1.1,0.2,1.6,0.8,1.6,1s-0.4,0.4-1.1,0.4c-0.2,0-0.5,0-0.7-0.1
			c-1.1-0.2-1.6-0.8-1.6-1S89.9,222.1,90.6,222.1 M90.6,221.6c-0.8,0-1.5,0.3-1.6,0.8c-0.1,0.6,0.7,1.4,2,1.6
			c0.3,0.1,0.6,0.1,0.8,0.1c0.8,0,1.5-0.3,1.6-0.8c0.1-0.6-0.7-1.4-2-1.6C91.1,221.6,90.9,221.6,90.6,221.6"/>
		<path class="st1" d="M188.9,162.6l-0.2-0.5c1.5-0.7,14.9-7.2,15.9-19.4h0.5C204.1,155.3,190.4,161.9,188.9,162.6z"/>
		<path class="st1" d="M52.4,112.3c-2.9,0-5.7-0.6-8.3-1.8c-4.2-1.9-4.5-5.3-4.5-5.5h0.5c0,0.1,0.3,3.3,4.2,5.1
			c4.3,1.9,9.1,2.3,13.6,1l0.4-0.1c2.4-0.5,6.8-3.5,6.9-3.6l0.3,0.4c-0.2,0.1-4.6,3.1-7,3.6l-0.4,0.1
			C56.2,112,54.3,112.2,52.4,112.3z"/>
		<path class="st1" d="M55.1,259.8c-8.7,0-17.3-1.2-25.7-3.3c-10.8-2.7-19.2-8.1-25.2-16.1l0.4-0.3c5.8,7.9,14.2,13.3,24.9,16
			c39.7,9.9,63.8-5.2,71.7-10.2c0.7-0.5,1.3-0.8,1.8-1.1c5.5-3.1,77.1-45.4,88-52.1c11.1-6.8,13.4-12.1,13.4-12.1l0.5,0.2
			c-0.1,0.2-2.3,5.4-13.6,12.4c-10.9,6.7-82.5,49-88,52.1c-0.4,0.2-1,0.6-1.7,1.1C87.6,255.3,71.5,260,55.1,259.8z"/>
		<path class="st1" d="M178.4,15.6c-0.1,0-0.2,0-0.2-0.1l0.2-0.1l-0.1-0.2c1.1-0.5,2-1.5,2.5-2.7c0.1-0.3,0.2-0.5,0.2-0.8
			c0.2-2,0.9-3.9,1.9-5.6c2.1-3.8,5.5-6.2,8.2-6c4.1,0.4,7.8,2.5,10.2,5.8l-0.4,0.3c-2.3-3.2-5.9-5.2-9.8-5.6
			c-2.5-0.2-5.7,2.2-7.8,5.8c-1,1.7-1.6,3.5-1.8,5.4c0,0.3-0.1,0.7-0.2,1C180.7,14,179.7,15.1,178.4,15.6L178.4,15.6z"/>
		<path class="st1" d="M192.3,23.7l-0.4-0.2c0.6-1.1,1.5-2,2.7-2.5c2.2-1.2,4.1-3,5.3-5.2c1.2-2,1.8-4.2,1.9-6.5
			c0-2-0.7-3.4-1.9-4.1c-2.5-1.4-6.6,1-9.1,5.4c-0.9,1.5-1.5,3.2-1.8,4.9c-0.1,0.5-0.2,0.9-0.3,1.4c-0.5,1.4-1.5,2.5-2.9,3.1
			l-0.1-0.5c1.2-0.5,2.1-1.5,2.6-2.8c0.1-0.4,0.2-0.8,0.3-1.2c0.3-1.8,0.9-3.5,1.8-5.1c2.7-4.6,7-7.1,9.8-5.6
			c1.4,0.8,2.1,2.4,2.1,4.5c-0.1,2.4-0.8,4.7-2,6.7c-1.2,2.3-3.2,4.2-5.5,5.5C193.6,21.9,192.8,22.7,192.3,23.7z"/>
		<path class="st1" d="M192.7,20.7c-0.6,0-1.1-0.1-1.6-0.4c-1.3-0.9-2-2.4-1.8-3.9c0.1-2,0.6-4,1.7-5.7l0,0c2.3-4,6-6.1,8.4-4.7
			c1.3,0.9,2,2.4,1.8,3.9c-0.1,2-0.6,4-1.7,5.7C197.7,18.7,194.9,20.7,192.7,20.7z M191.4,10.9c-1,1.7-1.5,3.5-1.6,5.5
			c-0.1,1.3,0.5,2.7,1.6,3.5c2.1,1.2,5.6-0.8,7.7-4.5c1-1.7,1.5-3.5,1.6-5.5c0.1-1.3-0.5-2.7-1.6-3.4C197,5.2,193.5,7.2,191.4,10.9z
			"/>
		<polygon class="st1" points="190,14.2 189.7,13.9 190.3,13.2 190.9,12.4 191.5,11.6 192,10.7 192.4,9.8 192.8,8.9 193.1,8 
			193.6,8.1 193.3,9.1 192.9,10 192.4,10.9 191.9,11.8 191.3,12.7 190.7,13.5 		"/>
		<path class="st1" d="M60.9,77.9c-0.5,0-1.1,0-1.6-0.1c-2.7-0.4-5.4-1.4-7.8-2.8c-2.3-1.5-6.6-3.8-7.4-4.2c-1-0.4-1.8-1.3-1.8-2.5
			c-0.1-0.7,0.4-1.3,1-1.4l0.6-0.3l0.2,0.5l-0.7,0.3c-0.5,0.1-0.7,0.5-0.7,1c0.1,0.9,0.7,1.7,1.5,2c1,0.5,5.3,2.8,7.5,4.2
			c2.3,1.4,4.9,2.3,7.5,2.7c1.9,0.3,3.9,0,5.7-1c2.8-1.2,11.2-6.4,11.3-6.5c0.6-0.4,1.1-0.9,1.6-1.4c0,0,0.1-0.1,0.1-0.1l28.4-16.6
			c0.1,0,4.1-1.8,4.9-3.2l0.1-0.2c0.8-1.1,1.2-2.5,1-3.8c-0.3-1.4-1.6-2.8-3.7-4.1c-8.6-4.5-18.2,0.2-20.9,1.7L58.8,58.3l-3.1,2.6
			l-0.3-0.4l3.1-2.6l28.9-16.1c2.8-1.6,12.6-6.3,21.4-1.7c2.3,1.4,3.6,2.9,4,4.5c0.2,1.5-0.1,3-1.1,4.2l-0.1,0.2
			c-0.9,1.5-4.9,3.3-5.1,3.3L78.2,68.8c-0.5,0.5-1.1,1-1.7,1.5c-0.4,0.2-8.6,5.3-11.4,6.6C63.8,77.5,62.4,77.9,60.9,77.9z"/>
		<path class="st1" d="M107.8,51.3h-0.5c0-0.3,0-0.7,0-0.9c-5.2-4-11.1-7-17.4-8.8l0.1-0.5c6.4,1.8,12.4,4.8,17.7,8.9
			c0.1,0,0.1,0.1,0.1,0.2C107.9,50.2,107.9,50.9,107.8,51.3z"/>
		<path class="st1" d="M60.3,76c-3-0.1-5.9-1-8.3-2.7c-5.1-2.9-8.1-4.6-8.1-4.6c-0.4-0.2-0.7-0.5-0.9-0.9c-0.2-0.4,0.5-0.9,0.8-1.1
			l4.4-2.1l39.9-22.5c0.1-0.1,0.2-0.1,0.2-0.1c6.4,1.8,12.4,4.9,17.7,9c0.1,0,0.1,0.1,0.1,0.2c0,0,0,0.8,0,1.2h-0.5
			c0-0.2,0-0.5,0-0.7l-0.3,0.1c-4.1,2.4-40.2,23.3-41,23.6C63,75.8,61.7,76,60.3,76z M88.3,42.5L48.4,65.1L44,67.2
			c-0.2,0.1-0.4,0.3-0.6,0.5c0.1,0.3,0.4,0.5,0.6,0.6c0,0,3.1,1.7,8.1,4.7c4.3,2.7,8.3,3.3,12,1.9c0.8-0.3,27.1-15.5,40.9-23.6
			l0.3-0.1C100.3,47.2,94.5,44.3,88.3,42.5L88.3,42.5z"/>
		<path class="st1" d="M107.7,50.4l-0.3-0.4c1.7-1.1,3.7-2.8,3.8-4.8c0-1.3-0.8-2.5-2.4-3.7c-8.1-4.8-17.8-0.4-18-0.3l-0.6,0.3v1.3
			h-0.5v-1.4c0-0.1,0-0.2,0.1-0.2l0.8-0.4c0.1-0.1,10.1-4.5,18.5,0.4c1.8,1.3,2.6,2.7,2.6,4.1C111.6,47.4,109.5,49.2,107.7,50.4z"/>
		<rect x="111.2" y="44.6" class="st1" width="0.5" height="4.2"/>
		<path class="st1" d="M47.5,211.1c0.3,0,0.7,0,1,0.1c0.4,0.1,0.8,0.2,1.2,0.4l5.5,3.1l-0.2,2.3l-8-4.5c-0.7-0.4-1-0.8-1-0.9
			S46.6,211.1,47.5,211.1 M47.5,210.6c-1,0-1.8,0.3-1.9,0.9s0.4,1.1,1.2,1.5l8.6,4.8l0.3-3.4l-5.7-3.3c-0.4-0.2-0.8-0.4-1.3-0.4
			C48.3,210.7,47.9,210.6,47.5,210.6"/>
	</g>
</g>
</svg>
