<?xml version="1.0" encoding="utf-8"?>
<!-- Generator: Adobe Illustrator 17.1.0, SVG Export Plug-In . SVG Version: 6.00 Build 0)  -->
<!DOCTYPE svg PUBLIC "-//W3C//DTD SVG 1.1//EN" "http://www.w3.org/Graphics/SVG/1.1/DTD/svg11.dtd">
<svg version="1.1" id="Shape_80_1_" xmlns="http://www.w3.org/2000/svg" xmlns:xlink="http://www.w3.org/1999/xlink" x="0px"
	 y="0px" width="194px" height="55px" viewBox="0 0 194 55" enable-background="new 0 0 194 55" xml:space="preserve">
<g id="Shape_80">
	<g>
		<path fill-rule="evenodd" clip-rule="evenodd" fill="#3F4146" d="M7.9,43.1c-0.4,0.8-2,0.9-1.2,2c0.8-0.7,1.8-1.2,2.7-1.8
			C9,43.3,8.5,43.2,7.9,43.1z M5.5,45.4c-0.1-0.1-0.4-0.2-0.5-0.2c-0.6,1.1-2.5,1.4-2.6,2.6c-0.8,0.1-1.2,0.7-1.7,1.2
			c0.8,0.6,1.5,0.1,2-0.5c0.1-0.6,0.5-1.2,0.8-1.7c0.1,0.2,0.4,0.6,0.5,0.9c0.2-0.4,0.5-0.7,0.8-1.1c0.8-0.3,1.4-0.9,2.1-1.3
			c-0.2-0.2-0.5-0.7-0.7-0.9C5.8,44.6,5.6,45,5.5,45.4z M6.1,23c0.8-0.4,1.5-0.8,2-1.5c1.1-0.1,1.7-1,2.6-1.4
			c0.6-0.5,1.7-0.6,2.1-1.4l0.3,0.2c0-0.3,0-0.8,0-1.1c-1.3,0.7-2.5,1.6-3.9,2.2c0,0.2,0.1,0.5,0.2,0.7C9.2,20.5,9,20.2,9,20.1
			c-3.1,2-6.3,4.2-8.8,6.8C0.4,27,0.8,27.2,1,27.3C2.7,25.9,4.4,24.5,6.1,23z M63.3,23.5c0,1.3,1.4,2,2.4,2.6
			c0.6,0.9,1.6,1.4,2.4,2.1c1.5,1,2.7,2.2,4.4,2.9c0.8,0.6,1.6,1.2,2.5,1.7c0.3-0.4,0.4-1.1-0.2-1.3c-1-0.6-2.1-1.2-3-1.9
			c-0.2,0.1-0.5,0.1-0.7,0.2c-0.1-1.5-2.2-1.7-3.1-2.7c-1,0.1-0.8-1.4-1.9-1.1c0-0.1,0.1-0.4,0.1-0.5c-2.5-1.9-4.9-3.9-7.6-5.5
			c-0.1,0.6,0.1,1.2,0.7,1.5c0.5,0.3,1,0.7,1.5,1c0.5,0.5,1.1,1,1.7,1.4C62.8,23.8,63.2,23.6,63.3,23.5z M1.8,36.8l0.7,0l0,0.5
			c0.3-0.3,0.7-0.5,1-0.8L3,36c0.9,0.6,1.4-0.4,2-0.8c1.2-0.9,2.4-1.9,3.7-2.7c0.2-0.2,0.5-0.4,0.7-0.7c0.4-0.1,0.8-0.2,1.1-0.3
			c-0.1-0.4-0.1-0.8-0.1-1.3c-0.2,0.3-0.4,0.7-0.6,1l-0.7-0.3c0,0.2,0,0.5,0.1,0.6c-0.8,0.1-2.4,0.5-2.1,1.4l-0.6,0
			c-1.1,0.7-2.3,1.4-3,2.4C3,35.4,2.8,35.7,3,36.1c-1.2,0.1-1.9,1.2-2.6,1.9c0.4,0.1,0.9,0.1,1.3,0.2C1.7,37.7,1.8,37.3,1.8,36.8z
			 M35.6,12.5c0,0.2,0.1,0.7,0.2,1c0.8-0.2,1.7,0,2.5,0.2c-0.1-0.3-0.4-0.8-0.5-1C37,12.6,36.3,12.6,35.6,12.5z M43.4,3.6
			c0.5-0.1,1.1,0.2,1.5-0.2c0,0.5,0.3,0.8,0.8,1c0.1-0.2,0.3-0.6,0.4-0.8c-0.3,0.8,0.5,0.9,1.2,1c1.1,0.3,2.1,1.2,3.3,0.8L50.4,6
			c0.2-0.1,0.7-0.3,0.9-0.4l0,0.6c0.9,0.4,1.7,1,2.7,1.1c0.1,0.5,0.6,0.6,1,0.9c0.1-0.4,0.2-0.7,0.3-1.1c-0.4-0.1-0.7-0.3-1.1-0.4
			c-0.8-0.7-1.8-1-2.9-1.2c-0.2-0.6-1-0.6-1.5-1c-0.3,0-0.9,0.1-1.2,0.1l-0.1-0.4c-1.1-0.4-2.3-0.8-3.4-1.1c-0.5-0.1-1-0.3-1.5-0.4
			c-0.5-0.1-1-0.2-1.5-0.2c0,0.3,0.1,0.7,0.1,1C42.6,3.3,43.4,2.8,43.4,3.6z M53.6,17.1c-0.6,0-1.2,0.2-1.8,0.5
			c0.9,0.2,1.7,0.9,2.6,0.4c0,0.2,0,0.5,0,0.7c1.2,0.5,2.2,1.5,3.7,1.2c-0.8-0.7-1.8-1.5-3-1.3l0.2-0.6l-0.9,0.5l0.2-0.6
			C54.3,17.5,54,17.3,53.6,17.1z M50.1,15.6c0.2,0.7,0.5,1.3,1.2,1.6c0.3-0.1,0.9-0.2,1.2-0.2C52,16.2,51,16,50.1,15.6z M44.8,36.9
			c0.1-0.1,0.3-0.3,0.4-0.5c0,0.1,0,0.4,0.1,0.5c5.4,1.4,10.3,3.9,14.8,6.8c0-0.3-0.1-0.8-0.1-1.1c-1-0.8-2.2-1.6-3.5-1.9
			c-0.2-0.3-0.4-0.6-0.7-0.7c-3.9-2-8-3.6-12.4-4.6l0.1,0.7c0-0.2-0.1-0.5-0.2-0.7c-0.6-0.1-1.2-0.1-1.8-0.1c0,0.2,0.1,0.6,0.1,0.8
			C42.6,36.3,43.7,36.5,44.8,36.9z M67.9,17.2c0.9,0.9,2.1,1.4,3,2.3c0.1-0.1,0.3-0.4,0.3-0.6c0,0.2-0.1,0.5-0.1,0.7
			c0.5,0.3,1.1,0.6,1.6,0.9c0.1-0.4,0-0.8,0-1.2c-3.1-1.8-5.9-4.1-8.5-6.4c-0.1,0.3-0.2,0.8-0.3,1C65.3,15.1,66.5,16.3,67.9,17.2z
			 M3.6,13.8c0.9-0.7,1.9-1.3,2.7-2.1c0.3-0.2,0.9-0.6,1.1-0.7c-1-0.4-1.9,0.2-2.7,0.8c-1.6,1.3-3.3,2.7-4.8,4
			c0.2,0.2,0.5,0.5,0.7,0.7C1.7,15.5,2.6,14.6,3.6,13.8z M41.9,3.2c0-0.3-0.1-0.8-0.1-1C41.1,2,40.4,2,39.7,2.3l0-0.4
			c-0.3,0-0.8,0-1.1,0l-0.1,0.9C39.7,2.2,40.7,3.2,41.9,3.2z M58.4,9.8c0,0.1,0.1,0.3,0.1,0.4c1.8,1.2,3.6,2.4,5.3,3.8
			c0.1-0.3,0.2-0.8,0.3-1c-2.6-2.1-5.4-4-8.4-5.6c-0.1,0.2-0.4,0.5-0.5,0.7C56.2,8.6,57.1,9.6,58.4,9.8z M170.1,2.8
			c-0.1-0.3-0.2-0.4-0.5-0.2C169.6,2.9,169.8,3,170.1,2.8z M90.8,26.8l-0.2,0.6c0.8-0.4,1.6,0.5,2.3,0.1c0-0.2,0.1-0.6,0.1-0.8
			c-0.9-0.2-1.8-0.2-2.7-0.4c-0.1,0.1-0.2,0.4-0.2,0.5c-0.1-0.1-0.2-0.4-0.2-0.5L89,26l0,1C89.6,27.2,90.4,27.5,90.8,26.8z
			 M44.4,14.6c1.8,0.6,3.6,1.2,5.4,1.9c-0.1-0.3-0.2-0.9-0.2-1.2c-1.7-0.5-3.4-1.3-5.2-1.2c-1.8-1.2-4.2-1.2-6.3-1.5
			c0.1,0.2,0.2,0.7,0.2,0.9c1.3,0.3,2.7,0.4,4,0.7L42,13.7C42.8,14.1,43.4,14.7,44.4,14.6z M35.2,2.4l-0.2-0.6
			c0.9,0.6,2.1,0.5,3.2,0.8c0-0.2,0-0.7,0.1-0.9c-1-0.1-2-0.1-3-0.2c-0.9,0.1-1.8,0.1-2.6,0.2l0.1,0.8C33.6,2.4,34.4,2.4,35.2,2.4z
			 M32.1,2.3c0.1-0.2,0.2-0.5,0.3-0.6c-0.5-0.1-0.9-0.1-1.3,0.1C30.7,2.3,31.7,2.7,32.1,2.3z M11.5,8.5c2.5-1.4,5.3-2.6,8-3.7
			c0.5,0.1,0.9-0.1,1.1-0.5c0.6,0.1,1,0,1.4-0.4c0.8-0.2,1.7-0.2,2.3-0.7c1.7,0,3.4-0.8,5.1-0.7c0.5,0,1-0.1,1.5-0.1l0-0.9
			c-3,0.2-5.9,0.8-8.8,1.6c-2.1,0.6-4.2,1.2-6,2.3c-3.2,0.9-5.9,2.9-8.7,4.4c0,0.2-0.1,0.6-0.2,0.8c0.3,0,0.8,0,1,0
			C9.1,9.6,10.4,9.2,11.5,8.5z M107,36.8c1.3,0.5,2.4-0.6,3.6-0.8c1-0.4,2.7-0.5,2.6-1.8c0.7,0.7,2.6-0.2,2.1-1.1
			c-0.6,0.2-1.3,0.4-1.9,0.8c-2.7,1.2-5.6,2.3-8.6,2.9c0.4,0.3,0.7,0.5,1.1,0.8C106.6,37.6,107,37.3,107,36.8z M103.6,37.1
			c-3.9,1-7.9,0.7-11.9,0.8c0.3,0.2,0.9,0.5,1.2,0.7c4.1,0.4,8.3,0,12.4-0.8l0.2-0.3C105,37.1,104.3,36.8,103.6,37.1z M74.3,20.2
			c-0.4,0.1-0.9,0.2-1.3,0.4c1,1,2.4,1.6,3.7,2.3C76.7,21.4,75.2,21,74.3,20.2z M62.2,33.2c-1-0.7-2-1.4-3-2.1
			c0,0.4,0.1,1.1,0.2,1.4c0.8,0.3,1.5,0.9,2.2,1.4C61.8,33.8,62.1,33.4,62.2,33.2z M115.6,22.2c0.1,0.1,0.4,0.2,0.5,0.2
			c1.3-0.9,3.1-1.4,4-2.7c-0.4,0-1.1,0-1.4,0c0.1,0.4,0,0.7-0.2,1l0-0.7c-0.6,0.6-2.2,0.8-1.9,1.8c-0.1-0.1-0.4-0.2-0.5-0.3
			c-1,0.4-2.4,0.8-2,2C114.8,23.3,115.4,22.8,115.6,22.2z M115.6,33.7c1-0.2,1.8-0.8,2.7-1.2c-0.1-0.4-0.3-0.7-0.5-1
			c-0.3,0.2-0.9,0.6-1.2,0.8l0.2,0.4c-0.2-0.1-0.5-0.2-0.7-0.2C115.6,32.7,115.5,33.2,115.6,33.7z M120.2,19.3c-0.2,0-0.5,0-0.6,0
			l0,0.3c0.2,0,0.5,0,0.6,0L120.2,19.3z M80.3,24.4c2.7,1.2,5.6,2,8.6,2.5l-0.4-0.8c-3.3-0.8-6.5-1.8-9.5-3.2
			c-0.8-0.4-1.5-0.9-2.5-0.9C77.1,23.4,78.9,23.8,80.3,24.4z M75.8,32.2l-0.2,0.1c0,0.2-0.1,0.5-0.2,0.7c1.4,1,3,1.6,4.6,2.3
			c0.1-0.1,0.4-0.2,0.5-0.3c0,0.1,0.1,0.4,0.1,0.5c3.3,1.2,6.7,2.3,10.2,2.8c0-0.2,0.1-0.7,0.1-0.9c-2.3-0.4-4.5-1-6.8-1.6
			C81.3,34.8,78.5,33.6,75.8,32.2z M45.7,26c0,0.1,0.1,0.3,0.2,0.3l-0.2-0.6l0.9,0c0.1,0.2,0.3,0.6,0.4,0.8c0.2,0,0.5-0.1,0.6-0.1
			c0.2,0.4,0.5,0.5,1,0.5c0.8,0.4,1.7,0.7,2.6,1c0.4,0.2,0.8,0.5,1.2,0.7c0.4,0.1,0.7,0.2,1.1,0.4c0.9,0.6,1.9,1.1,2.9,1.6
			c0.9,0.5,1.7,1.1,2.7,1.6c0.4-1.5-1.5-1.8-2.5-2.4c-0.5-0.4-1.1-0.8-1.6-1.1c0,0.3,0,0.8,0,1c-0.4-0.4-0.7-0.8-0.8-1.3
			c-0.5-0.2-1-0.2-1.5-0.1c0.5-0.9-1-0.9-1.5-1.2l-0.2,0.5c-0.4-0.2-0.7-0.7-1.3-0.7l0.4-0.5c-0.3,0.2-0.5,0.7-0.9,0.5
			c-0.5-0.2-0.7-0.6-0.9-1c-0.8-0.2-1.6-0.6-2.4-0.4l0.2-0.5c-2.5-0.3-4.9-1.4-7.5-1.2c-0.6-0.1-1.1-0.3-1.7-0.4
			c-0.1,0.2-0.2,0.6-0.2,0.8c0-0.2-0.1-0.6-0.1-0.8c-1.8,0-3.7,0-5.5,0.1c0,0.2,0.1,0.7,0.1,0.9c2,0,4-0.3,6,0
			c0.8,0.1,1.6,0.1,2.5,0c0.8,0.4,1.8,0.3,2.7,0.5C43.4,25.3,44.5,25.8,45.7,26z M113.7,23.6c0-0.4,0-0.7,0-1.1
			c-1.1,0.7-2.4,1-3.6,1.7c0,0.3,0,0.8-0.1,1.1c0.5-0.3,0.9-0.5,1.4-0.8C112.2,24.2,113,23.9,113.7,23.6z M96.3,27.7
			c4.3,0,8.6-1,12.7-2.2c0-0.3,0.1-0.8,0.1-1.1c-1.4,0.7-2.9,1.2-4.4,1.3c-1.3,0.4-2.7,0.4-4.1,0.9c-2.3,0.1-4.6,0.2-6.9,0.2
			c-0.1,0.1-0.2,0.5-0.2,0.6C94.3,27.9,95.4,27.7,96.3,27.7z M109.8,24.4l-0.3,0c0,0.2,0,0.4-0.1,0.6l0.3,0
			C109.8,24.9,109.8,24.6,109.8,24.4z M163.3,2.8c0.2,0.2,0.4,0.4,0.6,0.6c-0.5-0.6,0.2-1.2,0.8-1.2L164.6,2c-0.1,0-0.4,0.1-0.5,0.1
			l-0.1-0.6C163.6,1.9,163.8,2.5,163.3,2.8z M26.7,46.4l0,0.2c-1.9,0.1-3.8,0.6-5.5,1.4c-1.7,0.3-3.5,0.8-4.8,1.9
			c-1.7,0.5-3.4,1.3-4.8,2.3c-0.7,0.5-1.6,0.7-2.1,1.3c-0.6,0.2-1.3,0.5-1.6,1c-0.3,0.1-0.6,0.3-0.9,0.5h1.7
			c0.3-0.2,0.6-0.3,0.9-0.5l-0.1-0.4l0.5,0.1l-0.1-0.4c0.2,0,0.7,0,0.9,0c4.9-3.1,10.5-5.3,16.4-6.4c0-0.1-0.1-0.4-0.1-0.5
			c0.1,0.1,0.4,0.2,0.6,0.2c1.1-0.1,2.4,0.1,3.3-0.5l0.4,0.3c0.5-0.5,1.2-0.3,1.8-0.2l0.1-0.9c-1,0.1-2.1,0.1-3.1,0.5
			C28.9,45.8,27.8,46.3,26.7,46.4z M30.9,24.7c0-0.3,0-0.8,0-1c-2.7,0.3-5.4,0.8-8.1,1.5c0,0.3,0,0.8,0,1c2-0.8,4.1-1,6.2-1.3l0-0.5
			c0,0.1,0.1,0.4,0.1,0.6C29.6,24.8,30.2,24.7,30.9,24.7z M35.5,13.4l0-0.8c-2.6-0.1-5.2,0.1-7.8,0.4c-3.4,0.5-6.8,1.6-10,2.7
			c-1.5,0.6-3,1.4-4.5,1.9c0.2,0.3,0.4,0.5,0.6,0.8c2.3-1,4.7-2,7.1-2.9C25.5,14.2,30.5,13.2,35.5,13.4z M12.5,29.7
			c-1.2-0.4-0.9,0.9-1.1,1.5c0.2-0.3,0.4-0.6,0.6-1c0.2,0,0.5,0.1,0.6,0.1l-0.1-0.3c1.6-0.3,2.9-1.3,4.3-1.9c0.4-0.2,1-0.3,1.2-0.7
			c1.6,0.1,2.9-1.1,4.5-1.1c0-0.4,0-0.8,0.1-1.1c-2,0.5-3.9,1.2-5.8,2C15.3,27.9,13.5,28.4,12.5,29.7z M16.8,39.3
			c1.7-0.4,3-1.5,4.8-1.7c1.8-0.6,3.6-0.9,5.3-1.6c1.4-0.2,2.8-0.1,4.1-0.4c0.8,0,1.7-0.2,2.6,0c0.1-0.1,0.2-0.4,0.3-0.6
			c0.4,0,0.6,0.6,1.1,0.4c2.1,0.1,4.3,0.2,6.4,0.6c0-0.2,0-0.7,0.1-0.9c-1.3-0.1-2.5-0.4-3.8-0.2c-1.2-0.4-2.5-0.2-3.8-0.3
			c-2.8,0.1-5.6,0.3-8.2,1.1c-4.7,0.7-9.1,2.7-13.2,4.8c-1.3,0.8-2.8,1.5-4,2.5c0.5,0,1.1,0,1.6,0c1.1-0.9,2.8-1.3,3.8-2.4
			c0.4-0.1,1.3-0.2,1.1-0.7C15.5,40.3,16.2,39.7,16.8,39.3z M170.8,4.9c-0.4-0.1-0.7,0.1-0.9,0.3C170,5.7,171.1,5.3,170.8,4.9z
			 M162.9,3.8c0.3,0.1,0.7,0.2,1.1,0.3c0.1-0.1,0.4-0.2,0.6-0.2c-0.2-0.1-0.4-0.2-0.6-0.2C163.6,3.7,163.2,3.6,162.9,3.8z
			 M164.3,3.1c0.4,0.3,0.8,0.5,1.2,0.8c0.1-0.1,0.2-0.2,0.3-0.2c-0.2,0-0.5,0-0.6,0c-0.2-0.4,0.2-0.7,0.4-1.1
			C165.2,2.7,164.7,2.9,164.3,3.1z M167.1,4.3c-0.5,0-1,0.1-1.5,0.1c0.6,0.7,1.6,0.4,2.3,0.3C167.8,4.5,167.3,4.3,167.1,4.3l0.5-0.2
			c-0.1-0.1-0.2-0.3-0.2-0.4c0.4,0,0.7-0.2,1-0.4c-0.1-0.1-0.3-0.2-0.3-0.3c0.3-0.1,0.6-0.3,0.7-0.6c-0.2,0-0.6-0.1-0.8-0.1
			c-0.2,0.6-1,0.2-1.5,0.3c0.2,0,0.5,0.1,0.7,0.1c0,0.2,0,0.6,0,0.7c-0.3,0.1-0.6,0.1-0.9,0.1C166.6,3.9,166.8,4.1,167.1,4.3z
			 M169.7,6c0-0.3,0-0.6,0-0.9c-0.2,0.1-0.4,0.2-0.6,0.4c0,0.1,0,0.3,0,0.3C169.2,5.8,169.5,5.9,169.7,6z M62.1,44.3
			c0-0.6-0.9-0.9-1.5-0.9C60.5,44.1,61.3,44.9,62.1,44.3z M158.6,2.7c0.3,0.1,0.7,0.2,1,0.2C159.9,2.4,158.6,2.3,158.6,2.7z
			 M159.1,8.8c-0.2,0.4,0,0.5,0.4,0.4C159.6,8.8,159.5,8.7,159.1,8.8z M162,1.9l0.1-0.2c-0.1,0-0.4,0-0.5,0c0.1-0.2,0.2-0.7,0.3-0.9
			c0,0.1,0,0.4,0,0.5c0.5-0.4,1.1-0.1,1.4,0.4c0.1-0.2,0.3-0.4,0.5-0.5c-0.1-0.1-0.2-0.3-0.2-0.4c-0.2,0-0.5,0.1-0.6,0.2l0-0.4
			c-0.2,0.1-0.4,0.1-0.5,0.2c-0.4-0.6-1.2,0-1.7-0.6c-0.1,0.4-0.2,0.9-0.6,1c0.1,0.3,0.2,0.6,0.1,0.9c-0.1-0.2-0.2-0.6-0.2-0.7
			l-0.1,0c0.1,0.6-0.5,0.6-0.8,0.9c0.6,0.1,1.1,0.2,1.7,0.3c-0.3,0.2-0.6,0.3-0.9,0.5C160.7,3,161.5,2.6,162,1.9z M174.4,15.1
			c-0.7-0.6-1.4-1.2-2.2-1.6c-1.1-0.9-2.5-1.5-3.7-2.1c-0.5-0.2-1.1-0.7-1.7-0.4l0.2-0.4c-0.2,0.1-0.5,0.3-0.6,0.4
			c-0.4-0.7-1.3-0.8-2-1c0,0.1,0.1,0.3,0.1,0.4c0.6,0.2,1.2,0.5,1.8,0.7c0.5,0.1,1.1,0.7,1.6,0.1c0.2,0.5,0.6,1,1.2,0.8l-0.2,0.2
			c1.8,0.9,3.6,2,5.2,3.4c0.2,0.2,0.4,0,0.6-0.1c0,0.6,0.6,0.9,1,1.3c0.2,0.1,0.3,0.3,0.5,0.4l0,0.3c0.1,0,0.3,0,0.5,0
			c-0.3-0.5-0.6-1-1.1-1.3C174.9,16,174.8,15.4,174.4,15.1z M162.5,9.4c-0.6,0.2-1.2,0-1.7-0.2c-0.3,0-0.6,0-0.9,0
			c0.9,0.3,1.9,0.3,2.8,0.6l0.1,0.1c0.2-0.6,0.7,0,1.1,0c0.1,0.1,0.3,0.2,0.4,0.3C164.1,9.4,163.1,9.4,162.5,9.4z M162.4,1.9
			c-0.3,0.2,0,0.8,0.4,0.5C163.1,2.2,162.7,1.7,162.4,1.9z M142.8,11.7c-1.3,0.5-2.5,1.3-3.6,2.1c-0.1,0.3-0.2,0.6-0.4,0.9l0-0.6
			c-0.7,0.5-1.3,1-1.9,1.4c0.1,0.1,0.3,0.3,0.4,0.4c0.1-0.2,0.3-0.4,0.4-0.6c0.5-0.1,0.9-0.5,1.3-0.8c0.1,0.1,0.3,0.2,0.4,0.2
			l-0.4-0.4c0.7-0.4,1.4-0.8,2.1-1.3c0-0.1,0.1-0.2,0.1-0.3c0.5,0,1-0.2,1.4-0.4c-0.4-0.7,0.5-0.4,0.9-0.5
			C143.3,11.6,143.1,11.5,142.8,11.7z M144,4.6c0.2,0,0.6,0,0.8,0l-0.1,0.3c0.2,0,0.4,0,0.6-0.1c-0.1-0.1-0.2-0.3-0.3-0.4
			c0.9,0.3,2,0.1,2.4-0.9c0,0.2,0,0.5,0,0.7c0.5-0.1,1.1-0.3,1.6-0.4c-0.7-0.1-1.6,0.1-1.7-0.8c-0.4,0.2-0.8,0.4-1.2,0.5
			c0,0.1,0.1,0.3,0.2,0.4c-0.1,0.1-0.3,0.2-0.3,0.3c0.1-0.6,0-1.3,0.3-1.8c0,0.1,0,0.3,0,0.3c0.4,0,0.9,0.1,1.4-0.1
			c-0.2-0.1-0.5-0.4-0.6-0.5l-0.4,0.2c0.4-0.5,0-0.9-0.4-1.2c-0.9,0.4-2,0.5-2.9,0.9c0,0.1-0.1,0.3-0.1,0.5
			c-0.9-0.2-1.8,0.2-2.5,0.8c-0.6-0.1-1.2,0.4-1.7,0.6l0.1,0.2c-0.5,0.1-0.9,0.2-1.4,0.4c0.2,0.1,0.3,0.3,0.5,0.5
			c-0.4-0.1-0.8-0.1-1.2,0c0,0.3,0.4,0.7,0.2,1.1c-0.1-0.3-0.2-0.6-0.3-1c-0.7,0.4-1.4,0.9-2.2,1.3c0.4,0.1,0.9,0.2,1.3,0.4
			c0.1-0.4,0.1-0.7,0.2-1.1c0.1,0.7,0.6,0.9,1.3,0.8c0,0.1-0.1,0.3-0.1,0.4c0.5-0.3,0.8,0.2,1.1,0.5c-0.6,0-1.2,0-1.8,0.2
			c-0.3-0.1-0.8-0.5-0.9,0.1c0.1,0.4,0.7,0.1,1,0.4c-0.4-0.1-0.9,0.2-1.3,0l-0.1-0.2c-0.5-0.7,0.2-0.8,0.7-0.8
			c-0.3-0.1-0.6-0.2-0.9-0.4c-0.1,0.1-0.2,0.3-0.3,0.4c-0.3-0.2-0.6-0.6-0.9-0.1c-0.3,0.1-0.5,0.2-0.7,0.4c0.6,0,1.1-0.2,1.7-0.2
			c-0.8,0.6-0.3,1.8,0.5,2c-0.7,0.7-1.9,0.3-2.8,0.4c0.1-0.1,0.4-0.4,0.5-0.6c0.6,0.1,1.1,0.2,1.7,0.3c-0.3-0.5-0.5-1.1-0.4-1.7
			c-0.5,0.1-1.1,0.1-1.6,0c-0.5,0.4-1.1,0.8-1.6,1.3c-0.2,0.3,0.1,0.6,0.1,0.8c-0.2-0.2-0.3-0.3-0.5-0.5c-0.8,0.6-1.7,1.2-2.1,2.2
			l-0.2-0.2c-0.2,0.2-0.3,0.4-0.5,0.5l0.4,0.4c-0.2,0-0.6-0.1-0.7-0.2l-0.1,0.3c0.1,0,0.4,0,0.5,0c0,0.3,0,0.6,0,1l-0.2,0
			c0-0.1,0-0.4,0-0.6c-0.2,0-0.5,0-0.7,0c0,0.1,0,0.2-0.1,0.3c-0.1-0.1-0.3-0.1-0.4-0.2c-0.4,0.6-1,1.1-1.3,1.7
			c-1,0.4-1.6,1.1-2.3,1.8c-1.1,0.9-2.3,1.7-3.4,2.6l0.9,0l-0.1,0.6c0.6-0.4,1.4-0.9,1.3-1.7c0.2,0,0.6,0.1,0.8,0.1l-0.1-0.5
			c0.2,0,0.5,0.1,0.7,0.1c0.2-0.3,0.7-0.6,1.1-0.9c-0.1,0.2-0.3,0.4-0.4,0.6l0.7-0.1c-0.2,0.3-0.5,0.3-0.9,0.4
			c-0.7,1.1-1.3,2.2-1.9,3.4c0.4,0.4,0.1,0.6-0.3,0.6c-0.2,0.3-0.3,0.6-0.5,1c0.1,0.1,0.3,0.4,0.3,0.6c-0.2,0-0.5-0.1-0.6-0.1
			l0.4,0.6l-0.7-0.2c0.1,0.1,0.2,0.3,0.3,0.5c-0.4,0.3-0.6,0.7-0.7,1.1l0.5-0.2v0.7l-0.2,0l-0.1-0.5c-0.3,0.5-0.4,1.1-0.6,1.6
			c0.2,0.1,0.5,0.3,0.7,0.5c-0.1,0.1-0.2,0.3-0.3,0.4c-0.1-0.3-0.3-0.5-0.4-0.8c-0.3,0.8-0.5,1.7-0.7,2.5c0.4,0.1,0.5,0.4,0.6,0.8
			c-0.2,0-0.6-0.1-0.7-0.2c0,0.3-0.1,0.7-0.2,1c-0.1,0.1-0.2,0.1-0.3,0.2c0.1,0.2,0.2,0.3,0.3,0.5c0,0.2-0.1,0.4-0.1,0.7l0.7-0.1
			L119,32c0.1-0.1,0.1-0.1,0.2-0.2c0.4,0,0.7,0,1-0.2c0,0.2,0,0.3,0.1,0.5c0.3-0.3,0.6-0.7,0.3-1.1c0-0.1,0-0.1,0-0.2
			c0.1-0.1,0.1-0.1,0.2-0.2c0.1,0.4,0.2,0.7,0.2,1.1c0,0.1-0.1,0.2-0.1,0.3c-0.4,0.2-0.7,0.5-0.8,0.9c0-0.2,0-0.4,0.1-0.5
			c-0.7-0.1-1.4-0.2-2.1-0.1c0.1,0.7-0.6,1.8,0.4,2.2c-0.2,0-0.5,0-0.6,0c0,0.5,0,1,0,1.5c0.3,0,0.7,0.1,1,0.1
			c-0.2,0.1-0.4,0.3-0.6,0.5c-0.2-0.1-0.3-0.3-0.5-0.4c0.2,0.7-0.5,2,0.5,2.2c0-0.1,0-0.4-0.1-0.6c0.1,0,0.4-0.1,0.5-0.1
			c0-0.2,0-0.5,0.1-0.6c0,0.2,0.1,0.5,0.1,0.7c0.5-0.5,1.2-0.3,1.6-0.9c0.1,0,0.4-0.1,0.5-0.1c0-0.2,0-0.7,0.1-1
			c-0.2,0-0.5-0.1-0.7-0.1c0,0.2,0,0.4,0,0.7c-0.1-0.4-0.1-0.8-0.5-0.9c0.1-0.5,0.4-1.3-0.2-1.7c-0.3-0.1-0.6,0.1-0.9,0.1
			c0.2-0.1,0.4-0.2,0.6-0.3c0.3-0.2,0.5-0.3,0.8-0.5c0-0.1,0-0.1,0-0.2c0.4-0.3,0.9-0.3,0.8,0.3c-0.5-0.2-0.9,0.2-1.3,0.5l0.4,0.1
			c-0.1,0.5-0.1,1,0,1.5c0.3,0,0.9,0.1,1.1,0.1c-0.3-0.2-0.5-0.4-0.8-0.6c0.2,0.1,0.6,0.2,0.7,0.2c-0.1-0.6-0.1-1.2-0.1-1.8l0.3,0
			c0.2-1.2,0.4-2.5,0.7-3.7c0.4-0.3,0.9-0.7,1.2-1c1.8-1.1,3.1-2.7,4.7-4.1c-0.2-0.4-0.6-0.6-1-0.7c-0.2,0.3-0.3,0.7-0.4,1.1
			c-0.4,0-0.8,0.2-1,0.4c-1,1-2,1.9-3.1,2.7c0.4-1.3,0.8-2.5,1.3-3.7l0.1-0.1l0-0.1c-0.4-0.1-0.8,0.1-1.1,0.3
			c0.1,0.2,0.5,0.4,0.2,0.6c-0.3-0.2-0.4-0.7-0.8-0.6c0-0.8,1.2-0.1,1.6-0.6c0.1,0,0.2,0,0.3-0.1c0.4-0.5,0.5-1.3,0.1-1.8
			c0.2,0.2,0.4,0.4,0.6,0.7c0.4-1.3,1.2-2.5,2-3.6c-0.1-0.3-0.3-0.5-0.4-0.8c0.1,0,0.3,0,0.4,0c-0.1-0.1-0.4-0.4-0.5-0.5
			c0.1-0.1,0.3-0.3,0.4-0.3c-0.2-0.1-0.6-0.3-0.8-0.4c0.1,0.2,0.2,0.6,0.3,0.7c-0.1,0-0.4-0.1-0.6-0.1c-0.2-0.2-0.3-0.5-0.5-0.7
			c0.1,0.1,0.4,0.3,0.5,0.4l0.3,0c0-0.1-0.1-0.2-0.1-0.3c0.2,0,0.5,0,0.7,0c-0.2-0.1-0.5-0.4-0.6-0.6c0.4-0.1,0.4-0.3,0.1-0.4
			c0-0.3-0.1-0.6-0.1-0.8c-0.1,0-0.4,0.1-0.5,0.1c0,0,0,0,0,0l0-0.2l0.5,0l0-0.3c0,0,0.1,0,0.1,0c0,0.1,0,0.3,0,0.4l0.4-0.3
			c-0.1,0.2-0.2,0.6-0.2,0.8c0.1,0,0.4-0.1,0.5-0.1c0.2,0.4,0.5,0.7,0.8,1.1l-0.4-0.1l0,0.3c0.1,0,0.4,0.1,0.6,0.1
			c-0.2,0.4-0.3,0.7-0.5,1.1c0.4-0.2,0.7-0.5,0.8-0.9c0.4-0.3,0.7-0.7,0.9-1.1c0.1-0.2,0.3-0.3,0.4-0.5c-0.1-0.5-0.1-0.9-0.1-1.4
			c0.3,0.1,0.6,0.3,0.9,0.5c0.3-0.4,0.7-0.8,1.1-1.1c-0.2-0.1-0.6-0.2-0.8-0.3l1.1,0c-0.2-0.1-0.6-0.4-0.8-0.5
			c0.5,0.1,0.8-0.2,1-0.7c0.2,0.1,0.4,0.3,0.7,0.4c0.4-0.4,0.8-0.7,1.1-1.1c-0.2,0-0.6,0.1-0.8,0.2c0-0.2,0.1-0.6,0.1-0.8
			c0.1,0.2,0.3,0.5,0.5,0.6c0.8-0.3,1.8-0.8,2.2-1.7c0.2,0,0.5,0,0.6,0c-0.1-0.1-0.2-0.3-0.3-0.4c0.4-0.1,0.7-0.3,1.1-0.4
			c0-0.1,0-0.3,0-0.4c0,0.1,0.1,0.4,0.1,0.5c0.5-0.3,0.9-0.7,1.5-0.8c-0.1-0.1-0.4-0.3-0.5-0.4c0.1,0,0.4,0,0.6,0l0,0.3
			c0.3-0.2,0.6-0.4,0.8-0.6c0.1,0,0.4-0.1,0.6-0.2c-0.1-0.3-0.3-0.4-0.5-0.6c0.4-0.1,0.9-0.1,1.3,0.1c0.4-0.1,0.9-0.3,1.2-0.7
			c0.2,0,0.5,0,0.7,0c0-0.1-0.1-0.2-0.1-0.3c0-0.2,0-0.5-0.1-0.7c-0.1,0.1-0.4,0.4-0.5,0.6c0-0.1-0.1-0.4-0.2-0.6
			c0.4,0,0.6-0.1,0.6-0.4c-0.3-0.2-0.6-0.1-0.8,0.1c-0.7-0.1-0.5,0.6-0.5,1.1c-0.1-0.1-0.2-0.2-0.2-0.3c0.1-0.4,0.1-0.7,0-1.1
			c0.3,0.4,0.9,0.4,0.8-0.2l0,0.1l0.1,0l0.1,0c0.3-0.5-0.3-0.7-0.6-1c0.4-0.9,1,0.4,1.7,0.2c0.3,0.4,0.8,0.6,1.2,0.8
			c-0.2,0.4-0.5,0.8-0.9,1c0-0.3,0-0.8,0-1.1c-0.5-0.1-0.8-0.8-1.3-0.8c0.2,0.4,0.4,0.8,0.6,1.2c0.4,0.2,0.7,0.5,0.6,1
			c0.2-0.2,0.5-0.4,0.7-0.6c0.2,0,0.4,0.1,0.6,0.1C144.3,5.1,144.1,4.7,144,4.6z M120.2,31.6c-0.1-0.1-0.3-0.2-0.4-0.2
			c0.1-0.1,0.3-0.2,0.4-0.3C120.2,31.2,120.2,31.4,120.2,31.6z M120.5,27.7c-0.3,0.4-0.1,0.9,0,1.4
			C120.1,28.7,119.6,27.7,120.5,27.7z M121.2,27.7c-0.3,0.1-0.5,0-0.4-0.4C121.1,27.3,121.3,27.4,121.2,27.7z M122.7,21.1
			c-0.3,0.1-0.5-0.1-0.4-0.4C122.6,20.6,122.7,20.8,122.7,21.1z M121.9,23.5L121.9,23.5c-0.2-0.3-0.4-0.6-0.6-0.9c0.6,0,1.1,0,1.7,0
			l0-0.2c0.3,0.1,0.6,0.2,0.9,0.2C123.2,22.6,122.3,22.7,121.9,23.5z M125.5,18.1c0.4-0.1,0.5,0.5,0.1,0.6
			C125.2,18.9,125,18.2,125.5,18.1z M125,15.8c0-0.1,0-0.2-0.1-0.4l0.3,0.1C125.1,15.6,125.1,15.7,125,15.8z M126.8,15.8
			c0-0.7,0.9,0.1,1.2,0.2C127.8,16.3,127.1,15.9,126.8,15.8z M129,12h-0.2l0-0.2l0.2,0V12z M130.6,9.9l0.2,0V10h-0.2V9.9z
			 M129.9,11.8c0.3-0.2,0.6-0.4,0.9-0.7c0.1,0.1,0.2,0.3,0.3,0.5C130.7,11.6,130.3,11.7,129.9,11.8z M133.6,8.2
			c-0.2,0.2-0.3,0.5-0.5,0.7c-0.4,0-0.3-0.7-0.6-0.8C132.9,8.1,133.3,8.1,133.6,8.2z M133,9.3c-0.2,0.2-0.4,0.4-0.6,0.6
			c-0.1-0.1-0.4-0.2-0.6-0.3C132,9.1,132.5,9,133,9.3z M132.4,11.2c-0.2,0.3-0.8-0.1-0.6-0.4C132,10.5,132.6,10.9,132.4,11.2z
			 M132.6,10.5l0-0.2l0.2,0l0,0.2L132.6,10.5z M138.6,7.1c-0.2-0.2-0.2-0.5-0.1-0.7c0.1,0,0.3,0,0.5,0C139,6.8,138.8,7,138.6,7.1z
			 M139.9,5.7c-0.2,0.4-0.5,0.4-0.9,0c0,0.1-0.1,0.4-0.2,0.5c0-0.2,0.1-0.6,0.1-0.8c-0.2,0-0.5,0.1-0.6,0.2c0.2-0.2,0.4-0.3,0.6-0.5
			l-0.4-0.7c0.4,0.2,0.6,0.7,0.9,1c0.3-0.2,0.4-0.5,0.1-0.8c0.3,0.4,0.6,0.9,0.9,1.3C140.3,5.8,140.1,5.8,139.9,5.7z M140.9,3.7
			l-0.2,0l0-0.2l0.2,0L140.9,3.7z M145.8,2.7c0,0.3-0.1,0.4-0.4,0.5c-0.1-0.1-0.2-0.3-0.3-0.4C145.1,2.4,145.8,2.3,145.8,2.7z
			 M144.4,2.4c0.1-0.2,0.7-0.6,0.8-0.2c-0.1,0.1-0.2,0.3-0.2,0.4C144.8,3,144.1,2.9,144.4,2.4z M144.2,3.8c0.3-0.4,0.8,0.1,0.6,0.4
			C144.5,4.6,143.9,4.2,144.2,3.8z M154.1,9c1,0,2.1-0.1,3.1,0c0-0.1,0-0.3,0-0.4C156.2,8.8,155,8.2,154.1,9z M159,1.5
			c0.2-0.2,0.4-0.4,0.5-0.6c-0.4-0.1-0.7-0.3-1-0.5l0.2-0.3c-0.3,0-0.7,0-1,0.1c0.2,0.1,0.7,0.3,1,0.5c-0.6,0-1.2,0.1-1.7,0
			c-0.6-0.5-1.6-0.4-2.4-0.4l0-0.3c-1.3,0.1-2.5,0.1-3.8,0.4c0.3,0.1,0.7,0.1,1,0.1c0.3,0,0.6,0,0.9,0l-0.1,0.3l0.3,0l0,0.2
			c-0.2,0-0.5-0.1-0.7-0.1c-0.6,0.1-1.2,0.1-1.6-0.4c0.1,0.9-1,0.4-1.4,0.9c-0.4-0.7-1.2-0.2-1.8-0.2l-0.1-0.2c0.2,0,0.5,0,0.6,0
			l0-0.3c0.6,0,1.3,0.1,1.8-0.3c-1.1,0.1-2.2,0.3-3.2,0.6c0.2,0.3,0.4,0.7,0.6,1c0.1-0.1,0.3-0.2,0.4-0.3c0.1,0.2,0.3,0.3,0.6,0.3
			l0,0.1c0.2,0,0.5-0.1,0.7-0.1c-0.2,0.3-0.4,0.6-0.6,0.8l-0.2-0.7c-0.4,0.1-0.6,0.3-0.8,0.7c1.1-0.1,2.1,0.1,3.2,0.4
			c0-0.4,0.1-0.7,0.2-1l0,0.6l0.5-0.2c-0.3,0.2-0.5,0.4-0.7,0.7c0.4-0.1,0.7-0.2,1-0.4c1.1,0.4,2.3-0.1,3.4,0
			c-0.5-0.3-0.9-0.5-1.4-0.8c0.2,0,0.7,0.1,1,0.1c0.4-0.3,0.8-0.3,1.2-0.3c-0.2,0.3-0.4,0.6-0.6,0.9c0.2,0,0.4,0,0.5,0
			c-0.8-0.4,0.3-0.6,0.5-0.8c0,0.2-0.1,0.5-0.2,0.6c0.4,0.1,0.8,0.2,1.3,0.2c0-0.2,0-0.6,0-0.8c0.2,0.1,0.5,0.2,0.6,0.3
			c0.1-0.2,0.1-0.5,0.2-0.7c0.4-0.2,0.9-0.3,1.3-0.3C159.4,1.7,159.1,1.6,159,1.5z M154.7,0.6c-0.3,0.2-0.9,0.1-1.1-0.2
			C153.8,0,154.6,0.3,154.7,0.6z M153.7,2.2c-0.3,0.3-0.6,0.7-0.9,0.2c-1-0.6-2.1,0.1-3.2,0c0,0.2,0.1,0.5,0.1,0.6l0,0
			c-0.1-0.3-0.3-0.6-0.5-0.8c0.3-0.4,0.8-0.7,1.2-0.9c-0.1,0.2-0.2,0.6-0.3,0.9c0.4-0.1,0.6-0.4,0.4-0.8l0.2-0.2
			c0,0.3,0.1,0.6,0.3,0.8l0-0.5c0.2,0,0.7,0,1,0l-0.2,0.3c0.9,0.1,1.8-0.3,2.8-0.1c-0.1-0.7,1-0.4,0.9,0.1
			C155,2.1,154.4,2.2,153.7,2.2z M157.6,2l0.2,0.2c-0.5,0-0.9,0.5-1.4,0.6c0.2-0.2,0.6-0.5,0.8-0.6c-0.5-0.2-0.9-0.1-1.4-0.1
			c0-0.5,0.3-0.7,0.8-0.5c0-0.3,0.1-0.6,0.4-0.8c0,0.2-0.1,0.6-0.1,0.8c0.4-0.2,0.9-0.3,1.3-0.5c-0.5,0.9,0.3,0.3,0.7,0.2l0.2,0.3
			C158.5,1.8,158.1,1.9,157.6,2z M149,9.7c-0.2-0.4-0.4-0.2-0.6-0.1c-0.3-0.1-0.5,0.1-0.6,0.4c-0.4-0.3-0.8-0.2-1.1,0.1
			c-0.4,0.1-0.8,0.3-1.2,0.5l0-0.2c-0.4,0.2-0.8,0.4-1.2,0.5c-0.1,0.1-0.2,0.4-0.2,0.6c1.3-0.6,2.7-1,4.1-1.5
			c0.8-0.1,1.5-0.4,2.3-0.6c0.5,0,1.3,0.1,1.5-0.5c-0.7,0-1.3,0.4-2,0.3C149.6,9.2,149.3,9.5,149,9.7z M190,52.3
			c0-0.2,0-0.5-0.2-0.6c0-0.4,0-0.9-0.1-1.3c-0.2,0-0.5-0.1-0.7-0.1c0,0.2,0.1,0.5,0.1,0.6l-0.1,0c0-0.7,0.1-1.3,0-2
			c-0.5,0.8-0.7,1.8-1.1,2.6c0.2,0.3,0.4,0.7,0.5,1.1c-0.3-0.2-0.5-0.6-0.7-0.9c-0.3,1.2-1.1,2.1-1.5,3.2h0.4c0,0,0.1-0.1,0.1-0.1
			c0,0,0,0-0.1,0.1h3.1c0.2-0.4,0.4-0.8,0.6-1.2C190.8,53.4,190.8,52.3,190,52.3z M182.1,14.4c-0.1,0-0.3,0-0.4-0.1l-0.1,0.2
			C181.7,14.8,182.3,14.7,182.1,14.4z M174.9,5.8C174.9,5.8,174.9,5.8,174.9,5.8C174.9,5.8,174.9,5.8,174.9,5.8L174.9,5.8z
			 M193.6,37.6c0.1-0.2,0.2-0.5,0.4-0.7c-0.4-0.1-0.7-0.4-1-0.7c0.2,0.1,0.6,0.3,0.8,0.4c-0.1-0.5-0.1-1-0.3-1.5
			c0.4-0.4,0.4-1.1-0.1-1.5c0.1-0.9,0.1-1.7-0.1-2.6c-0.1,0-0.2-0.1-0.3-0.2c0.3-0.5,0.1-1,0-1.5c-0.1-0.1-0.3-0.2-0.4-0.3
			c0.2-0.4,0.2-0.8,0-1.2c0,0.2-0.1,0.6-0.2,0.8c-0.1-0.2-0.3-0.5-0.4-0.7l0.4,0.1c0-0.5,0-0.9-0.3-1.3c-0.2,0.1-0.4,0.3-0.6,0.4
			c-0.4-0.2-0.8-0.3-1.2-0.5c0.2,0,0.4,0,0.6,0c0.1-0.5-0.3-1-0.5-1.5c-0.3,0-0.6,0.1-0.9,0.1c0-0.1,0-0.3,0-0.4
			c0.5,0.3,0.9-0.1,1.4-0.3c-0.3-0.3-0.6-0.7-0.9-1c0.2-0.1,0.6-0.2,0.9-0.3c-0.1,0.3-0.1,0.6-0.1,0.9c0.1-0.2,0.3-0.4,0.4-0.6
			c-0.7-1.1-1.1-2.4-1.8-3.6l-0.1,0.5c-0.1,0-0.4-0.1-0.5-0.1c0.2-0.2,0.3-0.4,0.5-0.6c-1.9-3.4-4.2-6.5-7.1-9.2
			c-0.8-0.8-1.6-1.4-2.4-2.1c0.3,0.7,0.2,1.3-0.3,1.9c0.1-0.1,0.4-0.4,0.6-0.5c0,0.3,0,0.8-0.1,1.1c-0.2-0.1-0.6-0.2-0.8-0.3
			c0,0.5,0.5,0.4,0.8,0.6c0,0.8-0.1,1.6,0.5,2.3c0.1-0.2,0.3-0.7,0.5-0.9c0,0.6-0.2,1.1,0.2,1.7c0-0.1,0.1-0.4,0.1-0.6
			c0.2,0.1,0.4,0.2,0.7,0.3c-0.3-0.5,0.4-1.6,0.8-0.7c-0.1,0.1-0.3,0.4-0.4,0.5c0.1,0.2,0.3,0.4,0.4,0.6c-0.3,0.2-0.5,0.4-0.8,0.6
			c0.2,0.1,0.5,0.3,0.7,0.4c0.1,0.4,0.4,0.8,0.7,1.1c0.6,0.7,1.1,1.6,1.7,2.3c0.4,0.8,0.9,1.6,1.3,2.4c0.3-0.3,0.6-0.7,0.9-1
			c-0.1,0.6-1.3,0.9-0.5,1.4c0.5,1.4,1.4,2.7,1.7,4.2c0.1-0.3,0.2-0.5,0.3-0.8c0.2,0.2,0.4,0.5,0.6,0.7c-0.3,0-0.6,0-0.9,0.1
			c0.4,1.1,0.7,2.3,1.2,3.4c0,0.2,0,0.6,0.1,0.8c0.1-0.1,0.3-0.2,0.3-0.3c0-0.1,0.1-0.3,0.2-0.5c-0.2,0.4,0.1,0.6,0.3,0.9
			c-0.2,0-0.5-0.1-0.7-0.1c0.1,0.7,0.3,1.5,0.4,2.2c0.1,0,0.3,0,0.4,0l-0.4,0.1c0.3,0.8-0.2,2.2,0.9,2.4c0.1-0.5,0.2-0.9,0.3-1.4
			c0,0.3,0,0.6,0,0.9c0.2,0.3,0.2,0.7,0.1,1.1c-0.2,0.1-0.4,0.1-0.6,0.2c0-0.1,0-0.2,0-0.3c0.2,0,0.6,0.2,0.6-0.1
			c-0.1-0.5-0.7-0.3-1.1-0.4c0.4,2.5,0.1,5,0,7.4c0.6-0.1,1.1,0.4,1.7,0.2c-0.1,0.4-0.4,0.8-0.1,1.2l-0.3,0l0.1-0.3
			c-0.2,0-0.7-0.1-0.9-0.1c0.3,0.6,0.3,1.2,0.3,1.9c-0.1-0.5,0-1-0.4-1.4l0.2,0.1c-0.2-0.2-0.3-0.3-0.5-0.4c0.3-0.1,0.8-0.4,1-0.6
			c-0.4-0.2-0.8-0.3-1.2-0.4c-0.1,0.9-0.3,1.7-0.2,2.6c-0.1,0.4-0.3,0.8-0.5,1.2c0.3,0.1,0.6,0.2,0.8,0.4c-0.3-0.1-0.6-0.2-0.9-0.3
			c0,0.8-0.3,1.5-0.5,2.2c-0.1,0.5,0.3,1,0.7,1.2c-0.3,0.2-0.5,0.4-0.8,0.7c0.2,0,0.7,0,0.9,0l0-0.3l0.2,0c-0.1,0.1-0.2,0.4-0.3,0.6
			c0.2,0.4,0.5,0.8,0.7,1.2c0.2,0,0.5,0,0.6,0c0.3-0.4,0.6-0.9,0.7-1.4c0.6-1.6,1-3.2,1.4-4.9c-0.2-0.1-0.4-0.3-0.6-0.4
			c0.2,0,0.5,0,0.7,0c0.2-0.7,0-1.5,0.3-2.2c0.3-1.7,0.4-3.5,0.3-5.3L193.6,37.6z M182.1,12.4c-0.1-0.1-0.3-0.2-0.4-0.2
			c-0.1,0.4-0.1,0.7-0.2,1.1c-0.1-0.6,0.1-1.1,0.1-1.7l-0.1-0.1c0-0.1-0.1-0.4-0.1-0.5l0.2,0.1l0.2,0.1c0.1,0,0.3,0.1,0.4,0.2
			C182.1,11.7,182.1,12.1,182.1,12.4z M183.8,15.5c-0.1-0.1-0.4-0.3-0.5-0.4c0,0.2,0,0.5-0.1,0.6c0-0.4-0.1-0.7-0.1-1.1
			C183.5,14.5,184.1,15,183.8,15.5z M184.1,14.1c-0.2-0.3-0.2-0.5,0.1-0.6C184.5,13.8,184.4,14,184.1,14.1z M186.4,20.1
			c-0.4,0.1-0.4-0.7,0-0.6C186.4,19.7,186.4,20,186.4,20.1z M186.3,19.3c-0.2-0.5-0.2-1.1,0.4-1.4C186.6,18.3,186.5,18.8,186.3,19.3
			z M188,18.2c0,0.2-0.1,0.5-0.2,0.6c-0.1,0.3-0.1,0.5-0.2,0.8c0.3,0.2,0.5,0.4,0.8,0.6c-0.3,0-0.6-0.1-0.9-0.1
			C187.4,19.4,187.4,18.7,188,18.2z M188.4,23.6c-0.4,0.1-0.5-0.1-0.5-0.5C188.4,23.1,188.5,23.2,188.4,23.6z M189.4,20.8
			c0.3,0.1,0.4,0.2,0.2,0.5C189.3,21.3,189.2,21.1,189.4,20.8z M189.6,23.4c0.4-0.1,0.5,0,0.4,0.4C189.6,23.9,189.4,23.8,189.6,23.4
			z M190.8,31.7c-0.1,0-0.3-0.1-0.4-0.1c0.1-0.1,0.2-0.4,0.3-0.5l0.4,0.2c0-0.6-0.1-1.2,0.1-1.7c-0.7,0.1,0.2-0.7-0.1-1l0.3-0.1
			c-0.2-0.2-0.3-0.3-0.5-0.5c0.6-0.1,0.8,0.5,1,0.9l-0.3,0.1c-0.1,0.5-0.4,1.1-0.2,1.6c0.1,0.2,0,0.4-0.1,0.6l0.4,0
			C191.2,31.4,191,31.5,190.8,31.7z M192,31.4c0.1-0.5,0.1-0.9-0.5-1l0.1-0.3c0.3,0.2,0.5,0.3,0.8,0.5
			C192.3,30.9,192.2,31.2,192,31.4z M193.2,41.2c-0.3-0.1-0.4-0.2-0.2-0.5C193.4,40.7,193.5,40.9,193.2,41.2z M136.3,16.2
			c0.2,0.3,0.4,0.3,0.7-0.1C136.7,15.8,136.5,15.8,136.3,16.2z M182,25.4c0.5,1.2,1,2.4,1.4,3.6c0.2,0.1,0.4,0.2,0.6,0.3
			c-0.5-1.6-1.1-3.2-1.9-4.7c-0.4-0.8-0.8-1.5-1.2-2.2C180.9,23.5,181.5,24.5,182,25.4z M185.1,35.5c0-2.1-0.5-4.2-1.1-6.2
			c-0.1,0-0.4-0.1-0.6-0.1c0.1,0.3,0.2,0.6,0.3,0.9c0.2,1.1,0.5,2.1,0.6,3.1c0.1,0,0.3-0.1,0.4-0.2c-0.2,1.8,0,3.7,0.1,5.5
			c-0.2,0.5,0,1.1,0,1.6c-0.3,0.4-0.4,0.8,0.2,0.9c0.1-0.8,0.2-1.6,0.1-2.4C185.4,37.6,185.2,36.6,185.1,35.5z M184.7,42.1
			c0,0.1,0.1,0.3,0.1,0.4l-0.4-0.2c-0.6,3.8-1.9,7.4-4,10.6c-0.2,0.3-0.4,0.7-0.4,1.1l-0.2-0.2c-0.2,0.3-0.5,0.7-0.8,1h0.6
			c2.2-3,3.9-6.5,4.8-10.2c0.1-0.4-0.1-0.8-0.2-1.2c0.1,0.1,0.3,0.2,0.5,0.3c0.1-1,0.6-2.1,0-3C184.6,41.3,184.7,41.7,184.7,42.1z
			 M179.2,12c0.1,0,0.4-0.1,0.5-0.1c0,0.2,0.1,0.7,0.1,0.9c0.1-0.4,0.1-0.8,0.2-1.2c-0.1,0-0.4,0.1-0.5,0.1
			c-0.4-0.6-0.2-1.4-0.6-1.9l0.4,0c0-0.5-0.2-0.9-0.6-1.2c0.2,0,0.5,0,0.6,0c-0.3-0.5-0.5-1.1-1-1.5c-0.3-0.2-0.6-0.4-0.9-0.6
			c-0.4,0.1-0.9,0.3-1.3,0c0.2-0.1,0.7-0.2,0.9-0.3c-0.4-0.3-0.7-0.7-1.2-0.6c0.2,0.1,0.5,0.2,0.7,0.3c-0.3,0.2-0.5,0.3-0.8,0.5
			c-0.3-0.3-0.3-0.6-0.1-0.8l-0.6,0.2c0,0.1,0,0.1,0,0.2c-0.3-0.1-0.8-0.3-1-0.4c0,0,0-0.1-0.1-0.2l0.4,0.2c-0.3-1,0.6-0.5,0.7,0.1
			c0-0.1,0.1-0.3,0.1-0.5l0.3,0.2l0.1-0.2c-0.5-0.2-0.9-0.5-1.3-0.8c0,0.1-0.1,0.4-0.2,0.5c-0.1-0.2-0.3-0.7-0.4-0.9
			c-0.1,0.1-0.3,0.4-0.4,0.5c0-0.1,0.1-0.4,0.1-0.6c-0.6-0.3-1.2-0.5-1.7-0.8c-0.5,0.2-0.9,0.4-1.4,0.7c0.3,0,0.8,0,1.1,0
			c0,0.1-0.1,0.4-0.1,0.6c-0.1-0.1-0.3-0.2-0.4-0.3c0,0.1-0.1,0.3-0.1,0.4c0.3,0.1,0.7,0.1,1.1,0.1l-0.3-0.5
			c0.3-0.1,0.5-0.2,0.8-0.3c0.5,0.7-0.4,0.9-1,1.1c-0.1,0.3-0.2,0.6-0.3,1c0.4,0,0.9-0.1,1.3-0.1c0.2,0,0.4,0,0.6,0
			c-0.2,0.2-0.4,0.4-0.6,0.6c-0.5,0-1.1,0-1.6,0c1,0.5,2,1,3,1.6c0.1-0.1,0.3-0.2,0.4-0.2c-0.1,0.5,0.1,0.7,0.6,0.8
			c0-0.2-0.1-0.7-0.1-0.9l0.4,0.6c0.3,0,0.6,0,0.8-0.1c0.1,0.2,0.2,0.5,0.2,0.7c-0.4-0.1-0.9-0.2-1.3-0.3c0.4,0.4,0.9,0.4,1.4,0.5
			c-0.1,0.1-0.2,0.3-0.2,0.5c0.3,0.1,0.6,0.1,0.9,0.1l-0.2,0.3C177.5,10.6,178.3,11.3,179.2,12z M178.7,10.5c-0.3,0-0.4-0.1-0.3-0.4
			C178.7,10,178.8,10.1,178.7,10.5z M176,8.8c0.4-0.1,0.9-0.2,1.3-0.4l-0.4-0.2c0.3-0.6-0.4-0.7-0.7-0.8c-0.4-0.2-0.9-0.1-1.3,0
			l0.1-0.3c-0.3-0.1-0.6-0.2-0.9-0.4c0.8,0,1.6,0,2.4,0.3c0.1,0.1,0.3,0.3,0.4,0.4c0.7-0.2,1.8-0.1,1.8,0.8c-0.2,0-0.7-0.1-0.9-0.1
			l0.4-0.3c-0.3,0-0.8,0-1.1,0l0,0.4l0.3-0.1c-0.1,0.3-0.2,0.6-0.3,0.8C176.7,8.9,176.4,8.8,176,8.8z M177.4,17.8
			c0,0.2-0.1,0.5-0.1,0.7c0.3,0.3,0.7,0.6,1.1,0.9c0.1,0,0.3-0.2,0.3-0.2C177.8,19.3,177.8,18.2,177.4,17.8z M179.6,21.5
			c0.3,0.4,0.5,0.7,0.7,1.1c0-0.5,0.1-1.1-0.3-1.5l-0.2-0.1c-0.3-0.3-0.4-0.9-0.9-0.9c-0.2,0.5,0.4,0.9,0.5,1.3L179.6,21.5z
			 M126.7,34.7c0.2,0.1,0.3,0.2,0.5,0.2c0-1.1,0.2-2.1,0.5-3.2c-0.1,0-0.4,0-0.5,0C127.1,32.8,126.8,33.8,126.7,34.7z M81.7,46
			c-1.5-0.8-3.2-1.4-4.7-2.2c-5.2-2.6-9.5-6.4-14-9.9c-0.4-0.5-1,0.1-1.5,0.2c1.8,1.2,3.5,2.5,5.1,4c0.5,0.5,1.1,0.9,1.8,1.2
			c0.3,0.2,0.5,0.5,0.8,0.7c0.7,0.4,1.5,1.7,2.5,1.2c0,0.1-0.1,0.4-0.1,0.5c1,0.8,2.2,1.4,3.4,2c0.9,0.7,1.9,1.2,3,1.5
			c1.5,1.1,3.4,1.6,5.1,2.3C83.7,46.4,82.5,46.2,81.7,46z M76.3,55h1.5c-0.6-0.3-1.2-0.6-1.7-0.9C76.1,54.3,76.2,54.7,76.3,55z
			 M124.3,55h0.4c-0.1-0.1-0.3-0.2-0.5-0.1C124.3,54.9,124.3,55,124.3,55z M85.4,47.2c-0.5-0.2-1.6-0.5-1.5,0.3
			c2.9,1.5,6.4,1.7,9.6,2.2l-0.1-0.6c1.7,1.6,4.3-0.1,6.3,0.7c0-0.3,0.1-0.9,0.1-1.2c-0.6,0.1-1.2,0.2-1.8,0.2
			C93.7,48.9,89.4,48.5,85.4,47.2z M64.6,45.9c-0.5-0.3-0.8-0.9-1.5-0.8l0.1-0.4l-0.5,0.2c-0.1-0.1-0.2-0.4-0.2-0.5
			c-0.1,0.2-0.4,0.7-0.6,0.9l0.9-0.3l-0.5,0.7l1-0.4c0,0.2-0.1,0.5-0.1,0.7c1,0.8,1.9,1.7,3,2.2c0,0.1,0.1,0.2,0.1,0.3
			c2.3,1.8,4.6,3.8,7.4,5.1c0.5,0.6,1.3,0.9,2,1.3H76c0-0.3,0-0.8,0-1C71.8,51.7,68.2,48.8,64.6,45.9z M104.4,48.2
			c-1.4,0-2.9,0.3-4.3,0.4c0,0.2,0,0.7,0,0.9c4.5-0.4,8.9-1.6,13-3.4c0.8-0.1,0.8-0.8,0.8-1.4c-0.7,0.4-1.5,0.7-2.3,1
			C109.3,46.8,106.8,47.4,104.4,48.2z M49.9,49.4c0.2,0.1,0.7,0.2,0.9,0.3c0.2,0.1,0.7,0.3,1,0.4c0-0.3,0-0.8,0-1.1
			C51.2,48.9,49.8,48.3,49.9,49.4z M49.1,48.6c0.2-0.7-0.1-1.2-1.1-0.7l-0.1-0.3c-0.6-0.2-1.2-0.1-1.7,0.2l0.2-0.6
			c-0.5,0-1,0-1.5,0.1l0-0.6l-0.4,0c0,0.1,0,0.4,0.1,0.6l-0.9-0.1c0-0.2,0.1-0.6,0.1-0.8c-0.2,0.2-0.6,0.6-0.8,0.7
			c0.4-1.2-2.6-1.6-2.2-0.2c0.8,0.2,1.7,0.3,2.6,0.3l0.1,0.2c0.5,0,1,0.1,1.5,0.1c1.5,0.7,3.3,1,4.9,1.7c0.1-0.2,0.3-0.6,0.4-0.9
			C49.8,48.5,49.3,48.5,49.1,48.6z M53.4,50c0,0.2,0,0.7,0,1c0.6,0.2,1.1,0.4,1.6,0.6c1.9,1,3.8,2.2,5.6,3.4h1.7
			c-0.5-0.3-1-0.7-1.4-1C58.4,52.5,56.1,50.9,53.4,50z M52.1,50.5c0.4,0,0.7-0.2,0.8-0.6c-0.1-0.1-0.3-0.2-0.4-0.3
			C52,49.8,51.9,50.1,52.1,50.5z M129.4,14.7l-0.1,0.2C129.4,15.5,129.9,14.6,129.4,14.7z M127.5,45.4l0.4-0.3
			c-0.2-0.5,0-1.4-0.8-1.4C127.2,44.2,127.4,44.8,127.5,45.4z M35.1,46.2l0.2-0.5c-0.7,0-1.4,0-2.2,0c-0.2,1.3,0.8,1.2,0.6,0.1
			l0.3,0.1l0.1,0.5c1.9,0.1,3.9,0.2,5.8,0.5c0-0.2,0-0.7,0-0.9c-0.9-0.2-1.8-0.3-2.7-0.3C36.9,46.3,35.8,45.8,35.1,46.2z
			 M122.4,49.1c0.6,0.3,0.6-0.5,0.3-0.8C122.3,48.3,122,48.9,122.4,49.1z M134.8,17.7c-0.1,0.2-0.4,0.5-0.5,0.6
			c0.5-0.1,0.9-0.6,1.1-1c-0.1,0.1-0.3,0.3-0.4,0.4C135,17.7,134.9,17.7,134.8,17.7z M132.2,20.6c0,0.1,0.1,0.4,0.1,0.5
			c-0.1,0-0.4,0-0.5,0c0.1,0.1,0.2,0.2,0.2,0.2c0.1,0.4-0.4,0.5-0.7,0.6c0.3,0,0.5,0,0.8,0c0-1.1,1.4-1.5,1.1-2.7
			C132.9,19.7,132.5,20.1,132.2,20.6z M135.5,17c0.1,0.1,0.3,0.2,0.4,0.3c0.2-0.2,0.4-0.5,0.5-0.7c-0.1,0-0.4-0.1-0.6-0.1
			C135.7,16.6,135.6,16.8,135.5,17z M120.1,50.8c0.3,0.4,0.3,1.1,0.9,1C120.8,51.4,120.8,50.6,120.1,50.8z M130.6,51.6
			c-0.3-0.4-0.4-1-0.9-1.2c-0.1-1-0.7-1.8-1-2.8c-0.1-0.3-0.2-0.7-0.3-1c0,0,0,0,0,0c0,0-0.1-0.1-0.1-0.1c-0.1-0.3-0.3-0.6-0.6-0.7
			c0.1-0.1,0.3-0.4,0.4-0.6c-0.1,0.1-0.4,0.2-0.5,0.2c0,0.2,0.1,0.3,0.1,0.5c-1.1,1.3-2.6,2.3-3.7,3.6c-0.3,0.1-0.5,0.3-0.8,0.4
			c-0.1-0.1-0.1-0.3-0.2-0.4c-0.3,0-0.6,0-0.9-0.2c-0.3,0.1-0.6,0.1-0.9,0.2c-0.3-0.2-1-0.3-0.7-0.8c0.4-0.2,0.8,0.1,1.2,0.1
			c0.4-0.2,0.2-0.7-0.1-0.9c0.2,0,0.5,0,0.7,0c0-0.3,0-0.6-0.2-0.8c-0.1-0.1-0.3-0.3-0.5-0.4l0.4-0.1c0-0.2-0.1-0.5-0.1-0.6
			c-0.1,0-0.4,0.1-0.5,0.1l0-0.3l-0.3,0.1l-0.1-0.1c0.3,0.1,0.6,0,0.8-0.2c-0.3-0.1-0.7-0.2-1-0.3c0.1-0.1,0.2-0.2,0.3-0.2
			c0.1,0,0.4,0.1,0.5,0.2c-0.2-1.1-0.4-2.3-0.6-3.4c0-0.1-0.1-0.1-0.1-0.2c0.2-0.1,0.4-0.2,0.4-0.4c1-0.5,1.9-1.4,2.7-2.2
			c0.8-0.5,1.5-1,2.1-1.6c0,0.3,0,0.6,0,0.9l0,0c0.1-0.1,0.3-0.2,0.5-0.3c-0.1,0.2-0.2,0.5-0.2,0.7c0,0.1-0.1,0.4-0.2,0.6
			c0,0.2,0,0.4,0,0.6c0.1,0,0.3,0,0.4,0c-0.1,0.3-0.1,0.6-0.1,0.8c0,0.5,0,1,0.1,1.5c0.1,0.4,0.1,1,0.6,0.9c-0.1-0.3-0.2-0.8-0.2-1
			c0.1-1-0.2-2-0.2-3.1c-0.1-0.7,0-1.5,0-2.2c0.4-0.4,0.9-0.9,1.2-1.4c-0.2-0.2-0.5-0.4-0.7-0.6c-0.2,0.2-0.4,0.4-0.6,0.6
			c0-0.1,0-0.2-0.1-0.3l-0.1,0c0,0.1,0,0.3,0,0.4c-1.7,1.6-3.5,3.2-5.4,4.6c0,0,0,0,0,0c0,0,0,0-0.1,0c-0.2,0.1-0.4,0.3-0.6,0.4
			c0-0.1-0.1-0.3,0.1-0.4c0.1,0,0.2,0.1,0.3,0.1c0.1,0,0.1-0.1,0.2-0.1c0,0,0,0,0.1,0c-0.2-0.1-0.7-0.2-0.9-0.2
			c0.1-0.4,0.4-0.5,0.8-0.6c-0.1,0-0.3-0.1-0.4-0.2c0.1-0.7,0.2-1.4,0.3-2l-0.5,0l0.1,0.5c-0.1-0.1-0.2-0.4-0.2-0.5
			c-0.4,0.4-1.5,0.6-1,1.4h-0.2c0-0.1,0-0.4,0-0.5c-0.6,0.4-1.5,0.6-1.4,1.5c0.3-0.2,0.5-0.3,0.8-0.5c0.2,0.1,0.5,0.2,0.6,0.3
			c0.2-0.1,0.2-0.3,0.1-0.5c0.2,0.1,0.4,0.3,0.5,0.4c0.1-0.2,0.2-0.5,0.3-0.6c0.1,0.2,0.3,0.6,0.4,0.8c-0.5-0.1-0.6,0.1-0.4,0.5
			c-0.1,0-0.3-0.1-0.5-0.2l0.1-0.3c-0.4,0-0.7,0.1-1.1-0.1c-0.2,0-0.6,0.1-0.8,0.2c0.1,0.1,0.4,0.4,0.5,0.5c-0.2,0-0.5-0.1-0.6-0.2
			l0,0.8c0.1-0.1,0.3-0.2,0.4-0.2c0.2,0.3,0.5,0.7,0.9,0.4c0.2,0.1,0.5,0.3,0.7,0.4c0,0,0,0,0.1,0c-0.1,0.1-0.2,0.1-0.2,0.2
			c-0.3-0.1-0.6-0.2-0.9-0.2c0.1,0.2,0.3,0.4,0.4,0.6c-0.1,0.1-0.2,0.1-0.3,0.2c0,0-0.1,0-0.1,0c-0.2-0.3-0.3-0.6-0.4-1
			c-0.1,0-0.4,0-0.6,0c0.1,0.5,0.1,1,0.2,1.5c-0.1,0.1-0.2,0.2-0.2,0.3c-0.7,0.2-1.7,0.5-1.3,1.3c-0.7-0.3-2.6,0.1-2,1
			c-0.1,0.1-0.4,0.5-0.6,0.6c0.5-0.3,1.8-0.3,1.6-1.1l0.5,0.2l-0.1-0.5c0.8-0.1,1.5-0.3,2.1-0.8c0,0.1,0,0.3,0.1,0.4
			c0.1-0.1,0.3-0.2,0.5-0.2c0-0.2-0.1-0.3-0.1-0.5c0,0,0.1,0,0.1-0.1c0.3,0.6,0.7,1.3,1.4,1.6c0.2-0.1,0.4-0.3,0.6-0.4
			c0.2,0.1,0.5,0.2,0.7,0.3c-0.5-0.2-0.9,0-1.1,0.4c-0.2-0.2-0.4-0.2-0.7-0.2c-0.4-0.1-0.4-0.7-0.8-0.9c-0.1,0.1-0.4,0.2-0.6,0.2
			c0.1,0.1,0.4,0.4,0.5,0.5l-0.4-0.2c0.2,0.6,0.2,1.4,0.7,1.9c0.1,0,0.3,0,0.3,0l-0.1-0.5l0.2,0c0,0.2,0,0.5,0,0.7
			c-0.1,0-0.3,0-0.5,0l-0.2,0.1c0.1,0.2,0.3,0.5,0.4,0.7c0,0.6,0.2,1.1,0.3,1.6c0.2,0,0.5,0,0.7-0.1c0-0.2,0.1-0.6,0.2-0.8
			c-0.2,0-0.5,0.1-0.6,0.2l0-0.1c0.3-0.1,0.7-0.2,1-0.3c-0.1,0.1-0.2,0.3-0.3,0.4c0,0.6-0.2,1.2-1,0.9c0.2,0.5,0.3,1.1,0.7,1.5
			c0-0.3,0-0.9,0-1.3c0.4,0.1,0.7,0.2,1,0.4c-0.2,0-0.6,0-0.8,0c0.1,0.2,0.3,0.4,0.5,0.6l-0.2,0.4l0.4-0.3c-0.1,0.4-0.2,0.7-0.3,1.1
			c0.1,0,0.4,0,0.6-0.1c0,0,0,0,0,0c0,0,0.1,0,0.1,0l0.4,0.2c-0.1-0.1-0.1-0.2-0.2-0.3c0.3-0.1,0.7-0.1,1-0.2c0,0,0,0,0,0
			c0,0,0.1,0,0.1,0c0.2,0,0.6-0.1,0.8-0.1c-0.1-0.1-0.1-0.2-0.1-0.3c0.9-0.5,1.9-1,2.1-1.9c1-0.2,1.7-1.1,2.3-1.8
			c0.2,0.6,0.4,1.2,0.6,1.7c0.5,0,0.7,0.3,0.3,0.7c0.1,0.3,0.3,0.6,0.5,0.9c0.3,0.9,0.8,1.6,1.2,2.5l0.3-0.1c0,0.4,0.1,0.8,0.4,1.2
			c0.3,0.4,0.5,0.8,0.8,1.2h0.6c-0.4-0.6-0.9-1.2-1.4-1.7C131.3,52.7,130.9,52.2,130.6,51.6z M126.8,37.1c0.1,0.3,0.1,0.6,0,0.9
			c-0.1-0.1-0.2-0.4-0.3-0.6C126.7,37.2,126.7,37.1,126.8,37.1z M119.9,42.4C119.9,42.4,119.9,42.4,119.9,42.4
			C120,42.4,120,42.4,119.9,42.4C120,42.4,119.9,42.4,119.9,42.4z M119.8,46.6c0.3-0.1,0.6-0.6,0.9,0.2c0-0.2,0-0.3,0-0.5l0-0.2
			c0.2-0.4,0.3,0.5,0.4,0.6c0.2,0.2,0.6,0.1,0.7,0.5C121.1,47,120.5,46.8,119.8,46.6z M121.8,51.2c0-0.1,0.1-0.1,0.2-0.1
			C121.9,51.1,121.9,51.2,121.8,51.2z M122.6,50.5c0,0-0.1,0-0.1,0c-0.3,0.1-0.6,0.2-0.9,0.3c0.1-0.4,0.1-0.8,0.2-1.1
			C121.7,50.4,122.3,50.3,122.6,50.5C122.7,50.5,122.7,50.5,122.6,50.5z M128.2,28.5c-0.5,1-0.8,2.1-1,3.2c0.1-0.1,0.4-0.2,0.5-0.2
			c0.2-1.1,0.7-2.1,0.7-3.2c0.7-0.9,0.9-2,1.5-3c0.3-0.7,0.9-1.4,0.9-2.2c0.1,0,0.3-0.1,0.4-0.1l0-0.2c0.2-0.2,0.4-0.4,0.6-0.6
			c-0.3,0-0.5,0.1-0.8,0.2c-1,1.7-2,3.5-2.6,5.4C128.3,28,128.2,28.3,128.2,28.5z M122.1,51.9c-0.4,0.1-0.9,0.6-1.3,0.3
			c0.1,0.1,0.1,0.3,0.2,0.4c-0.7,0.1-1.1,0.5-1.5,1c-0.3,0-0.8,0-1,0l0.1,0.3c-0.7,0-1.9,0.4-2,1.1h0.5c0.4-0.5,1-0.7,1.7-0.3
			l-0.9-0.6l1,0.1l0-0.5c0.2,0,0.5,0.1,0.7,0.2c0.6-0.3,1.3-0.4,1.6-1c0.2,0.4,0.4,0.8,0.6,1.1c0.1,0.4,0.3,0.7,0.4,1h1.9
			c-0.1-0.2-0.1-0.4,0-0.6c0.3,0.2,0.6,0.3,0.9,0.4c0.1,0.1,0.3,0.2,0.3,0.2c0,0,0,0,0,0h0.5c-0.6-1.1-1.2-2.1-1.6-3.2
			C123.4,51.7,122.7,51.6,122.1,51.9z M191.3,25.2c-0.1,0-0.4-0.1-0.5-0.2c0.2,0.6,0.4,1.2,0.5,1.9c0.1-0.3,0.3-0.5,0.4-0.8
			c0.1,0.1,0.3,0.5,0.4,0.2c-0.1-0.7-0.3-1.7-1-2.1C191.2,24.5,191.2,25,191.3,25.2z M190.7,52c-0.1,0.3,0,0.5,0.4,0.5
			C191.2,52.1,191.1,52,190.7,52z"/>
	</g>
</g>
</svg>
