<?xml version="1.0" encoding="UTF-8"?>
<svg width="30px" height="30px" viewBox="0 0 30 30" version="1.1" xmlns="http://www.w3.org/2000/svg" xmlns:xlink="http://www.w3.org/1999/xlink">
    <!-- Generator: Sketch 50.2 (55047) - http://www.bohemiancoding.com/sketch -->
    <title>Shape</title>
    <desc>Created with Sketch.</desc>
    <defs></defs>
    <g id="Symbols" stroke="none" stroke-width="1" fill="none" fill-rule="evenodd">
        <g id="stars" transform="translate(-120.000000, 0.000000)" fill="#DF0714" fill-rule="nonzero">
            <g id="Group-3">
                <path d="M149.951,11.525 C149.833,11.163 149.52,10.899 149.144,10.844 L139.99,9.514 L135.897,1.22 C135.56,0.537 134.44,0.537 134.103,1.22 L130.01,9.514 L120.856,10.844 C120.48,10.899 120.167,11.163 120.049,11.525 C119.931,11.887 120.029,12.284 120.302,12.55 L126.926,19.006 L125.363,28.123 C125.299,28.498 125.453,28.877 125.761,29.101 C126.07,29.325 126.478,29.353 126.814,29.177 L135,24.873 L143.187,29.177 C143.333,29.254 143.493,29.292 143.652,29.292 C143.859,29.292 144.066,29.228 144.24,29.101 C144.548,28.877 144.702,28.498 144.638,28.123 L143.075,19.006 L149.699,12.55 C149.971,12.284 150.069,11.887 149.951,11.525 Z" id="Shape"></path>
            </g>
        </g>
    </g>
</svg>