<?xml version="1.0" encoding="utf-8"?>
<!-- Generator: Adobe Illustrator 17.1.0, SVG Export Plug-In . SVG Version: 6.00 Build 0)  -->
<!DOCTYPE svg PUBLIC "-//W3C//DTD SVG 1.1//EN" "http://www.w3.org/Graphics/SVG/1.1/DTD/svg11.dtd">
<svg version="1.1" xmlns="http://www.w3.org/2000/svg" xmlns:xlink="http://www.w3.org/1999/xlink" x="0px" y="0px" width="690px"
	 height="130px" viewBox="0 0 690 130" enable-background="new 0 0 690 130" xml:space="preserve">
<g id="с_2009_года_на_Российском_рынке_1_" enable-background="new    ">
	<g id="с_2009_года_на_Российском_рынке">
		<g>
			<path fill-rule="evenodd" clip-rule="evenodd" fill="#3F4146" d="M227.9,125.5c-0.3,0.1-0.7,0.2-1.1,0.2c-0.5,0-1-0.1-1.4-0.2
				c-0.4-0.2-0.7-0.4-0.9-0.7c-0.2-0.3-0.4-0.6-0.5-1.1c-0.1-0.4-0.2-0.9-0.2-1.4c0-1.1,0.2-1.9,0.7-2.5c0.5-0.6,1.2-0.9,2.1-0.9
				c0.4,0,0.8,0,1.1,0.1c0.3,0.1,0.5,0.1,0.7,0.3l0.3-0.9c-0.2-0.1-0.5-0.2-0.9-0.3c-0.4-0.1-0.8-0.1-1.3-0.1
				c-0.6,0-1.1,0.1-1.6,0.3c-0.5,0.2-0.9,0.5-1.2,0.9c-0.3,0.4-0.6,0.8-0.8,1.4c-0.2,0.5-0.3,1.1-0.3,1.8c0,0.6,0.1,1.2,0.3,1.8
				c0.2,0.5,0.4,1,0.7,1.4c0.3,0.4,0.7,0.7,1.2,0.9c0.5,0.2,1.1,0.3,1.7,0.3c0.4,0,0.9-0.1,1.3-0.2c0.4-0.1,0.7-0.2,0.9-0.3
				l-0.2-0.9C228.4,125.4,228.2,125.4,227.9,125.5z M235.3,125.5c0-0.3,0.1-0.5,0.2-0.8c0.1-0.3,0.3-0.5,0.5-0.8
				c0.2-0.3,0.4-0.5,0.7-0.8c0.3-0.3,0.5-0.5,0.8-0.8c0.3-0.3,0.7-0.6,1-1s0.6-0.7,0.9-1c0.3-0.3,0.5-0.7,0.6-1.1
				c0.1-0.4,0.2-0.8,0.2-1.2c0-0.9-0.3-1.7-0.8-2.2s-1.4-0.8-2.4-0.8c-0.4,0-0.8,0.1-1.1,0.2c-0.3,0.1-0.6,0.2-0.9,0.4
				c-0.3,0.1-0.5,0.3-0.6,0.4c-0.2,0.1-0.3,0.3-0.3,0.3l0.5,0.7c0.1-0.1,0.2-0.2,0.3-0.3c0.1-0.1,0.3-0.2,0.5-0.3
				c0.2-0.1,0.4-0.2,0.7-0.3c0.3-0.1,0.6-0.1,0.9-0.1c0.6,0,1.1,0.2,1.5,0.5c0.4,0.3,0.6,0.9,0.6,1.6c0,0.3-0.1,0.7-0.2,0.9
				c-0.1,0.3-0.3,0.6-0.4,0.8c-0.2,0.3-0.4,0.5-0.6,0.7c-0.2,0.2-0.5,0.5-0.8,0.7c-0.3,0.3-0.7,0.6-1,1c-0.3,0.3-0.7,0.7-0.9,1.1
				c-0.3,0.4-0.5,0.8-0.7,1.2c-0.2,0.4-0.3,0.9-0.3,1.4c0,0.1,0,0.2,0,0.3c0,0.1,0,0.1,0,0.1h6.4v-0.9L235.3,125.5L235.3,125.5z
				 M245.9,115.1c-1.1,0-2,0.5-2.6,1.5c-0.6,1-0.9,2.4-0.9,4.3c0,1.9,0.3,3.3,0.9,4.3s1.5,1.5,2.6,1.5c1.1,0,2-0.5,2.6-1.5
				c0.6-1,0.9-2.4,0.9-4.3c0-1.9-0.3-3.3-0.9-4.3C247.9,115.6,247,115.1,245.9,115.1z M248.2,122.8c-0.1,0.6-0.2,1.1-0.4,1.5
				c-0.2,0.4-0.4,0.8-0.8,1.1c-0.3,0.3-0.7,0.4-1.2,0.4c-0.5,0-0.9-0.1-1.2-0.4c-0.3-0.3-0.6-0.6-0.7-1.1c-0.2-0.4-0.3-1-0.4-1.5
				c-0.1-0.6-0.1-1.2-0.1-1.8s0-1.3,0.1-1.8c0.1-0.6,0.2-1.1,0.4-1.5c0.2-0.4,0.4-0.8,0.7-1.1c0.3-0.3,0.7-0.4,1.2-0.4
				c0.5,0,0.8,0.1,1.2,0.4c0.3,0.3,0.6,0.6,0.8,1.1s0.3,1,0.4,1.5c0.1,0.6,0.1,1.2,0.1,1.8S248.3,122.2,248.2,122.8z M255.1,115.1
				c-1.1,0-2,0.5-2.6,1.5c-0.6,1-0.9,2.4-0.9,4.3c0,1.9,0.3,3.3,0.9,4.3s1.5,1.5,2.6,1.5c1.1,0,2-0.5,2.6-1.5c0.6-1,0.9-2.4,0.9-4.3
				c0-1.9-0.3-3.3-0.9-4.3C257.1,115.6,256.2,115.1,255.1,115.1z M257.4,122.8c-0.1,0.6-0.2,1.1-0.4,1.5c-0.2,0.4-0.4,0.8-0.8,1.1
				c-0.3,0.3-0.7,0.4-1.2,0.4c-0.5,0-0.9-0.1-1.2-0.4c-0.3-0.3-0.6-0.6-0.7-1.1c-0.2-0.4-0.3-1-0.4-1.5c-0.1-0.6-0.1-1.2-0.1-1.8
				s0-1.3,0.1-1.8c0.1-0.6,0.2-1.1,0.4-1.5c0.2-0.4,0.4-0.8,0.7-1.1c0.3-0.3,0.7-0.4,1.2-0.4c0.5,0,0.8,0.1,1.2,0.4
				c0.3,0.3,0.6,0.6,0.8,1.1s0.3,1,0.4,1.5c0.1,0.6,0.1,1.2,0.1,1.8S257.5,122.2,257.4,122.8z M263.9,115.1c-0.6,0-1.1,0.1-1.5,0.3
				c-0.4,0.2-0.8,0.5-1,0.8s-0.5,0.7-0.6,1.1c-0.1,0.4-0.2,0.8-0.2,1.2c0,0.4,0.1,0.9,0.2,1.3c0.1,0.4,0.3,0.8,0.6,1.1
				c0.3,0.3,0.6,0.6,1,0.7c0.4,0.2,0.9,0.3,1.5,0.3c0.5,0,0.9-0.1,1.3-0.2c0.4-0.1,0.8-0.2,1-0.4c-0.1,0.7-0.3,1.4-0.6,1.9
				c-0.3,0.5-0.6,1-1.1,1.3s-0.9,0.6-1.5,0.7c-0.6,0.2-1.2,0.2-1.9,0.2l0,0.9c2,0,3.6-0.6,4.7-1.7c1.1-1.1,1.6-2.8,1.6-5
				c0-1.5-0.3-2.6-0.9-3.4C265.9,115.5,265,115.1,263.9,115.1z M266.3,120.2c0,0.1,0,0.2,0,0.4c-0.3,0.1-0.7,0.3-1,0.4
				c-0.4,0.1-0.8,0.2-1.3,0.2c-0.7,0-1.3-0.2-1.7-0.6c-0.4-0.4-0.6-1-0.6-1.9c0-0.3,0-0.7,0.1-1c0.1-0.3,0.2-0.6,0.4-0.8
				c0.2-0.2,0.4-0.4,0.7-0.6c0.3-0.1,0.6-0.2,1-0.2c0.5,0,0.9,0.1,1.2,0.3c0.3,0.2,0.6,0.5,0.7,0.8c0.2,0.3,0.3,0.7,0.4,1.2
				c0.1,0.4,0.1,0.9,0.1,1.4C266.3,119.9,266.3,120,266.3,120.2z M273.6,126.5h1v-7.4h3.7v-0.9h-4.7V126.5z M285.9,119.2
				c-0.3-0.4-0.7-0.7-1.2-0.9c-0.5-0.2-1-0.3-1.5-0.3c-0.6,0-1.1,0.1-1.5,0.3c-0.5,0.2-0.9,0.5-1.2,0.9c-0.3,0.4-0.6,0.8-0.8,1.4
				c-0.2,0.5-0.3,1.1-0.3,1.8c0,0.7,0.1,1.2,0.3,1.8c0.2,0.5,0.4,1,0.8,1.4c0.3,0.4,0.7,0.7,1.2,0.9c0.5,0.2,1,0.3,1.5,0.3
				c0.6,0,1.1-0.1,1.5-0.3c0.5-0.2,0.9-0.5,1.2-0.9c0.3-0.4,0.6-0.8,0.8-1.4c0.2-0.5,0.3-1.1,0.3-1.8c0-0.7-0.1-1.2-0.3-1.8
				C286.5,120,286.2,119.6,285.9,119.2z M285.1,124.8c-0.5,0.6-1.1,0.9-2,0.9c-0.8,0-1.5-0.3-2-0.9c-0.5-0.6-0.7-1.4-0.7-2.5
				c0-1,0.2-1.9,0.7-2.5c0.5-0.6,1.1-0.9,2-0.9c0.8,0,1.5,0.3,2,0.9c0.5,0.6,0.7,1.4,0.7,2.5C285.8,123.4,285.6,124.2,285.1,124.8z
				 M295.5,118.2h-5.1v0.6c0,0.7,0,1.4-0.1,1.9c0,0.6-0.1,1.2-0.2,1.7c-0.1,0.5-0.3,1.1-0.5,1.6c-0.2,0.5-0.5,1-0.8,1.6H288v3.2h1
				v-2.3h6.4v2.3h1v-3.2h-0.9V118.2z M294.5,125.6H290c0.3-0.5,0.6-1,0.8-1.6c0.2-0.5,0.3-1.1,0.4-1.6c0.1-0.5,0.2-1.1,0.2-1.6
				c0-0.6,0.1-1.1,0.1-1.7h3V125.6z M303.3,118.9c-0.2-0.3-0.5-0.5-0.9-0.6c-0.4-0.2-0.8-0.2-1.4-0.2c-0.5,0-1,0-1.4,0.1
				c-0.4,0.1-0.7,0.2-0.8,0.2l0.1,0.9c0.1-0.1,0.4-0.1,0.7-0.2c0.3-0.1,0.8-0.1,1.4-0.1c0.4,0,0.8,0.1,1,0.2
				c0.3,0.1,0.5,0.3,0.6,0.5c0.1,0.2,0.2,0.5,0.3,0.7c0,0.3,0.1,0.6,0.1,0.8v0.5c0,0-0.1,0-0.2-0.1c-0.1,0-0.2-0.1-0.4-0.1
				c-0.2,0-0.3,0-0.5-0.1c-0.2,0-0.3,0-0.5,0c-0.5,0-1,0-1.4,0.1c-0.4,0.1-0.8,0.2-1.1,0.5c-0.3,0.2-0.5,0.5-0.7,0.8
				c-0.2,0.3-0.3,0.7-0.3,1.2c0,0.5,0.1,0.9,0.2,1.2c0.2,0.3,0.4,0.6,0.6,0.8s0.6,0.4,1,0.5c0.4,0.1,0.8,0.1,1.2,0.1
				c0.3,0,0.7,0,1,0c0.3,0,0.6-0.1,0.9-0.1c0.3,0,0.5-0.1,0.7-0.1c0.2,0,0.4-0.1,0.5-0.1v-5.2c0-0.4-0.1-0.8-0.2-1.2
				C303.7,119.5,303.6,119.1,303.3,118.9z M303,125.6c-0.2,0-0.5,0.1-0.8,0.1c-0.3,0-0.7,0-1.1,0c-0.3,0-0.6,0-0.9-0.1
				c-0.3-0.1-0.5-0.2-0.7-0.3c-0.2-0.1-0.3-0.3-0.4-0.5c-0.1-0.2-0.2-0.5-0.2-0.8c0-0.4,0.1-0.6,0.2-0.8c0.1-0.2,0.3-0.4,0.6-0.5
				c0.2-0.1,0.5-0.2,0.8-0.2c0.3,0,0.5-0.1,0.8-0.1c0.4,0,0.8,0,1.1,0.1c0.3,0.1,0.4,0.1,0.6,0.2V125.6z M315.9,121.7h-4.5v-3.5h-1
				v8.3h1v-3.9h4.5v3.9h1v-8.3h-1V121.7z M324.4,118.9c-0.2-0.3-0.5-0.5-0.9-0.6c-0.4-0.2-0.8-0.2-1.4-0.2c-0.5,0-1,0-1.4,0.1
				c-0.4,0.1-0.7,0.2-0.8,0.2l0.1,0.9c0.1-0.1,0.4-0.1,0.7-0.2c0.3-0.1,0.8-0.1,1.4-0.1c0.4,0,0.8,0.1,1,0.2
				c0.3,0.1,0.5,0.3,0.6,0.5c0.1,0.2,0.2,0.5,0.3,0.7c0,0.3,0.1,0.6,0.1,0.8v0.5c0,0-0.1,0-0.2-0.1c-0.1,0-0.2-0.1-0.4-0.1
				c-0.2,0-0.3,0-0.5-0.1c-0.2,0-0.3,0-0.5,0c-0.5,0-1,0-1.4,0.1c-0.4,0.1-0.8,0.2-1.1,0.5c-0.3,0.2-0.5,0.5-0.7,0.8
				c-0.2,0.3-0.3,0.7-0.3,1.2c0,0.5,0.1,0.9,0.2,1.2c0.2,0.3,0.4,0.6,0.6,0.8s0.6,0.4,1,0.5s0.8,0.1,1.2,0.1c0.3,0,0.7,0,1,0
				c0.3,0,0.6-0.1,0.9-0.1c0.3,0,0.5-0.1,0.7-0.1c0.2,0,0.4-0.1,0.5-0.1v-5.2c0-0.4-0.1-0.8-0.2-1.2
				C324.8,119.5,324.7,119.1,324.4,118.9z M324.1,125.6c-0.2,0-0.5,0.1-0.8,0.1c-0.3,0-0.7,0-1.1,0c-0.3,0-0.6,0-0.9-0.1
				c-0.3-0.1-0.5-0.2-0.7-0.3c-0.2-0.1-0.3-0.3-0.4-0.5c-0.1-0.2-0.2-0.5-0.2-0.8c0-0.4,0.1-0.6,0.2-0.8c0.1-0.2,0.3-0.4,0.6-0.5
				c0.2-0.1,0.5-0.2,0.8-0.2c0.3,0,0.5-0.1,0.8-0.1c0.4,0,0.8,0,1.1,0.1c0.3,0.1,0.4,0.1,0.6,0.2V125.6z M337.8,116.2
				c-0.8-0.6-1.9-0.9-3.5-0.9c-0.4,0-0.9,0-1.4,0.1c-0.5,0-1,0.1-1.4,0.2v10.9h1.1v-4.3h1.5c0.8,0,1.4-0.1,2-0.2
				c0.6-0.1,1.1-0.3,1.5-0.6c0.4-0.3,0.7-0.6,1-1.1c0.2-0.4,0.3-1,0.3-1.6C338.9,117.6,338.5,116.8,337.8,116.2z M337.5,120
				c-0.2,0.3-0.4,0.6-0.8,0.8c-0.3,0.2-0.7,0.3-1.2,0.4c-0.5,0.1-1,0.1-1.6,0.1h-1.4v-4.9c0.2,0,0.4,0,0.7-0.1c0.3,0,0.6,0,1,0
				c0.4,0,0.9,0,1.3,0.1c0.4,0.1,0.8,0.2,1.1,0.4c0.3,0.2,0.6,0.4,0.8,0.8c0.2,0.3,0.3,0.7,0.3,1.2
				C337.8,119.2,337.7,119.6,337.5,120z M346.8,119.2c-0.3-0.4-0.7-0.7-1.2-0.9c-0.5-0.2-1-0.3-1.5-0.3c-0.6,0-1.1,0.1-1.5,0.3
				c-0.5,0.2-0.9,0.5-1.2,0.9c-0.3,0.4-0.6,0.8-0.8,1.4c-0.2,0.5-0.3,1.1-0.3,1.8c0,0.7,0.1,1.2,0.3,1.8c0.2,0.5,0.4,1,0.8,1.4
				c0.3,0.4,0.7,0.7,1.2,0.9c0.5,0.2,1,0.3,1.5,0.3c0.6,0,1.1-0.1,1.5-0.3c0.5-0.2,0.9-0.5,1.2-0.9c0.3-0.4,0.6-0.8,0.8-1.4
				c0.2-0.5,0.3-1.1,0.3-1.8c0-0.7-0.1-1.2-0.3-1.8C347.4,120,347.2,119.6,346.8,119.2z M346.1,124.8c-0.5,0.6-1.1,0.9-2,0.9
				c-0.8,0-1.5-0.3-2-0.9c-0.5-0.6-0.7-1.4-0.7-2.5c0-1,0.2-1.9,0.7-2.5c0.5-0.6,1.1-0.9,2-0.9c0.8,0,1.5,0.3,2,0.9
				c0.5,0.6,0.7,1.4,0.7,2.5C346.8,123.4,346.6,124.2,346.1,124.8z M355,125.5c-0.3,0.1-0.7,0.2-1.1,0.2c-0.5,0-1-0.1-1.4-0.2
				c-0.4-0.2-0.7-0.4-0.9-0.7c-0.2-0.3-0.4-0.6-0.5-1.1c-0.1-0.4-0.2-0.9-0.2-1.4c0-1.1,0.2-1.9,0.7-2.5c0.5-0.6,1.2-0.9,2.1-0.9
				c0.4,0,0.8,0,1.1,0.1c0.3,0.1,0.5,0.1,0.7,0.3l0.3-0.9c-0.2-0.1-0.5-0.2-0.9-0.3c-0.4-0.1-0.8-0.1-1.3-0.1
				c-0.6,0-1.1,0.1-1.6,0.3c-0.5,0.2-0.9,0.5-1.2,0.9c-0.3,0.4-0.6,0.8-0.8,1.4c-0.2,0.5-0.3,1.1-0.3,1.8c0,0.6,0.1,1.2,0.3,1.8
				c0.2,0.5,0.4,1,0.7,1.4c0.3,0.4,0.7,0.7,1.2,0.9c0.5,0.2,1.1,0.3,1.7,0.3c0.4,0,0.9-0.1,1.3-0.2c0.4-0.1,0.7-0.2,0.9-0.3
				l-0.2-0.9C355.5,125.4,355.3,125.4,355,125.5z M362.2,125.5c-0.3,0.1-0.7,0.2-1.1,0.2c-0.5,0-1-0.1-1.4-0.2
				c-0.4-0.2-0.7-0.4-0.9-0.7c-0.2-0.3-0.4-0.6-0.5-1.1c-0.1-0.4-0.2-0.9-0.2-1.4c0-1.1,0.2-1.9,0.7-2.5c0.5-0.6,1.2-0.9,2.1-0.9
				c0.4,0,0.8,0,1.1,0.1c0.3,0.1,0.5,0.1,0.7,0.3l0.3-0.9c-0.2-0.1-0.5-0.2-0.9-0.3c-0.4-0.1-0.8-0.1-1.3-0.1
				c-0.6,0-1.1,0.1-1.6,0.3c-0.5,0.2-0.9,0.5-1.2,0.9c-0.3,0.4-0.6,0.8-0.8,1.4c-0.2,0.5-0.3,1.1-0.3,1.8c0,0.6,0.1,1.2,0.3,1.8
				c0.2,0.5,0.4,1,0.7,1.4c0.3,0.4,0.7,0.7,1.2,0.9c0.5,0.2,1.1,0.3,1.7,0.3c0.4,0,0.9-0.1,1.3-0.2c0.4-0.1,0.7-0.2,0.9-0.3
				l-0.2-0.9C362.8,125.4,362.5,125.4,362.2,125.5z M369.4,119.6c-0.4,0.6-0.9,1.2-1.3,1.8c-0.4,0.6-0.8,1.2-1.2,1.8
				c-0.4,0.6-0.7,1.1-1,1.6v-6.6h-1v8.3h1c0.3-0.5,0.6-1.1,1-1.7c0.4-0.6,0.8-1.3,1.2-1.9c0.4-0.7,0.9-1.3,1.3-1.9
				c0.4-0.6,0.8-1.1,1.1-1.5v6.9h1v-8.3h-1C370.3,118.6,369.9,119.1,369.4,119.6z M377.7,116.8c0.6,0,1.1-0.2,1.5-0.5
				c0.4-0.3,0.6-0.8,0.7-1.4l-0.8-0.2c-0.1,0.4-0.2,0.7-0.4,0.9c-0.2,0.2-0.5,0.3-0.9,0.3c-0.4,0-0.7-0.1-0.9-0.3
				c-0.2-0.2-0.4-0.5-0.4-0.9l-0.8,0.2c0.1,0.6,0.4,1.1,0.7,1.4C376.6,116.6,377.1,116.8,377.7,116.8z M378.8,119.6
				c-0.4,0.6-0.9,1.2-1.3,1.8c-0.4,0.6-0.8,1.2-1.2,1.8c-0.4,0.6-0.7,1.1-1,1.6v-6.6h-1v8.3h1c0.3-0.5,0.6-1.1,1-1.7
				c0.4-0.6,0.8-1.3,1.2-1.9c0.4-0.7,0.9-1.3,1.3-1.9c0.4-0.6,0.8-1.1,1.1-1.5v6.9h1v-8.3h-1C379.7,118.6,379.2,119.1,378.8,119.6z
				 M388.5,125.5c-0.3,0.1-0.7,0.2-1.1,0.2c-0.5,0-1-0.1-1.4-0.2c-0.4-0.2-0.7-0.4-0.9-0.7c-0.2-0.3-0.4-0.6-0.5-1.1
				c-0.1-0.4-0.2-0.9-0.2-1.4c0-1.1,0.2-1.9,0.7-2.5c0.5-0.6,1.2-0.9,2.1-0.9c0.4,0,0.8,0,1.1,0.1c0.3,0.1,0.5,0.1,0.7,0.3l0.3-0.9
				c-0.2-0.1-0.5-0.2-0.9-0.3c-0.4-0.1-0.8-0.1-1.3-0.1c-0.6,0-1.1,0.1-1.6,0.3c-0.5,0.2-0.9,0.5-1.2,0.9c-0.3,0.4-0.6,0.8-0.8,1.4
				c-0.2,0.5-0.3,1.1-0.3,1.8c0,0.6,0.1,1.2,0.3,1.8c0.2,0.5,0.4,1,0.7,1.4c0.3,0.4,0.7,0.7,1.2,0.9c0.5,0.2,1.1,0.3,1.7,0.3
				c0.4,0,0.9-0.1,1.3-0.2c0.4-0.1,0.7-0.2,0.9-0.3l-0.2-0.9C389,125.4,388.8,125.4,388.5,125.5z M395.8,124
				c-0.4-0.4-0.8-0.8-1.2-1.1c-0.4-0.3-0.8-0.6-1.2-0.9c0.3-0.2,0.6-0.5,0.9-0.8c0.3-0.3,0.7-0.7,1-1c0.4-0.4,0.7-0.7,1-1
				c0.3-0.3,0.6-0.7,0.9-0.9h-1.2c-0.2,0.2-0.4,0.5-0.7,0.8s-0.6,0.6-1,1c-0.4,0.4-0.7,0.7-1.1,1.1c-0.4,0.4-0.7,0.7-1,1v-3.8h-1
				v8.3h1v-4.1c0.3,0.2,0.7,0.4,1,0.7c0.4,0.3,0.8,0.6,1.1,1c0.4,0.4,0.7,0.8,1.1,1.2c0.3,0.4,0.6,0.8,0.9,1.2h1.2
				c-0.2-0.4-0.5-0.8-0.8-1.2C396.5,124.8,396.2,124.4,395.8,124z M405,119.2c-0.3-0.4-0.7-0.7-1.2-0.9c-0.5-0.2-1-0.3-1.5-0.3
				c-0.6,0-1.1,0.1-1.5,0.3c-0.5,0.2-0.9,0.5-1.2,0.9c-0.3,0.4-0.6,0.8-0.8,1.4c-0.2,0.5-0.3,1.1-0.3,1.8c0,0.7,0.1,1.2,0.3,1.8
				c0.2,0.5,0.4,1,0.8,1.4c0.3,0.4,0.7,0.7,1.2,0.9c0.5,0.2,1,0.3,1.5,0.3c0.6,0,1.1-0.1,1.5-0.3c0.5-0.2,0.9-0.5,1.2-0.9
				c0.3-0.4,0.6-0.8,0.8-1.4c0.2-0.5,0.3-1.1,0.3-1.8c0-0.7-0.1-1.2-0.3-1.8C405.6,120,405.3,119.6,405,119.2z M404.2,124.8
				c-0.5,0.6-1.1,0.9-2,0.9c-0.8,0-1.5-0.3-2-0.9c-0.5-0.6-0.7-1.4-0.7-2.5c0-1,0.2-1.9,0.7-2.5c0.5-0.6,1.1-0.9,2-0.9
				c0.8,0,1.5,0.3,2,0.9c0.5,0.6,0.7,1.4,0.7,2.5C404.9,123.4,404.7,124.2,404.2,124.8z M416.7,118.2h-1.1c-0.1,0.2-0.3,0.5-0.5,1
				s-0.5,0.9-0.7,1.4c-0.3,0.5-0.5,1.1-0.8,1.7c-0.3,0.6-0.6,1.2-0.9,1.9c-0.3-0.6-0.6-1.3-0.9-1.9c-0.3-0.6-0.6-1.2-0.8-1.7
				c-0.3-0.5-0.5-1-0.7-1.4s-0.4-0.7-0.5-1h-1.1c-0.2,1.3-0.3,2.7-0.4,4.1c-0.1,1.4-0.2,2.8-0.2,4.2h1c0-1.1,0.1-2.2,0.2-3.3
				c0.1-1.1,0.2-2.3,0.3-3.5c0.1,0.2,0.3,0.5,0.4,0.8c0.2,0.3,0.3,0.7,0.5,1c0.2,0.4,0.4,0.7,0.5,1.1c0.2,0.4,0.4,0.8,0.5,1.1
				c0.2,0.3,0.3,0.7,0.4,0.9c0.1,0.3,0.2,0.5,0.3,0.7h1c0.1-0.2,0.2-0.4,0.3-0.7c0.1-0.3,0.3-0.6,0.4-0.9c0.2-0.3,0.3-0.7,0.5-1.1
				c0.2-0.4,0.4-0.8,0.5-1.1c0.2-0.4,0.3-0.7,0.5-1c0.2-0.3,0.3-0.6,0.4-0.8c0.1,1.2,0.2,2.4,0.3,3.5s0.1,2.2,0.2,3.3h1
				c0-1.4-0.1-2.8-0.2-4.2C417,120.9,416.8,119.5,416.7,118.2z M429.4,119.2c-0.4-0.4-0.8-0.7-1.3-0.9c-0.5-0.2-1-0.3-1.7-0.3
				c-0.7,0-1.3,0-1.8,0.1c-0.5,0.1-0.9,0.2-1.2,0.3v10.9h1V126c0.2,0.1,0.5,0.3,0.9,0.4c0.4,0.2,0.9,0.2,1.4,0.2
				c0.6,0,1.1-0.1,1.6-0.3s0.9-0.5,1.2-0.9c0.3-0.4,0.6-0.8,0.7-1.4c0.2-0.5,0.2-1.1,0.2-1.7c0-0.7-0.1-1.3-0.3-1.8
				C430.1,120,429.8,119.6,429.4,119.2z M429.3,123.7c-0.1,0.4-0.3,0.8-0.5,1.1c-0.2,0.3-0.5,0.5-0.8,0.7c-0.3,0.2-0.8,0.3-1.3,0.3
				c-0.2,0-0.5,0-0.7-0.1c-0.2,0-0.4-0.1-0.6-0.2c-0.2-0.1-0.4-0.2-0.5-0.2c-0.1-0.1-0.3-0.2-0.4-0.2v-5.8c0.2-0.1,0.4-0.1,0.7-0.2
				c0.3,0,0.7-0.1,1.2-0.1c0.9,0,1.6,0.3,2.2,0.9c0.5,0.6,0.8,1.4,0.8,2.5C429.4,122.8,429.4,123.2,429.3,123.7z M440.8,126.5h1
				v-8.3h-1V126.5z M438.1,121.9c-0.3-0.2-0.6-0.4-1-0.5c-0.4-0.1-0.8-0.1-1.2-0.1c-0.4,0-0.7,0-1.1,0.1c-0.4,0.1-0.7,0.1-0.8,0.2
				v-3.3h-1v8.1c0.1,0.1,0.3,0.1,0.5,0.1c0.2,0,0.4,0.1,0.7,0.1c0.3,0,0.5,0.1,0.8,0.1c0.3,0,0.6,0,0.8,0c0.5,0,0.9,0,1.3-0.1
				c0.4-0.1,0.8-0.3,1.1-0.5c0.3-0.2,0.5-0.5,0.7-0.8c0.2-0.3,0.3-0.8,0.3-1.2c0-0.5-0.1-0.9-0.3-1.2
				C438.6,122.3,438.4,122.1,438.1,121.9z M437.3,125.3c-0.4,0.3-1,0.4-1.6,0.4c-0.4,0-0.8,0-1.1-0.1c-0.3,0-0.6-0.1-0.7-0.1v-3.1
				c0.3-0.1,0.6-0.2,0.9-0.2c0.3,0,0.7,0,1,0c0.3,0,0.6,0,0.8,0.1c0.3,0.1,0.5,0.2,0.7,0.3c0.2,0.1,0.4,0.3,0.5,0.6
				c0.1,0.2,0.2,0.5,0.2,0.8C438,124.6,437.8,125,437.3,125.3z M450.1,121.7h-4.5v-3.5h-1v8.3h1v-3.9h4.5v3.9h1v-8.3h-1V121.7z
				 M458.4,124c-0.4-0.4-0.8-0.8-1.2-1.1c-0.4-0.3-0.8-0.6-1.2-0.9c0.3-0.2,0.6-0.5,0.9-0.8c0.3-0.3,0.7-0.7,1-1
				c0.4-0.4,0.7-0.7,1-1c0.3-0.3,0.6-0.7,0.9-0.9h-1.2c-0.2,0.2-0.4,0.5-0.7,0.8s-0.6,0.6-1,1s-0.7,0.7-1.1,1.1
				c-0.4,0.4-0.7,0.7-1,1v-3.8h-1v8.3h1v-4.1c0.3,0.2,0.7,0.4,1,0.7c0.4,0.3,0.8,0.6,1.1,1c0.4,0.4,0.7,0.8,1.1,1.2
				c0.3,0.4,0.6,0.8,0.9,1.2h1.2c-0.2-0.4-0.5-0.8-0.8-1.2C459.1,124.8,458.8,124.4,458.4,124z M467.2,119c-0.6-0.7-1.4-1-2.4-1
				c-0.5,0-0.9,0.1-1.3,0.3c-0.4,0.2-0.8,0.4-1.2,0.8c-0.3,0.4-0.6,0.8-0.8,1.4c-0.2,0.5-0.3,1.2-0.3,1.9c0,0.6,0.1,1.2,0.2,1.7
				c0.1,0.5,0.4,1,0.7,1.4c0.3,0.4,0.8,0.7,1.3,0.9s1.1,0.3,1.9,0.3c0.6,0,1-0.1,1.4-0.2c0.4-0.1,0.7-0.2,0.8-0.3l-0.2-0.9
				c-0.1,0.1-0.4,0.2-0.7,0.3c-0.3,0.1-0.8,0.2-1.3,0.2c-1,0-1.8-0.3-2.2-0.8c-0.5-0.5-0.7-1.3-0.8-2.3h5.8c0-0.1,0-0.2,0-0.2
				c0-0.1,0-0.2,0-0.3C468.1,120.7,467.8,119.7,467.2,119z M462.3,121.7c0-0.4,0.1-0.7,0.2-1c0.1-0.3,0.3-0.6,0.5-0.9
				c0.2-0.3,0.5-0.5,0.8-0.6c0.3-0.1,0.6-0.2,1-0.2c0.7,0,1.2,0.2,1.6,0.7c0.4,0.5,0.6,1.2,0.6,2H462.3z"/>
		</g>
	</g>
</g>
<g id="Разработка_и_поддержка__интернет-систем_1_" enable-background="new    ">
	<g id="Разработка_и_поддержка__интернет-систем">
		<g>
			<path fill-rule="evenodd" clip-rule="evenodd" fill="#3F4146" d="M20.1,2.7c-2.4-1.6-5.9-2.4-10.5-2.4c-1.3,0-2.7,0.1-4.4,0.2
				C3.6,0.6,2,0.8,0.5,1.1v30.1h6.9V21h2.2c4.6,0,8.1-0.8,10.6-2.4c2.5-1.6,3.7-4.3,3.7-7.9C23.8,7,22.5,4.3,20.1,2.7z M14.9,14.2
				c-1.2,0.6-3,1-5.4,1H7.3V6.3c0.4,0,0.8-0.1,1.3-0.1c0.5,0,1,0,1.5,0c1,0,1.9,0.1,2.7,0.2c0.8,0.1,1.5,0.4,2.1,0.7
				c0.6,0.3,1,0.8,1.3,1.3c0.3,0.6,0.5,1.3,0.5,2.1C16.7,12.3,16.1,13.5,14.9,14.2z M50,14.2c-1-2.5-2-4.8-2.9-7c-1-2.2-2-4.4-3-6.5
				h-6.5c-1,2.1-2,4.3-3,6.5c-1,2.2-1.9,4.6-2.9,7s-2,5.1-3,7.9c-1,2.8-2.1,5.8-3.3,9.1h7.1c0.3-1.1,0.7-2.1,1.1-3.3
				c0.4-1.1,0.8-2.2,1.2-3.3h11.9c0.4,1.1,0.8,2.2,1.2,3.3c0.4,1.1,0.8,2.2,1.1,3.3h7.4c-1.1-3.3-2.2-6.3-3.3-9.1
				C52,19.3,51,16.7,50,14.2z M36.3,19.1c0.5-1.3,1-2.6,1.4-3.8c0.5-1.2,0.9-2.3,1.3-3.3c0.4-1,0.7-1.9,1-2.6
				c0.3-0.8,0.5-1.4,0.7-1.8c0.2,0.4,0.4,1,0.7,1.8c0.3,0.8,0.6,1.6,1,2.6c0.4,1,0.8,2.1,1.2,3.3c0.4,1.2,0.9,2.5,1.4,3.8H36.3z
				 M83.1,17.8c-0.5-0.6-1-1.2-1.6-1.6c-0.6-0.5-1.2-0.9-1.9-1.2c1.2-0.8,2.1-1.7,2.8-2.8c0.6-1.1,0.9-2.2,0.9-3.3
				c0-1.5-0.3-2.8-0.9-3.8c-0.6-1.1-1.4-2-2.4-2.7c-1-0.7-2.2-1.3-3.7-1.6C74.9,0.2,73.4,0,71.8,0c-2.1,0-4,0.2-5.7,0.7
				c-1.7,0.5-3.1,1-4.2,1.8l2.2,5.4c1.1-0.6,2.2-1.1,3.4-1.5c1.2-0.4,2.6-0.5,4.2-0.5c1.4,0,2.6,0.2,3.3,0.7
				c0.8,0.5,1.2,1.2,1.2,2.2c0,0.7-0.1,1.3-0.4,1.8c-0.3,0.5-0.7,0.9-1.2,1.1c-0.5,0.3-1.1,0.5-1.8,0.6c-0.7,0.1-1.4,0.2-2.2,0.2H66
				v5.6h4.1c1.1,0,2,0.1,2.9,0.2c0.9,0.1,1.7,0.3,2.3,0.6c0.7,0.3,1.2,0.7,1.6,1.2c0.4,0.5,0.6,1.2,0.6,2.1c0,1.4-0.6,2.3-1.8,2.9
				C74.5,25.7,72.9,26,71,26c-0.8,0-1.6-0.1-2.4-0.2c-0.8-0.1-1.6-0.3-2.3-0.5c-0.7-0.2-1.4-0.4-2-0.6c-0.6-0.2-1.1-0.4-1.5-0.6
				l-2,5.4c0.6,0.3,1.3,0.6,2.1,0.9c0.8,0.3,1.7,0.5,2.6,0.8c0.9,0.2,1.9,0.4,2.9,0.5c1,0.1,2,0.2,3.1,0.2c4.1,0,7.3-0.7,9.6-2.2
				c2.3-1.5,3.5-3.8,3.5-7.1c0-1-0.1-1.8-0.4-2.6C83.9,19.1,83.5,18.4,83.1,17.8z M111.3,2.7c-2.4-1.6-5.9-2.4-10.5-2.4
				c-1.3,0-2.7,0.1-4.4,0.2c-1.7,0.1-3.3,0.3-4.8,0.6v30.1h6.9V21h2.2c4.6,0,8.1-0.8,10.6-2.4c2.5-1.6,3.7-4.3,3.7-7.9
				C115,7,113.7,4.3,111.3,2.7z M106.1,14.2c-1.2,0.6-3,1-5.4,1h-2.2V6.3c0.4,0,0.8-0.1,1.3-0.1c0.5,0,1,0,1.5,0
				c1,0,1.9,0.1,2.7,0.2c0.8,0.1,1.5,0.4,2.1,0.7c0.6,0.3,1,0.8,1.3,1.3c0.3,0.6,0.5,1.3,0.5,2.1C107.9,12.3,107.3,13.5,106.1,14.2z
				 M141.2,14.2c-1-2.5-2-4.8-2.9-7c-1-2.2-2-4.4-3-6.5h-6.5c-1,2.1-2,4.3-3,6.5c-1,2.2-1.9,4.6-2.9,7c-1,2.5-2,5.1-3,7.9
				c-1,2.8-2.1,5.8-3.3,9.1h7.1c0.3-1.1,0.7-2.1,1.1-3.3c0.4-1.1,0.8-2.2,1.2-3.3h11.9c0.4,1.1,0.8,2.2,1.2,3.3
				c0.4,1.1,0.8,2.2,1.1,3.3h7.4c-1.1-3.3-2.2-6.3-3.3-9.1C143.2,19.3,142.2,16.7,141.2,14.2z M127.5,19.1c0.5-1.3,1-2.6,1.4-3.8
				c0.5-1.2,0.9-2.3,1.3-3.3c0.4-1,0.7-1.9,1-2.6c0.3-0.8,0.5-1.4,0.7-1.8c0.2,0.4,0.4,1,0.7,1.8c0.3,0.8,0.6,1.6,1,2.6
				c0.4,1,0.8,2.1,1.2,3.3c0.4,1.2,0.9,2.5,1.4,3.8H127.5z M162.3,31.5c4.5,0,8-0.8,10.5-2.5c2.4-1.7,3.7-4.2,3.7-7.5
				c0-1.8-0.3-3.4-1-4.6c-0.6-1.3-1.6-2.3-2.8-3.1c-1.2-0.8-2.7-1.4-4.5-1.7c-1.8-0.4-3.8-0.5-6-0.5h-2.2v-5h13.7V0.7h-20.2v29.8
				c1.6,0.4,3.2,0.6,4.7,0.8C159.7,31.4,161.1,31.5,162.3,31.5z M159.9,17.2h2c1.2,0,2.2,0.1,3.2,0.2c0.9,0.1,1.7,0.3,2.4,0.7
				c0.6,0.3,1.1,0.8,1.5,1.3c0.4,0.6,0.5,1.3,0.5,2.2c0,0.9-0.2,1.5-0.6,2.1c-0.4,0.5-0.9,0.9-1.5,1.3c-0.6,0.3-1.4,0.5-2.2,0.6
				c-0.8,0.1-1.7,0.2-2.6,0.2c-0.6,0-1.1,0-1.6,0c-0.5,0-0.8,0-1.2-0.1V17.2z M208.3,4c-1.4-1.3-3-2.4-4.8-3c-1.8-0.7-3.8-1-5.9-1
				c-2,0-4,0.3-5.8,1c-1.8,0.7-3.4,1.7-4.8,3c-1.4,1.3-2.5,3-3.3,5c-0.8,2-1.2,4.3-1.2,6.9c0,2.6,0.4,4.9,1.2,6.9
				c0.8,2,1.9,3.6,3.3,5c1.4,1.3,3,2.3,4.8,3c1.8,0.7,3.8,1,5.9,1c2.1,0,4.1-0.3,6-1c1.9-0.7,3.5-1.7,4.8-3c1.3-1.3,2.4-3,3.2-5
				c0.8-2,1.2-4.3,1.2-6.9c0-2.6-0.4-4.9-1.2-6.9C210.7,7.1,209.6,5.4,208.3,4z M205.1,20c-0.4,1.2-0.9,2.2-1.6,3.1
				c-0.7,0.9-1.5,1.5-2.6,2c-1,0.5-2.1,0.7-3.4,0.7c-1.3,0-2.4-0.2-3.4-0.7c-1-0.5-1.8-1.1-2.5-2c-0.7-0.9-1.2-1.9-1.6-3.1
				c-0.4-1.2-0.5-2.6-0.5-4c0-1.5,0.2-2.8,0.5-4c0.4-1.2,0.9-2.3,1.6-3.1c0.7-0.9,1.5-1.5,2.5-2c1-0.5,2.1-0.7,3.4-0.7
				c1.3,0,2.4,0.2,3.4,0.7c1,0.5,1.9,1.1,2.6,2c0.7,0.9,1.2,1.9,1.6,3.1c0.4,1.2,0.5,2.6,0.5,4.1C205.6,17.4,205.4,18.8,205.1,20z
				 M217.2,6.6h9.2v24.6h6.9V6.6h9.2V0.7h-25.3V6.6z M255.5,18.3c1.1,0.8,2.1,1.8,3.2,2.8c1.1,1.1,2.1,2.2,3,3.4
				c1,1.2,1.9,2.3,2.7,3.5c0.8,1.2,1.6,2.2,2.2,3.2h8.2c-2.1-3.4-4.3-6.4-6.5-9.2s-4.6-5.2-7.1-7.2c2.3-2.3,4.5-4.6,6.6-6.9
				c2.1-2.3,4.2-4.7,6.3-7.1h-8.1c-1.5,1.7-3.2,3.6-5,5.6c-1.8,2-3.6,4-5.4,5.8V0.7h-6.9v30.5h6.9V18.3z M306.8,22.1
				c-1-2.8-2-5.4-3-7.9s-2-4.8-2.9-7c-1-2.2-2-4.4-3-6.5h-6.5c-1,2.1-2,4.3-3,6.5c-1,2.2-1.9,4.6-2.9,7c-1,2.5-2,5.1-3,7.9
				c-1,2.8-2.1,5.8-3.3,9.1h7.1c0.3-1.1,0.7-2.1,1.1-3.3c0.4-1.1,0.8-2.2,1.2-3.3h11.9c0.4,1.1,0.8,2.2,1.2,3.3
				c0.4,1.1,0.8,2.2,1.1,3.3h7.4C308.9,27.9,307.8,24.9,306.8,22.1z M290.1,19.1c0.5-1.3,1-2.6,1.4-3.8c0.5-1.2,0.9-2.3,1.3-3.3
				c0.4-1,0.7-1.9,1-2.6c0.3-0.8,0.5-1.4,0.7-1.8c0.2,0.4,0.4,1,0.7,1.8c0.3,0.8,0.6,1.6,1,2.6c0.4,1,0.8,2.1,1.2,3.3
				c0.4,1.2,0.9,2.5,1.4,3.8H290.1z M341.1,20.9c2.3-3.4,4.7-6.6,7.3-9.6v20h6.8V0.7h-5.6c-1,1-2,2.2-3.2,3.6
				c-1.2,1.4-2.4,2.9-3.6,4.5c-1.2,1.6-2.4,3.3-3.6,5c-1.2,1.7-2.3,3.4-3.4,5v-18H329v30.5h5.8C336.7,27.7,338.8,24.3,341.1,20.9z
				 M384,6.5h11.4v24.7h6.9V0.7h-25.1v30.5h6.9V6.5z M435.3,4c-1.4-1.3-3-2.4-4.8-3c-1.8-0.7-3.8-1-5.9-1c-2,0-4,0.3-5.8,1
				c-1.8,0.7-3.4,1.7-4.8,3c-1.4,1.3-2.5,3-3.3,5c-0.8,2-1.2,4.3-1.2,6.9c0,2.6,0.4,4.9,1.2,6.9c0.8,2,1.9,3.6,3.3,5
				c1.4,1.3,3,2.3,4.8,3c1.8,0.7,3.8,1,5.9,1c2.1,0,4.1-0.3,6-1c1.9-0.7,3.5-1.7,4.8-3c1.3-1.3,2.4-3,3.2-5c0.8-2,1.2-4.3,1.2-6.9
				c0-2.6-0.4-4.9-1.2-6.9S436.7,5.4,435.3,4z M432.1,20c-0.4,1.2-0.9,2.2-1.6,3.1c-0.7,0.9-1.5,1.5-2.6,2c-1,0.5-2.1,0.7-3.4,0.7
				c-1.3,0-2.4-0.2-3.4-0.7c-1-0.5-1.8-1.1-2.5-2c-0.7-0.9-1.2-1.9-1.6-3.1c-0.4-1.2-0.5-2.6-0.5-4c0-1.5,0.2-2.8,0.5-4
				c0.4-1.2,0.9-2.3,1.6-3.1c0.7-0.9,1.5-1.5,2.5-2c1-0.5,2.1-0.7,3.4-0.7c1.3,0,2.4,0.2,3.4,0.7c1,0.5,1.9,1.1,2.6,2
				c0.7,0.9,1.2,1.9,1.6,3.1c0.4,1.2,0.5,2.6,0.5,4.1C432.7,17.4,432.5,18.8,432.1,20z M478.6,39.3V25.4h-5.2V0.7h-20.2v1.2
				c0,2.2,0,4.4-0.1,6.4c-0.1,2-0.3,4-0.6,5.9c-0.3,1.9-0.8,3.8-1.4,5.6c-0.6,1.8-1.5,3.7-2.6,5.6h-4.4v13.9h6.6v-8.1H472v8.1H478.6
				z M466.7,25.4h-11c0.7-1.3,1.3-2.8,1.8-4.3c0.5-1.5,0.9-3.1,1.2-4.8c0.3-1.6,0.5-3.3,0.7-5c0.1-1.7,0.2-3.3,0.3-4.9h7V25.4z
				 M490.1,31.2h21.2v8.1h6.6V25.4h-5.2V0.7h-20.2v1.2c0,2.2,0,4.4-0.1,6.4c-0.1,2-0.3,4-0.6,5.9c-0.3,1.9-0.8,3.8-1.4,5.6
				c-0.6,1.8-1.5,3.7-2.6,5.6h-4.4v13.9h6.6V31.2z M496.9,21.1c0.5-1.5,0.9-3.1,1.2-4.8c0.3-1.6,0.5-3.3,0.7-5
				c0.1-1.7,0.2-3.3,0.3-4.9h7v18.9h-11C495.8,24.1,496.4,22.6,496.9,21.1z M545.7,25.4h-14.7v-7.3h12.2v-5.6h-12.2v-6h13.7V0.7
				h-20.6v30.5h21.6V25.4z M572.3,2.7c-2.4-1.6-5.9-2.4-10.5-2.4c-1.3,0-2.7,0.1-4.4,0.2c-1.7,0.1-3.3,0.3-4.8,0.6v30.1h6.9V21h2.2
				c4.6,0,8.1-0.8,10.6-2.4c2.5-1.6,3.7-4.3,3.7-7.9C576,7,574.7,4.3,572.3,2.7z M567.1,14.2c-1.2,0.6-3,1-5.4,1h-2.2V6.3
				c0.4,0,0.8-0.1,1.3-0.1c0.5,0,1,0,1.5,0c1,0,1.9,0.1,2.7,0.2c0.8,0.1,1.5,0.4,2.1,0.7c0.6,0.3,1,0.8,1.3,1.3
				c0.3,0.6,0.5,1.3,0.5,2.1C568.9,12.3,568.3,13.5,567.1,14.2z M609.2,15.1c1.2-1.3,2.2-2.5,3.2-3.6c1-1.1,1.9-2.3,2.9-3.4
				c0.9-1.1,1.9-2.3,2.8-3.5c0.9-1.2,1.9-2.5,3-3.9h-8.2c-0.8,1.1-1.6,2.2-2.3,3.2c-0.8,1-1.5,2-2.3,3c-0.8,1-1.5,1.9-2.4,2.9
				c-0.8,1-1.7,2-2.5,3.1V0.7h-6.7v12.2c-0.9-1.1-1.7-2.1-2.5-3C593.5,9,592.7,8,592,7.1c-0.7-1-1.5-2-2.3-3c-0.8-1-1.6-2.2-2.5-3.4
				h-8.3c0.9,1.3,1.9,2.5,2.8,3.7c0.9,1.2,1.8,2.4,2.8,3.5c1,1.2,2,2.4,3,3.6c1.1,1.2,2.2,2.4,3.4,3.7c-1.1,1-2.2,2.1-3.2,3.3
				s-2.1,2.5-3.1,3.9c-1,1.4-2,2.8-3,4.3c-1,1.5-1.9,3-2.7,4.5h7.6c0.9-1.4,1.8-2.6,2.6-3.8c0.8-1.1,1.6-2.2,2.4-3.3
				c0.8-1.1,1.6-2.1,2.4-3.2c0.9-1.1,1.8-2.2,2.9-3.4v13.6h6.7V17.5c1,1.1,2,2.2,2.8,3.2c0.9,1,1.7,2.1,2.5,3.2
				c0.8,1.1,1.6,2.2,2.4,3.4c0.8,1.2,1.6,2.5,2.6,3.8h7.6c-1.7-3-3.5-5.9-5.5-8.7C613.8,19.8,611.6,17.3,609.2,15.1z M639.7,14.7
				c2.3-2.3,4.5-4.6,6.6-6.9c2.1-2.3,4.2-4.7,6.3-7.1h-8.1c-1.5,1.7-3.2,3.6-5,5.6c-1.8,2-3.6,4-5.4,5.8V0.7h-6.9v30.5h6.9V18.3
				c1.1,0.8,2.1,1.8,3.2,2.8c1.1,1.1,2.1,2.2,3,3.4c1,1.2,1.9,2.3,2.7,3.5c0.8,1.2,1.6,2.2,2.2,3.2h8.2c-2.1-3.4-4.3-6.4-6.5-9.2
				C644.5,19.2,642.1,16.7,639.7,14.7z M685.4,22.1c-1-2.8-2-5.4-3-7.9s-2-4.8-2.9-7c-1-2.2-2-4.4-3-6.5h-6.5c-1,2.1-2,4.3-3,6.5
				c-1,2.2-1.9,4.6-2.9,7c-1,2.5-2,5.1-3,7.9c-1,2.8-2.1,5.8-3.3,9.1h7.1c0.3-1.1,0.7-2.1,1.1-3.3c0.4-1.1,0.8-2.2,1.2-3.3H679
				c0.4,1.1,0.8,2.2,1.2,3.3c0.4,1.1,0.8,2.2,1.1,3.3h7.4C687.5,27.9,686.4,24.9,685.4,22.1z M668.7,19.1c0.5-1.3,1-2.6,1.4-3.8
				c0.5-1.2,0.9-2.3,1.3-3.3c0.4-1,0.7-1.9,1-2.6c0.3-0.8,0.5-1.4,0.7-1.8c0.2,0.4,0.4,1,0.7,1.8c0.3,0.8,0.6,1.6,1,2.6
				c0.4,1,0.8,2.1,1.2,3.3c0.4,1.2,0.9,2.5,1.4,3.8H668.7z M135,56.3c-1.2,1.4-2.4,2.9-3.6,4.5c-1.2,1.6-2.4,3.3-3.6,5
				c-1.2,1.7-2.3,3.4-3.4,5v-18h-6.8v30.5h5.8c2-3.5,4.1-6.9,6.4-10.3c2.3-3.4,4.7-6.6,7.3-9.6v20h6.8V52.7h-5.6
				C137.3,53.7,136.2,54.9,135,56.3z M170.8,64.4h-11.5V52.7h-6.9v30.5h6.9V70.3h11.5v12.9h6.9V52.7h-6.9V64.4z M183.9,58.6h9.2
				v24.6h6.9V58.6h9.2v-5.9h-25.3V58.6z M222.1,70.1h12.2v-5.6h-12.2v-6h13.7v-5.8h-20.6v30.5h21.6v-5.8h-14.7V70.1z M263.5,54.7
				c-2.4-1.6-5.9-2.4-10.5-2.4c-1.3,0-2.7,0.1-4.4,0.2c-1.7,0.1-3.3,0.3-4.8,0.6v30.1h6.9V73h2.2c4.6,0,8.1-0.8,10.6-2.4
				c2.5-1.6,3.7-4.3,3.7-7.9C267.1,59,265.9,56.3,263.5,54.7z M258.3,66.2c-1.2,0.6-3,1-5.4,1h-2.2v-8.8c0.4,0,0.8-0.1,1.3-0.1
				c0.5,0,1,0,1.5,0c1,0,1.9,0.1,2.7,0.2c0.8,0.1,1.5,0.4,2.1,0.7c0.6,0.3,1,0.8,1.3,1.3c0.3,0.6,0.5,1.3,0.5,2.1
				C260.1,64.3,259.5,65.5,258.3,66.2z M292,64.4h-11.5V52.7h-6.9v30.5h6.9V70.3H292v12.9h6.9V52.7H292V64.4z M314.3,70.1h12.2v-5.6
				h-12.2v-6H328v-5.8h-20.6v30.5h21.6v-5.8h-14.7V70.1z M333.7,58.6h9.2v24.6h6.9V58.6h9.2v-5.9h-25.3V58.6z M361.3,70.9H374V65
				h-12.8V70.9z M403.1,76.6c-0.5,0.2-1,0.4-1.6,0.5c-0.6,0.2-1.3,0.3-2.1,0.4c-0.8,0.1-1.7,0.2-2.7,0.2c-1.6,0-2.9-0.3-4-0.8
				c-1.1-0.5-2-1.2-2.7-2.1c-0.7-0.9-1.2-1.9-1.5-3.1c-0.3-1.2-0.5-2.5-0.5-3.9c0-1.8,0.2-3.3,0.7-4.5c0.5-1.2,1.1-2.2,1.9-3
				c0.8-0.8,1.7-1.3,2.7-1.7s2-0.5,3.1-0.5c1.6,0,3,0.2,4.2,0.5c1.2,0.4,2.3,0.8,3.3,1.3l2-5.5c-0.2-0.1-0.6-0.4-1.1-0.6
				c-0.5-0.3-1.2-0.5-2-0.8c-0.8-0.2-1.7-0.5-2.8-0.7c-1.1-0.2-2.2-0.3-3.5-0.3c-2.2,0-4.3,0.4-6.2,1.1c-1.9,0.7-3.5,1.7-4.9,3.1
				c-1.4,1.4-2.5,3-3.3,5c-0.8,2-1.2,4.2-1.2,6.8c0,5.1,1.3,9,3.9,11.7c2.6,2.8,6.4,4.1,11.3,4.1c2.3,0,4.4-0.2,6.1-0.7
				c1.8-0.5,3.1-1,4.1-1.6l-1.9-5.5C404,76.2,403.6,76.4,403.1,76.6z M429.8,56.3c-1.2,1.4-2.4,2.9-3.6,4.5c-1.2,1.6-2.4,3.3-3.6,5
				c-1.2,1.7-2.3,3.4-3.4,5v-18h-6.8v30.5h5.8c2-3.5,4.1-6.9,6.4-10.3c2.3-3.4,4.7-6.6,7.3-9.6v20h6.8V52.7H433
				C432.1,53.7,431,54.9,429.8,56.3z M468.1,76.6c-0.5,0.2-1,0.4-1.6,0.5c-0.6,0.2-1.3,0.3-2.1,0.4c-0.8,0.1-1.7,0.2-2.7,0.2
				c-1.6,0-2.9-0.3-4-0.8c-1.1-0.5-2-1.2-2.7-2.1c-0.7-0.9-1.2-1.9-1.5-3.1c-0.3-1.2-0.5-2.5-0.5-3.9c0-1.8,0.2-3.3,0.7-4.5
				c0.5-1.2,1.1-2.2,1.9-3c0.8-0.8,1.7-1.3,2.7-1.7s2-0.5,3.1-0.5c1.6,0,3,0.2,4.2,0.5c1.2,0.4,2.3,0.8,3.3,1.3l2-5.5
				c-0.2-0.1-0.6-0.4-1.1-0.6c-0.5-0.3-1.2-0.5-2-0.8c-0.8-0.2-1.7-0.5-2.8-0.7c-1.1-0.2-2.2-0.3-3.5-0.3c-2.2,0-4.3,0.4-6.2,1.1
				c-1.9,0.7-3.5,1.7-4.9,3.1c-1.4,1.4-2.5,3-3.3,5c-0.8,2-1.2,4.2-1.2,6.8c0,5.1,1.3,9,3.9,11.7c2.6,2.8,6.4,4.1,11.3,4.1
				c2.3,0,4.4-0.2,6.1-0.7c1.8-0.5,3.1-1,4.1-1.6l-1.9-5.5C469,76.2,468.6,76.4,468.1,76.6z M475.9,58.6h9.2v24.6h6.9V58.6h9.2v-5.9
				h-25.3V58.6z M514.2,70.1h12.2v-5.6h-12.2v-6h13.7v-5.8h-20.6v30.5h21.6v-5.8h-14.7V70.1z M568.4,67.3c-0.2-2.7-0.4-5.3-0.7-7.8
				c-0.2-2.5-0.5-4.8-0.8-6.8h-6.2c-0.5,1-1.1,2.2-1.8,3.6c-0.7,1.4-1.4,3-2.2,4.6c-0.8,1.7-1.5,3.4-2.2,5.1
				c-0.7,1.7-1.4,3.4-2.1,4.9c-0.6-1.5-1.3-3.2-2.1-4.9c-0.7-1.7-1.5-3.4-2.2-5.1c-0.8-1.7-1.5-3.2-2.2-4.6
				c-0.7-1.4-1.3-2.6-1.8-3.6h-6.6c-0.3,2-0.6,4.3-0.8,6.8c-0.2,2.5-0.5,5.1-0.7,7.8c-0.2,2.7-0.4,5.4-0.5,8.2
				c-0.2,2.7-0.3,5.3-0.4,7.7h6.7c0.1-3,0.2-6.2,0.4-9.7c0.1-3.5,0.4-7,0.7-10.6c0.5,1.2,1.1,2.6,1.8,4.1c0.6,1.5,1.3,3,1.9,4.5
				c0.6,1.5,1.2,2.9,1.8,4.3s1.1,2.5,1.5,3.5h4.8c0.4-1,0.9-2.1,1.5-3.5s1.2-2.8,1.8-4.3c0.6-1.5,1.3-3,1.9-4.5
				c0.6-1.5,1.2-2.9,1.8-4.1c0.3,3.5,0.5,7.1,0.7,10.6c0.1,3.5,0.3,6.7,0.4,9.7h6.7c-0.1-2.4-0.3-5-0.4-7.7
				C568.7,72.8,568.6,70,568.4,67.3z"/>
		</g>
	</g>
</g>
</svg>
