<svg xmlns="http://www.w3.org/2000/svg" viewBox="0 0 72 72"><defs><style>.cls-1{fill:#fff;}</style></defs><title>19bar_70</title><g id="Layer_2" data-name="Layer 2"><g id="Layer_1-2" data-name="Layer 1"><path class="cls-1" d="M36,0A36,36,0,1,0,72,36,36,36,0,0,0,36,0Zm0,70A34,34,0,1,1,70,36,34,34,0,0,1,36,70Z"/><path class="cls-1" d="M22.37,40.14H20.79V18H17.13V16.66h5.23Z"/><path class="cls-1" d="M52.11,29.07H32.73c-3.82,0-5.67-1.54-5.67-5.06V21.73c0-3.52,1.84-5.06,5.67-5.06H48c3.82,0,5.67,1.54,5.67,5.06V35.08c0,3.52-1.84,5.06-5.67,5.06H28.84l-.5-.6v-.77H48c2.88,0,4.09-.91,4.09-3.69ZM28.64,24c0,2.78,1.21,3.69,4.09,3.69H52.11v-6C52.11,18.95,50.94,18,48,18H32.73c-2.92,0-4.09.91-4.09,3.69Z"/><path class="cls-1" d="M17.26,57.14V48h9c1.57,0,2.29.69,2.29,2v.88a1.59,1.59,0,0,1-1.39,1.65,1.59,1.59,0,0,1,1.39,1.65v.9c0,1.31-.71,2-2.29,2ZM18.4,49V52.1h7.81c.81,0,1.14-.26,1.14-1v-1c0-.77-.34-1-1.14-1Zm0,4.06v3.07h7.81c.81,0,1.14-.26,1.14-1v-1c0-.75-.34-1-1.14-1Z"/><path class="cls-1" d="M29.87,57.14v-.3L35.58,48H37l5.72,8.8v.3H41.53l-1.61-2.51H32.51l-1.6,2.51Zm3.28-3.5h6.15l-3.07-4.8Z"/><path class="cls-1" d="M52.67,48c1.57,0,2.29.69,2.29,2v1.07c0,1.23-.71,2-2.29,2h-.91l3.42,3.72v.3H54l-3.69-4H45.59v4H44.44V48Zm0,4.1c.79,0,1.14-.26,1.14-1V50.06c0-.77-.35-1-1.14-1H45.59v3.11Z"/></g></g></svg>