<svg xmlns="http://www.w3.org/2000/svg" viewBox="0 0 72 72"><defs><style>.cls-1{fill:#fff;}</style></defs><title>4cups_70</title><g id="Layer_2" data-name="Layer 2"><g id="Layer_1-2" data-name="Layer 1"><path class="cls-1" d="M36,0A36,36,0,1,0,72,36,36,36,0,0,0,36,0Zm0,70A34,34,0,1,1,70,36,34,34,0,0,1,36,70Z"/><path class="cls-1" d="M62.34,26.71c-.49-1.43-2.43-2.17-5.76-2.21l1-8H38.19l1.17,9h-13l1.39,10H21.66l.45,4H11.66l1.62,14.56A2.8,2.8,0,0,0,16,56.5h5a2.8,2.8,0,0,0,2.72-2.43L24,51.8l.12-.11A2.74,2.74,0,0,0,26,52.5h5a2.81,2.81,0,0,0,2.63-2h5.92a2.88,2.88,0,0,0,2.77-2.41l.56-4a2.72,2.72,0,0,0,1.39.41h7.29a2.85,2.85,0,0,0,2.75-2.42l.83-6.42.18.23C60.72,31.71,63,28.71,62.34,26.71ZM44.9,29.51c2.58.07,4.18.6,4.49,1.52s-.15,2.82-5.72,7.29ZM35,38.5c1.3,0,2.82.65,3.13,1.74.38,1.31-1,3.12-3.88,5ZM24.28,50l-.05-.46.66-6c1.46.12,2.41.52,2.65,1.16s.07,2.13-3.23,5.39C24.3,50,24.28,50,24.28,50Zm-1.33,2-.22,2A1.8,1.8,0,0,1,21,55.5H16A1.8,1.8,0,0,1,14.28,54l-.44-4h9.33L23,51.31Zm9.78-2A1.8,1.8,0,0,1,31,51.5H26a1.74,1.74,0,0,1-1.19-.5c3-3,4.24-5.14,3.66-6.65-.39-1-1.59-1.65-3.48-1.8l.23-2h3.21v.07l.5-.07h4.84Zm8.6-2a1.87,1.87,0,0,1-1.78,1.55H33.78l.36-3.27.12.19C39,43.49,39.48,41.29,39.1,40c-.45-1.58-2.32-2.42-4-2.45l.22-2H28.75l-.42-3H40.27v.06l.5-.06h2.7Zm12-6a1.84,1.84,0,0,1-1.75,1.54H44.26A1.79,1.79,0,0,1,43,43l.44-3.2c5.29-4.11,7.54-7.08,6.86-9.05-.47-1.36-2.26-2.09-5.3-2.19l.42-3H40.37l-.39-3H55.83Zm2-7.3,1.19-9.15c2.85,0,4.61.56,4.94,1.53S61.21,30,55.26,34.66Z"/></g></g></svg>