<svg xmlns="http://www.w3.org/2000/svg" viewBox="0 0 24 19.59"><defs><style>.cls-1{fill:#fff;}</style></defs><title>capsules</title><g id="Layer_2" data-name="Layer 2"><g id="Layer_1-2" data-name="Layer 1"><path class="cls-1" d="M23.25,17.74H22v0a3.15,3.15,0,0,1-.57-1.28c-.1-.59-1-7.15-1.46-10.68l-.3-2.25a1.31,1.31,0,0,0-.8-1.19l-.08,0c-.4-.24-2-1.16-2.83-1.61l-.53-.3a2,2,0,0,0-1-.36H9.6a2,2,0,0,0-1,.36L8,.71C7.14,1.18,5.6,2,5.21,2.28l-.08,0a1.31,1.31,0,0,0-.8,1.2L4.09,5.39c-.45,3.39-1.4,10.45-1.5,11.06A3.23,3.23,0,0,1,2,17.73H.75a.76.76,0,0,0-.75.75v.35a.76.76,0,0,0,.75.75H23.25a.75.75,0,0,0,.75-.75v-.35A.75.75,0,0,0,23.25,17.74Z"/></g></g></svg>