<svg xmlns="http://www.w3.org/2000/svg" viewBox="0 0 24.04 24.04"><defs><style>.cls-1{fill:#fff;}</style></defs><title>designer</title><g id="Layer_2" data-name="Layer 2"><g id="Layer_1-2" data-name="Layer 1"><polygon class="cls-1" points="10.61 6.36 9.9 5.66 7.78 7.78 6.36 6.36 8.48 4.24 7.07 2.83 5.66 4.24 4.24 2.83 5.66 1.41 4.24 0 0 4.24 6.36 10.61 10.61 6.36"/><polygon class="cls-1" points="22.63 18.39 21.21 19.8 19.8 18.39 21.21 16.97 19.8 15.56 17.68 17.68 16.26 16.26 18.39 14.14 17.68 13.44 13.44 17.68 19.8 24.04 24.04 19.8 22.63 18.39"/><path class="cls-1" d="M22.19,1.87a3.08,3.08,0,0,0-4.34.07L12.73,7.07,5.66,14.14,2.12,17.68h0a1.59,1.59,0,0,0-.35.77L.92,21.69c-.44,1.19.27,1.9,1.46,1.46l3.23-.86a1.59,1.59,0,0,0,.77-.35h0l3.54-3.54L17,11.34l5.12-5.12A3.08,3.08,0,0,0,22.19,1.87ZM5.53,21.39,3.27,22l-1.33.36a.73.73,0,0,1-.25,0,.73.73,0,0,1,0-.25l.61-2.26.36-1.33a.78.78,0,0,1,.09-.21l3,3A.77.77,0,0,1,5.53,21.39ZM18.31,2.75a2.12,2.12,0,1,1,3,3Z"/></g></g></svg>