<svg xmlns="http://www.w3.org/2000/svg" viewBox="0 0 70 70"><defs><style>.cls-1{fill:#fff;}</style></defs><title>froathing_70px</title><g id="Layer_2" data-name="Layer 2"><g id="Layer_1-2" data-name="Layer 1"><path class="cls-1" d="M57.83,34.5a7.37,7.37,0,0,0-7.37-7.37,7.54,7.54,0,0,0-1.35.13,7.35,7.35,0,0,0-6.63-10.57,6.82,6.82,0,0,0-2,.28V36.5h-2V17.87a7.37,7.37,0,0,0-3,3.85V36.5h-2V21.62a9.48,9.48,0,0,0-1.43.17A4.8,4.8,0,0,0,30.5,20V36.5h-2V19.21a4.56,4.56,0,0,0-.75-.06,4.91,4.91,0,0,0-4.92,4.91,4.65,4.65,0,0,0,.07.65c-.23,0-.45,0-.68,0a11,11,0,1,0,0,22.1c.28,0,.56,0,.83,0a14.12,14.12,0,0,0,28-2.42,14.37,14.37,0,0,0-.23-2.47A7.36,7.36,0,0,0,57.83,34.5Z"/><path class="cls-1" d="M35,0a35.19,35.19,0,0,0-5.87.5H28.5V.61A35,35,0,1,0,35,0Zm0,68A33,33,0,0,1,28.5,2.65V19.21a4.63,4.63,0,0,1,2,.81V2.31c1-.14,2-.23,3-.28V21.62h.39a9.42,9.42,0,0,1,1.6.14s0,0,0,0V2c1,0,2,.07,3,.17V17.87a6.82,6.82,0,0,1,2-.9V2.47A33,33,0,0,1,35,68Z"/></g></g></svg>