<svg xmlns="http://www.w3.org/2000/svg" viewBox="0 0 23.74 20.54"><defs><style>.cls-1{fill:#fff;}</style></defs><title>jar</title><g id="Layer_2" data-name="Layer 2"><g id="Layer_1-2" data-name="Layer 1"><path class="cls-1" d="M.7,17.9h0v0Z"/><path class="cls-1" d="M23.16,3.3a2.21,2.21,0,0,0-1.56-.66H17.16L17,0H0A7.33,7.33,0,0,1,.27,2.17c0,2.43,0,6.07.1,6.52a3,3,0,0,0,.78,1.75A64.4,64.4,0,0,0,.7,17.89c0,1.76.71,2.65,2.41,2.65H15.41c1.71,0,2.41-.87,2.41-2.65q0-.54,0-1.08s0-.74,0-.34l0-.86,2.52-.1a2.12,2.12,0,0,0,2.08-1.9l1.37-8.94A1.92,1.92,0,0,0,23.16,3.3ZM21.38,13.46c-.1.61-.32.95-1.18,1.07l-2.48.1-.51-11H21.6a1.22,1.22,0,0,1,.85.37,1,1,0,0,1,.29.59Z"/></g></g></svg>