<svg xmlns="http://www.w3.org/2000/svg" viewBox="0 0 44.83 45.52"><defs><style>.cls-1{fill:none;stroke:#fff;stroke-miterlimit:10;}</style></defs><title>phone</title><g id="Layer_2" data-name="Layer 2"><g id="Layer_1-2" data-name="Layer 1"><path class="cls-1" d="M1,10.89H1"/><path class="cls-1" d="M34.46,44.54h0"/><path class="cls-1" d="M1.46,5.38"/><path class="cls-1" d="M18.79,26.95s-9.28-9.81-5.88-13.22l2.16-2.16a4,4,0,0,0,0-5.66L10.83,1.67a4,4,0,0,0-5.66,0L2,4.83C.45,6.4.05,8.21,1,10.89A61,61,0,0,0,14.55,31.19,61.09,61.09,0,0,0,34.46,44.54c1.88,1,3.78.44,5.54-1.33L43.16,40a4,4,0,0,0,0-5.66l-4.24-4.24a4,4,0,0,0-5.66,0l-2.41,2.41C27.71,35.7,18.79,26.95,18.79,26.95Z"/></g></g></svg>