<?xml version="1.0" encoding="UTF-8"?>
<svg width="29px" height="32px" viewBox="0 0 29 32" version="1.1" xmlns="http://www.w3.org/2000/svg" xmlns:xlink="http://www.w3.org/1999/xlink">
    <!-- Generator: Sketch 42 (36781) - http://www.bohemiancoding.com/sketch -->
    <title>Shape</title>
    <desc>Created with Sketch.</desc>
    <defs></defs>
    <g id="Page-1" stroke="none" stroke-width="1" fill="none" fill-rule="evenodd">
        <g id="Desktop-HD-updated" transform="translate(-666.000000, -1881.000000)" fill="#FFFFFF">
            <g id="bying-pop-up" transform="translate(0.000000, 916.000000)">
                <g id="thank-you-page">
                    <g id="Group" transform="translate(594.000000, 931.000000)">
                        <g id="socials" transform="translate(0.000000, 34.000000)">
                            <path d="M78.3713213,23.0619948 L78.3925879,17.8764139 L79.3617379,17.8662521 L80.3298751,17.8540579 L80.3187354,17.0553382 L80.3065831,16.2556024 L77.5095172,16.2444244 L74.7144767,16.2332464 L74.7144767,17.0441602 L74.7144767,17.8540579 L75.6603346,17.8662521 L76.6061925,17.8764139 L76.6173321,23.0193151 C76.6223956,25.8473519 76.6365734,28.1866047 76.647713,28.216074 C76.6629034,28.2577375 76.8593664,28.2678993 77.5085045,28.2587536 L78.3500547,28.2475756 L78.3713213,23.0619948 Z M94.5045787,22.6971852 C94.4650836,22.5935345 94.5197691,21.395455 94.5724293,21.2216877 C94.6949655,20.8131822 94.9552283,20.6140104 95.3653702,20.6140104 C95.7066487,20.6140104 95.9233656,20.7461142 96.0691938,21.0428396 C96.1613491,21.2308334 96.1704634,21.3111118 96.1846411,22.0061809 L96.1988188,22.763237 L95.3633448,22.763237 C94.6453434,22.763237 94.5258453,22.7540914 94.5045787,22.6971852 L94.5045787,22.6971852 Z M96.0641303,28.2841582 C96.8823885,28.0534847 97.4484855,27.4925518 97.6621643,26.7009454 C97.6976087,26.5657931 97.7391292,26.1806598 97.7533069,25.8463357 L97.7776116,25.2386584 L96.9897343,25.2386584 L96.2008442,25.2386584 L96.181603,25.7833323 C96.1593237,26.4021877 96.0955239,26.6145699 95.8707054,26.8127255 C95.6317092,27.0230754 95.1921992,27.0383181 94.9066189,26.8452434 C94.5663531,26.6145699 94.4822994,26.2253719 94.4995152,24.9612405 L94.5116676,24.0649672 L96.1431206,24.0548054 L97.7745736,24.0426112 L97.7533069,22.7093794 C97.7269769,21.2216877 97.696596,20.9960952 97.4474728,20.4676801 C96.9725185,19.46674 95.6570266,18.9616972 94.5643278,19.361057 C93.7399933,19.6628633 93.2528866,20.2065211 93.0574364,21.0479205 C92.988573,21.3446459 92.9804715,21.6108857 92.9804715,23.7875493 C92.9804715,26.4570615 92.9895857,26.5657931 93.2609882,27.1124994 C93.7460695,28.0849864 94.9602918,28.5930778 96.0641303,28.2841582 L96.0641303,28.2841582 Z M89.6041435,26.7639487 C89.7044004,26.6958645 89.7702257,26.6013595 89.8218732,26.454013 C89.8876984,26.2599221 89.8937746,26.0129897 89.8846603,23.7235298 C89.875546,21.3375326 89.8704826,21.1972993 89.7935177,21.0408072 C89.596042,20.6414474 89.0988083,20.6028324 88.6430952,20.9523993 L88.4932162,21.0662118 L88.4932162,23.7875493 L88.4932162,26.5088869 L88.6420825,26.6226993 C88.9793102,26.8808098 89.3489442,26.9346675 89.6041435,26.7639487 L89.6041435,26.7639487 Z M90.591522,28.3004171 C90.8396325,28.2282682 91.1393904,27.932559 91.274079,27.6307527 C91.5333291,27.0525447 91.5343418,27.0383181 91.5343418,23.7875493 C91.5343418,21.1190533 91.5262402,20.78981 91.460415,20.5012141 C91.2467362,19.577504 90.7808961,19.1740794 89.9970695,19.233018 C89.5585722,19.2675682 89.213243,19.4423516 88.7990504,19.8437439 C88.6187905,20.0175111 88.4577719,20.1607929 88.4395433,20.1607929 C88.4233402,20.1607929 88.4081498,19.2767138 88.4081498,18.1975277 L88.4081498,16.2342625 L87.6425517,16.2342625 L86.8769537,16.2342625 L86.8769537,22.2510809 L86.8769537,28.2689155 L87.6425517,28.2689155 L88.4081498,28.2689155 L88.4081498,27.8634585 C88.4081498,27.5941701 88.4243529,27.4580016 88.4557465,27.4580016 C88.4810639,27.4580016 88.6532222,27.6002672 88.8385455,27.7750506 C89.4340106,28.3369997 89.9494728,28.4914595 90.591522,28.3004171 L90.591522,28.3004171 Z M82.4423586,28.260786 C82.7481927,28.1469735 83.1076998,27.8969926 83.4104958,27.588073 C83.5492351,27.4458074 83.6879745,27.3299626 83.7183553,27.3299626 C83.7588632,27.3299626 83.7730409,27.4458074 83.7730409,27.799439 L83.7730409,28.2689155 L84.538639,28.2689155 L85.304237,28.2689155 L85.304237,23.8088892 L85.304237,19.349879 L84.538639,19.349879 L83.7730409,19.349879 L83.7730409,22.7896578 L83.7730409,26.2304528 L83.4429021,26.5586798 C83.1816266,26.8198388 83.0722554,26.8991011 82.9102241,26.9438131 C82.6367962,27.0200268 82.4626125,26.9671853 82.3502033,26.7730944 C82.2651368,26.6287964 82.2631114,26.5617284 82.2509591,22.9878134 L82.2398194,19.349879 L81.4742214,19.349879 L80.7106487,19.349879 L80.7106487,23.2123898 C80.7106487,27.4204028 80.7146995,27.5118593 80.9496449,27.9173162 C81.2068697,28.3603719 81.808411,28.499589 82.4423586,28.260786 L82.4423586,28.260786 Z M83.0925093,31.9820474 C82.098042,31.9647723 80.9212894,31.9373354 80.476716,31.9210765 C77.4923013,31.8133611 75.4436177,31.6985324 75.0344885,31.6152054 C74.4511757,31.4973282 73.7989996,31.1010169 73.4202514,30.634589 C72.8146593,29.8876947 72.4905966,28.9812596 72.3336287,27.5860406 C71.9700709,24.3423851 71.9781725,20.5591365 72.3559081,17.4292935 C72.5219902,16.0574467 72.9341574,15.0666685 73.6258286,14.3756642 C74.02078,13.9803691 74.400541,13.7608736 74.9058762,13.6308022 C76.0016131,13.3493196 84.575096,13.1257593 89.7904796,13.2416042 C92.8032497,13.3086722 96.0580541,13.4489055 96.9228964,13.5474752 C98.0419253,13.6755142 98.8277772,14.2567708 99.3715949,15.3593291 C99.7827494,16.1915829 99.9133872,16.8399075 100.080482,18.8377229 C100.21112,20.4189033 100.243526,21.4046006 100.219221,23.2306811 C100.191879,25.4154742 100.053139,27.3401244 99.8455365,28.4203267 C99.6267942,29.5625162 99.1103194,30.5360193 98.4409274,31.0634182 C97.9254652,31.4709075 97.3755714,31.6528042 96.5097165,31.701581 C96.2524917,31.7168237 95.9274164,31.7371474 95.7866516,31.7483254 C95.2884053,31.7869403 92.6169137,31.8946557 91.1515428,31.9363192 C88.9742467,31.9972902 85.164485,32.01863 83.0925093,31.9820474 Z M80.405713,12.1610599 C80.3692559,12.1011051 80.3753321,8.59019349 80.4117891,8.0932801 C80.4593858,7.45613348 80.3520401,6.95413917 79.8963269,5.67171648 C79.7484734,5.25609771 79.4811217,4.44924856 79.3028872,3.88018619 C78.0137254,-0.234337977 78.081576,0.00649734776 78.2051249,0.00548116496 C79.0547767,-0.00163211466 80.1029169,0.00344879936 80.1150692,0.015642993 C80.1231708,0.0237724554 80.3986241,1.02776106 80.7277502,2.24819661 C81.0578891,3.46761598 81.3323296,4.4827826 81.3394185,4.50513862 C81.3454947,4.52546227 81.5389196,3.81515049 81.7688015,2.92599054 C82.2498321,1.06027891 82.5202219,0.030885735 82.5303488,0.0217400898 C82.5516154,0.00141643375 82.7906116,-0.00264829746 83.5734255,0.00141643375 L84.4392805,0.00649734776 L84.4200392,0.145714392 C84.4048488,0.258510683 83.8134344,2.25022898 83.1946773,4.27344894 C83.1278394,4.49700915 82.9546684,5.0731848 82.8118783,5.55485545 C82.6690881,6.03550992 82.4969299,6.60660465 82.4280665,6.82406777 L82.3035049,7.22037907 L82.3035049,9.69173564 C82.3035049,12.0096486 82.2984415,12.1651246 82.2295782,12.1834159 C82.073623,12.2260956 80.4330557,12.2057719 80.405713,12.1610599 Z M91.5960019,12.3094225 C91.1686443,12.2525163 90.9185084,12.0868785 90.7473628,11.7464573 C90.5326713,11.3196605 90.5326713,11.3216929 90.5326713,7.06896783 L90.5326713,3.10077398 L91.3954882,3.10077398 L92.2572923,3.10077398 L92.2755209,6.75903207 C92.2947621,10.7323068 92.2896986,10.6398342 92.5266694,10.699789 C92.744399,10.7536467 92.9854206,10.6367857 93.2851786,10.3298984 L93.5727842,10.0362216 L93.5839239,6.56798971 L93.5940508,3.10077398 L94.455855,3.08857979 L95.3176591,3.07841796 L95.3176591,7.61973891 L95.3176591,12.162076 L95.2001864,12.1864644 C95.0594217,12.2159337 93.7530441,12.2139014 93.6477237,12.1834159 C93.5839239,12.1661408 93.5737969,12.1072022 93.5737969,11.7515382 L93.5737969,11.338968 L93.3287245,11.5787871 C92.7656656,12.128542 92.1580481,12.3846201 91.5960019,12.3094225 L91.5960019,12.3094225 Z M87.2535622,10.5747985 C87.5492694,10.3492059 87.5512948,10.3298984 87.5664852,7.77623106 C87.5796503,5.79162605 87.5725614,5.45425336 87.5128123,5.18394873 C87.4317967,4.81812292 87.2900192,4.64537184 87.0125406,4.56915813 C86.6540463,4.47363695 86.3259328,4.67890588 86.2104855,5.07216862 C86.1233936,5.3749911 86.1244063,9.87668091 86.2125109,10.1795034 C86.2793488,10.4071283 86.4930276,10.6560931 86.6510082,10.6906433 C86.8565854,10.7343392 87.1087467,10.6855624 87.2545749,10.5747985 L87.2535622,10.5747985 Z M86.5780941,12.3073902 C85.8064198,12.2139014 85.0975328,11.7586515 84.7562543,11.1367476 C84.4088996,10.5036657 84.3764933,10.1723901 84.3967472,7.3839845 C84.4129504,5.22459604 84.4190266,5.08944373 84.504093,4.77950797 C84.7076449,4.04277544 85.1015835,3.54078114 85.7122391,3.23694248 C86.5507513,2.82132371 87.4550887,2.8751814 88.2460041,3.3893699 C88.7503266,3.71556458 89.0561608,4.18910577 89.2202175,4.89332045 C89.2921189,5.20427239 89.2992078,5.44307534 89.2992078,7.62380364 C89.2992078,10.2760408 89.2870554,10.4294844 89.015653,11.0036276 C88.7553901,11.5574473 88.1660011,12.045215 87.5512948,12.2169499 C87.2798923,12.2911313 86.8089887,12.3358433 86.5780941,12.3073902 L86.5780941,12.3073902 Z" id="Shape"></path>
                        </g>
                    </g>
                </g>
            </g>
        </g>
    </g>
</svg>