<?xml version="1.0" encoding="UTF-8"?>
<svg width="40px" height="23px" viewBox="0 0 40 23" version="1.1" xmlns="http://www.w3.org/2000/svg" xmlns:xlink="http://www.w3.org/1999/xlink">
    <!-- Generator: Sketch 42 (36781) - http://www.bohemiancoding.com/sketch -->
    <title>vk</title>
    <desc>Created with Sketch.</desc>
    <defs></defs>
    <g id="Page-1" stroke="none" stroke-width="1" fill="none" fill-rule="evenodd">
        <g id="Desktop-HD-updated" transform="translate(-807.000000, -1887.000000)" fill="#FFFFFF">
            <g id="bying-pop-up" transform="translate(0.000000, 916.000000)">
                <g id="thank-you-page">
                    <g id="Group" transform="translate(594.000000, 931.000000)">
                        <g id="socials" transform="translate(0.000000, 34.000000)">
                            <g id="vk" transform="translate(213.000000, 6.400000)">
                                <path d="M21.96166,22.3063752 C21.96166,22.3063752 22.6835722,22.2276389 23.0533321,21.8377983 C23.3917895,21.4806044 23.3800511,20.8065451 23.3800511,20.8065451 C23.3800511,20.8065451 23.3350539,17.6590144 24.8238754,17.1942784 C26.2911765,16.7372239 28.1751912,20.2381076 30.1746335,21.5843059 C31.6849755,22.6021163 32.8314267,22.3793502 32.8314267,22.3793502 L38.1743592,22.3063752 C38.1743592,22.3063752 40.9681006,22.1373802 39.6436168,19.9807744 C39.5340583,19.8040979 38.8708382,18.3849245 35.6721217,15.4697619 C32.320806,12.418251 32.7707783,12.9117931 36.8048782,7.63262175 C39.2621185,4.41787718 40.244232,2.45523146 39.937077,1.61601797 C39.6455732,0.813292033 37.8378582,1.0264561 37.8378582,1.0264561 L31.82388,1.06294364 C31.82388,1.06294364 31.3778204,1.00341133 31.0471886,1.19737143 C30.7243823,1.38749073 30.5150474,1.83110244 30.5150474,1.83110244 C30.5150474,1.83110244 29.5642362,4.31801654 28.2945317,6.43429402 C25.616218,10.8972966 24.5460664,11.1335055 24.1078325,10.8569683 C23.0885473,10.2097945 23.3428795,8.26059156 23.3428795,6.87598533 C23.3428795,2.54933091 24.0119688,0.746078138 22.0418725,0.279421669 C21.3884344,0.123869513 20.9071596,0.0220884726 19.2344363,0.00480489971 C17.0882639,-0.0163194672 15.2727233,0.0124864877 14.2436561,0.506028514 C13.5589156,0.8344164 13.0306872,1.56800805 13.3534934,1.61025678 C13.7506429,1.6621075 14.6505876,1.84838601 15.1279496,2.48595781 C15.7442161,3.30980812 15.7226957,5.15723003 15.7226957,5.15723003 C15.7226957,5.15723003 16.0768043,10.2501228 14.8951378,10.8819335 C14.0851876,11.3159432 12.9739516,10.4306402 10.5851853,6.38052291 C9.36243439,4.30649416 8.43901288,2.01354015 8.43901288,2.01354015 C8.43901288,2.01354015 8.26098035,1.58529162 7.9420869,1.35484398 C7.55667581,1.07638642 7.0186654,0.989968556 7.0186654,0.989968556 L1.30401662,1.0264561 C1.30401662,1.0264561 0.445156367,1.04950086 0.130175726,1.41629669 C-0.149589688,1.74084378 0.108655309,2.41490312 0.108655309,2.41490312 C0.108655309,2.41490312 4.58294553,12.6909474 9.65002541,17.8702581 C14.296479,22.6174795 19.5709374,22.3063752 19.5709374,22.3063752 L21.96166,22.3063752 Z" id="Shape"></path>
                            </g>
                        </g>
                    </g>
                </g>
            </g>
        </g>
    </g>
</svg>