<?xml version="1.0" encoding="UTF-8"?>
<svg width="33px" height="32px" viewBox="0 0 33 32" version="1.1" xmlns="http://www.w3.org/2000/svg" xmlns:xlink="http://www.w3.org/1999/xlink">
    <!-- Generator: Sketch 42 (36781) - http://www.bohemiancoding.com/sketch -->
    <title>instagram</title>
    <desc>Created with Sketch.</desc>
    <defs></defs>
    <g id="Page-1" stroke="none" stroke-width="1" fill="none" fill-rule="evenodd">
        <g id="Desktop-HD-updated" transform="translate(-734.000000, -1881.000000)" fill="#FFFFFF">
            <g id="bying-pop-up" transform="translate(0.000000, 916.000000)">
                <g id="thank-you-page">
                    <g id="Group" transform="translate(594.000000, 931.000000)">
                        <g id="socials" transform="translate(0.000000, 34.000000)">
                            <g id="instagram" transform="translate(140.933333, 0.000000)">
                                <path d="M25.8156162,0 L6.18438382,0 C2.77516463,0 0,2.77328316 0,6.18438382 L0,25.8156162 C0,29.2267168 2.77516463,32 6.18438382,32 L25.8156162,32 C29.2248354,32 32,29.2267168 32,25.8156162 L32,6.18438382 C32,2.77328316 29.2248354,0 25.8156162,0 L25.8156162,0 Z M27.5898401,3.68955786 L28.2972719,3.68579492 L28.2972719,9.11006585 L22.8899341,9.12699906 L22.8711195,3.70272813 L27.5898401,3.68955786 L27.5898401,3.68955786 Z M11.4336783,12.7149577 C12.4571966,11.2963311 14.1204139,10.3668862 16,10.3668862 C17.8795861,10.3668862 19.5428034,11.2963311 20.5663217,12.7149577 C21.2342427,13.6406397 21.6331138,14.7732832 21.6331138,16 C21.6331138,19.1044214 19.1063029,21.6312324 16,21.6312324 C12.8955786,21.6312324 10.3687676,19.1044214 10.3687676,16 C10.3687676,14.7732832 10.7676388,13.6406397 11.4336783,12.7149577 L11.4336783,12.7149577 Z M28.8824083,25.8156162 C28.8824083,27.5070555 27.5070555,28.8824083 25.8156162,28.8824083 L6.18438382,28.8824083 C4.4929445,28.8824083 3.11759172,27.5070555 3.11759172,25.8156162 L3.11759172,12.7149577 L7.89651929,12.7149577 C7.48259643,13.7309501 7.25117592,14.8391345 7.25117592,16 C7.25117592,20.8240828 11.1759172,24.7507056 16,24.7507056 C20.8259643,24.7507056 24.7507056,20.8240828 24.7507056,16 C24.7507056,14.8391345 24.5155221,13.7309501 24.1053622,12.7149577 L28.8824083,12.7149577 L28.8824083,25.8156162 L28.8824083,25.8156162 Z" id="Shape"></path>
                            </g>
                        </g>
                    </g>
                </g>
            </g>
        </g>
    </g>
</svg>