<svg xmlns="http://www.w3.org/2000/svg" viewBox="0 0 24 24"><defs><style>.cls-1{fill:#fff;}</style></defs><title>warranty</title><g id="Layer_2" data-name="Layer 2"><g id="Layer_1-2" data-name="Layer 1"><path class="cls-1" d="M23.71,12.7a1,1,0,0,0,0-1.39L22.2,9.78a1,1,0,0,1-.25-1l.55-2.08a1,1,0,0,0-.7-1.21L19.72,5a1,1,0,0,1-.7-.7l-.56-2.08a1,1,0,0,0-1.21-.7l-2.08.55a1,1,0,0,1-1-.25L12.7.29a1,1,0,0,0-1.39,0L9.78,1.8a1,1,0,0,1-1,.25L6.75,1.51a1,1,0,0,0-1.21.7L5,4.28a1,1,0,0,1-.7.7l-2.08.56a1,1,0,0,0-.7,1.21l.55,2.08a1,1,0,0,1-.25,1L.29,11.3a1,1,0,0,0,0,1.39L1.8,14.22a1,1,0,0,1,.25,1l-.55,2.08a1,1,0,0,0,.7,1.21L4.28,19a1,1,0,0,1,.7.7l.56,2.08a1,1,0,0,0,1.21.7l2.08-.55a1,1,0,0,1,1,.25l1.53,1.52a1,1,0,0,0,1.39,0l1.53-1.52a1,1,0,0,1,1-.25l2.08.55a1,1,0,0,0,1.21-.7L19,19.72a1,1,0,0,1,.7-.7l2.08-.56a1,1,0,0,0,.7-1.21l-.55-2.08a1,1,0,0,1,.25-1ZM10,17.41,5.29,12.71l1.41-1.41L10,14.59l7.29-7.29,1.41,1.41Z"/></g></g></svg>