<svg xmlns="http://www.w3.org/2000/svg" viewBox="0 0 16 28.17"><defs><style>.cls-1{fill:#fff;}</style></defs><title>weight</title><g id="Layer_2" data-name="Layer 2"><g id="Layer_1-2" data-name="Layer 1"><path class="cls-1" d="M8,0S2.55-.31,2.71,2.53c0,0-.47,1.57,1.91,2,0,0,2.08-.16,1.76,1.57,0,0,.53,1.73-4.57,1.57,0,0-2.15.07-1.76,3.15V27.23s-.19.94,1.06.94H14.89c1.25,0,1.06-.94,1.06-.94V10.87c.38-3.07-1.76-3.15-1.76-3.15-5.1.16-4.57-1.57-4.57-1.57-.31-1.73,1.76-1.57,1.76-1.57,2.38-.47,1.91-2,1.91-2C13.45-.31,8,0,8,0"/></g></g></svg>