<?xml version="1.0" encoding="UTF-8"?>
<svg width="10px" height="11px" viewBox="0 0 10 11" version="1.1" xmlns="http://www.w3.org/2000/svg" xmlns:xlink="http://www.w3.org/1999/xlink">
    <!-- Generator: Sketch 50.2 (55047) - http://www.bohemiancoding.com/sketch -->
    <title>Icon</title>
    <desc>Created with Sketch.</desc>
    <defs></defs>
    <g id="Page-1" stroke="none" stroke-width="1" fill="none" fill-rule="evenodd">
        <g id="yura_1280_main" transform="translate(-1176.000000, -4651.000000)" fill="#7F8FA4">
            <path d="M1182.59159,4653.66758 C1181.36968,4652.44568 1179.38949,4652.44568 1178.16758,4653.66758 C1176.94568,4654.88949 1176.94568,4656.86968 1178.16758,4658.09159 C1179.38949,4659.31349 1181.36968,4659.31349 1182.59159,4658.09159 C1183.81349,4656.86968 1183.81349,4654.88949 1182.59159,4653.66758 M1185.845,4661.345 C1185.60036,4661.589 1185.20433,4661.589 1184.95969,4661.345 L1182.98951,4659.37418 C1181.27396,4660.65678 1178.84141,4660.5354 1177.28291,4658.97627 C1175.57236,4657.26635 1175.57236,4654.49345 1177.28291,4652.78291 C1178.99282,4651.07236 1181.76635,4651.07236 1183.47627,4652.78291 C1185.0354,4654.34141 1185.15678,4656.77396 1183.87418,4658.48951 L1185.845,4660.46032 C1186.089,4660.70433 1186.089,4661.10036 1185.845,4661.345" id="Icon"></path>
        </g>
    </g>
</svg>