<?xml version="1.0" encoding="UTF-8"?>
<svg width="15px" height="14px" viewBox="0 0 15 14" version="1.1" xmlns="http://www.w3.org/2000/svg" xmlns:xlink="http://www.w3.org/1999/xlink">
    <!-- Generator: Sketch 50.2 (55047) - http://www.bohemiancoding.com/sketch -->
    <title>ic_add_shop</title>
    <desc>Created with Sketch.</desc>
    <defs></defs>
    <g id="Page-1" stroke="none" stroke-width="1" fill="none" fill-rule="evenodd">
        <g id="yura_1280_main" transform="translate(-1053.000000, -46.000000)" fill="#DF0714">
            <g id="ic_add_shop" transform="translate(1048.000000, 41.000000)">
                <g id="ic_add_shopping_cart_24px" transform="translate(5.000000, 5.000000)">
                    <path d="M4.24581524,11.2 C3.46741578,11.2 2.83761985,11.83 2.83761985,12.6 C2.83761985,13.37 3.46741578,14 4.24581524,14 C5.0242147,14 5.66108698,13.37 5.66108698,12.6 C5.66108698,11.83 5.0242147,11.2 4.24581524,11.2 Z M13.0346528,1.4 L5.66108698,1.4 L5.66108698,0 L14.8603533,0 L14.8603533,1.4 L14.875,1.4 L11.5344647,6.979 C11.2938685,7.413 10.8268289,7.7 10.296102,7.7 L5.0242147,7.7 L4.38734241,8.841 L4.36611334,8.925 C4.36611334,9.023 4.45102964,9.1 4.5430223,9.1 L12.7374457,9.1 L12.7374457,10.5 L4.24581524,10.5 C3.46741578,10.5 2.83054349,9.87 2.83054349,9.1 C2.83054349,8.855 2.89423072,8.624 3.00745246,8.428 L3.96276089,6.713 L1.41527175,1.4 L0,1.4 L0,0 L2.3139693,0 L2.97914703,1.4 L3.6514011,2.8 L5.23650546,6.111 L5.32849812,6.3 L10.296102,6.3 L12.249177,2.8 L13.0346528,1.4 Z M11.322174,11.2 C12.1005734,11.2 12.7374457,11.83 12.7374457,12.6 C12.7374457,13.37 12.1005734,14 11.322174,14 C10.5437745,14 9.91397858,13.37 9.91397858,12.6 C9.91397858,11.83 10.5437745,11.2 11.322174,11.2 Z" id="Shape" fill-rule="nonzero"></path>
                </g>
            </g>
        </g>
    </g>
</svg>