<?xml version="1.0" encoding="UTF-8"?>
<svg width="10px" height="14px" viewBox="0 0 10 14" version="1.1" xmlns="http://www.w3.org/2000/svg" xmlns:xlink="http://www.w3.org/1999/xlink">
    <!-- Generator: Sketch 50.2 (55047) - http://www.bohemiancoding.com/sketch -->
    <title>ic_place</title>
    <desc>Created with Sketch.</desc>
    <defs></defs>
    <g id="Page-1" stroke="none" stroke-width="1" fill="none" fill-rule="evenodd">
        <g id="yura_1280_main" transform="translate(-489.000000, -46.000000)" fill="#DF0714">
            <g id="ic_place" transform="translate(482.000000, 41.000000)">
                <g id="ic_place_24px" transform="translate(7.000000, 5.000000)">
                    <path d="M4.9,0 C2.191,0 0,2.191 0,4.9 C0,8.575 4.9,14 4.9,14 C4.9,14 9.8,8.575 9.8,4.9 C9.8,2.191 7.609,0 4.9,0 Z M4.9,8.225 C3.0646,8.225 1.575,6.7354 1.575,4.9 C1.575,3.0646 3.0646,1.575 4.9,1.575 C6.7354,1.575 8.225,3.0646 8.225,4.9 C8.225,6.7354 6.7354,8.225 4.9,8.225 Z" id="Shape" fill-rule="nonzero"></path>
                </g>
            </g>
        </g>
    </g>
</svg>