<?xml version="1.0" encoding="UTF-8"?>
<svg width="14px" height="14px" viewBox="0 0 14 14" version="1.1" xmlns="http://www.w3.org/2000/svg" xmlns:xlink="http://www.w3.org/1999/xlink">
    <!-- Generator: Sketch 50.2 (55047) - http://www.bohemiancoding.com/sketch -->
    <title>ic_search</title>
    <desc>Created with Sketch.</desc>
    <defs></defs>
    <g id="Page-1" stroke="none" stroke-width="1" fill="none" fill-rule="evenodd">
        <g id="yura_1280_main" transform="translate(-806.000000, -46.000000)" fill="#DF0714">
            <g id="ic_search" transform="translate(801.000000, 41.000000)">
                <path d="M14.2024582,8.02614175 C12.4965685,6.32025206 9.73203144,6.32025206 8.02614175,8.02614175 C6.32025206,9.73203144 6.32025206,12.4965685 8.02614175,14.2024582 C9.73203144,15.9083479 12.4965685,15.9083479 14.2024582,14.2024582 C15.9083479,12.4965685 15.9083479,9.73203144 14.2024582,8.02614175 M18.7445096,18.7445096 C18.4029823,19.0851635 17.8500749,19.0851635 17.5085475,18.7445096 L14.757986,15.9930746 C12.3629274,17.783691 8.96687048,17.6142376 6.79105316,15.4375468 C4.40298228,13.0503494 4.40298228,9.17912403 6.79105316,6.79105316 C9.17825056,4.40298228 13.0503494,4.40298228 15.4375468,6.79105316 C17.6142376,8.96687048 17.783691,12.3629274 15.9930746,14.757986 L18.7445096,17.509421 C19.0851635,17.8500749 19.0851635,18.4029823 18.7445096,18.7445096" id="Icon"></path>
            </g>
        </g>
    </g>
</svg>