<?xml version="1.0" encoding="UTF-8"?>
<svg width="14px" height="18px" viewBox="0 0 14 18" version="1.1" xmlns="http://www.w3.org/2000/svg" xmlns:xlink="http://www.w3.org/1999/xlink">
    <!-- Generator: Sketch 50.2 (55047) - http://www.bohemiancoding.com/sketch -->
    <title>ic_place</title>
    <desc>Created with Sketch.</desc>
    <defs></defs>
    <g id="Page-1" stroke="none" stroke-width="1" fill="none" fill-rule="evenodd">
        <g id="yura_1280_main" transform="translate(-492.000000, -2571.000000)" fill="#DF0714">
            <g id="ic_place" transform="translate(484.000000, 2565.000000)">
                <g id="ic_place_24px" transform="translate(8.842105, 6.315789)">
                    <path d="M6.18947368,0 C2.76757895,0 0,2.76757895 0,6.18947368 C0,10.8315789 6.18947368,17.6842105 6.18947368,17.6842105 C6.18947368,17.6842105 12.3789474,10.8315789 12.3789474,6.18947368 C12.3789474,2.76757895 9.61136842,0 6.18947368,0 Z M6.18947368,10.3894737 C3.87107368,10.3894737 1.98947368,8.50787368 1.98947368,6.18947368 C1.98947368,3.87107368 3.87107368,1.98947368 6.18947368,1.98947368 C8.50787368,1.98947368 10.3894737,3.87107368 10.3894737,6.18947368 C10.3894737,8.50787368 8.50787368,10.3894737 6.18947368,10.3894737 Z" id="Shape" fill-rule="nonzero"></path>
                </g>
            </g>
        </g>
    </g>
</svg>