<?xml version="1.0" encoding="UTF-8"?>
<svg width="9px" height="6px" viewBox="0 0 9 6" version="1.1" xmlns="http://www.w3.org/2000/svg" xmlns:xlink="http://www.w3.org/1999/xlink">
    <!-- Generator: Sketch 50.2 (55047) - http://www.bohemiancoding.com/sketch -->
    <title>Icon</title>
    <desc>Created with Sketch.</desc>
    <defs></defs>
    <g id="Page-1" stroke="none" stroke-width="1" fill="none" fill-rule="evenodd">
        <g id="yura_768_catalog" transform="translate(-493.000000, -415.000000)" fill="#DF0714">
            <g id="Icon" transform="translate(497.500000, 418.000000) rotate(-90.000000) translate(-497.500000, -418.000000) translate(495.000000, 414.000000)">
                <path d="M4.83049159,6.68862295 L2.38023398,4.3840128 C2.15479206,4.17173906 2.15479206,3.82826094 2.38023398,3.6159872 L4.83049159,1.31137705 C5.0565028,1.0991033 5.0565028,0.755091836 4.83049159,0.542818094 L4.42230509,0.158805294 C4.19686317,-0.0529350978 3.8308047,-0.0529350978 3.60536279,0.158805294 L0.338162876,3.2319744 C-0.112720959,3.65598853 -0.112720959,4.34401147 0.338162876,4.7680256 L3.60536279,7.84119471 C3.8308047,8.0529351 4.19686317,8.0529351 4.42230509,7.84119471 L4.83049159,7.45718191 C5.0565028,7.24490816 5.0565028,6.9008967 4.83049159,6.68862295" transform="translate(2.500000, 4.000000) scale(1, -1) rotate(-360.000000) translate(-2.500000, -4.000000) "></path>
            </g>
        </g>
    </g>
</svg>