<?xml version="1.0" encoding="UTF-8"?>
<svg width="30px" height="30px" viewBox="0 0 30 30" version="1.1" xmlns="http://www.w3.org/2000/svg" xmlns:xlink="http://www.w3.org/1999/xlink">
    <!-- Generator: Sketch 43.1 (39012) - http://www.bohemiancoding.com/sketch -->
    <title>Group 3</title>
    <desc>Created with Sketch.</desc>
    <defs></defs>
    <g id="Page-1" stroke="none" stroke-width="1" fill="none" fill-rule="evenodd">
        <g id="dashboard-@0.5-1920-x-1080" transform="translate(-41.000000, -929.000000)">
            <g id="Group-8" transform="translate(24.000000, 904.000000)">
                <g id="Group-3" transform="translate(16.000000, 24.000000)">
                    <g id="Glyphs-/-Navigation-Bar-/-Information">
                        <polygon id="Bounds" points="0 0 32 0 32 32 0 32"></polygon>
                        <path d="M16,1.33333333 C7.89973333,1.33333333 1.33333333,7.89973333 1.33333333,16 C1.33333333,24.1002667 7.89973333,30.6666667 16,30.6666667 C24.1002667,30.6666667 30.6666667,24.1002667 30.6666667,16 C30.6666667,7.89973333 24.1002667,1.33333333 16,1.33333333 L16,1.33333333 Z M16,2.66666667 C23.3638667,2.66666667 29.3333333,8.63606667 29.3333333,16 C29.3333333,23.3638667 23.3638667,29.3333333 16,29.3333333 C8.63606667,29.3333333 2.66666667,23.3638667 2.66666667,16 C2.66666667,8.63606667 8.63606667,2.66666667 16,2.66666667 L16,2.66666667 Z M17.3333333,13.3333333 L17.3333333,23.3333333 L18.6666667,23.3333333 L18.6666667,24 L17.3333333,24 L14.6666667,24 L13.3333333,24 L13.3333333,23.3333333 L14.6666667,23.3333333 L14.6666667,13.3333333 L13.3333333,13.3333333 L13.3333333,12.6666667 L17.3333333,12.6666667 L17.3333333,13.3333333 L17.3333333,13.3333333 Z M17.3333333,9.66666667 C17.3333333,10.58724 16.5872,11.3333333 15.6666667,11.3333333 C14.7461333,11.3333333 14,10.58724 14,9.66666667 C14,8.74609333 14.7461333,8 15.6666667,8 C16.5872,8 17.3333333,8.74609333 17.3333333,9.66666667 L17.3333333,9.66666667 Z" id="Information" fill="#FFFFFF"></path>
                    </g>
                </g>
            </g>
        </g>
    </g>
</svg>