<?xml version="1.0" encoding="UTF-8"?>
<svg width="155px" height="32px" viewBox="0 0 155 32" version="1.1" xmlns="http://www.w3.org/2000/svg" xmlns:xlink="http://www.w3.org/1999/xlink">
    <!-- Generator: Sketch 43.1 (39012) - http://www.bohemiancoding.com/sketch -->
    <title>bork_logo_white</title>
    <desc>Created with Sketch.</desc>
    <defs></defs>
    <g id="Page-1" stroke="none" stroke-width="1" fill="none" fill-rule="evenodd">
        <g id="dashboard-@0.5-1920-x-1080" transform="translate(-56.000000, -40.000000)" fill="#FFFFFF">
            <g id="Group-7" transform="translate(24.000000, 16.000000)">
                <g id="bork_logo_white" transform="translate(32.000000, 24.000000)">
                    <g id="Layer_2">
                        <g>
                            <g id="Layer_1-2">
                                <path d="M133.553648,14.6707873 L153.480093,1.55049438 C153.823393,1.38407025 153.999442,0.996706527 153.89906,0.62863685 C153.798677,0.260567172 153.450342,0.0162174513 153.070084,0.0471274888 L145.935924,0.0471274888 C145.546831,0.0443844235 145.165896,0.15866471 144.842567,0.375134811 L125.708806,13.2220883 L125.708806,1.03114945 C125.711923,0.527673318 125.334489,0.103060708 124.83412,0.0471274888 L120.269351,0.0471274888 C119.725891,0.0471274888 119.285329,0.48768913 119.285329,1.03114945 L119.285329,30.1144653 C119.285329,30.6579257 119.725891,31.0984873 120.269351,31.0984873 L124.943456,31.0984873 C125.411198,31.0058577 125.745224,30.5912048 125.73614,30.1144653 L125.73614,16.5841633 L145.799255,30.6884782 C146.117846,30.9178231 146.500061,31.0420429 146.892612,31.0438194 L154.08144,31.0438194 C154.45295,31.0442331 154.778324,30.7948299 154.874448,30.43597 C154.970571,30.07711 154.813425,29.6984602 154.491449,29.5131186 L133.553648,14.6707873 Z" id="Shape"></path>
                                <path d="M75.2230125,18.5248733 L68.1708551,18.5248733 L68.1708551,25.6590326 L46.467704,25.6590326 L46.467704,18.5248733 L39.4155465,18.5248733 L39.4155465,25.0576858 C39.4155465,29.1851113 41.4929262,31.0438194 46.1396966,31.0438194 L68.5261964,31.0438194 C73.1456328,31.0438194 75.2503465,29.1851113 75.2503465,25.0576858 L75.2230125,18.5248733 Z" id="Shape"></path>
                                <path d="M68.4988624,0.0471274888 L46.1396966,0.0471274888 C41.5202602,0.0471274888 39.4155465,1.90583565 39.4155465,6.03326112 L39.4155465,12.5660736 L46.467704,12.5660736 L46.467704,5.51391619 L68.1708551,5.51391619 L68.1708551,12.5660736 L75.2230125,12.5660736 L75.2230125,6.06059506 C75.2230125,1.90583565 73.1456328,0.0471274888 68.4988624,0.0471274888" id="Shape"></path>
                                <path d="M114.802563,29.5677865 L102.830295,19.1808879 L106.903053,19.1808879 C111.522489,19.1808879 113.627203,17.3221798 113.627203,13.1947543 L113.627203,6.03326112 C113.654537,1.90583565 111.549823,0.0471274888 106.903053,0.0471274888 L81.7284911,0.0471274888 C81.0793579,0.0471274888 80.5531315,0.573353893 80.5531315,1.22248706 L80.5531315,30.1144653 C80.5531315,30.6579257 80.9936931,31.0984873 81.5371535,31.0984873 L86.1839239,31.0984873 C86.7273842,31.0984873 87.1679458,30.6579257 87.1679458,30.1144653 L87.1679458,19.1808879 L93.7280923,19.1808879 L106.957721,30.4698066 C107.334905,30.7758808 107.811956,30.9316527 108.297084,30.9071497 L114.392554,30.9071497 C114.669773,30.8363751 114.890061,30.626227 114.97381,30.3526471 C115.057559,30.0790672 114.992659,29.7816169 114.802563,29.5677865 L114.802563,29.5677865 Z M87.1952798,14.1241084 L87.1952798,5.34991253 L103.595646,5.34991253 C105.973699,5.34991253 106.957721,5.62325196 106.957721,8.08330688 L106.957721,11.418048 C106.957721,13.850769 105.973699,14.1514423 103.595646,14.1514423 L87.1952798,14.1241084 Z" id="Shape"></path>
                                <path d="M30.0673379,15.4361377 L30.0673379,15.4361377 C32.5932345,15.1443548 34.4983392,13.004052 34.4954367,10.46136 L34.4954367,6.06059506 C34.5501046,1.90583565 32.4727249,0.0471274888 27.8259545,0.0471274888 L1.12069168,0.0471274888 C0.818668673,0.0470376408 0.529394404,0.168854939 0.318420231,0.384974825 C0.107446057,0.60109471 -0.00736642858,0.89321994 -1.23490627e-16,1.19515312 L-1.23490627e-16,29.9231277 C7.67073037e-17,30.5420687 0.501750758,31.0438194 1.12069168,31.0438194 L26.9239344,31.0438194 C32.0627157,31.0438194 34.7961101,28.9391058 34.7961101,24.975684 L34.7961101,20.4109154 C34.7855926,17.7622033 32.7121144,15.5808563 30.0673379,15.4361377 L30.0673379,15.4361377 Z M6.61481433,5.34991253 L25.1198941,5.34991253 C26.9512683,5.34991253 27.8532884,6.22459872 27.8532884,8.08330688 L27.8532884,10.46136 C27.8532884,12.1560645 26.9239344,13.0307507 25.1198941,13.0307507 L6.61481433,13.0307507 L6.61481433,5.34991253 Z M28.0172921,23.1989776 C28.0172921,24.8936821 27.087938,25.7683683 25.2838977,25.7683683 L6.61481433,25.7683683 L6.61481433,18.196866 L25.2565638,18.196866 C27.087938,18.196866 27.9899581,19.0715522 27.9899581,20.9302603 L28.0172921,23.1989776 Z" id="Shape"></path>
                            </g>
                        </g>
                    </g>
                </g>
            </g>
        </g>
    </g>
</svg>