<?xml version="1.0" encoding="UTF-8"?>
<svg width="44px" height="50px" viewBox="0 0 44 50" version="1.1" xmlns="http://www.w3.org/2000/svg" xmlns:xlink="http://www.w3.org/1999/xlink">
    <!-- Generator: Sketch 50.2 (55047) - http://www.bohemiancoding.com/sketch -->
    <title>pdf</title>
    <desc>Created with Sketch.</desc>
    <defs></defs>
    <g id="Symbols" stroke="none" stroke-width="1" fill="none" fill-rule="evenodd">
        <g id="pdf">
            <g id="Page-1">
                <g>
                    <path d="M5.48709903,0 L5.48709903,49.9692308 L43.6304,49.9692308 L43.6304,10.1824786 L34.7206136,0 L5.48709903,0 Z M8.07711845,2.59102564 L30.9981282,2.59102564 L30.9981282,13.5175214 L41.0403806,13.5175214 L41.0403806,47.3782051 L8.07711845,47.3782051 L8.07711845,2.59102564 Z M33.5885748,2.64273504 L40.8408854,10.9264957 L33.5885748,10.9264957 L33.5885748,2.64273504 Z" id="Fill-1" fill="#DF0714"></path>
                    <polygon id="Fill-2" fill="#DF0714" points="0 21.1277778 25.899767 21.1277778 25.899767 9.06752137 0 9.06752137"></polygon>
                    <polygon id="Fill-3" fill="#DF0714" points="12.5801553 29.3636752 36.1368155 29.3636752 36.1368155 26.7106838 12.5801553 26.7106838"></polygon>
                    <polygon id="Fill-4" fill="#DF0714" points="12.5801553 35.0081197 36.1368155 35.0081197 36.1368155 32.3551282 12.5801553 32.3551282"></polygon>
                    <polygon id="Fill-5" fill="#DF0714" points="12.5801553 40.6529915 36.1368155 40.6529915 36.1368155 38 12.5801553 38"></polygon>
                    <g id="Group-12" transform="translate(5.126214, 12.362393)" fill="#FFFFFF">
                        <path d="M1.36865631,2.82384615 L2.52547184,2.82384615 C3.10772427,2.82384615 3.54046214,2.63196581 3.54046214,1.97470085 C3.54046214,1.34222222 3.10772427,1.1174359 2.53401553,1.1174359 L1.36865631,1.1174359 L1.36865631,2.82384615 Z M2.63354951,0.0520512821 C3.91467573,0.0520512821 4.80535534,0.651196581 4.80535534,1.95803419 C4.80535534,3.24820513 3.88989903,3.84735043 2.69976311,3.84735043 L1.36865631,3.84735043 L1.36865631,5.97811966 L0.0789864078,5.97811966 L0.0789864078,0.0520512821 L2.63354951,0.0520512821 Z" id="Fill-6"></path>
                        <path d="M7.86860971,4.89611111 C9.05831845,4.89611111 9.59101748,4.20508547 9.59101748,3.01491453 C9.59101748,1.82474359 9.04208544,1.1341453 7.86860971,1.1341453 L6.91983301,1.1341453 L6.91983301,4.89611111 L7.86860971,4.89611111 Z M5.63059029,0.0520940171 L8.02666796,0.0520940171 C9.8652699,0.0520940171 10.8973476,1.10081197 10.8973476,3.01491453 C10.8973476,4.92132479 9.8652699,5.97816239 8.02666796,5.97816239 L5.63059029,5.97816239 L5.63059029,0.0520940171 Z" id="Fill-8"></path>
                        <polygon id="Fill-10" points="15.9663184 1.14217949 13.0875223 1.14217949 13.0875223 2.51568376 15.5916777 2.51568376 15.5916777 3.54773504 13.0875223 3.54773504 13.0875223 5.97807692 11.7897359 5.97807692 11.7897359 0.052008547 15.9663184 0.052008547"></polygon>
                    </g>
                </g>
            </g>
        </g>
    </g>
</svg>